<?xml version="1.0" encoding="utf-8"?>
<!-- Generator: Adobe Illustrator 19.0.0, SVG Export Plug-In . SVG Version: 6.00 Build 0)  -->
<svg version="1.1" id="图层_1" xmlns="http://www.w3.org/2000/svg" xmlns:xlink="http://www.w3.org/1999/xlink" x="0px" y="0px"
	 viewBox="0 0 640 480" style="enable-background:new 0 0 640 480;" xml:space="preserve">
<g id="XMLID_2_">
	<path id="XMLID_20_" d="M337.1,211.4c-3.4,0-6.2,2.8-6.2,6.2v2.4h-17.2v-19.7c0-3.4-2.8-6.2-6.2-6.2c-3.4,0-6.2,2.8-6.2,6.2v42.1
		c0,3.4,2.8,6.2,6.2,6.2c3.4,0,6.2-2.8,6.2-6.2v-10h17.2v10c0,3.4,2.8,6.2,6.2,6.2s6.2-2.8,6.2-6.2v-24.8
		C343.3,214.2,340.5,211.4,337.1,211.4 M337.1,207.1c3.8,0,6.8-3.1,6.8-6.8c0-3.8-3.1-6.8-6.8-6.8s-6.8,3.1-6.8,6.8
		C330.2,204.1,333.3,207.1,337.1,207.1"/>
	<path id="XMLID_13_" d="M303,271.6c0,0.4-0.3,0.8-1,0.8h-12.5c-0.6,0-1-0.4-1-0.8v-1.3H303V271.6z M303,268.3h-14.5v-1.2
		c0-0.4,0.4-0.8,1-0.8H302c0.7,0,1,0.3,1,0.8V268.3z M306.4,272v-5.3c0-1.2-1.1-2.4-2.9-2.4h-7.8c0.5-0.7,0.6-0.9,0.6-1.1
		c0-0.7-0.9-1.2-1.9-1.2c-0.8,0-1.5,0.3-1.8,1.1c-0.2,0.4-0.3,0.9-0.5,1.2h-4c-1.9,0-2.9,1.2-2.9,2.4v5.3c0,1.3,1,2.4,2.9,2.4h15.4
		C305.4,274.4,306.4,273.3,306.4,272 M308.5,285.8c0-0.6-0.4-1.1-1.1-1.1h-9.8v-2.4h7.7c0.7,0,1.1-0.5,1.1-1.1
		c0-0.5-0.4-1.1-1.1-1.1h-7.7V278h8.8c0.7,0,1.1-0.5,1.1-1.1c0-0.5-0.3-1.1-1.1-1.1h-21.1c-0.7,0-1.1,0.5-1.1,1.1
		c0,0.5,0.3,1.1,1.1,1.1h8.8v2.1h-7.7c-0.7,0-1.1,0.5-1.1,1.1c0,0.5,0.4,1.1,1.1,1.1h7.7v2.4h-9.9c-0.7,0-1.1,0.6-1.1,1.1
		c0,0.6,0.3,1.1,1.1,1.1h23.3C308.1,287,308.5,286.4,308.5,285.8 M335.1,280.7v-0.1c0-0.8-0.6-1.2-1.2-1.2c-0.5,0-1.1,0.3-1.2,1
		c-0.3,2.5-0.9,3.3-2.7,3.5c-2.2,0.2-4.8,0.3-7.2,0.3c-5.6,0-6.1-0.2-6.1-1.5v-4.5c0-0.4,0.4-0.8,0.8-0.8h6.1c1.6,0,2.5-1.1,2.5-2.6
		v-3.4c0-1.5-1-2.5-2.5-2.5h-7.1c0.5-0.7,0.9-1.4,1.2-2.2h10.5c0.5,0,0.9,0.3,0.9,0.8c0,10.2-0.8,11.6-3.2,11.6
		c-0.5,0-1.2-0.1-1.8-0.2c-0.1,0-0.3-0.1-0.4-0.1c-0.6,0-1,0.5-1,1c0,0.5,0.3,0.9,0.9,1.1c1.3,0.4,2.4,0.6,3.3,0.6
		c4.7,0,5.5-3.6,5.5-14.2c0-1.6-1.1-2.7-2.8-2.7h-11c0.1-0.3,0.1-0.5,0.1-0.8c0-1.1-1-1.8-2-1.8c-0.8,0-1.5,0.4-1.8,1.3
		c-1.2,4.2-3,7.1-4.9,9.4c-0.3,0.3-0.4,0.6-0.4,0.9c0,0.6,0.5,1,1.1,1c0.3,0,0.7-0.1,1.1-0.5c1.2-1.1,2.4-2.3,3.5-3.8
		c0.2,0.3,0.5,0.5,1,0.5h5.7c0.4,0,0.7,0.4,0.7,0.7v2.8c0,0.4-0.3,0.7-0.7,0.7h-5.4V275c0-1.1-0.9-1.6-1.7-1.6
		c-0.9,0-1.7,0.5-1.7,1.6v0.1v0.6v2.2c0,0.1,0,0.2,0,0.4v4.6c0,4.4,2.7,4.5,9.6,4.5c2.7,0,5.7-0.1,8-0.4
		C333.3,286.6,334.8,285.5,335.1,280.7 M352.2,280.2v-3.6h6.7c0.8,0,1.2-0.7,1.2-1.2c0-0.5-0.4-1.2-1.2-1.2h-6.7v-2.8h0V271
		c0-1.1-1-1.6-1.8-1.6c-0.8,0-1.8,0.5-1.8,1.6v0.6h0v2.5h-5c1.2-1.2,3.4-3.6,5.3-5.8h11.1c0.8,0,1.2-0.5,1.2-1.1
		c0-0.5-0.4-1.1-1.2-1.1h-9.3c0.9-1.2,1.5-2.1,1.5-2.5c0-1-1.2-1.7-2.3-1.7c-0.7,0-1.5,0.3-1.8,1.1c-0.3,0.7-1,1.9-1.8,3.1h-7.7
		c-0.8,0-1.2,0.5-1.2,1.1c0,0.5,0.4,1.1,1.2,1.1h6.2c-1.6,2.3-3.4,4.6-4.3,5.8h-0.3c-0.8,0-1.2,0.7-1.2,1.2c0,0.5,0.4,1.2,1.2,1.2
		h8.3v3.6H338c-0.8,0-1.2,0.6-1.2,1.1c0,0.6,0.4,1.1,1.2,1.1h10.5v3.6c0,1.2,1,1.7,1.8,1.7s1.8-0.6,1.8-1.7v-3.6h8.9
		c0.8,0,1.2-0.6,1.2-1.1c0-0.5-0.4-1.1-1.2-1.1H352.2z"/>
	<path id="XMLID_3_" d="M361.4,304.1c0-1.6-1-2.8-3.9-3.5c-1.8-0.4-2.8-0.7-2.8-1.8c0-0.9,0.7-1.7,2.1-1.7c1.2,0,2.1,0.5,2.5,1.1
		c0.2,0.2,0.4,0.3,0.6,0.3c0.4,0,0.7-0.3,0.7-0.7c0-0.8-1.8-1.9-3.6-1.9c-2.3,0-4.2,1.1-4.2,3.3c0,1.5,1,2.6,3.6,3.2
		c2.1,0.5,3,1.1,3,2.1c0,0.8-0.9,1.8-2.5,1.8c-1.4,0-2.5-0.6-2.9-1.3c-0.2-0.2-0.4-0.3-0.5-0.3c-0.4,0-0.7,0.3-0.7,0.7
		c0,0.7,1.7,2.3,4.3,2.3C359.5,307.6,361.4,306.2,361.4,304.1 M351.3,306H346c-0.3,0-0.5-0.2-0.5-0.5V302h4.9c0.5,0,0.7-0.3,0.7-0.6
		c0-0.3-0.2-0.6-0.7-0.6h-4.9v-2.8c0-0.3,0.2-0.5,0.5-0.5h4.9c0.4,0,0.7-0.3,0.7-0.6c0-0.3-0.2-0.7-0.7-0.7H345
		c-0.8,0-1.5,0.5-1.5,1.4v8.4c0,0.8,0.5,1.4,1.5,1.4h6.3c0.4,0,0.7-0.3,0.7-0.6C351.9,306.3,351.7,306,351.3,306 M339.7,301.5
		c0,3-1.5,4.6-4,4.6l-1.3,0c-0.4,0-0.6-0.2-0.6-0.5v-7.8c0-0.3,0.2-0.5,0.5-0.5h1.2C338.2,297.2,339.7,298.4,339.7,301.5
		 M341.8,301.5c0-4-2.7-5.4-6.3-5.4h-2.2c-0.7,0-1.5,0.5-1.5,1.5v8.3c0,0.9,0.7,1.4,1.6,1.4h2.2
		C339.2,307.3,341.8,305.8,341.8,301.5 M329.6,306.4V297c0-0.7-0.5-1-1-1c-0.5,0-1,0.3-1,1v9.4c0,0.7,0.5,1,1,1
		C329.1,307.4,329.6,307.1,329.6,306.4 M325.4,302.3v-5.6c0-0.5-0.4-0.7-0.8-0.7c-0.4,0-0.7,0.2-0.7,0.7v5.6c0,2-0.7,3.9-2.9,3.9
		c-2,0-3.1-1.1-3.1-3.8V297c0-0.7-0.5-1-1-1c-0.5,0-1,0.3-1,1v5.5c0,3,1.3,5.1,4.9,5.1C323.7,307.6,325.4,306,325.4,302.3
		 M314,306.5v-3.8c0-0.7-0.6-1.5-1.5-1.5h-2.9c-0.4,0-0.7,0.3-0.7,0.7c0,0.3,0.2,0.6,0.6,0.6h2.2c0.2,0,0.4,0.2,0.4,0.5v2.5
		c0,0.8-1.6,1-2.1,1c-2.3,0-4-1.3-4-4.5c0-3.4,1.9-4.8,3.7-4.8c1.2,0,2.1,0.4,2.8,1.3c0.2,0.2,0.4,0.3,0.6,0.3
		c0.4,0,0.7-0.3,0.7-0.7c0-0.7-1.5-2.1-4-2.1c-3.1,0-5.9,2.1-5.9,6.2c0,3.6,2.4,5.6,5.6,5.6c1.5,0,2.3-0.3,2.7-0.5
		c0.2,0.2,0.6,0.3,0.9,0.3C313.5,307.4,314,307.1,314,306.5 M297.6,306.4V297c0-0.7-0.5-1-1-1c-0.5,0-1,0.3-1,1v9.4c0,0.7,0.5,1,1,1
		C297.1,307.4,297.6,307.1,297.6,306.4 M293.4,306.4V297c0-0.7-0.5-1-1-1c-0.5,0-1,0.3-1,1v3.7h-5.6V297c0-0.7-0.5-1-1-1
		c-0.5,0-1,0.3-1,1v9.4c0,0.7,0.5,1,1,1c0.5,0,1-0.3,1-1v-4.5h5.6v4.5c0,0.7,0.5,1,1,1C292.9,307.4,293.4,307.1,293.4,306.4"/>
</g>
</svg>
