<?xml version="1.0" encoding="utf-8"?>
<!-- Generator: Adobe Illustrator 19.0.0, SVG Export Plug-In . SVG Version: 6.00 Build 0)  -->
<svg version="1.1" id="ICON_1_" xmlns="http://www.w3.org/2000/svg" xmlns:xlink="http://www.w3.org/1999/xlink" x="0px" y="0px"
	 viewBox="202 -80.1 1000 1000" style="enable-background:new 202 -80.1 1000 1000;" xml:space="preserve">
<style type="text/css">
	.st0{fill:#FED631;}
</style>
<g id="BOALD_xA0_图像_1_">
	
		<image style="overflow:visible;enable-background:new    ;" width="722" height="722" id="BOALD_xA0_图像" xlink:href="A44ECC82C4618978.png"  transform="matrix(0.4983 0 0 0.4983 521.8749 240.515)">
	</image>
</g>
<g id="HI">
	<g>
		<path class="st0" d="M763.4,362.4c15.9,0,28.8-12.9,28.8-28.8s-12.9-28.8-28.8-28.8c-15.9,0-28.8,12.9-28.8,28.8
			C734.6,349.5,747.5,362.4,763.4,362.4z M763.4,380.3L763.4,380.3c-14.4,0-26,11.7-26,26.1v8.5H665v-79.1
			c0-14.4-11.7-26.1-26.1-26.1s-26.1,11.7-26.1,26.1v173.7c0,14.4,11.7,26.1,26.1,26.1s26.1-11.7,26.1-26.1v-42.4h72.4v42.4
			c0,14.4,11.6,26.1,26,26.1l0,0c14.4,0,26.1-11.7,26.1-26.1V406.4C789.5,392,777.9,380.3,763.4,380.3z"/>
	</g>
</g>
</svg>
