<?xml version="1.0" standalone="no"?><!DOCTYPE svg PUBLIC "-//W3C//DTD SVG 1.1//EN" "http://www.w3.org/Graphics/SVG/1.1/DTD/svg11.dtd"><svg width="200" height="200" viewBox="0 0 200 200" version="1.1" xmlns="http://www.w3.org/2000/svg" xmlns:xlink="http://www.w3.org/1999/xlink"><defs><style type="text/css"><![CDATA[
@font-face { font-family: ifont; src: url("//at.alicdn.com/t/font_1442373896_4754455.eot?#iefix") format("embedded-opentype"), url("//at.alicdn.com/t/font_1442373896_4754455.woff") format("woff"), url("//at.alicdn.com/t/font_1442373896_4754455.ttf") format("truetype"), url("//at.alicdn.com/t/font_1442373896_4754455.svg#ifont") format("svg"); }

]]></style></defs><g class="transform-group"><g transform="scale(0.1953125, 0.1953125)"><path d="M911.959338 86.063857c-0.0304-40.379133-26.604756-74.105477-65.631891-83.679861-3.495994-0.857599-7.020788-1.591997-10.532783-2.383996C619.927821 0.0016 404.060979 0.0016 188.195736 0.0016c-0.705599 0.2848-1.388798 0.724799-2.121596 0.831999C142.859811 7.163188 112.021462 42.55193 112.018262 86.065457c-0.0224 283.96433-0.0256 567.927059 0.0016 851.891389 0.0048 48.01272 37.801537 85.974258 85.940658 85.993458 209.356453 0.0848 418.712907 0.0592 628.06936-0.0624 6.758389-0.0048 13.678377-0.798399 20.246366-2.371196 39.427135-9.447984 65.689491-43.348728 65.694291-84.50866 0.0256-183.935695 0.0112-367.872991 0.0112-551.808686C911.983338 285.487527 912.032937 185.775692 911.959338 86.063857zM854.817032 880.857741c-0.0112 48.606319-37.823937 86.204657-86.649456 86.220657-170.762917 0.056-341.525834 0.0544-512.288752 0.0016-49.046319-0.016-86.716656-37.735937-86.724656-86.639857-0.0192-122.922996-0.0064-245.845993-0.0064-368.768989 0-122.764597-0.0128-245.530793 0.0064-368.29539 0.0064-42.44473 28.470353-76.927873 70.347083-85.043059 5.407991-1.047998 11.033582-1.380798 16.558373-1.383998 170.604517-0.0704 341.209035-0.0832 511.813552-0.0384 42.812729 0.0112 77.331072 28.254353 85.499058 69.927884 1.054398 5.383991 1.409598 10.982382 1.411198 16.481573C854.850632 389.164155 854.871432 635.010148 854.817032 880.857741zM797.673127 199.849269c-0.056-48.34072-37.799937-86.003058-86.340657-86.036658-132.82698-0.096-265.65556-0.088-398.48254-0.0048-48.801519 0.0304-86.543857 37.782337-86.550257 86.326257-0.024 169.999718-0.0256 339.999437 0 509.997555 0.008 48.52632 37.806337 86.255857 86.598257 86.281457 132.66858 0.0672 265.337161 0.04 398.005741-0.0368 5.523191-0.0032 11.143982-0.374399 16.550373-1.427198 41.895931-8.161586 70.203084-42.48313 70.230284-85.100659 0.0544-84.841459 0.016-169.682919 0.016-254.524378C797.700327 370.164187 797.770727 285.005928 797.673127 199.849269zM740.558021 707.995627c-0.0016 19.995167-11.529581 31.548748-31.484748 31.548748-131.399782 0.0032-262.799565 0.0032-394.197747 0-19.751967 0-31.443148-11.571181-31.443148-31.118348-0.0032-168.89412-0.0032-337.786641 0-506.680761 0-19.510368 11.724781-31.079949 31.486348-31.079949 131.399782-0.0016 262.797965-0.0032 394.197747 0 19.742367 0 31.439948 11.577581 31.441548 31.123148 0.0048 84.52626 0.0016 169.05092 0.0016 253.57718C740.559621 539.576706 740.562821 623.786167 740.558021 707.995627zM511.9728 824.885034c-31.563148 0.008-57.163105 25.567958-57.113505 57.027106 0.048 31.203148 25.587158 56.659106 56.923106 56.740706 31.601548 0.0832 57.315105-25.379158 57.350305-56.787106C569.166305 850.422591 543.539148 824.875434 511.9728 824.885034z" fill="#272636"></path></g></g></svg>