<?xml version="1.0" encoding="utf-8"?>
<!-- Generator: Adobe Illustrator 19.0.0, SVG Export Plug-In . SVG Version: 6.00 Build 0)  -->
<svg version="1.1" id="图层_1" xmlns="http://www.w3.org/2000/svg" xmlns:xlink="http://www.w3.org/1999/xlink" x="0px" y="0px"
	 viewBox="-197 320.9 200 200" style="enable-background:new -197 320.9 200 200;" xml:space="preserve">
<style type="text/css">
	.st0{fill:#272636;}
</style>
<g>
	<g transform="scale(0.1953125, 0.1953125)">
		<path class="st0" d="M-758.9,2193h241.4v148.2c0,20.4-16.6,37-37,37s-37-16.6-37-37h-37c0,40.9,33.2,74.1,74.1,74.1
			c38.6,0,70.3-29.5,73.7-67.1c0.2-1.2,0.3-2.3,0.3-3.5l0-151.7h234.1l0-37h0.1c-18.2-118.2-116.2-210.1-237.2-218.9v-24.2
			c0-9.1-8.3-16.4-18.5-16.4c-10.2,0-18.5,7.4-18.5,16.4v24.1c-121.6,8.3-220.1,100.4-238.3,219h-0.1V2193L-758.9,2193z
			 M-502.5,1973.4c109.2,0,200,78.7,218.7,182.5h-437.5C-702.5,2052.1-611.7,1973.4-502.5,1973.4L-502.5,1973.4z"/>
	</g>
</g>
<g>
	<g transform="scale(0.1953125, 0.1953125)">
		<path class="st0" d="M-502.6,1726.7c57.9,0,114.1,11.3,167,33.7c51.1,21.6,97,52.6,136.4,92c39.4,39.4,70.4,85.3,92,136.4
			c22.4,52.9,33.7,109.1,33.7,167c0,57.9-11.3,114.1-33.7,167c-21.6,51.1-52.6,97-92,136.4c-39.4,39.4-85.3,70.4-136.4,92
			c-52.9,22.4-109.1,33.7-167,33.7c-57.9,0-114.1-11.3-167-33.7c-51.1-21.6-97-52.6-136.4-92c-39.4-39.4-70.4-85.3-92-136.4
			c-22.4-52.9-33.7-109.1-33.7-167c0-57.9,11.3-114.1,33.7-167c21.6-51.1,52.6-97,92-136.4c39.4-39.4,85.3-70.4,136.4-92
			C-616.7,1738-560.5,1726.7-502.6,1726.7 M-502.6,1706.2c-248.3,0-449.6,201.3-449.6,449.6c0,248.3,201.3,449.6,449.6,449.6
			c248.3,0,449.6-201.3,449.6-449.6C-52.9,1907.5-254.3,1706.2-502.6,1706.2L-502.6,1706.2z"/>
	</g>
</g>
</svg>
