<?xml version="1.0" encoding="utf-8"?>
<!-- Generator: Adobe Illustrator 19.0.0, SVG Export Plug-In . SVG Version: 6.00 Build 0)  -->
<svg version="1.1" id="图层_1" xmlns="http://www.w3.org/2000/svg" xmlns:xlink="http://www.w3.org/1999/xlink" x="0px" y="0px"
	 viewBox="-139 0 866 841.9" style="enable-background:new -139 0 866 841.9;" xml:space="preserve">
<style type="text/css">
	.st0{fill:#272636;}
</style>
<g>
	<path class="st0" d="M556.9,268.2c-3.5-15.4-8.4-30.4-14.7-45c-13.5-31.1-32.8-59.1-57.4-83s-53.2-42.7-85-55.9
		c-32.9-13.5-67.9-20.5-104-20.5c-36,0-70.9,6.9-103.9,20.5c-31.8,13.1-60.4,31.9-85,55.9s-43.9,51.9-57.4,83
		c-6.5,14.9-11.4,30.3-15,45.9C-20.1,285.9-60,337.8-60,399c0,36,14.1,70,39.8,95.8c18.9,18.9,42.2,31.6,67.5,36.9
		c14,2.9,27.1-7.8,26.9-22L73,325.2c0-57.7,23.1-112.1,65-152.9c42.2-41.1,98.2-63.7,157.8-63.7s115.6,22.6,157.7,63.6
		c42,40.9,65,95.2,65,152.9v192.4c0,57.7-23.1,112.1-65,152.9c-21,20.5-45.6,36.4-72.3,47.2c2.9-9.1,4.4-18.8,4.2-28.8
		c-1-46.7-38.9-84.8-85.6-86c-49.6-1.3-90.3,38.7-90.3,88c0,48,38.5,87.1,86.3,88l0,0h1.1h0.6h1.5h0.6h0.3
		c34.6-0.5,68.2-7.3,99.9-20.5c31.8-13.1,60.4-31.9,85-55.9c24.6-23.9,43.9-51.9,57.4-83c12.7-29.3,19.7-60.2,20.9-92
		c19.3-6.6,37.1-17.6,52.1-32.7C640.9,469,655,435,655,398.9C654.9,336.5,613.3,283.7,556.9,268.2L556.9,268.2L556.9,268.2z
		 M11.4,463.2C-5.8,446-15.3,423.1-15.3,399c0-33.5,17.6-62.8,43.8-78.5c0,1.5-0.1,3.1-0.1,4.7v151.5
		C22.3,472.9,16.7,468.4,11.4,463.2L11.4,463.2L11.4,463.2z M298.9,734.1h-2c-23.6-0.3-42.7-19.6-42.7-43.3
		c0-23.9,19.4-43.3,43.3-43.3s43.3,19.4,43.3,43.3C340.8,714.3,322.1,733.3,298.9,734.1L298.9,734.1L298.9,734.1z M583.5,463.2
		c-6.1,6.1-13,11.3-20.2,15.4V325.2c0-2.2,0-4.4-0.1-6.6c27.9,15.2,47.1,45.5,47.1,80.4C610.3,423.1,600.8,445.9,583.5,463.2
		L583.5,463.2L583.5,463.2z"/>
</g>
</svg>
