<?xml version="1.0" standalone="no"?><!DOCTYPE svg PUBLIC "-//W3C//DTD SVG 1.1//EN" "http://www.w3.org/Graphics/SVG/1.1/DTD/svg11.dtd"><svg width="200" height="200" viewBox="0 0 200 200" version="1.1" xmlns="http://www.w3.org/2000/svg" xmlns:xlink="http://www.w3.org/1999/xlink"><defs><style type="text/css"><![CDATA[
@font-face { font-family: ifont; src: url("//at.alicdn.com/t/font_1442373896_4754455.eot?#iefix") format("embedded-opentype"), url("//at.alicdn.com/t/font_1442373896_4754455.woff") format("woff"), url("//at.alicdn.com/t/font_1442373896_4754455.ttf") format("truetype"), url("//at.alicdn.com/t/font_1442373896_4754455.svg#ifont") format("svg"); }

]]></style></defs><g class="transform-group"><g transform="scale(0.1953125, 0.1953125)"><path d="M510.834966 959.083501c-60.317761 0-118.841665-11.818163-173.943634-35.124985-53.213969-22.508643-101.003392-54.727439-142.038994-95.763041-41.035602-41.036625-73.255421-88.825025-95.764064-142.038994-23.306822-55.102992-35.124985-113.625874-35.124985-173.944658 0-60.317761 11.81714-118.841665 35.124985-173.943634 22.508643-53.213969 54.728462-101.003392 95.764064-142.038994s88.824001-73.255421 142.038994-95.764064C391.993301 77.159334 450.517205 65.341171 510.834966 65.341171S629.676631 77.159334 684.779623 100.466156c53.213969 22.508643 101.002368 54.727439 142.038994 95.764064 41.035602 41.035602 73.254398 88.824001 95.763041 142.038994 23.306822 55.101969 35.124985 113.625874 35.124985 173.943634 0 60.318784-11.818163 118.841665-35.124985 173.944658C900.073014 739.370451 867.853196 787.159874 826.817594 828.195475c-41.036625 41.035602-88.825025 73.254398-142.038994 95.763041C629.676631 947.266361 571.15375 959.083501 510.834966 959.083501zM510.834966 96.040357c-229.477438 0-416.171468 186.694029-416.171468 416.171468s186.694029 416.172491 416.171468 416.172491c229.478462 0 416.171468-186.694029 416.171468-416.172491S740.313427 96.040357 510.834966 96.040357zM468.969463 602.531899c0 10.044774-8.132214 18.158568-18.178011 18.158568l0 0c-10.009981 0-18.142196-8.113795-18.142196-18.158568L432.649256 222.654033c0-10.04375 8.132214-18.159592 18.142196-18.159592l0 0c10.044774 0 18.178011 8.115841 18.178011 18.159592L468.969463 602.531899zM447.871959 620.690468c-8.410554 0-15.222703-8.113795-15.222703-18.158568l0 0c0-10.04375 6.812149-18.159592 15.222703-18.159592l319.05664 0c8.410554 0 15.257495 8.115841 15.257495 18.159592l0 0c0 10.044774-6.846942 18.158568-15.257495 18.158568L447.871959 620.690468z" fill="#272636"></path></g></g></svg>