<?xml version="1.0" standalone="no"?><!DOCTYPE svg PUBLIC "-//W3C//DTD SVG 1.1//EN" "http://www.w3.org/Graphics/SVG/1.1/DTD/svg11.dtd"><svg width="128" height="128" viewBox="0 0 128 128" version="1.1" xmlns="http://www.w3.org/2000/svg" xmlns:xlink="http://www.w3.org/1999/xlink"><defs><style type="text/css"><![CDATA[
@font-face { font-family: ifont; src: url("//at.alicdn.com/t/font_1442373896_4754455.eot?#iefix") format("embedded-opentype"), url("//at.alicdn.com/t/font_1442373896_4754455.woff") format("woff"), url("//at.alicdn.com/t/font_1442373896_4754455.ttf") format("truetype"), url("//at.alicdn.com/t/font_1442373896_4754455.svg#ifont") format("svg"); }

]]></style></defs><g class="transform-group"><g transform="scale(0.125, 0.125)"><path d="M512 65.290005c-246.710938 0-446.708971 199.999057-446.708971 446.708971 0 246.711961 199.999057 446.708971 446.708971 446.708971S958.708971 758.711961 958.708971 512C958.708971 265.289062 758.709915 65.290005 512 65.290005zM512 921.483138c-225.790466 0-409.483138-183.693696-409.483138-409.483138S286.209534 102.515838 512 102.515838s409.483138 183.693696 409.483138 409.484162S737.790466 921.483138 512 921.483138zM511.99079 197.603497c-10.288321 0-18.612916 8.324596-18.612916 18.612916l0 285.10027-151.956877 88.883353c-8.906857 5.198395-11.887748 16.57756-6.689353 25.447579 3.453658 5.925966 9.706059 9.233292 16.067954 9.233292 3.198855 0 6.434549-0.836041 9.379625-2.544963l161.190169-94.263897c5.706979-3.344165 9.233292-9.452279 9.233292-16.067954L530.602683 216.216413C530.603707 205.928093 522.279111 197.603497 511.99079 197.603497z" fill="#272636"></path></g></g></svg>