<?xml version="1.0" encoding="utf-8"?>
<!-- Generator: Adobe Illustrator 19.0.0, SVG Export Plug-In . SVG Version: 6.00 Build 0)  -->
<svg version="1.1" id="图层_1" xmlns="http://www.w3.org/2000/svg" xmlns:xlink="http://www.w3.org/1999/xlink" x="0px" y="0px"
	 viewBox="-219 141 200 200" style="enable-background:new -219 141 200 200;" xml:space="preserve">
<style type="text/css">
	.st0{fill:#272636;}
</style>
<g>
	<g transform="scale(0.1953125, 0.1953125)">
		<path class="st0" d="M-609.3,1745.9c-282.8,0-512-229.2-512-512c0-282.8,229.2-512,512-512s512,229.2,512,512
			C-97.3,1516.7-326.5,1745.9-609.3,1745.9z M-609.3,790.2c-245.1,0-443.7,198.7-443.7,443.7c0,245.1,198.7,443.7,443.7,443.7
			s443.7-198.7,443.7-443.7C-165.5,988.8-364.2,790.2-609.3,790.2z M-592.2,1541.1h-34.1c-9.4,0-17.1-7.6-17.1-17.1v-68.3
			c0-9.4,7.6-17.1,17.1-17.1h34.1c9.4,0,17.1,7.6,17.1,17.1v68.3C-575.1,1533.4-582.8,1541.1-592.2,1541.1z M-592.2,1404.6h-34.1
			c-9.4,0-17.1-7.6-17.1-17.1V943.8c0-9.5,7.6-17.1,17.1-17.1h34.1c9.4,0,17.1,7.6,17.1,17.1v443.7
			C-575.1,1396.9-582.8,1404.6-592.2,1404.6z"/>
	</g>
</g>
</svg>
