<?xml version="1.0" encoding="utf-8"?>
<!-- Generator: Adobe Illustrator 19.0.0, SVG Export Plug-In . SVG Version: 6.00 Build 0)  -->
<svg version="1.1" id="图层_1" xmlns="http://www.w3.org/2000/svg" xmlns:xlink="http://www.w3.org/1999/xlink" x="0px" y="0px"
	 viewBox="-219 141 200 200" style="enable-background:new -219 141 200 200;" xml:space="preserve">
<style type="text/css">
	.st0{fill:#272636;}
</style>
<g>
	<g transform="scale(0.1953125, 0.1953125)">
		<path class="st0" d="M-589.4,801.1c-170.1,0-308.5,134.6-308.5,300.1c0,271,284.1,584.5,296.2,597.7l12.4,13.6l12.4-13.6
			c12.1-13.3,296.1-328.7,296.1-597.7C-280.9,935.7-419.3,801.1-589.4,801.1L-589.4,801.1z M-589.5,1663.4
			c-55.2-64.2-275.4-334.6-275.4-562.2c0-147.7,123.6-267.9,275.4-267.9c151.8,0,275.4,120.2,275.4,267.9
			C-314.1,1327-534.3,1598.9-589.5,1663.4L-589.5,1663.4z M-585.9,989.9c-65,0-118,51.5-118,114.8c0,63.3,52.9,114.8,118,114.8
			c65.1,0,118-51.5,118-114.8C-467.9,1041.4-520.8,989.9-585.9,989.9L-585.9,989.9z M-585.9,1187.3c-46.8,0-84.9-37-84.9-82.6
			c0-45.5,38.1-82.6,84.9-82.6c46.8,0,84.9,37.1,84.9,82.6C-501,1150.3-539.1,1187.3-585.9,1187.3L-585.9,1187.3z"/>
	</g>
</g>
</svg>
