<?xml version="1.0" encoding="utf-8"?>
<!-- Generator: Adobe Illustrator 19.0.0, SVG Export Plug-In . SVG Version: 6.00 Build 0)  -->
<svg version="1.1" id="图层_1" xmlns="http://www.w3.org/2000/svg" xmlns:xlink="http://www.w3.org/1999/xlink" x="0px" y="0px"
	 viewBox="-219 141 200 200" style="enable-background:new -219 141 200 200;" xml:space="preserve">
<style type="text/css">
	.st0{fill:#272636;}
</style>
<g>
	<g transform="scale(0.1953125, 0.1953125)">
		<path class="st0" d="M-268.8,989.2h-123.1V838c0-62.6-50.9-113.4-113.4-113.4h-207.9c-62.6,0-113.4,50.9-113.4,113.4v151.2h-123.1
			c-93.8,0-170.2,76.3-170.2,170.2v413.7c0,93.8,76.3,170.2,170.2,170.2h123.1h434.8h123c93.8,0,170.2-76.3,170.2-170.2v-413.7
			C-98.6,1065.5-174.8,989.2-268.8,989.2z M-769.9,838c0-31.2,25.5-56.7,56.7-56.7h207.9c31.2,0,56.7,25.5,56.7,56.7v151.2h-321.3
			V838z M-949.8,1686.5c-62.6,0-113.4-50.9-113.4-113.4l0-413.7c0-62.6,50.9-113.4,113.4-113.4h123.1v640.6h-123.1V1686.5z
			 M-769.9,1686.5v-640.6h321.4v640.6H-769.9z M-155.3,1573.1c0,62.6-50.9,113.4-113.4,113.4h-123.1v-640.6h123
			c62.6,0,113.4,50.9,113.4,113.4v413.8H-155.3z"/>
	</g>
</g>
</svg>
