<?xml version="1.0" standalone="no"?><!DOCTYPE svg PUBLIC "-//W3C//DTD SVG 1.1//EN" "http://www.w3.org/Graphics/SVG/1.1/DTD/svg11.dtd"><svg width="200" height="200" viewBox="0 0 200 200" version="1.1" xmlns="http://www.w3.org/2000/svg" xmlns:xlink="http://www.w3.org/1999/xlink"><defs><style type="text/css"><![CDATA[
@font-face { font-family: ifont; src: url("//at.alicdn.com/t/font_1442373896_4754455.eot?#iefix") format("embedded-opentype"), url("//at.alicdn.com/t/font_1442373896_4754455.woff") format("woff"), url("//at.alicdn.com/t/font_1442373896_4754455.ttf") format("truetype"), url("//at.alicdn.com/t/font_1442373896_4754455.svg#ifont") format("svg"); }

]]></style></defs><g class="transform-group"><g transform="scale(0.1953125, 0.1953125)"><path d="M472.5248 539.067733c0.6656 0.836267 1.604267 1.536 2.338133 2.338133 9.403733 11.6736 23.6032 19.268267 39.7312 19.268267 28.2624 0 51.2-22.903467 51.2-51.2 0-15.035733-6.6048-28.398933-16.861867-37.768533-1.3312-1.501867-2.56-3.037867-4.539733-4.539733l-206.8992-157.44c-6.0416-4.625067-14.6944-4.864-20.992 0-7.5264 5.802667-8.925867 16.605867-3.140267 24.132267L472.5248 539.067733zM514.577067 82.824533c-5.597867 0-11.0592 0.631467-16.605867 0.836267l0 17.698133-0.4608 0 0 186.197333 34.133333 0L531.643733 117.828267c208.5376 9.028267 375.466667 180.974933 375.466667 391.6288 0 216.439467-176.059733 392.516267-392.533333 392.516267s-392.533333-176.059733-392.533333-392.516267c0-108.2368 44.032-206.370133 115.131733-277.435733l-24.2688-24.2688C135.68 284.962133 87.9104 391.6288 87.9104 509.457067c0 235.639467 190.993067 426.6496 426.666667 426.6496s426.666667-190.993067 426.666667-426.6496C941.243733 273.8176 750.250667 82.824533 514.577067 82.824533z" fill="#272636"></path></g></g></svg>