<?xml version="1.0" standalone="no"?><!DOCTYPE svg PUBLIC "-//W3C//DTD SVG 1.1//EN" "http://www.w3.org/Graphics/SVG/1.1/DTD/svg11.dtd"><svg width="200" height="200" viewBox="0 0 200 200" version="1.1" xmlns="http://www.w3.org/2000/svg" xmlns:xlink="http://www.w3.org/1999/xlink"><defs><style type="text/css"><![CDATA[
@font-face { font-family: ifont; src: url("//at.alicdn.com/t/font_1442373896_4754455.eot?#iefix") format("embedded-opentype"), url("//at.alicdn.com/t/font_1442373896_4754455.woff") format("woff"), url("//at.alicdn.com/t/font_1442373896_4754455.ttf") format("truetype"), url("//at.alicdn.com/t/font_1442373896_4754455.svg#ifont") format("svg"); }

]]></style></defs><g class="transform-group"><g transform="scale(0.1953125, 0.1953125)"><path d="M387.97824 303.22688l23.07072-23.13216c14.9248-14.97088 23.18336-34.92864 23.18336-56.09984 0-21.1712-8.25856-41.11872-23.29088-56.15616L327.00416 83.90144c-29.95712-29.952-82.29376-29.952-112.25088 0l-23.18336 22.97344L387.97824 303.22688 387.97824 303.22688zM744.05376 613.15072l-23.02464 23.17824 195.97824 195.97824 23.12704-22.8608c15.08352-15.08352 23.33696-35.03616 23.33696-56.20736 0-21.16608-8.25344-41.11872-23.23456-56.15104l-83.93728-83.93728C826.34752 583.19872 774.01088 583.19872 744.05376 613.15072L744.05376 613.15072zM120.01792 178.64192c-8.5248 8.51968-199.84384 208.3072 158.6176 566.87616 179.62496 179.56864 319.34464 217.25184 404.87424 217.25184 95.79008 0 147.97312-44.7232 161.73568-58.48064l18.72896-18.7392-195.92192-196.352-34.40128 34.40128c-10.00448 10.00448-27.41248 9.94816-37.41696 0L300.5952 427.97056c-4.97664-5.02784-7.72608-11.648-7.72608-18.7392 0-7.09632 2.69824-13.70624 7.72608-18.73408l34.40128-34.35008L138.752 159.90272 120.01792 178.64192 120.01792 178.64192zM120.01792 178.64192" fill="#272636"></path></g></g></svg>