<?xml version="1.0" standalone="no"?><!DOCTYPE svg PUBLIC "-//W3C//DTD SVG 1.1//EN" "http://www.w3.org/Graphics/SVG/1.1/DTD/svg11.dtd"><svg width="200" height="200" viewBox="0 0 200 200" version="1.1" xmlns="http://www.w3.org/2000/svg" xmlns:xlink="http://www.w3.org/1999/xlink"><defs><style type="text/css"><![CDATA[
@font-face { font-family: ifont; src: url("//at.alicdn.com/t/font_1442373896_4754455.eot?#iefix") format("embedded-opentype"), url("//at.alicdn.com/t/font_1442373896_4754455.woff") format("woff"), url("//at.alicdn.com/t/font_1442373896_4754455.ttf") format("truetype"), url("//at.alicdn.com/t/font_1442373896_4754455.svg#ifont") format("svg"); }

]]></style></defs><g class="transform-group"><g transform="scale(0.1953125, 0.1953125)"><path d="M767.309418 770.106666 255.040892 770.106666 255.040892 126.656466l512.268526 0L767.309418 770.106666 767.309418 770.106666zM303.296135 721.846607l415.753224 0L719.049359 174.916525 303.296135 174.916525 303.296135 721.846607 303.296135 721.846607 303.296135 721.846607zM553.839514 849.562728c0 21.801197-17.681788 39.460107-39.478169 39.460107-21.79638 0-39.478169-17.657705-39.478169-39.460107s17.681788-39.492619 39.478169-39.492619C536.158929 810.070109 553.839514 827.760326 553.839514 849.562728M765.695852 979.225965 256.649641 979.225965c-45.241247 0-82.047399-36.825419-82.047399-82.047399L174.602241 128.266419c0-45.231614 36.806152-82.037766 82.047399-82.037766l509.046212 0c45.235226 0 82.047399 36.807357 82.047399 82.037766l0 768.912146C847.743252 942.400546 810.931079 979.225965 765.695852 979.225965L765.695852 979.225965zM256.649641 94.487508c-18.636682 0-33.78734 15.150658-33.78734 33.777707l0 768.912146c0 18.631865 15.155475 33.78734 33.78734 33.78734l509.046212 0c18.636682 0 33.78734-15.155475 33.78734-33.78734L799.483192 128.266419c0-18.627049-15.150658-33.777707-33.78734-33.777707L256.649641 94.488712 256.649641 94.487508zM256.649641 94.487508" fill="#272636"></path></g></g></svg>