<?xml version="1.0" standalone="no"?><!DOCTYPE svg PUBLIC "-//W3C//DTD SVG 1.1//EN" "http://www.w3.org/Graphics/SVG/1.1/DTD/svg11.dtd"><svg width="200" height="200" viewBox="0 0 200 200" version="1.1" xmlns="http://www.w3.org/2000/svg" xmlns:xlink="http://www.w3.org/1999/xlink"><defs><style type="text/css"><![CDATA[
@font-face { font-family: ifont; src: url("//at.alicdn.com/t/font_1442373896_4754455.eot?#iefix") format("embedded-opentype"), url("//at.alicdn.com/t/font_1442373896_4754455.woff") format("woff"), url("//at.alicdn.com/t/font_1442373896_4754455.ttf") format("truetype"), url("//at.alicdn.com/t/font_1442373896_4754455.svg#ifont") format("svg"); }

]]></style></defs><g class="transform-group"><g transform="scale(0.1953125, 0.1953125)"><path d="M716.8 204.8 608 204.8 608 57.6l12.8 0c12.8 0 25.6-12.8 25.6-25.6S633.6 0 620.8 0L352 0C339.2 0 326.4 12.8 326.4 25.6s12.8 25.6 25.6 25.6l12.8 0 0 147.2L249.6 198.4C185.6 204.8 134.4 256 134.4 320l0 518.4c0 64 51.2 115.2 115.2 115.2L256 953.6C256 992 288 1024 326.4 1024s70.4-32 70.4-70.4l192 0c0 38.4 32 70.4 70.4 70.4 38.4 0 70.4-32 70.4-70.4l0 0c64 0 115.2-51.2 115.2-115.2L844.8 320C838.4 256 787.2 204.8 716.8 204.8zM416 57.6l134.4 0 0 147.2L416 204.8 416 57.6zM780.8 838.4c0 32-25.6 64-64 64l-25.6 0c-12.8-6.4-25.6-12.8-44.8-12.8s-32 6.4-44.8 12.8L364.8 902.4c-12.8-6.4-25.6-12.8-44.8-12.8s-32 6.4-44.8 12.8L249.6 902.4c-32 0-64-25.6-64-64l0-108.8 595.2 0L780.8 838.4zM780.8 672 185.6 672 185.6 492.8l595.2 0L780.8 672zM780.8 441.6 185.6 441.6 185.6 320c0-32 25.6-64 64-64l467.2 0c32 0 64 25.6 64 64L780.8 441.6z" fill="#272636"></path></g></g></svg>