<?xml version="1.0" standalone="no"?><!DOCTYPE svg PUBLIC "-//W3C//DTD SVG 1.1//EN" "http://www.w3.org/Graphics/SVG/1.1/DTD/svg11.dtd"><svg width="200" height="200" viewBox="0 0 200 200" version="1.1" xmlns="http://www.w3.org/2000/svg" xmlns:xlink="http://www.w3.org/1999/xlink"><defs><style type="text/css"><![CDATA[
@font-face { font-family: ifont; src: url("//at.alicdn.com/t/font_1442373896_4754455.eot?#iefix") format("embedded-opentype"), url("//at.alicdn.com/t/font_1442373896_4754455.woff") format("woff"), url("//at.alicdn.com/t/font_1442373896_4754455.ttf") format("truetype"), url("//at.alicdn.com/t/font_1442373896_4754455.svg#ifont") format("svg"); }

]]></style></defs><g class="transform-group"><g transform="scale(0.1953125, 0.1953125)"><path d="M513.554914 80.691787c57.936527 0 114.13241 11.343349 167.027108 33.716916 51.101865 21.614274 97.002264 52.5611 136.425136 91.980901 39.424918 39.420825 70.375837 85.319178 91.993181 136.420019 22.376637 52.896744 33.723056 109.09672 33.723056 167.040411 0 57.936527-11.346419 114.131387-33.723056 167.025061-21.617343 51.096748-52.568263 96.992031-91.993181 136.411833-39.422871 39.417755-85.324294 70.363558-136.425136 91.977831-52.893674 22.37152-109.089557 33.715893-167.027108 33.715893-57.935504 0-114.12934-11.343349-167.019944-33.715893-51.096748-21.61325-96.989985-52.55803-136.40774-91.976808-39.416731-39.418778-70.361511-85.313038-91.974761-136.411833-22.37152-52.891627-33.714869-109.087511-33.714869-167.026084 0-57.944713 11.343349-114.145713 33.715893-167.041434 21.61325-51.101865 52.55803-97.000218 91.974761-136.420019 39.416731-39.418778 85.310991-70.366627 136.40774-91.979878C399.425573 92.035136 455.61941 80.691787 513.554914 80.691787M513.554914 60.225663c-248.28683 0-449.583438 201.302749-449.583438 449.624371 0 248.295016 201.296609 449.595718 449.583438 449.595718 248.281713 0 449.635627-201.301725 449.635627-449.595718C963.190541 261.528412 761.836627 60.225663 513.554914 60.225663L513.554914 60.225663zM509.92013 778.126126 753.827209 537.541723 713.094506 498.236532 469.421764 738.696092 469.406414 738.682789 469.386972 738.731908 469.159798 738.956012 469.264175 739.058342 445.635011 801.621237 742.574934 801.621237 742.574934 794.098913 466.111368 794.098913 509.830079 778.038122ZM372.045993 568.367799 408.880923 531.586081 408.880923 513.113357 427.299411 513.113357 464.107735 476.334709 408.880923 476.334709 408.880923 405.792073 529.709849 405.792073 529.709849 368.95612 433.695075 368.95612 519.11556 249.119801 482.306212 249.119801 396.886751 368.95612 384.013559 368.95612 298.61968 249.119801 261.756097 249.119801 347.204212 368.95612 251.189438 368.95612 251.189438 405.792073 372.045993 405.792073 372.045993 476.334709 251.189438 476.334709 251.189438 513.113357 372.045993 513.113357ZM794.149567 258.999822 260.082992 793.055141 277.100574 810.046117 811.141566 276.018428Z" fill="#272636"></path></g></g></svg>