<?xml version="1.0" encoding="utf-8"?>
<!-- Generator: Adobe Illustrator 19.0.0, SVG Export Plug-In . SVG Version: 6.00 Build 0)  -->
<svg version="1.1" id="图层_1" xmlns="http://www.w3.org/2000/svg" xmlns:xlink="http://www.w3.org/1999/xlink" x="0px" y="0px"
	 viewBox="-197 320.9 200 200" style="enable-background:new -197 320.9 200 200;" xml:space="preserve">
<style type="text/css">
	.st0{fill:#272636;}
</style>
<g>
	<g transform="scale(0.1953125, 0.1953125)">
		<path class="st0" d="M-231.7,2070.4c-2.9-7.1-7.1-13.6-12.5-19.1c-5.4-5.5-11.7-9.9-18.7-13c-7.3-3.2-15-4.8-23-4.8
			c-8,0-15.7,1.6-23,4.8c-7,3.1-13.3,7.4-18.7,13c-5.3,5.5-9.5,11.9-12.5,19.1c-3,7.4-4.6,15.2-4.6,23.3c0,6.6,1.1,13.2,3.1,19.4
			l-71.5,53.3l-48.4-116.6c14.4-11.2,23.3-28.8,23.3-47.9c0-8.1-1.5-15.9-4.6-23.3c-2.9-7.1-7.1-13.6-12.5-19.1
			c-5.4-5.5-11.7-9.9-18.7-13c-7.3-3.2-15-4.8-23-4.8c-8,0-15.7,1.6-23,4.8c-7,3.1-13.3,7.4-18.7,13c-5.3,5.5-9.5,11.9-12.5,19.1
			c-3,7.4-4.6,15.2-4.6,23.3c0,19.1,8.8,36.8,23.3,48l-48.3,116.6l-71.6-53.4c2.1-6.2,3.1-12.7,3.1-19.4c0-8.1-1.5-15.9-4.6-23.3
			c-2.9-7.1-7.1-13.6-12.5-19.1c-5.4-5.5-11.7-9.9-18.7-13c-7.3-3.2-15-4.8-23-4.8s-15.7,1.6-23,4.8c-7,3.1-13.3,7.4-18.7,13
			c-5.3,5.5-9.5,11.9-12.5,19.1c-3,7.4-4.6,15.2-4.6,23.3c0,8.1,1.5,15.9,4.6,23.3c2.9,7.1,7.1,13.6,12.5,19.1
			c5.4,5.6,11.7,9.9,18.7,13c6.4,2.8,13.2,4.4,20.1,4.7l38.9,190.8c1.3,6.6,7.2,11.4,13.9,11.4h321.9c6.7,0,12.6-4.7,13.9-11.4
			l38.9-190.8c6.9-0.3,13.7-1.9,20-4.7c7-3.1,13.3-7.4,18.7-13c5.3-5.5,9.5-11.9,12.5-19.1c3-7.4,4.6-15.2,4.6-23.3
			C-227.1,2085.6-228.7,2077.8-231.7,2070.4L-231.7,2070.4z M-285.8,2125.4c-1.9,0-3.8-0.2-5.7-0.6c-7.7-1.5-15.1,3.4-16.7,11.1
			l-39.1,191.6h-298.7l-39.1-191.6c-1.6-7.7-9-12.6-16.7-11.1c-1.9,0.4-3.8,0.6-5.8,0.6c-16.7,0-30.3-14.2-30.3-31.7
			c0-17.5,13.6-31.7,30.3-31.7c16.7,0,30.3,14.2,30.3,31.7c0,5.9-1.6,11.7-4.5,16.7c-3.7,6.2-2.1,14.3,3.7,18.6l95.3,71.1
			c3.5,2.6,8,3.5,12.3,2.3c4.2-1.2,7.7-4.2,9.3-8.2l60-144.7c2.9-7.1-0.3-15.3-7.3-18.4c-11.2-5-18.5-16.5-18.5-29.2
			c0-17.5,13.6-31.7,30.3-31.7c16.7,0,30.3,14.2,30.3,31.7c0,12.7-7.2,24.2-18.4,29.2c-7,3.1-10.3,11.3-7.3,18.4l60,144.7
			c1.7,4,5.1,7.1,9.3,8.2c4.2,1.2,8.7,0.3,12.3-2.3l95.3-71c5.8-4.3,7.4-12.4,3.7-18.6c-3-5-4.6-10.8-4.6-16.7
			c0-17.5,13.6-31.7,30.3-31.7c16.7,0,30.3,14.2,30.3,31.7C-255.5,2111.2-269.1,2125.4-285.8,2125.4L-285.8,2125.4z"/>
	</g>
</g>
<g>
	<g transform="scale(0.1953125, 0.1953125)">
		<path class="st0" d="M-496.7,1719.7c57.9,0,114.1,11.3,167,33.7c51.1,21.6,97,52.6,136.4,92c39.4,39.4,70.4,85.3,92,136.4
			c22.4,52.9,33.7,109.1,33.7,167c0,57.9-11.3,114.1-33.7,167c-21.6,51.1-52.6,97-92,136.4c-39.4,39.4-85.3,70.4-136.4,92
			c-52.9,22.4-109.1,33.7-167,33.7c-57.9,0-114.1-11.3-167-33.7c-51.1-21.6-97-52.6-136.4-92c-39.4-39.4-70.4-85.3-92-136.4
			c-22.4-52.9-33.7-109.1-33.7-167c0-57.9,11.3-114.1,33.7-167c21.6-51.1,52.6-97,92-136.4c39.4-39.4,85.3-70.4,136.4-92
			C-610.8,1731-554.6,1719.7-496.7,1719.7 M-496.7,1699.2c-248.3,0-449.6,201.3-449.6,449.6c0,248.3,201.3,449.6,449.6,449.6
			c248.3,0,449.6-201.3,449.6-449.6C-47,1900.5-248.4,1699.2-496.7,1699.2L-496.7,1699.2z"/>
	</g>
</g>
</svg>
