<?xml version="1.0" encoding="UTF-8"?>
<svg width="20px" height="18px" viewBox="0 0 20 18" version="1.1" xmlns="http://www.w3.org/2000/svg" xmlns:xlink="http://www.w3.org/1999/xlink">
    <!-- Generator: Sketch 45.2 (43514) - http://www.bohemiancoding.com/sketch -->
    <title>Group 7</title>
    <desc>Created with Sketch.</desc>
    <defs></defs>
    <g id="Page-1" stroke="none" stroke-width="1" fill="none" fill-rule="evenodd">
        <g id="Group-7" fill-rule="nonzero" fill="#7F7F7F">
            <path d="M10,11.5 C6.96243388,11.5 4.5,9.03756612 4.5,6 C4.5,2.96243388 6.96243388,0.5 10,0.5 C13.0375661,0.5 15.5,2.96243388 15.5,6 C15.5,9.03756612 13.0375661,11.5 10,11.5 Z M10,10.5 C12.4852814,10.5 14.5,8.48528137 14.5,6 C14.5,3.51471863 12.4852814,1.5 10,1.5 C7.51471863,1.5 5.5,3.51471863 5.5,6 C5.5,8.48528137 7.51471863,10.5 10,10.5 Z" id="Oval-3"></path>
            <path d="M13,13.5 C13.1877891,13.5 13.5408853,13.5336282 14.0026459,13.6362417 C14.7789705,13.8087583 15.5553626,14.1193151 16.2782055,14.6012103 C17.2071301,15.2204934 17.9813542,16.0807424 18.5527864,17.2236068 C18.676281,17.470596 18.9766175,17.5707082 19.2236068,17.4472136 C19.470596,17.323719 19.5707082,17.0233825 19.4472136,16.7763932 C18.7964235,15.4748131 17.903981,14.4832103 16.8329057,13.76916 C16.0001929,13.2140182 15.1099184,12.8579084 14.2195763,12.6600546 C13.6813369,12.5404459 13.2566554,12.5 13,12.5 C12.7238576,12.5 12.5,12.7238576 12.5,13 C12.5,13.2761424 12.7238576,13.5 13,13.5 Z" id="Line"></path>
            <path d="M1,13.5 C1.18778907,13.5 1.54088528,13.5336282 2.00264588,13.6362417 C2.77897049,13.8087583 3.55536263,14.1193151 4.27820546,14.6012103 C5.20713013,15.2204934 5.98135423,16.0807424 6.5527864,17.2236068 C6.67628103,17.470596 6.97661755,17.5707082 7.2236068,17.4472136 C7.47059605,17.323719 7.57070822,17.0233825 7.4472136,16.7763932 C6.79642355,15.4748131 5.90398098,14.4832103 4.83290565,13.76916 C4.00019293,13.2140182 3.1099184,12.8579084 2.21957634,12.6600546 C1.68133695,12.5404459 1.25665538,12.5 1,12.5 C0.723857625,12.5 0.5,12.7238576 0.5,13 C0.5,13.2761424 0.723857625,13.5 1,13.5 Z" id="Line-Copy" transform="translate(4.000055, 15.000055) scale(-1, 1) translate(-4.000055, -15.000055) "></path>
        </g>
    </g>
</svg>