<?xml version="1.0" encoding="utf-8"?>
<!-- Generator: Adobe Illustrator 19.0.0, SVG Export Plug-In . SVG Version: 6.00 Build 0)  -->
<svg version="1.1" id="图层_1" xmlns="http://www.w3.org/2000/svg" xmlns:xlink="http://www.w3.org/1999/xlink" x="0px" y="0px"
	 viewBox="-299 201 200 200" style="enable-background:new -299 201 200 200;" xml:space="preserve">
<style type="text/css">
	.st0{fill:#272636;}
</style>
<g>
	<g transform="scale(0.1953125, 0.1953125)">
		<path class="st0" d="M-607.2,1888.4h-69.1c-36.2,0-65.7-29.5-65.7-65.7v-35.9h-552.8v35.9c0,36.2-29.5,65.7-65.7,65.7h-69.1
			c-36.2,0-65.7-29.5-65.7-65.7v-175.5c0-2.9,0.2-5.8,0.6-8.8c-0.4-4.4-0.6-8.4-0.6-12.3l0.1-1.8l12.7-145
			c0.1-20.1,3.1-39.2,8.9-57.1l-7.8-1.3c-24.3-1-43.8-21.2-43.8-45.8v-22c0-25.3,20.5-45.9,45.8-45.9h90.1l35-105.2
			c14.7-73.7,69.4-119.5,143.3-119.5h385.6c75.4,0,128.9,44.7,143.4,119.5l34.9,105.2h89.3c12.5,0,24.2,4.9,32.8,13.8
			c8.4,8.7,12.9,20.1,12.7,32.1v21.7c0,24.6-19.5,44.8-43.8,45.8l-7,1.2c5.9,17.9,8.9,37.1,8.9,57.3l12.8,146.8
			c0,3.9-0.2,7.9-0.6,12.3c0.4,2.9,0.6,5.9,0.6,8.8v175.6C-541.6,1858.9-571,1888.4-607.2,1888.4z M-1335.8,1745.8h634.8v76.9
			c0,13.6,11.1,24.7,24.7,24.7h69.1c13.6,0,24.7-11.1,24.7-24.7v-175.6c0-1.4-0.2-2.9-0.4-4.3l-0.6-3.1l0.3-3.1
			c0.4-3.6,0.6-6.8,0.7-9.8l-12.8-146.7c0-24.1-4.9-45.3-14.9-64.7l-12.8-24.8l63-10.8h1.8c2.7,0,4.8-2.2,4.8-4.9l0-22.6
			c0-1.1-0.3-2-1.1-2.7c-0.5-0.5-1.6-1.4-3.5-1.4h-91.1c-0.1,0-0.8,0-2.3,0.8l-21.4,11.3l-49.3-149.4
			c-14.2-76.1-70.9-87.5-103.4-87.5h-385.6c-54.2,0-92.8,32.7-103.3,87.6l-0.7,2.6l-49.2,148.2l-21.9-13c-0.7-0.4-1.4-0.6-2.1-0.6
			h-91.1c-2.7,0-4.8,2.2-4.8,4.9v22c0,2.7,2.2,4.9,4.8,4.9h1.7l63.7,10.9l-12.7,24.8c-10,19.5-14.9,40.7-14.9,64.6l-0.1,1.8
			l-12.7,145c0,2.9,0.3,6.1,0.7,9.8l0.3,3l-0.6,3c-0.3,1.7-0.5,3.1-0.5,4.5v175.5c0,13.6,11.1,24.7,24.7,24.7h69.1
			c13.6,0,24.7-11.1,24.7-24.7V1745.8z M-753.5,1703.6c-49.1,0-89-39.9-89-89c0-49.1,39.9-89,89-89s89,39.9,89,89
			C-664.6,1663.7-704.5,1703.6-753.5,1703.6z M-753.5,1566.6c-26.5,0-48,21.5-48,48s21.5,48,48,48s48-21.5,48-48
			S-727.1,1566.6-753.5,1566.6z M-1282.9,1703.6c-49.1,0-89-39.9-89-89c0-49.1,39.9-89,89-89c49.1,0,89,39.9,89,89
			C-1194,1663.7-1233.9,1703.6-1282.9,1703.6z M-1282.9,1566.6c-26.5,0-48,21.5-48,48s21.5,48,48,48c26.5,0,48-21.5,48-48
			S-1256.5,1566.6-1282.9,1566.6z M-920.6,1673.4h-192.2c-22.5,0-40.9-18.3-40.9-40.9v-57.3c0-22.5,18.3-40.8,40.9-40.8h192.2
			c22.5,0,40.9,18.3,40.9,40.8v57.3C-879.8,1655.1-898.1,1673.4-920.6,1673.4z M-920.7,1575.2l-192.1,0.2l0.1,57.1l192-0.1V1575.2z
			 M-795.7,1425.4h-445c-42,0-91.5-33.1-94.9-77.4l-0.3-3.3l12.7-50.4l29.6-78.9c3.3-17.5,10.8-25.8,17.4-33.1c2-2.2,4-4.4,6.2-7.1
			l6.2-7.8H-772l6.2,7.9c2.2,2.8,4.2,5.1,5.9,7.1c6.6,7.6,13.4,15.5,16.7,31.4l30.7,82.9l12,47.9l-0.3,3.3
			C-704.2,1392.3-753.7,1425.4-795.7,1425.4z M-1294.4,1347.6c3.9,19.8,32.2,36.8,53.7,36.8h445c21.5,0,49.8-17,53.7-36.8l-10-39.9
			l-30.8-82.9l-0.3-1.8c-1.1-6.2-2.3-7.5-7.8-13.9c-0.2-0.3-0.5-0.6-0.7-0.8h-452.8c-0.5,0.5-0.9,1-1.3,1.5c-5.3,5.8-6.4,7-7.5,13.3
			l-1.4,5.3l-29.7,79.1L-1294.4,1347.6z"/>
	</g>
</g>
</svg>
