<?xml version="1.0" encoding="utf-8"?>
<!-- Generator: Adobe Illustrator 19.0.0, SVG Export Plug-In . SVG Version: 6.00 Build 0)  -->
<svg version="1.1" id="图层_1" xmlns="http://www.w3.org/2000/svg" xmlns:xlink="http://www.w3.org/1999/xlink" x="0px" y="0px"
	 viewBox="-134 0 877 841.9" style="enable-background:new -134 0 877 841.9;" xml:space="preserve">
<style type="text/css">
	.st0{fill:#272536;}
</style>
<g>
	<path class="st0" d="M395.4,549.7c-9.1-9.1-23.8-9.1-32.8,0l-35.5,36.1V395.9c0-12.8-10.4-23.2-23.2-23.2h-7.1
		c-12.8,0-23.2,10.4-23.2,23.2v193l-38.5-39.2c-9.1-9.1-23.8-9.1-32.8,0l-5,5c-9.1,9.1-9.1,23.8,0,32.8l84.2,85.6
		c4.8,4.8,11.1,7,17.4,6.8c6.3,0.3,12.6-2,17.4-6.8l84.2-85.6c9.1-9.1,9.1-23.8,0-32.8L395.4,549.7L395.4,549.7z M621.8,335
		c-16.7-19.7-38.6-35.9-63.2-44.1c-5.3-59.9-31-113.7-70.6-154.2c-44.4-44.8-105.8-72.8-172.9-72.8c-49.5,0-95.6,15.1-134.3,41.2
		c-35.2,23.3-64.1,55.6-83.3,94.3c-41.7,6.8-79.4,27.3-106.9,57C-41,290.1-60,335.7-60,385.5c0,52,20.8,99.3,54.6,133.4H-6
		c33.5,34.3,79.5,55.5,130.7,55.6v-56.3c-35.7-0.1-68.3-14.8-91.6-38.7c-23.8-24-38.2-57-38.2-93.9c0-35.1,13.7-67.1,35.6-90.7
		c21.8-23.7,52.3-39.1,85.9-40.9c10.6-0.4,20.3-6.8,24.6-17.2c14.8-35.1,39.4-64.5,70.2-85.3c29.4-19.7,65.3-31.6,103.9-31.6
		c52.1,0,99.6,21.5,134,56.3c34.2,35.1,55.6,83.2,55.6,136.6c0,13.3,9.2,25.1,22.5,27.6c21.1,3.9,39.4,14.7,52.8,30.5
		c12.3,15.8,20.2,35.9,20.2,57.7c0,25.1-9.7,47-25.9,63.5c-15.5,16.1-37.3,26.2-61.4,26.2h-0.5h-9v56.3h9h0.7
		c39.1-0.7,74.5-17.2,100.3-42.7c25.7-26.5,41.9-62.7,41.9-103.3C655.4,393.1,642.4,360.4,621.8,335L621.8,335z M604.7,755.2
		c0,12.8-10.4,23.2-23.2,23.2h-568c-12.8,0-23.2-10.4-23.2-23.2v-5.6c0-12.8,10.4-23.2,23.2-23.2h567.9c12.8,0,23.2,10.4,23.2,23.2
		L604.7,755.2L604.7,755.2z"/>
</g>
</svg>
