<?xml version="1.0" encoding="UTF-8"?>
<svg width="22px" height="24px" viewBox="0 0 22 24" version="1.1" xmlns="http://www.w3.org/2000/svg" xmlns:xlink="http://www.w3.org/1999/xlink">
    <!-- Generator: Sketch 45.2 (43514) - http://www.bohemiancoding.com/sketch -->
    <title>Page 1</title>
    <desc>Created with Sketch.</desc>
    <defs></defs>
    <g id="Page-1" stroke="none" stroke-width="1" fill="none" fill-rule="evenodd">
        <g transform="translate(0.916667, 0.923077)" fill-rule="nonzero" fill="#7F7F7F">
            <path d="M10.9486474,11.9620502 C13.2659065,11.9620502 15.1769105,14.1829752 15.1769105,16.956787 L15.1769105,19.0800583 C15.1769105,20.4732868 14.229302,21.5749085 13.1005947,21.5749085 L2.86596316,21.5749085 C1.7372559,21.5749085 0.789647368,20.4732868 0.789647368,19.0800583 L0.789647368,16.956787 C0.789647368,14.1829752 2.70065136,11.9620502 5.01791053,11.9620502 C5.2940529,11.9620502 5.51791053,11.7381926 5.51791053,11.4620502 C5.51791053,11.1859078 5.2940529,10.9620502 5.01791053,10.9620502 C2.112201,10.9620502 -0.210352632,13.6612688 -0.210352632,16.956787 L-0.210352632,19.0800583 C-0.210352632,20.9949385 1.14872832,22.5749085 2.86596316,22.5749085 L13.1005947,22.5749085 C14.8178296,22.5749085 16.1769105,20.9949385 16.1769105,19.0800583 L16.1769105,16.956787 C16.1769105,13.6612688 13.8543569,10.9620502 10.9486474,10.9620502 C10.672505,10.9620502 10.4486474,11.1859078 10.4486474,11.4620502 C10.4486474,11.7381926 10.672505,11.9620502 10.9486474,11.9620502 Z" id="Stroke-1"></path>
            <path d="M12.8153263,6.77365506 C12.8153263,4.08369336 10.6511926,1.90426235 7.98322105,1.90426235 C5.31524955,1.90426235 3.15111579,4.08369336 3.15111579,6.77365506 C3.15111579,9.46399007 5.31504115,11.6430478 7.98322105,11.6430478 C10.651401,11.6430478 12.8153263,9.46399007 12.8153263,6.77365506 Z M13.8153263,6.77365506 C13.8153263,10.0147209 11.2052517,12.6430478 7.98322105,12.6430478 C4.76119043,12.6430478 2.15111579,10.0147209 2.15111579,6.77365506 C2.15111579,3.53297922 4.76138191,0.904262348 7.98322105,0.904262348 C11.2050602,0.904262348 13.8153263,3.53297922 13.8153263,6.77365506 Z" id="Stroke-3"></path>
            <path d="M10.159712,7.77712964 C9.82819837,8.69136813 8.96366113,9.31141377 7.98397368,9.31141377 C7.00271853,9.31141377 6.13678447,8.68930779 5.80685483,7.77345137 C5.71326446,7.5136525 5.42678587,7.3789139 5.166987,7.47250428 C4.90718813,7.56609465 4.77244953,7.85257324 4.8660399,8.11237211 C5.33746371,9.42100422 6.57686019,10.3114138 7.98397368,10.3114138 C9.38884799,10.3114138 10.6262765,9.42393071 11.0998144,8.11802178 C11.1939491,7.85841967 11.0598113,7.57165927 10.8002092,7.4775245 C10.5406071,7.38338974 10.2538467,7.51752752 10.159712,7.77712964 Z" id="Stroke-5"></path>
            <path d="M15.1771053,10.3121717 C17.4943644,10.3121717 19.4053684,12.5330967 19.4053684,15.3069085 L19.4053684,17.4301798 C19.4053684,18.8234083 18.4577599,19.92503 17.3290526,19.92503 C17.0529103,19.92503 16.8290526,20.1488876 16.8290526,20.42503 C16.8290526,20.7011723 17.0529103,20.92503 17.3290526,20.92503 C19.0462875,20.92503 20.4053684,19.34506 20.4053684,17.4301798 L20.4053684,15.3069085 C20.4053684,12.0113902 18.0828148,9.31217166 15.1771053,9.31217166 C14.9009629,9.31217166 14.6771053,9.53602929 14.6771053,9.81217166 C14.6771053,10.088314 14.9009629,10.3121717 15.1771053,10.3121717 Z" id="Stroke-7"></path>
            <path d="M11.8793053,0.791206478 C14.5473578,0.791206478 16.7114105,2.97071931 16.7114105,5.66118219 C16.7114105,7.13845623 16.0546327,8.50713583 14.9432974,9.42692739 C14.730565,9.60299432 14.7008418,9.9181784 14.8769088,10.1309107 C15.0529757,10.3436431 15.3681598,10.3733663 15.5808921,10.1972993 C16.9196286,9.0893003 17.7114105,7.4392814 17.7114105,5.66118219 C17.7114105,2.42002182 15.1012424,-0.208793522 11.8793053,-0.208793522 C11.6031629,-0.208793522 11.3793053,0.0150641028 11.3793053,0.291206478 C11.3793053,0.567348853 11.6031629,0.791206478 11.8793053,0.791206478 Z" id="Stroke-9"></path>
        </g>
    </g>
</svg>