<?xml version="1.0" encoding="UTF-8"?>
<svg width="22px" height="22px" viewBox="0 0 22 22" version="1.1" xmlns="http://www.w3.org/2000/svg" xmlns:xlink="http://www.w3.org/1999/xlink">
    <!-- Generator: Sketch 45.2 (43514) - http://www.bohemiancoding.com/sketch -->
    <title>Group</title>
    <desc>Created with Sketch.</desc>
    <defs></defs>
    <g id="Page-1" stroke="none" stroke-width="1" fill="none" fill-rule="evenodd">
        <g id="Group" fill-rule="nonzero" fill="#7F7F7F">
            <path d="M2,3 C1.44771525,3 1,3.44771525 1,4 L1,20 C1,20.5522847 1.44771525,21 2,21 L20,21 C20.5522847,21 21,20.5522847 21,20 L21,4 C21,3.44771525 20.5522847,3 20,3 L2,3 Z M2,2 L20,2 C21.1045695,2 22,2.8954305 22,4 L22,20 C22,21.1045695 21.1045695,22 20,22 L2,22 C0.8954305,22 1.3527075e-16,21.1045695 0,20 L0,4 C-1.3527075e-16,2.8954305 0.8954305,2 2,2 Z" id="Combined-Shape"></path>
            <path d="M5.5,0 L6,0 L6,4 L6,3 L5,3 L5,5 L5.5,5 L5,5 L5,1 L5,2 L6,2 L6,0 L5.5,0 Z M5,0 L6,0 L6,5 L5,5 L5,0 Z" id="Rectangle"></path>
            <path d="M16.5,0 L17,0 L17,4 L17,3 L16,3 L16,5 L16.5,5 L16,5 L16,1 L16,2 L17,2 L17,0 L16.5,0 Z M16,0 L17,0 L17,5 L16,5 L16,0 Z" id="Rectangle-Copy"></path>
            <path d="M4,11 L6,9 L6,11 L4,9 L6,9 L4,11 L4,9 L6,11 L4,11 Z M4,9 L6,9 L6,11 L4,11 L4,9 Z M4,9 L6,9 L6,11 L4,11 L4,9 Z" id="Rectangle-8"></path>
            <path d="M10,11 L12,9 L12,11 L10,9 L12,9 L10,11 L10,9 L12,11 L10,11 Z M10,9 L12,9 L12,11 L10,11 L10,9 Z M10,9 L12,9 L12,11 L10,11 L10,9 Z" id="Rectangle-8-Copy"></path>
            <path d="M16,11 L18,9 L18,11 L16,9 L18,9 L16,11 L16,9 L18,11 L16,11 Z M16,9 L18,9 L18,11 L16,11 L16,9 Z M16,9 L18,9 L18,11 L16,11 L16,9 Z" id="Rectangle-8-Copy-2"></path>
            <path d="M4,17 L6,15 L6,17 L4,15 L6,15 L4,17 L4,15 L6,17 L4,17 Z M4,15 L6,15 L6,17 L4,17 L4,15 Z M4,15 L6,15 L6,17 L4,17 L4,15 Z" id="Rectangle-8-Copy-5"></path>
            <path d="M10,17 L12,15 L12,17 L10,15 L12,15 L10,17 L10,15 L12,17 L10,17 Z M10,15 L12,15 L12,17 L10,17 L10,15 Z M10,15 L12,15 L12,17 L10,17 L10,15 Z" id="Rectangle-8-Copy-4"></path>
            <path d="M16,17 L18,15 L18,17 L16,15 L18,15 L16,17 L16,15 L18,17 L16,17 Z M16,15 L18,15 L18,17 L16,17 L16,15 Z M16,15 L18,15 L18,17 L16,17 L16,15 Z" id="Rectangle-8-Copy-3"></path>
        </g>
    </g>
</svg>