<?xml version="1.0" encoding="UTF-8"?>
<svg width="24px" height="22px" viewBox="0 0 24 22" version="1.1" xmlns="http://www.w3.org/2000/svg" xmlns:xlink="http://www.w3.org/1999/xlink">
    <!-- Generator: Sketch 45.2 (43514) - http://www.bohemiancoding.com/sketch -->
    <title>Page 1</title>
    <desc>Created with Sketch.</desc>
    <defs></defs>
    <g id="Page-1" stroke="none" stroke-width="1" fill="none" fill-rule="evenodd">
        <g fill="#7F7F7F">
            <path d="M10.044021,8.72093563 C10.4807238,7.93814869 10.7775213,7.16079958 10.9298387,6.4086382 C10.9765544,6.18031517 11,5.98205917 11,5.84628955 C11,3.180443 8.76543357,1 6.00876527,1 C3.24170074,1 1,3.18106063 1,5.84628955 C1,6.05069422 1.01795786,6.24141654 1.05236742,6.41079043 C1.1991457,7.13627919 1.50003242,7.9147714 1.94924642,8.71961871 L6.00610206,15.9523567 L10.044021,8.72093563 Z M6.00876527,0 C9.31221878,0 12,2.62251198 12,5.84628955 C12,6.0547651 11.9691463,6.31777565 11.9095425,6.60908917 C11.7363408,7.46439118 11.4025595,8.33833174 10.9173143,9.20813039 L6.00806404,18 L1.07707591,9.20882071 C0.578507567,8.31555129 0.240518904,7.44092042 0.0722257933,6.60908917 C0.023841524,6.37093001 0,6.11344199 0,5.84628955 C0,2.62251198 2.69549465,0 6.00876527,0 Z" id="Fill-1" fill-rule="nonzero"></path>
            <path d="M6,3 C7.65444566,3 9,4.34555434 9,6 C9,7.65378705 7.65444566,9 6,9 C4.34555434,9 3,7.65378705 3,6 C3,4.34555434 4.34555434,3 6,3 Z M6,4 C4.89703622,4 4,4.89703622 4,6 C4,7.1025247 4.89703622,8 6,8 C7.10296378,8 8,7.1025247 8,6 C8,4.89703622 7.10296378,4 6,4 Z" id="Combined-Shape"></path>
            <path d="M20.7085393,21.500012 L6.18452632,21.500012 L6.18452632,20.631591 L20.7085393,20.631591 C21.9297182,20.631591 23.0535546,19.4054878 23.0535546,18.0579068 C23.0535546,16.6584944 22.0383268,15.4842226 20.8511389,15.4842226 L16.3586204,15.4842226 C14.6626339,15.4842226 13.2387899,13.9048611 13.2387899,12.0421174 C13.2387899,10.1797495 14.6483528,8.60001221 16.3283338,8.60001221 L20.8968753,8.60001221 L20.8968753,9.46843325 L16.3283338,9.46843325 C15.1098879,9.46843325 14.0697616,10.6436427 14.0697616,12.0421174 C14.0697616,13.4154302 15.1453997,14.6158016 16.358679,14.6158016 L20.9322077,14.6172288 C22.5496578,14.6658752 23.8845263,16.2307184 23.8845263,18.0579068 C23.8845263,19.8900956 22.4055334,21.500012 20.7085393,21.500012 Z" id="Fill-5" fill-rule="nonzero"></path>
            <path d="M22,9 C22,9.5523614 21.5523614,10 21,10 C20.4476386,10 20,9.5523614 20,9 C20,8.4476386 20.4476386,8 21,8 C21.5523614,8 22,8.4476386 22,9" id="Fill-8"></path>
            <path d="M7,21 C7,21.5523614 6.5523614,22 6,22 C5.4476386,22 5,21.5523614 5,21 C5,20.4476386 5.4476386,20 6,20 C6.5523614,20 7,20.4476386 7,21" id="Fill-8-Copy"></path>
        </g>
    </g>
</svg>