<?xml version="1.0" standalone="no"?><!DOCTYPE svg PUBLIC "-//W3C//DTD SVG 1.1//EN" "http://www.w3.org/Graphics/SVG/1.1/DTD/svg11.dtd"><svg class="icon" style="" viewBox="0 0 1024 1024" version="1.1" xmlns="http://www.w3.org/2000/svg" p-id="2942" xmlns:xlink="http://www.w3.org/1999/xlink" width="200" height="200"><defs><style type="text/css"><![CDATA[

]]></style></defs><path d="M824.026679 678.805995C871.124937 711.799369 896 750.342383 896 789.354133 896 891.686263 725.631053 981.354133 512 981.354133 298.368949 981.354133 128 891.686263 128 789.354133 128 750.342383 152.875062 711.799369 199.97332 678.805995 209.623203 672.046033 211.965951 658.743232 205.205993 649.093346 198.446035 639.443465 185.14323 637.100715 175.493347 643.860672 117.946467 684.173542 85.333333 734.706419 85.333333 789.354133 85.333333 922.663492 277.912214 1024.0208 512 1024.0208 746.087787 1024.0208 938.666667 922.663492 938.666667 789.354133 938.666667 734.706419 906.053534 684.173542 848.506654 643.860672 838.856768 637.100715 825.553967 639.443465 818.794005 649.093346 812.034048 658.743232 814.376798 672.046033 824.026679 678.805995L824.026679 678.805995ZM524.538889 763.92608C526.927625 762.190677 531.214037 758.952051 537.128448 754.286959 546.874786 746.599373 557.705847 737.641139 569.352218 727.487893 602.578338 698.521532 635.792307 665.704994 666.838933 629.61661 756.522645 525.36887 810.666667 415.229755 810.666667 303.407407 810.666667 135.920301 677.030741 0 512 0 346.96926 0 213.333333 135.920301 213.333333 303.407407 213.333333 415.229755 267.477353 525.36887 357.161068 629.61661 388.207693 665.704994 421.421663 698.521532 454.647782 727.487893 466.294153 737.641139 477.125214 746.599373 486.871552 754.286959 492.785963 758.952051 497.072375 762.190677 499.461111 763.92608 506.93795 769.357973 517.06205 769.357973 524.538889 763.92608L524.538889 763.92608ZM499.461111 729.407253 524.538889 729.407253C522.594291 727.994509 518.755703 725.094242 513.295117 720.787115 504.083119 713.520998 493.78918 705.00701 482.685551 695.326921 450.911671 667.626615 419.125641 636.220932 389.505599 601.790797 305.85598 504.557052 256 403.140615 256 303.407407 256 159.324095 370.696799 42.666667 512 42.666667 653.303202 42.666667 768 159.324095 768 303.407407 768 403.140615 718.144021 504.557052 634.4944 601.790797 604.874359 636.220932 573.088329 667.626615 541.314449 695.326921 530.21082 705.00701 519.916881 713.520998 510.704883 720.787115 505.244297 725.094242 501.405709 727.994509 499.461111 729.407253L499.461111 729.407253ZM512 384C559.128299 384 597.333333 345.794965 597.333333 298.666667 597.333333 251.538368 559.128299 213.333333 512 213.333333 464.871701 213.333333 426.666667 251.538368 426.666667 298.666667 426.666667 345.794965 464.871701 384 512 384L512 384ZM512 341.333333C488.435853 341.333333 469.333333 322.230816 469.333333 298.666667 469.333333 275.102517 488.435853 256 512 256 535.564147 256 554.666667 275.102517 554.666667 298.666667 554.666667 322.230816 535.564147 341.333333 512 341.333333L512 341.333333Z" p-id="2943"></path></svg>