<?xml version="1.0" encoding="UTF-8"?>
<svg width="20px" height="18px" viewBox="0 0 20 18" version="1.1" xmlns="http://www.w3.org/2000/svg" xmlns:xlink="http://www.w3.org/1999/xlink">
    <!-- Generator: Sketch 45.2 (43514) - http://www.bohemiancoding.com/sketch -->
    <title>Group 8</title>
    <desc>Created with Sketch.</desc>
    <defs></defs>
    <g id="Page-1" stroke="none" stroke-width="1" fill="none" fill-rule="evenodd">
        <g id="Group-8" fill-rule="nonzero" fill="#7F7F7F">
            <g id="Group">
                <path d="M2,4.5 L18,4.5 C18.8284271,4.5 19.5,5.17157288 19.5,6 L19.5,16 C19.5,16.8284271 18.8284271,17.5 18,17.5 L2,17.5 C1.17157288,17.5 0.5,16.8284271 0.5,16 L0.5,6 C0.5,5.17157288 1.17157288,4.5 2,4.5 Z M2,5.5 C1.72385763,5.5 1.5,5.72385763 1.5,6 L1.5,16 C1.5,16.2761424 1.72385763,16.5 2,16.5 L18,16.5 C18.2761424,16.5 18.5,16.2761424 18.5,16 L18.5,6 C18.5,5.72385763 18.2761424,5.5 18,5.5 L2,5.5 Z" id="Combined-Shape"></path>
                <path d="M6.44444444,0.5 L13.5555556,0.5 C14.3839827,0.5 15.0555556,1.17157288 15.0555556,2 L15.0555556,4 C15.0555556,4.82842712 14.3839827,5.5 13.5555556,5.5 L6.44444444,5.5 C5.61601732,5.5 4.94444444,4.82842712 4.94444444,4 L4.94444444,2 C4.94444444,1.17157288 5.61601732,0.5 6.44444444,0.5 Z M6.44444444,1.5 C6.16830207,1.5 5.94444444,1.72385763 5.94444444,2 L5.94444444,4 C5.94444444,4.27614237 6.16830207,4.5 6.44444444,4.5 L13.5555556,4.5 C13.8316979,4.5 14.0555556,4.27614237 14.0555556,4 L14.0555556,2 C14.0555556,1.72385763 13.8316979,1.5 13.5555556,1.5 L6.44444444,1.5 Z" id="Rectangle-5"></path>
            </g>
            <polygon id="Line" points="4.5 7.5 4.5 14.5 5.5 14.5 5.5 7.5"></polygon>
            <polygon id="Line-Copy-2" points="14.5 7.5 14.5 14.5695801 15.5 14.5695801 15.5 7.5"></polygon>
        </g>
    </g>
</svg>