<?xml version="1.0" standalone="no"?><!DOCTYPE svg PUBLIC "-//W3C//DTD SVG 1.1//EN" "http://www.w3.org/Graphics/SVG/1.1/DTD/svg11.dtd"><svg width="200" height="200" viewBox="0 0 200 200" version="1.1" xmlns="http://www.w3.org/2000/svg" xmlns:xlink="http://www.w3.org/1999/xlink"><defs><style type="text/css"><![CDATA[
@font-face { font-family: ifont; src: url("//at.alicdn.com/t/font_1442373896_4754455.eot?#iefix") format("embedded-opentype"), url("//at.alicdn.com/t/font_1442373896_4754455.woff") format("woff"), url("//at.alicdn.com/t/font_1442373896_4754455.ttf") format("truetype"), url("//at.alicdn.com/t/font_1442373896_4754455.svg#ifont") format("svg"); }

]]></style></defs><g class="transform-group"><g transform="scale(0.1953125, 0.1953125)"><path d="M870.4 876.8C966.4 787.2 1024 652.8 1024 512c0-281.6-230.4-512-512-512S0 230.4 0 512c0 140.8 57.6 268.8 147.2 358.4 6.4-6.4 6.4-12.8 12.8-19.2 51.2-57.6 185.6-51.2 230.4-102.4 25.6-32 19.2-76.8 6.4-108.8l0 0C371.2 620.8 358.4 588.8 352 544c-12.8 0-19.2-6.4-25.6-19.2L320 473.6C320 460.8 326.4 448 339.2 448c-32-115.2-6.4-256 172.8-256 172.8 0 185.6 160 160 262.4 0 0 0 0 6.4 0 12.8 0 25.6 12.8 19.2 32l-6.4 51.2c0 12.8-12.8 25.6-32 19.2-6.4 25.6-6.4 44.8-19.2 64l0 0c0 0 0 0 0 0C633.6 627.2 627.2 633.6 620.8 640c-12.8 25.6-25.6 70.4 6.4 108.8 51.2 64 179.2 32 224 96C857.6 851.2 864 864 870.4 876.8L870.4 876.8 870.4 876.8 870.4 876.8 870.4 876.8 870.4 876.8zM556.8 825.6c0-6.4 0-12.8 0-12.8l-32-32c-6.4-6.4-19.2-6.4-25.6 0l-32 32c-6.4 6.4-6.4 12.8 0 12.8l6.4 19.2c0 0 0 0 0 0l-32 147.2c0 0 32 32 70.4 32s70.4-32 70.4-32l-32-147.2c0 0 0 0 0 0L556.8 825.6zM870.4 876.8C966.4 787.2 1024 652.8 1024 512c0-281.6-230.4-512-512-512S0 230.4 0 512c0 140.8 57.6 268.8 147.2 358.4 6.4-6.4 6.4-12.8 12.8-19.2 51.2-57.6 185.6-51.2 230.4-102.4 25.6-32 19.2-76.8 6.4-108.8l0 0C371.2 620.8 358.4 588.8 352 544c-12.8 0-19.2-6.4-25.6-19.2L320 473.6C320 460.8 326.4 448 339.2 448c-32-115.2-6.4-256 172.8-256 172.8 0 185.6 160 160 262.4 0 0 0 0 6.4 0 12.8 0 25.6 12.8 19.2 32l-6.4 51.2c0 12.8-12.8 25.6-32 19.2-6.4 25.6-6.4 44.8-19.2 64l0 0c0 0 0 0 0 0C633.6 627.2 627.2 633.6 620.8 640c-12.8 25.6-25.6 70.4 6.4 108.8 51.2 64 179.2 32 224 96C857.6 851.2 864 864 870.4 876.8L870.4 876.8 870.4 876.8 870.4 876.8 870.4 876.8 870.4 876.8zM556.8 825.6c0-6.4 0-12.8 0-12.8l-32-32c-6.4-6.4-19.2-6.4-25.6 0l-32 32c-6.4 6.4-6.4 12.8 0 12.8l6.4 19.2c0 0 0 0 0 0l-32 147.2c0 0 32 32 70.4 32s70.4-32 70.4-32l-32-147.2c0 0 0 0 0 0L556.8 825.6z" fill="#272636"></path></g></g></svg>