<?xml version="1.0" standalone="no"?><!DOCTYPE svg PUBLIC "-//W3C//DTD SVG 1.1//EN" "http://www.w3.org/Graphics/SVG/1.1/DTD/svg11.dtd"><svg width="128" height="128" viewBox="0 0 128 128" version="1.1" xmlns="http://www.w3.org/2000/svg" xmlns:xlink="http://www.w3.org/1999/xlink"><defs><style type="text/css"><![CDATA[
@font-face { font-family: ifont; src: url("//at.alicdn.com/t/font_1442373896_4754455.eot?#iefix") format("embedded-opentype"), url("//at.alicdn.com/t/font_1442373896_4754455.woff") format("woff"), url("//at.alicdn.com/t/font_1442373896_4754455.ttf") format("truetype"), url("//at.alicdn.com/t/font_1442373896_4754455.svg#ifont") format("svg"); }

]]></style></defs><g class="transform-group"><g transform="scale(0.125, 0.125)"><path d="M115.2 856.32C115.2 856.32 115.2 856.32 115.2 856.32c-7.68 0-12.8-6.4-12.8-14.08 5.12-112.64 39.68-195.84 99.84-248.32 33.28-28.16 69.12-43.52 98.56-51.2C256 522.24 204.8 477.44 204.8 382.72c0-168.96 162.56-204.8 163.84-204.8 6.4-1.28 14.08 2.56 15.36 10.24 1.28 6.4-2.56 14.08-10.24 15.36-6.4 1.28-143.36 32-143.36 179.2 0 135.68 117.76 151.04 138.24 153.6 2.56 0 3.84 0 3.84 0 6.4 1.28 11.52 6.4 11.52 14.08 0 6.4-6.4 12.8-12.8 11.52 0 0 0 0-1.28 0-8.96 0-85.76-3.84-149.76 52.48-55.04 47.36-85.76 125.44-90.88 230.4C128 849.92 121.6 856.32 115.2 856.32zM582.4 574.72C473.6 574.72 384 473.6 384 350.72S473.6 126.72 582.4 126.72 780.8 226.56 780.8 350.72 691.2 574.72 582.4 574.72zM582.4 152.32c-94.72 0-172.8 89.6-172.8 198.4s78.08 198.4 172.8 198.4c94.72 0 172.8-89.6 172.8-198.4S677.12 152.32 582.4 152.32zM268.8 908.8c-7.68 0-12.8-5.12-12.8-12.8l0-1.28c0-186.88 152.32-345.6 332.8-345.6 183.04 0 332.8 149.76 332.8 332.8l0 10.24c0 6.4-6.4 12.8-12.8 12.8 0 0 0 0 0 0-7.68 0-12.8-6.4-12.8-12.8l0-10.24c0-168.96-138.24-307.2-307.2-307.2-166.4 0-307.2 145.92-307.2 320L281.6 896C281.6 903.68 276.48 908.8 268.8 908.8z" fill="#272636"></path></g></g></svg>