<?xml version="1.0" encoding="utf-8"?>
<!-- Generator: Adobe Illustrator 19.0.0, SVG Export Plug-In . SVG Version: 6.00 Build 0)  -->
<svg version="1.1" id="图层_1" xmlns="http://www.w3.org/2000/svg" xmlns:xlink="http://www.w3.org/1999/xlink" x="0px" y="0px"
	 viewBox="-274 573 200 200" style="enable-background:new -274 573 200 200;" xml:space="preserve">
<style type="text/css">
	.st0{fill:#272636;}
</style>
<g>
	<g transform="scale(0.1953125, 0.1953125)">
		<path class="st0" d="M-470.1,3042.7h-841.5c-50.3,0-91.3,40.9-91.3,91.2v617.1c0,50.3,41,91.2,91.3,91.2h305.3l115.5,115.4
			l115.5-115.4h305.3c50.3,0,91.2-41,91.2-91.2V3134C-378.9,3083.7-419.8,3042.7-470.1,3042.7z M-449.1,3162v561c0,27-22,49-49,49
			h-311.2l-81.5,81.6l-81.6-81.6h-311.1c-27.1,0-49.1-22-49.1-49v-561c0-27.1,22-49.1,49.1-49.1h785.4
			C-471.1,3113-449.1,3135-449.1,3162z M-1143.5,3369.5H-614c17.9,0,32.6-15.1,32.6-33.6c0-18.6-14.6-33.7-32.6-33.7h-529.6
			c-17.9,0-32.5,15.1-32.5,33.7C-1176.1,3354.4-1161.5,3369.5-1143.5,3369.5z M-614,3481.6h-529.6c-17.9,0-32.5,15.1-32.5,33.6
			c0,18.5,14.6,33.6,32.5,33.6H-614c17.9,0,32.6-15.1,32.6-33.6C-581.4,3496.7-596,3481.6-614,3481.6z M-470.1,3042.7h-841.5
			c-50.3,0-91.3,40.9-91.3,91.2v617.1c0,50.3,41,91.2,91.3,91.2h305.3l115.5,115.4l115.5-115.4h305.3c50.3,0,91.2-41,91.2-91.2V3134
			C-378.9,3083.7-419.8,3042.7-470.1,3042.7z M-449.1,3162v561c0,27-22,49-49,49h-311.2l-81.5,81.6l-81.6-81.6h-311.1
			c-27.1,0-49.1-22-49.1-49v-561c0-27.1,22-49.1,49.1-49.1h785.4C-471.1,3113-449.1,3135-449.1,3162z M-1143.5,3369.5H-614
			c17.9,0,32.6-15.1,32.6-33.6c0-18.6-14.6-33.7-32.6-33.7h-529.6c-17.9,0-32.5,15.1-32.5,33.7
			C-1176.1,3354.4-1161.5,3369.5-1143.5,3369.5z M-614,3481.6h-529.6c-17.9,0-32.5,15.1-32.5,33.6c0,18.5,14.6,33.6,32.5,33.6H-614
			c17.9,0,32.6-15.1,32.6-33.6C-581.4,3496.7-596,3481.6-614,3481.6z M-470.1,3042.7h-841.5c-50.3,0-91.3,40.9-91.3,91.2v617.1
			c0,50.3,41,91.2,91.3,91.2h305.3l115.5,115.4l115.5-115.4h305.3c50.3,0,91.2-41,91.2-91.2V3134
			C-378.9,3083.7-419.8,3042.7-470.1,3042.7z M-449.1,3162v561c0,27-22,49-49,49h-311.2l-81.5,81.6l-81.6-81.6h-311.1
			c-27.1,0-49.1-22-49.1-49v-561c0-27.1,22-49.1,49.1-49.1h785.4C-471.1,3113-449.1,3135-449.1,3162z M-1143.5,3369.5H-614
			c17.9,0,32.6-15.1,32.6-33.6c0-18.6-14.6-33.7-32.6-33.7h-529.6c-17.9,0-32.5,15.1-32.5,33.7
			C-1176.1,3354.4-1161.5,3369.5-1143.5,3369.5z M-614,3481.6h-529.6c-17.9,0-32.5,15.1-32.5,33.6c0,18.5,14.6,33.6,32.5,33.6H-614
			c17.9,0,32.6-15.1,32.6-33.6C-581.4,3496.7-596,3481.6-614,3481.6z"/>
	</g>
</g>
</svg>
