<?xml version="1.0" encoding="UTF-8"?>
<svg width="60px" height="34px" viewBox="0 0 60 34" version="1.1" xmlns="http://www.w3.org/2000/svg" xmlns:xlink="http://www.w3.org/1999/xlink">
    <!-- Generator: Sketch 45.2 (43514) - http://www.bohemiancoding.com/sketch -->
    <title>btn-cs</title>
    <desc>Created with Sketch.</desc>
    <defs>
        <polygon id="path-1" points="30.4204348 33.1308271 0 33.1308271 0 0.0343001504 30.4204348 0.0343001504 30.4204348 33.1308271"></polygon>
    </defs>
    <g id="Page-1" stroke="none" stroke-width="1" fill="none" fill-rule="evenodd">
        <g id="iPhone-7" transform="translate(-230.000000, -316.000000)">
            <g id="btn-cs" transform="translate(230.000000, 316.000000)">
                <g id="Group-3" transform="translate(0.000000, 0.532627)">
                    <mask id="mask-2" fill="white">
                        <use xlink:href="#path-1"></use>
                    </mask>
                    <g id="Clip-2"></g>
                    <path d="M8.26774138,0.0343001504 C7.83946552,0.0343001504 7.40756897,0.158540752 7.0367069,0.416279098 L4.1205,2.4440806 C3.67825862,2.75200241 3.38291379,3.21291068 3.30015517,3.72595128 C3.25360345,4.02266707 3.27998276,4.32181895 3.37308621,4.60196932 C2.3867069,5.57786707 1.36101724,6.58981895 1.08067241,6.86168662 C0.0503275862,7.67777684 -0.288982759,9.02542195 0.261362069,10.2035152 C3.89084483,17.9497949 10.8911897,26.8819633 17.6805,32.4313768 C18.1180862,32.7885077 18.6492931,33.0184746 19.2187759,33.0993528 C19.3672241,33.1203032 19.5167069,33.131022 19.6661897,33.131022 C20.2501552,33.131022 20.8299828,32.9721889 21.3218793,32.6740114 C21.6601552,32.5068956 22.9873966,31.8681528 24.2665345,31.2527964 C24.5256724,31.4174761 24.8179138,31.5232024 25.1205,31.5660776 C25.2229138,31.5806941 25.3268793,31.5880024 25.4308448,31.5880024 C25.8586034,31.5880024 26.2910172,31.4637618 26.6618793,31.2060235 L29.577569,29.178222 C30.0203276,28.8707874 30.3156724,28.4098791 30.3973966,27.8973257 C30.4791207,27.3847723 30.3415345,26.8619874 30.0146379,26.4449287 L24.0042931,18.7741678 C23.6773966,18.3571092 23.187569,18.0793949 22.6429138,18.0019272 C22.5405,17.9877979 22.437569,17.9804896 22.3346379,17.9804896 C21.8939483,17.9804896 21.4610172,18.1125257 21.1015345,18.3624686 L18.1848103,20.3897829 C17.7420517,20.6981919 17.4477414,21.1591002 17.3660172,21.6721408 C17.3318793,21.885055 17.3355,22.0979693 17.3748103,22.305037 L17.1932586,22.4322009 C14.8558448,19.8928205 12.1227414,16.4019032 10.2373966,13.5492415 L10.4153276,13.4250009 C10.617569,13.5234189 10.8337759,13.5877317 11.0556724,13.6194009 C11.1580862,13.6340174 11.2620517,13.6413257 11.3655,13.6413257 C11.7932586,13.6413257 12.2256724,13.5170851 12.5965345,13.2593468 L15.5137759,11.2320325 C15.9560172,10.9245979 16.2508448,10.4632024 16.332569,9.95064902 C16.4142931,9.43760842 16.2772241,8.91579789 15.9508448,8.49825203 L9.93843103,0.827978346 C9.59860345,0.393867068 9.10308621,0.130769323 8.57808621,0.0562249624 C8.47515517,0.0416084211 8.37118966,0.0343001504 8.26774138,0.0343001504 M8.26774138,1.73956331 C8.28067241,1.73956331 8.29463793,1.74053774 8.30808621,1.74248662 C8.35774138,1.74979489 8.42860345,1.77220692 8.48239655,1.84090466 L14.4932586,9.50971669 C14.5356724,9.56379789 14.5527414,9.63005955 14.5423966,9.69680842 C14.5315345,9.76307008 14.4948103,9.82104902 14.4389483,9.86002647 L11.5211897,11.8873408 C11.4746379,11.9199844 11.4229138,11.9360626 11.3655,11.9360626 C11.3520517,11.9360626 11.3386034,11.9350881 11.3251552,11.9331392 C11.2956724,11.9292415 11.2682586,11.9209588 11.2439483,11.9092656 L10.2446379,11.4244836 L9.3405,12.0529949 L9.16205172,12.1772355 L7.81618966,13.1126941 L8.70015517,14.4505949 C10.6330862,17.3748776 13.4298103,20.9466731 15.8251552,23.5489047 L16.9232586,24.7421017 L18.2706724,23.802258 L18.4522241,23.6750941 L19.3553276,23.0456084 L19.1572241,22.0044235 C19.1520517,21.9786009 19.1515345,21.9527783 19.1561897,21.9264686 C19.1665345,21.8597197 19.2042931,21.8012535 19.2596379,21.7622761 L22.1773966,19.7344746 C22.2223966,19.7028054 22.2782586,19.6857528 22.3346379,19.6857528 C22.347569,19.6857528 22.3605,19.6867272 22.373431,19.6881889 C22.4427414,19.6979332 22.5058448,19.7344746 22.5472241,19.7866069 L28.5586034,27.4573678 C28.5999828,27.5109618 28.6180862,27.5781979 28.6072241,27.6429979 C28.5973966,27.7077979 28.5586034,27.7672385 28.5027414,27.8062159 L25.5860172,29.8335302 C25.5399828,29.8661738 25.4872241,29.8827392 25.4308448,29.8827392 C25.4173966,29.8827392 25.4039483,29.8817648 25.3905,29.8798159 C25.3501552,29.8739693 25.3123966,29.8603272 25.2803276,29.8398641 L24.3953276,29.27664 L23.4436034,29.7341377 C22.1737759,30.344622 20.828431,30.9921347 20.4808448,31.1641227 L20.4099828,31.1992024 L20.3427414,31.2401287 C20.1451552,31.3594971 19.9046379,31.4257588 19.6661897,31.4257588 C19.6061897,31.4257588 19.5467069,31.4213738 19.4882586,31.4130911 C19.2580862,31.3804475 19.0429138,31.2873889 18.8670517,31.1436595 C12.2608448,25.743822 5.4492931,17.051852 1.91860345,9.51653774 C1.69618966,9.04052571 1.82808621,8.49825203 2.24601724,8.16645654 L2.31532759,8.11188812 L2.37843103,8.05049865 C2.68308621,7.75621895 3.80032759,6.65218286 4.68377586,5.77811368 L5.4192931,5.05118436 L5.10067241,4.09282647 C5.08877586,4.05482346 5.08515517,4.01730767 5.09032759,3.9802791 C5.10118966,3.91499188 5.13946552,3.85555128 5.19584483,3.81608662 L8.11205172,1.78877233 C8.15860345,1.75612872 8.21084483,1.73956331 8.26774138,1.73956331" id="Fill-1" fill="#161616" mask="url(#mask-2)"></path>
                </g>
                <path d="M40.0240345,15.6611856 L34.9607586,15.6611856 L34.9152414,15.7040608 C35.7164483,16.3301359 36.5931724,16.8573059 37.5304138,17.2982382 C38.5726552,16.8144307 39.4043793,16.2594893 40.0240345,15.6611856 L40.0240345,15.6611856 Z M34.175069,22.9075795 L40.6736897,22.9075795 L40.6736897,20.9143705 L34.175069,20.9143705 L34.175069,22.9075795 Z M41.7319655,24.4452397 L40.6736897,24.4452397 L40.6736897,23.8328066 L34.1745517,23.8328066 L34.1745517,24.4452397 L33.1167931,24.4452397 L33.1167931,19.9891435 L41.7319655,19.9891435 L41.7319655,24.4452397 Z M43.4243793,15.105757 L42.3211034,15.105757 L42.3211034,13.340566 L32.255069,13.340566 L32.255069,15.105757 L31.1523103,15.105757 L31.1523103,12.4153389 L36.6836897,12.4153389 C36.5021379,12.0450532 36.3211034,11.7176427 36.1245517,11.4184908 L37.3188621,11.2474773 C37.4998966,11.5899916 37.665931,11.9880487 37.8474828,12.4153389 L43.4243793,12.4153389 L43.4243793,15.105757 Z M36.4416207,13.8531194 C36.215069,14.1805299 35.9885172,14.4938111 35.7464483,14.792963 L41.3238621,14.792963 L41.3238621,15.6183104 C40.7036897,16.4300156 39.8124828,17.1418412 38.6486897,17.7684036 C40.2955862,18.3803495 42.140069,18.7506352 44.180069,18.8929029 L43.9385172,19.8181299 C41.5204138,19.6476036 39.3888621,19.1491795 37.5148966,18.2950863 C35.7314483,19.0634292 33.4798966,19.6617329 30.7592069,20.1031525 L30.3511034,19.1920547 C32.7842069,18.821769 34.8097241,18.3516036 36.4116207,17.7542743 C35.6404138,17.3269841 34.9302414,16.8431765 34.2805862,16.3018773 C33.6914483,16.8003014 33.0562759,17.2412337 32.3911034,17.6402653 L31.695931,16.8431765 C33.1923103,16.0314713 34.4166207,14.9634893 35.3838621,13.6397179 L36.4416207,13.8531194 Z" id="Fill-4" fill="#161616"></path>
                <path d="M56.2570345,21.0710111 C56.8161724,20.2169179 57.2242759,19.2346863 57.4963448,18.1101871 L54.6246207,18.1101871 C54.9422069,19.2064277 55.4863448,20.188172 56.2570345,21.0710111 L56.2570345,21.0710111 Z M53.3247931,24.4167374 L52.2970345,24.4167374 L52.2970345,11.9459044 L58.4185862,11.9459044 C58.4185862,13.7110953 58.3275517,14.8779826 58.146,15.4475405 C57.9649655,16.0312277 57.4058276,16.3303795 56.4535862,16.3303795 L55.2292759,16.3303795 L54.9422069,15.4475405 C55.1987586,15.4475405 55.5318621,15.4616698 55.9549655,15.4616698 C56.3175517,15.4616698 56.5741034,15.4334111 56.7556552,15.3910232 C56.9366897,15.3340186 57.0732414,15.191751 57.1637586,14.9778623 C57.2697931,14.6650683 57.3297931,13.9668848 57.3603103,12.8847735 L53.3247931,12.8847735 L53.3247931,17.1990893 L58.4641034,17.1990893 L58.4641034,18.0673119 C58.1765172,19.5338382 57.6778966,20.7864758 56.9822069,21.8115826 C57.6628966,22.438145 58.4641034,22.9930863 59.3858276,23.4915104 L58.8416897,24.3597329 C57.8744483,23.8330502 57.0582414,23.2498502 56.3625517,22.6086713 C55.6978966,23.3346262 54.9272069,23.9188006 54.0204828,24.3738623 L53.4458276,23.5485149 C54.3070345,23.1070953 55.0327241,22.5516668 55.6373793,21.8685871 C54.6701379,20.7577299 54.0204828,19.5050923 53.6873793,18.1101871 L53.3247931,18.1101871 L53.3247931,24.4167374 Z M47.5968621,18.5939946 L50.0299655,18.5939946 L50.0299655,16.2163705 L47.5968621,16.2163705 L47.5968621,18.5939946 Z M47.5968621,15.2906562 L50.0299655,15.2906562 L50.0299655,12.8847735 L47.5968621,12.8847735 L47.5968621,15.2906562 Z M46.508069,24.4308668 L45.6923793,23.7195284 C46.2970345,22.438145 46.5991034,20.7864758 46.6141034,18.7932668 L46.6141034,11.9595465 L51.0277241,11.9595465 L51.0277241,23.0647074 C51.0277241,23.9188006 50.6041034,24.3597329 49.7584138,24.3597329 L48.5491034,24.3597329 L48.2920345,23.4486352 C48.7151379,23.4768938 49.0927241,23.5056397 49.4558276,23.5056397 C49.8334138,23.5056397 50.0299655,23.2498502 50.0299655,22.7368096 L50.0299655,19.5192217 L47.5818621,19.5192217 C47.4908276,21.5124307 47.1282414,23.1499705 46.508069,24.4308668 L46.508069,24.4308668 Z" id="Fill-8" fill="#161616"></path>
                <path d="M25.5743103,-0.000194887218 C22.1962069,-0.000194887218 19.0808621,1.05852992 16.5789655,2.84077353 L17.657931,4.21716451 C19.8598276,2.64247579 22.6027586,1.70506827 25.5743103,1.70506827 C30.3231034,1.70506827 34.4894828,4.09389835 36.7922414,7.66325774 L38.8658621,7.66325774 C36.3934483,3.11507729 31.3715517,-0.000194887218 25.5743103,-0.000194887218" id="Fill-12" fill="#161616"></path>
            </g>
        </g>
    </g>
</svg>