<?xml version="1.0" encoding="utf-8"?>
<!-- Generator: Adobe Illustrator 19.0.0, SVG Export Plug-In . SVG Version: 6.00 Build 0)  -->
<svg version="1.1" id="图层_1" xmlns="http://www.w3.org/2000/svg" xmlns:xlink="http://www.w3.org/1999/xlink" x="0px" y="0px"
	 viewBox="-274 573 200 200" style="enable-background:new -274 573 200 200;" xml:space="preserve">
<g>
	<path d="M-231.8,596.1c-11.2,0-20.2,9.1-20.2,20.2c0,11.2,9.1,20.2,20.2,20.2c11.2,0,20.1-9.1,20.2-20.2
		C-211.7,605.2-220.8,596.1-231.8,596.1z M-231.8,629.3c-7.1,0-12.9-5.8-12.9-12.9c0-7.1,5.8-12.9,12.9-12.9
		c7.1,0,12.9,5.8,12.9,12.9C-219.1,623.5-224.8,629.3-231.8,629.3z"/>
	<path d="M-231.8,578c-23.3,0-42.2,18.9-42.2,42.2c0,34.1,39.6,78.6,41.2,80.4l0.9,1l0.9-1c0.1-0.1,10.5-11,20.7-26.2
		c17.2-25.6,20.6-43.7,20.5-54.2C-189.8,596.9-208.6,578-231.8,578z M-216.2,670.1c-5.6,8.5-11.4,15.6-15.5,20.4
		c-4-5-9.8-12.5-15.6-21.2c-5.8-8.8-10.3-17.2-13.5-24.8c-3.9-9.2-5.9-17.4-5.9-24.4c0-4.7,1-9.3,2.7-13.6c1.7-4.2,4.3-7.8,7.5-11
		c3.2-3.2,7-5.8,11-7.5c4.3-1.8,8.8-2.7,13.6-2.7c4.8,0,9.3,0.9,13.6,2.7c4.2,1.7,7.8,4.3,11,7.5c3.2,3.2,5.8,7,7.5,11
		c1.8,4.3,2.7,8.8,2.7,13.6c0.1,7.5-1.8,16.1-5.8,25.4C-205.9,653.3-210.5,661.5-216.2,670.1z"/>
	<path d="M-115.9,661.1c-11.2,0-20.2,9.1-20.2,20.2c0,11.2,9.1,20.2,20.2,20.2s20.1-9.1,20.2-20.2
		C-95.7,670.2-104.8,661.1-115.9,661.1z M-115.9,694.2c-7.1,0-12.9-5.8-12.9-12.9s5.8-12.9,12.9-12.9c7.1,0,12.9,5.8,12.9,12.9
		S-108.8,694.2-115.9,694.2z"/>
	<path d="M-115.9,643c-23.3,0-42.2,18.9-42.2,42.2c0,34.1,39.6,78.6,41.2,80.4l0.9,1l0.9-1c0.1-0.1,10.5-11,20.7-26.2
		c17.2-25.6,20.6-43.7,20.5-54.2C-73.8,661.9-92.6,643-115.9,643z M-100.2,735.1c-5.6,8.5-11.4,15.6-15.5,20.4
		c-4-5-9.8-12.5-15.6-21.2c-5.8-8.8-10.3-17.2-13.5-24.8c-3.9-9.2-5.9-17.4-5.9-24.4c0-4.7,1-9.3,2.7-13.6c1.7-4.2,4.3-7.8,7.5-11
		s7-5.8,11-7.5c4.3-1.8,8.8-2.7,13.6-2.7s9.3,0.9,13.6,2.7c4.2,1.7,7.8,4.3,11,7.5c3.2,3.2,5.8,7,7.5,11c1.8,4.3,2.7,8.8,2.7,13.6
		c0.1,7.5-1.8,16.1-5.8,25.4C-90.1,718.3-94.6,726.5-100.2,735.1z"/>
	<path d="M-167.2,723.3c-0.7,0.2-17.2,6.3-22.8-7.8c-2.7-6.7,2.9-12.8,11.8-21.1c7.2-6.9,14.7-13.9,14.2-22.7
		c-0.2-4.8-2.1-8.6-5.4-11.4c-5.3-4.3-14.2-5.6-25.9-3.9c-1.6,0.2-2.8,1.7-2.6,3.4c0.2,1.6,1.7,2.8,3.4,2.6
		c9.8-1.5,17.3-0.5,21.1,2.7c2,1.7,3.1,3.9,3.2,7c0.4,6-6.1,12.1-12.4,18c-8.2,7.8-17.7,16.7-13.2,27.7c4,10.2,12.5,13.1,20,13.1
		c4,0,7.8-0.9,10.5-1.8c1.6-0.6,2.3-2.3,1.7-3.9C-163.9,723.6-165.6,722.8-167.2,723.3z"/>
</g>
</svg>
