<?xml version="1.0" encoding="utf-8"?>
<!-- Generator: Adobe Illustrator 19.0.0, SVG Export Plug-In . SVG Version: 6.00 Build 0)  -->
<svg version="1.1" id="图层_1" xmlns="http://www.w3.org/2000/svg" xmlns:xlink="http://www.w3.org/1999/xlink" x="0px" y="0px"
	 viewBox="-391.5 322 124 151.5" style="enable-background:new -391.5 322 124 151.5;" xml:space="preserve">
<style type="text/css">
	.st0{fill:#898989;}
	.st1{fill:none;stroke:#898989;stroke-width:6;stroke-linecap:round;stroke-linejoin:round;stroke-miterlimit:10;}
</style>
<g id="XMLID_4_">
	<g id="XMLID_5_" transform="scale(0.1953125, 0.1953125)">
		<path id="XMLID_6_" class="st0" d="M-1441.4,1992.2c3.1,1.8,6.2,3.7,9.3,5.8l9.3,6.3l0.2,11.1c0.5,32.2-3.4,59.6-11.8,80.6
			c-7.8,19.2-19.3,33.6-34.8,42.3c-10.5,37.5-22.8,72.3-40.3,101.5c-20.1,33.6-46.7,59.5-84.2,73.4c-16.8,6.2-59.7,9-100.9,8.4
			c-39.8-0.6-79.8-4.5-95.7-11.9c-34.1-15.7-58.1-42.1-76.3-75.1c-15.6-28.1-26.7-60.8-36.4-95.4c-16-8.3-28-22.6-36-42
			c-8.8-21.1-12.9-48.9-12.3-81.8l0.1-11.2l9.3-6.2c2.4-1.6,4.7-3.1,7.1-4.5c-10.4-129.2-6.5-176.9,41.5-231.5
			c93.6-76.6,308-73.9,402.8-4.5C-1426.1,1818.5-1421.6,1886.8-1441.4,1992.2L-1441.4,1992.2L-1441.4,1992.2z M-1523.8,1946.4
			c-60.6,11.9-150.8,22.2-222.2-17.9c-27.4-15.4-67.6,16.2-100.5,12.9c-10.2,20.2-17.8,42.3-22.2,65.6l-3.7,19.4l-19.5-1.9
			c-3.6-0.3-7.4,0.1-11.3,1.4c-1.8,0.5-3.5,1.3-5.3,2.1c0.5,21.5,3.5,39.3,9.1,52.6c4.9,11.7,11.7,19.4,20.6,22.2l11.4,3.5l3.1,11.4
			c9.6,35.4,20.3,68.8,35.3,96c14,25.3,31.8,45.3,56.6,56.7c10.4,4.7,43.5,7.5,78.1,8c36.8,0.5,73.5-1.4,85.6-5.9
			c27.2-10.1,46.9-29.5,62.1-55c16.4-27.4,28-62.2,38.3-100.3l2.9-10.9l10.8-3.8c8.6-3.1,15.2-10.8,20-22.7
			c5.3-13.2,8.3-30.8,8.8-51.8c-1.6-0.7-3.2-1.4-4.8-1.9c-3.8-1.3-7.5-1.9-11-1.7l-19,1.2l-3.5-18.7
			C-1508,1985.5-1514.8,1965.1-1523.8,1946.4L-1523.8,1946.4z"/>
	</g>
</g>
<g id="XMLID_9_">
	<circle id="XMLID_1_" class="st0" cx="-344.9" cy="399" r="4"/>
	<circle id="XMLID_8_" class="st0" cx="-314.1" cy="399" r="4"/>
</g>
<line id="XMLID_7_" class="st1" x1="-337.4" y1="425.8" x2="-321.6" y2="425.8"/>
</svg>
