<?xml version="1.0" encoding="utf-8"?>
<!-- Generator: Adobe Illustrator 19.0.0, SVG Export Plug-In . SVG Version: 6.00 Build 0)  -->
<svg version="1.1" id="图层_1" xmlns="http://www.w3.org/2000/svg" xmlns:xlink="http://www.w3.org/1999/xlink" x="0px" y="0px"
	 viewBox="-219 141 200 200" style="enable-background:new -219 141 200 200;" xml:space="preserve">
<style type="text/css">
	.st0{fill:#272636;}
</style>
<g>
	<g transform="scale(0.1953125, 0.1953125)">
		<path class="st0" d="M-459.9,1361.9h-298.7c-12.8,0-21.3,8.5-21.3,21.3s8.5,21.3,21.3,21.3h298.7c12.8,0,21.3-8.5,21.3-21.3
			S-447.1,1361.9-459.9,1361.9z M-280.7,1191.3l-55.5-194.1c-10.7-36.3-42.7-61.9-81.1-61.9h-384c-38.4,0-72.5,25.6-81.1,61.9
			l-55.5,194.1c-55.5,6.4-98.1,51.2-98.1,106.7v192c0,23.5,19.2,42.7,42.7,42.7v42.7c0,23.5,19.2,42.7,42.7,42.7h85.3
			c23.5,0,42.7-19.2,42.7-42.7v-42.7h426.7v42.7c0,23.5,19.2,42.7,42.7,42.7h85.3c23.5,0,42.7-19.2,42.7-42.7v-42.7
			c23.5,0,42.7-19.2,42.7-42.7v-192C-182.6,1242.5-225.3,1197.7-280.7,1191.3z M-841.8,1009.9c4.3-19.2,21.3-32,40.5-32h384
			c19.2,0,36.3,12.8,40.5,32l51.2,181.3H-893L-841.8,1009.9z M-929.3,1233.9c36.3,0,64,27.7,64,64s-27.7,64-64,64
			c-36.3,0-64-27.7-64-64S-965.5,1233.9-929.3,1233.9z M-865.3,1575.3h-85.3v-42.7h85.3V1575.3z M-267.9,1575.3h-85.3v-42.7h85.3
			V1575.3z M-225.3,1489.9h-170.7h-426.7h-170.7v-106.7c17.1,12.8,40.5,21.3,64,21.3c59.7,0,106.7-46.9,106.7-106.7
			c0-23.5-8.5-46.9-21.3-64h469.3c-12.8,17.1-21.3,40.5-21.3,64c0,59.7,46.9,106.7,106.7,106.7c23.5,0,46.9-8.5,64-21.3V1489.9z
			 M-289.3,1361.9c-36.3,0-64-27.7-64-64s27.7-64,64-64s64,27.7,64,64S-253,1361.9-289.3,1361.9z"/>
	</g>
</g>
</svg>
