<?xml version="1.0" standalone="no"?><!DOCTYPE svg PUBLIC "-//W3C//DTD SVG 1.1//EN" "http://www.w3.org/Graphics/SVG/1.1/DTD/svg11.dtd"><svg width="200" height="200" viewBox="0 0 200 200" version="1.1" xmlns="http://www.w3.org/2000/svg" xmlns:xlink="http://www.w3.org/1999/xlink"><defs><style type="text/css"><![CDATA[
@font-face { font-family: ifont; src: url("//at.alicdn.com/t/font_1442373896_4754455.eot?#iefix") format("embedded-opentype"), url("//at.alicdn.com/t/font_1442373896_4754455.woff") format("woff"), url("//at.alicdn.com/t/font_1442373896_4754455.ttf") format("truetype"), url("//at.alicdn.com/t/font_1442373896_4754455.svg#ifont") format("svg"); }

]]></style></defs><g class="transform-group"><g transform="scale(0.1953125, 0.1953125)"><path d="M771.804652 591.585593c-8.476045-3.91517-18.503423-0.587378-23.133883 7.565303-47.983851 85.793992-138.716318 139.079592-236.631372 139.079592-97.92017 0-188.663894-53.2856-236.645698-139.079592-4.616134-8.15268-14.785751-11.543917-23.137976-7.565303C19.343045 697.795567 16.53714 939.625334 16.53714 942.039313c0 4.826935 1.892093 9.389858 5.2864 12.719696 3.388167 3.388167 7.939833 5.278213 12.697183 5.278213l955.021999 0c4.756327 0 9.391904-1.89107 12.70537-5.278213 3.38612-3.329838 5.214768-7.892761 5.214768-12.719696C1007.46286 939.625334 1004.660025 697.795567 771.804652 591.585593zM53.50203 924.105872c4.955872-53.220109 33.70259-209.55162 199.210088-292.837488 56.186673 88.570221 154.046468 142.927223 259.326257 142.927223 105.264439 0 203.130374-54.357002 259.316024-142.927223 165.567873 83.285868 194.248076 239.617379 199.209064 292.837488L53.50203 924.105872zM512.038374 673.272034c115.245767 0 208.982662-93.750197 208.982662-209.093179l0-191.122899c0-115.341958-93.736894-209.094202-208.982662-209.094202-115.194602 0-208.92638 93.752244-208.92638 209.094202l0 191.122899C303.111994 579.521836 396.843772 673.272034 512.038374 673.272034zM339.033112 273.055956c0-95.452979 77.555353-173.157735 173.005262-173.157735 95.503121 0 173.072801 77.705779 173.072801 173.157735l0 191.122899c0 95.445816-77.56968 173.22118-173.072801 173.22118-95.449909 0-173.005262-77.775364-173.005262-173.22118L339.033112 273.055956z" fill="#272636"></path></g></g></svg>