<?xml version="1.0" standalone="no"?><!DOCTYPE svg PUBLIC "-//W3C//DTD SVG 1.1//EN" "http://www.w3.org/Graphics/SVG/1.1/DTD/svg11.dtd"><svg width="200" height="200" viewBox="0 0 200 200" version="1.1" xmlns="http://www.w3.org/2000/svg" xmlns:xlink="http://www.w3.org/1999/xlink"><defs><style type="text/css"><![CDATA[
@font-face { font-family: ifont; src: url("//at.alicdn.com/t/font_1442373896_4754455.eot?#iefix") format("embedded-opentype"), url("//at.alicdn.com/t/font_1442373896_4754455.woff") format("woff"), url("//at.alicdn.com/t/font_1442373896_4754455.ttf") format("truetype"), url("//at.alicdn.com/t/font_1442373896_4754455.svg#ifont") format("svg"); }

]]></style></defs><g class="transform-group"><g transform="scale(0.1953125, 0.1953125)"><path d="M703.521476 332.052628l-5.591345 0L697.930131 253.997901l-50.960649 0 0 78.05575L366.681822 332.053652 366.681822 253.997901l-50.940183 0 0 78.05575-5.628184 0c-64.319911 0-116.64565 52.306296-116.64565 116.646674l0 333.925279c0 64.335261 52.329832 116.66407 116.64565 116.66407l18.355043 0 0 7.274684c0 18.770506 15.223726 33.970696 33.969673 33.970696 18.755156 0 33.977859-15.20019 33.977859-33.970696l0-7.274684 220.842781 0 0 7.274684c0 18.770506 15.20633 33.970696 33.976836 33.970696 18.749016 0 33.969673-15.20019 33.969673-33.970696l0-7.274684 18.316158 0c64.335261 0 116.665093-52.328809 116.665093-116.66407l0-333.925279C820.18657 384.359948 767.856737 332.052628 703.521476 332.052628M766.809895 782.620487c0 34.883485-28.384467 63.266929-63.288418 63.266929L310.113455 845.887416c-34.883485 0-63.267952-28.383444-63.267952-63.266929L246.845503 448.699302c0-34.888602 28.384467-63.269999 63.267952-63.269999l393.408021 0c34.902928 0 63.288418 28.381397 63.288418 63.269999L766.809895 782.620487zM703.521476 332.052628l-5.591345 0L697.930131 253.997901l-50.960649 0 0 78.05575L366.681822 332.053652 366.681822 253.997901l-50.940183 0 0 78.05575-5.628184 0c-64.319911 0-116.64565 52.306296-116.64565 116.646674l0 333.925279c0 64.335261 52.329832 116.66407 116.64565 116.66407l18.355043 0 0 7.274684c0 18.770506 15.223726 33.970696 33.969673 33.970696 18.755156 0 33.977859-15.20019 33.977859-33.970696l0-7.274684 220.842781 0 0 7.274684c0 18.770506 15.20633 33.970696 33.976836 33.970696 18.749016 0 33.969673-15.20019 33.969673-33.970696l0-7.274684 18.316158 0c64.335261 0 116.665093-52.328809 116.665093-116.66407l0-333.925279C820.18657 384.359948 767.856737 332.052628 703.521476 332.052628zM766.809895 782.620487c0 34.883485-28.384467 63.266929-63.288418 63.266929L310.113455 845.887416c-34.883485 0-63.267952-28.383444-63.267952-63.266929L246.845503 448.699302c0-34.888602 28.384467-63.269999 63.267952-63.269999l393.408021 0c34.902928 0 63.288418 28.381397 63.288418 63.269999L766.809895 782.620487zM370.861004 462.256062c-14.069437 0-25.467021 11.416004-25.467021 25.487487l0 255.833713c0 14.071484 11.397584 25.486464 25.467021 25.486464 14.09502 0 25.492604-11.414981 25.492604-25.486464L396.353608 487.74355C396.353608 473.672066 384.956024 462.256062 370.861004 462.256062M370.861004 462.256062c-14.069437 0-25.467021 11.416004-25.467021 25.487487l0 255.833713c0 14.071484 11.397584 25.486464 25.467021 25.486464 14.09502 0 25.492604-11.414981 25.492604-25.486464L396.353608 487.74355C396.353608 473.672066 384.956024 462.256062 370.861004 462.256062zM642.786207 462.256062c-14.071484 0-25.468045 11.416004-25.468045 25.487487l0 255.833713c0 14.071484 11.396561 25.486464 25.468045 25.486464 14.075577 0 25.491581-11.414981 25.491581-25.486464L668.277788 487.74355C668.278811 473.672066 656.861784 462.256062 642.786207 462.256062M642.786207 462.256062c-14.071484 0-25.468045 11.416004-25.468045 25.487487l0 255.833713c0 14.071484 11.396561 25.486464 25.468045 25.486464 14.075577 0 25.491581-11.414981 25.491581-25.486464L668.277788 487.74355C668.278811 473.672066 656.861784 462.256062 642.786207 462.256062zM366.681822 193.102996c0-32.780591 26.678616-59.439764 59.464323-59.439764l161.383574 0c32.780591 0 59.439764 26.65508 59.439764 59.439764l0 26.91807 50.960649 0 0-26.91807c0-60.870346-49.533137-110.400413-110.400413-110.400413L426.146145 82.702584c-60.888765 0-110.405529 49.533137-110.405529 110.400413l0 26.91807 50.940183 0L366.680798 193.102996zM366.681822 193.102996c0-32.780591 26.678616-59.439764 59.464323-59.439764l161.383574 0c32.780591 0 59.439764 26.65508 59.439764 59.439764l0 26.91807 50.960649 0 0-26.91807c0-60.870346-49.533137-110.400413-110.400413-110.400413L426.146145 82.702584c-60.888765 0-110.405529 49.533137-110.405529 110.400413l0 26.91807 50.940183 0L366.680798 193.102996z" fill="#272636"></path></g></g></svg>