<?xml version="1.0" encoding="utf-8"?>
<!-- Generated by IcoMoon.io -->
<!DOCTYPE svg PUBLIC "-//W3C//DTD SVG 1.1//EN" "http://www.w3.org/Graphics/SVG/1.1/DTD/svg11.dtd">
<svg version="1.1" xmlns="http://www.w3.org/2000/svg" xmlns:xlink="http://www.w3.org/1999/xlink" width="1024" height="1024" viewBox="0 0 1024 1024">
<g id="icomoon-ignore">
</g>
<path fill="#000" d="M515.584 589.824c-142.336 0-258.56-115.712-258.56-258.56s115.712-258.56 258.56-258.56 258.56 115.712 258.56 258.56-116.224 258.56-258.56 258.56zM515.584 88.576c-134.144 0-243.2 109.056-243.2 243.2s109.056 243.2 243.2 243.2 243.2-109.056 243.2-243.2-109.056-243.2-243.2-243.2z"></path>
<path fill="#000" d="M345.6 339.456c-4.096 0-7.68-3.584-7.68-7.68 0-94.72 77.312-172.032 172.032-172.032 4.096 0 7.68 3.584 7.68 7.68s-3.584 7.68-7.68 7.68c-86.016-0.512-156.672 70.144-156.672 156.672 0 4.096-3.072 7.68-7.68 7.68z"></path>
<path fill="#000" d="M514.048 950.784c-4.096 0-7.68-3.584-7.68-7.68v-360.96c0-4.096 3.584-7.68 7.68-7.68s7.68 3.584 7.68 7.68v360.96c0 4.096-3.584 7.68-7.68 7.68z"></path>
</svg>
