<?xml version="1.0" encoding="utf-8"?>
<!-- Generator: Adobe Illustrator 19.0.0, SVG Export Plug-In . SVG Version: 6.00 Build 0)  -->
<svg version="1.1" id="图层_1" xmlns="http://www.w3.org/2000/svg" xmlns:xlink="http://www.w3.org/1999/xlink" x="0px" y="0px"
	 viewBox="-143 0 898 841.9" style="enable-background:new -143 0 898 841.9;" xml:space="preserve">
<style type="text/css">
	.st0{fill:#272636;}
</style>
<g>
	<path class="st0" d="M298,65.5c108,0,195.9,87.9,195.9,195.9S406,457.3,298,457.3s-195.9-87.9-195.9-195.9
		C102.1,153.4,190,65.5,298,65.5 M298,29.9c-127.9,0-231.5,103.6-231.5,231.5S170.1,492.9,298,492.9s231.5-103.6,231.5-231.5
		S425.8,29.9,298,29.9L298,29.9L298,29.9z"/>
	<path class="st0" d="M298,492.9c148.2,0,278.5,89.7,331.9,228.5l0.8,2.1l1.1,2c3,5.6,4.5,11.2,4.5,16.7c0,19.6-16,35.6-35.6,35.6
		H-4.8c-19.6,0-35.6-16-35.6-35.6c0-5.5,1.5-11.1,4.5-16.7l1.1-2l0.8-2.1C19.5,582.6,149.8,492.9,298,492.9 M298,457.3
		c-166.8,0-308.6,104.4-365.2,251.3c-5.4,10.1-8.8,21.4-8.8,33.6c0,39.3,31.9,71.2,71.2,71.2h605.5c39.3,0,71.2-31.9,71.2-71.2
		c0-12.2-3.4-23.6-8.8-33.6C606.6,561.7,464.7,457.3,298,457.3L298,457.3L298,457.3z"/>
</g>
</svg>
