<?xml version="1.0" encoding="utf-8"?>
<!-- Generator: Adobe Illustrator 19.0.0, SVG Export Plug-In . SVG Version: 6.00 Build 0)  -->
<svg version="1.1" id="图层_1" xmlns="http://www.w3.org/2000/svg" xmlns:xlink="http://www.w3.org/1999/xlink" x="0px" y="0px"
	 viewBox="0 0 200 200" style="enable-background:new 0 0 200 200;" xml:space="preserve">
<style type="text/css">
	.st0{fill:#272636;}
</style>
<g>
	<g>
		<path class="st0" d="M46.2,119.5l-30.2-9l-0.6,2.8c-0.1,0.4-2,9.4,2.7,15.2c2.5,3.1,6.3,4.7,11.2,4.7c2.3,0,4.9-0.4,7.7-1.1
			c5-1.2,8.3-3.3,9.6-6.1c1.3-2.8,0.2-5.1,0.1-5.4L46.2,119.5L46.2,119.5z M41.8,123.8c-0.3,0.6-1.5,2.1-6,3.2
			c-2.4,0.6-4.6,0.9-6.5,0.9c-3.3,0-5.6-0.9-7.1-2.7c-1.9-2.3-2.1-5.6-2-7.9l21.7,6.4C41.9,123.7,41.8,123.8,41.8,123.8L41.8,123.8z
			 M122.4,110.5l-29.9,9l-0.5,1c-0.1,0.3-1.2,2.6,0,5.4c1.3,2.8,4.5,4.9,9.6,6.1c2.8,0.7,5.4,1.1,7.7,1.1c4.9,0,8.6-1.6,11.1-4.6
			c4.7-5.8,2.6-14.8,2.5-15.2L122.4,110.5L122.4,110.5z M116.4,125.2c-2.3,2.8-6.8,3.4-13.4,1.8c-4.5-1.1-5.7-2.6-6-3.2
			c0,0,0-0.1-0.1-0.1l21.4-6.4C118.4,119.8,118.1,123.1,116.4,125.2L116.4,125.2z M49.2,100.8h39.6v-5.2H49.2V100.8L49.2,100.8z
			 M126.2,102.1c-0.5-0.1-0.8-0.4-0.8-0.5s0-0.4,0.4-0.9l1.6-2.1c1.5-1.9,1.8-4,0.9-5.7c-0.9-1.7-2.7-2.7-5.2-2.7h-5.3
			c-2.2,0-5.6-1.4-7.1-2.9c-0.6-0.6-14.6-14.2-35.1-15.3l0,0H65.1c-22,0-37.1,14.8-37.8,15.4c-1.5,1.5-5,2.9-7.1,2.9h-5.3
			c-2.4,0-4.3,1-5.2,2.7s-0.5,3.8,0.9,5.7l1.6,2.1c0.3,0.4,0.4,0.8,0.4,0.9s-0.3,0.3-0.8,0.5c-0.3,0.1-7.4,2-7.4,14.3v39.2
			c0,4.3,3.6,7.8,7.9,7.8h15.8c4.4,0,7.9-3.5,7.9-7.8c0-1.4,1.2-2.6,2.6-2.6h60.7c1.5,0,2.6,1.2,2.6,2.6c0,4.3,3.6,7.8,7.9,7.8h15.8
			c4.4,0,7.9-3.5,7.9-7.8v-39.2C133.7,104.1,126.5,102.2,126.2,102.1L126.2,102.1z M30.8,155.7c0,1.4-1.2,2.6-2.6,2.6H12.3
			c-1.5,0-2.6-1.2-2.6-2.6v-9.9c6,4.1,15.8,6,21.8,6.8C31,153.5,30.8,154.5,30.8,155.7L30.8,155.7z M128.4,155.7
			c0,1.4-1.2,2.6-2.6,2.6H110c-1.5,0-2.6-1.2-2.6-2.6c0-1.1-0.2-2.2-0.7-3.1c6-0.8,15.8-2.8,21.8-6.8v9.9H128.4z M128.4,137.4
			c0,5.5-15.9,9.5-26.6,10.5v0.4c-0.8-0.2-1.6-0.4-2.4-0.4H38.7c-0.8,0-1.7,0.1-2.4,0.4v-0.4c-10.7-1-26.6-5-26.6-10.5v-20.9
			c0-8,3.4-9.2,3.4-9.3c2.2-0.5,3.9-1.9,4.5-3.8c0.7-1.9,0.3-4-1.1-5.8l-1.6-2.1h5.3c3.6,0,8.3-1.9,10.9-4.5
			c0.1-0.1,14.2-13.8,34-13.8H73c19.7,0,33.8,13.7,34,13.8c2.6,2.5,7.2,4.5,10.9,4.5h5.3l-1.6,2.1c-1.4,1.8-1.8,3.9-1.1,5.8
			c0.7,1.9,2.3,3.2,4.4,3.8c0.1,0.1,3.5,1.3,3.5,9.3L128.4,137.4L128.4,137.4z"/>
		<path class="st0" d="M125.6,164h-15.8c-4.6,0-8.4-3.7-8.4-8.3c0-1.2-0.9-2.1-2.1-2.1H38.6c-1.1,0-2.1,1-2.1,2.1
			c0,4.6-3.8,8.3-8.4,8.3H12.3c-4.6,0-8.4-3.7-8.4-8.3v-39.2c0-11.8,6.4-14.4,7.7-14.8c0.2-0.1,0.3-0.1,0.4-0.2
			c0-0.1-0.1-0.3-0.2-0.4L10.2,99c-1.6-2.1-1.9-4.4-0.9-6.2c1-1.9,3.1-3,5.6-3h5.3c2,0,5.4-1.4,6.7-2.8l0.2-0.2
			c3.9-3.6,18.3-15.4,38-15.4h10.5c20.9,1.1,34.9,14.9,35.5,15.4c1.4,1.4,4.7,2.8,6.7,2.8h5.3c2.6,0,4.6,1.1,5.6,3
			c1,1.9,0.6,4.2-0.9,6.2l-1.6,2.1c-0.1,0.1-0.2,0.3-0.3,0.5c0.1,0.1,0.2,0.1,0.4,0.2l0.1,0l-0.2,0.5l0.2-0.5
			c1.3,0.4,7.8,3,7.6,14.9v39.2C134,160.3,130.2,164,125.6,164z M38.6,152.6h60.7c1.7,0,3.1,1.4,3.1,3.1c0,4,3.3,7.3,7.4,7.3h15.8
			c4.1,0,7.4-3.3,7.4-7.3v-39.2c0.2-11.2-5.7-13.5-6.9-13.9l0,0c-0.6-0.1-1.2-0.5-1.2-1c0-0.1,0-0.6,0.5-1.2l1.6-2.1
			c1.4-1.7,1.7-3.6,0.9-5.2c-0.8-1.6-2.5-2.4-4.8-2.4h-5.3c-2.3,0-5.9-1.5-7.5-3c-0.6-0.6-14.3-14.1-34.8-15.2l-10.5,0
			c-19.3,0-33.4,11.6-37.3,15.1l-0.2,0.2c-1.5,1.5-5.2,3-7.4,3h-5.3c-2.2,0-3.9,0.9-4.8,2.4c-0.8,1.5-0.5,3.4,0.9,5.2l1.6,2.1
			c0.3,0.4,0.5,0.9,0.5,1.2c0,0.3-0.1,0.6-1.1,1c-1.2,0.4-7.1,2.8-7.1,13.8v39.2c0,4,3.3,7.3,7.4,7.3h15.8c4.1,0,7.4-3.3,7.4-7.3
			C35.5,154,36.9,152.6,38.6,152.6z M125.8,158.8H110c-1.7,0-3.1-1.4-3.1-3.1c0-1.1-0.2-2.1-0.6-2.9l-0.4-0.6l0.7-0.1
			c4.3-0.6,15.1-2.4,21.6-6.7l0.8-0.5v11.3h-0.1C128.6,157.7,127.3,158.8,125.8,158.8z M107.4,153c0.3,0.8,0.5,1.7,0.5,2.7
			c0,1.2,0.9,2.1,2.1,2.1h15.8c1.1,0,2.1-1,2.1-2.1v-0.5h0.1v-8.5C121.6,150.6,112,152.4,107.4,153z M28.2,158.8H12.3
			c-1.7,0-3.1-1.4-3.1-3.1v-10.8l0.8,0.5c6.1,4.2,16.1,6,21.6,6.7l0.7,0.1l-0.4,0.6c-0.4,0.8-0.6,1.7-0.6,2.9
			C31.3,157.4,29.9,158.8,28.2,158.8z M10.2,146.7v9c0,1.2,0.9,2.1,2.1,2.1h15.9c1.1,0,2.1-1,2.1-2.1c0-1,0.1-1.9,0.5-2.7
			C25.3,152.2,16.2,150.5,10.2,146.7z M35.8,149.1v-0.7c-9-0.9-26.6-4.7-26.6-11v-20.9c0-4.7,1.2-8.1,3.4-9.6v-0.1l0.4-0.1
			c2.1-0.5,3.6-1.8,4.1-3.5c0.6-1.7,0.3-3.7-1-5.3L13.9,95h6.3c3.5,0,8.1-1.9,10.5-4.4c0.1-0.1,14.5-13.9,34.4-13.9H73
			c17.3,0,30.5,10.5,34.1,13.8c0.1,0.1,0.1,0.1,0.2,0.1c2.6,2.5,7.2,4.4,10.6,4.4h6.3l-2.2,2.9c-1.3,1.7-1.7,3.6-1,5.3
			c0.6,1.7,2.1,2.9,4.1,3.5l0.2,0.1c1.4,0.8,3.7,3,3.7,9.7v20.9c0,6.3-17.6,10-26.6,11v0.6l-0.6-0.2c-0.8-0.2-1.5-0.4-2.3-0.4H38.7
			c-0.9,0-1.7,0.1-2.2,0.4L35.8,149.1z M38.7,147.4h60.7c0.6,0,1.3,0.1,1.9,0.3v-0.2l0.5,0c11-1,26.1-5.1,26.1-10v-20.9
			c0-6.4-2.2-8.3-3.2-8.8l0,0c-2.3-0.7-3.9-2.1-4.7-4.1c-0.8-2.1-0.3-4.3,1.2-6.3l1-1.3h-4.3c-3.7,0-8.4-1.9-11.2-4.6
			c0,0-0.1-0.1-0.2-0.2C102.9,88,90,77.7,73,77.7h-7.9c-19.6,0-33.5,13.5-33.6,13.7C28.8,94,24,96,20.2,96h-4.3l1,1.3
			c1.5,1.9,1.9,4.2,1.2,6.3c-0.6,2-2.4,3.5-4.8,4.1c0,0,0,0-0.1,0c-2,1.2-3.1,4.3-3.1,8.8v20.9c0,4.9,15.2,9,26.1,10l0.5,0v0.2
			C37.5,147.4,38.2,147.4,38.7,147.4z M29.3,133.7c-5.1,0-9-1.6-11.6-4.9c-5-6.2-2.8-15.5-2.8-15.6l0.7-3.3l30.9,9.2l0.6,1.4
			c0.9,2.4,0.4,4.4-0.2,5.7c-1.4,2.9-4.8,5.1-9.9,6.4C34.2,133.3,31.5,133.7,29.3,133.7z M16.4,111.1l-0.5,2.3c0,0.1-2,9.1,2.6,14.8
			c2.4,3,6.1,4.5,10.8,4.5c2.1,0,4.7-0.4,7.6-1.1c4.8-1.2,8-3.2,9.3-5.8c0.7-1.6,0.8-3.2,0.1-4.9l0-0.1l-0.4-0.8L16.4,111.1z
			 M109.3,133.6c-2.2,0-4.9-0.4-7.8-1.1c-5.2-1.2-8.5-3.4-9.9-6.4c-0.5-1.3-1-3.3-0.1-5.7l0.1-0.2l0.6-1.2l0.2-0.1l30.4-9.2l0.6,3.4
			c0.1,0.4,2.3,9.5-2.6,15.6C118.1,132,114.3,133.6,109.3,133.6z M92.9,119.9l-0.4,0.9c-0.7,1.7-0.6,3.3,0,4.9
			c1.3,2.7,4.4,4.7,9.3,5.8c2.9,0.7,5.4,1.1,7.6,1.1c4.7,0,8.3-1.5,10.7-4.4c4.6-5.7,2.4-14.7,2.4-14.8l-0.4-2.3L92.9,119.9z
			 M29.3,128.4c-3.4,0-5.9-0.9-7.5-2.9c-1.6-1.9-2.3-4.7-2.1-8.2l0-0.6l23.1,6.8l-0.6,0.6c-0.5,0.8-1.9,2.3-6.3,3.4
			C33.5,128.1,31.3,128.4,29.3,128.4z M20.7,118c0,3,0.6,5.3,1.9,6.9c1.4,1.7,3.6,2.5,6.7,2.5c1.9,0,4-0.3,6.4-0.9
			c3.5-0.8,4.9-1.9,5.4-2.5L20.7,118z M109.3,128.4c-1.9,0-4-0.3-6.5-0.9c-4.2-1-5.7-2.4-6.2-3.3h-3.2l25.3-7.6l0,0.6
			c0.1,2.5-0.2,6-2,8.2l0,0C115.2,127.4,112.7,128.4,109.3,128.4z M97.7,124c0.5,0.6,1.9,1.7,5.4,2.5c6.4,1.5,10.7,1,12.9-1.6
			c1.6-1.9,1.8-4.9,1.8-6.9L97.7,124z M89.3,101.3H48.7v-6.2h40.6V101.3z M49.7,100.3h38.6v-4.2H49.7V100.3z"/>
	</g>
</g>
<g>
	<path class="st0" d="M150.2,92.1c-11.9,0-23.2-2.8-31.7-7.8c-8.8-5.2-13.7-12.3-13.7-20s4.9-14.7,13.7-20c8.5-5,19.8-7.8,31.7-7.8
		s23.2,2.8,31.7,7.8c8.8,5.2,13.7,12.3,13.7,20s-4.9,14.7-13.7,20C173.4,89.3,162.2,92.1,150.2,92.1z M150.2,40.5
		c-11.2,0-21.7,2.6-29.6,7.3c-7.6,4.5-11.7,10.3-11.7,16.5s4.2,12,11.7,16.5c7.9,4.7,18.4,7.3,29.6,7.3s21.7-2.6,29.6-7.3
		c7.6-4.5,11.7-10.3,11.7-16.5s-4.2-12-11.7-16.5C172,43.1,161.5,40.5,150.2,40.5z"/>
	<path class="st0" d="M150.2,92.6c-12,0-23.3-2.8-32-7.9c-9-5.3-13.9-12.6-13.9-20.4c0-7.8,5-15,13.9-20.4c8.6-5.1,20-7.9,32-7.9
		s23.3,2.8,32,7.9c9,5.3,13.9,12.6,13.9,20.4c0,7.8-5,15-13.9,20.4C173.5,89.8,162.2,92.6,150.2,92.6z M150.2,37
		c-11.8,0-23,2.7-31.4,7.7c-8.7,5.2-13.5,12.2-13.5,19.6c0,7.5,4.8,14.4,13.5,19.6c8.5,5,19.6,7.7,31.4,7.7c11.8,0,23-2.7,31.4-7.7
		c8.7-5.2,13.5-12.2,13.5-19.6c0-7.5-4.8-14.4-13.5-19.6C173.2,39.7,162,37,150.2,37z M150.2,88.6c-11.3,0-21.9-2.6-29.9-7.4
		c-7.7-4.6-11.9-10.6-11.9-16.9c0-6.4,4.2-12.4,11.9-16.9c8-4.8,18.6-7.4,29.9-7.4c11.4,0,22,2.6,29.9,7.4C187.8,52,192,58,192,64.3
		c0,6.4-4.2,12.4-11.9,16.9C172.1,86,161.5,88.6,150.2,88.6z M150.2,41c-11.1,0-21.5,2.6-29.3,7.2c-7.4,4.4-11.5,10.1-11.5,16.1
		c0,5.9,4.1,11.6,11.5,16.1c7.8,4.7,18.3,7.2,29.3,7.2s21.5-2.6,29.3-7.2C186.9,76,191,70.3,191,64.3c0-5.9-4.1-11.6-11.5-16.1
		C171.8,43.6,161.4,41,150.2,41z"/>
</g>
<g>
	<g>
		<path class="st0" d="M123.1,70.3l3.4-0.8c0.5,2.8,2.1,4.2,4.7,4.2c2.9-0.1,4.4-1.5,4.5-4.3c0-2.6-1.8-3.9-5.4-3.9
			c-0.9,0-1.6,0-2.1,0v-2.6c0.5,0,1.1,0,1.7,0c3.4,0,5.1-1.3,5.2-3.9c-0.1-2.3-1.4-3.6-3.9-3.6s-4,1.4-4.4,4.1l-3.3-0.8
			c1-3.9,3.6-5.8,7.9-5.8c4.5,0.1,6.9,2.1,7.2,5.8c-0.1,2.7-1.6,4.5-4.5,5.3c3.2,0.7,5,2.5,5.2,5.6c-0.2,4.2-2.9,6.3-8,6.5
			C126.8,76.2,124.1,74.2,123.1,70.3z"/>
		<path class="st0" d="M131,76.6c-4.5,0-7.3-2.1-8.4-6.2l-0.1-0.5l4.4-1l0.1,0.5c0.5,2.5,1.8,3.8,4.2,3.8c2.6-0.1,3.9-1.3,4-3.8
			c0-2.3-1.6-3.4-4.9-3.4h-2.6v-3.6h2.2c4.1,0,4.6-2,4.7-3.4c-0.1-2-1.2-3.1-3.4-3.1c-2.3,0-3.5,1.2-3.9,3.7l-0.1,0.5l-4.3-1
			l0.1-0.5c1.1-4.1,3.9-6.2,8.4-6.2c6,0.1,7.5,3.5,7.7,6.3c-0.1,2.5-1.3,4.3-3.4,5.3c2.6,1,3.9,2.9,4.1,5.6c-0.2,4.5-3.1,6.8-8.5,7
			C131.2,76.6,131.1,76.6,131,76.6z M123.7,70.7c1,3.4,3.5,5,7.6,4.9c4.9-0.2,7.3-2.2,7.5-6c-0.2-2.7-1.8-4.4-4.8-5.1l-2-0.4l2-0.5
			c2.7-0.7,4-2.3,4.1-4.8c-0.3-3.4-2.5-5.2-6.7-5.3c-3.9,0-6.2,1.6-7.3,4.9l2.3,0.6c0.6-2.6,2.2-4,4.8-4c2.7,0,4.3,1.4,4.4,4.1
			c-0.1,2.9-2,4.4-5.7,4.4h-1.2V65h1.6c4.9,0,5.9,2.4,5.9,4.4c-0.1,3.1-1.8,4.7-5,4.8c0,0,0,0,0,0c-2.7,0-4.5-1.4-5.1-4.1
			L123.7,70.7z"/>
	</g>
	<g>
		<path class="st0" d="M150.1,52.9c5.3,0.1,8,4,8,11.7c0,7.8-2.7,11.6-8,11.6c-5.4-0.1-8.1-3.9-8.1-11.6
			C142.1,57,144.8,53.1,150.1,52.9z M150.1,73.7c3,0.1,4.5-2.9,4.5-9c0.1-6.2-1.4-9.3-4.5-9.1c-3-0.1-4.5,3-4.5,9.1
			C145.6,70.8,147.1,73.8,150.1,73.7z"/>
		<path class="st0" d="M150.1,76.7c-5.7-0.1-8.6-4.2-8.6-12.1c0.1-7.9,3-12,8.6-12.2l0,0c5.6,0.1,8.5,4.2,8.5,12.2
			C158.6,72.6,155.7,76.7,150.1,76.7z M150.1,53.4c-5,0.2-7.5,3.9-7.6,11.2c0,7.4,2.5,11,7.6,11.1c5,0,7.5-3.6,7.5-11.1
			C157.6,57.2,155.1,53.5,150.1,53.4z M150.2,74.2c-0.1,0-0.2,0-0.3,0c-1.1,0-2-0.4-2.7-1.1c-1.5-1.4-2.2-4.2-2.2-8.4
			c0-4.3,0.7-7.1,2.2-8.6c0.8-0.7,1.7-1.1,2.8-1c1.1-0.1,2.1,0.3,2.9,1c1.5,1.4,2.2,4.2,2.1,8.6c0,4.3-0.7,7-2.2,8.4
			C152.2,73.8,151.3,74.2,150.2,74.2z M150.1,73.2L150.1,73.2c0.9,0,1.6-0.2,2.1-0.8c1.2-1.2,1.9-3.8,1.9-7.7c0.1-4-0.5-6.7-1.8-7.9
			c-0.6-0.5-1.3-0.8-2.2-0.7c-0.9,0-1.6,0.2-2.1,0.8c-1.3,1.2-1.9,3.9-1.9,7.8c0,3.9,0.6,6.5,1.9,7.7
			C148.5,73,149.2,73.2,150.1,73.2L150.1,73.2z"/>
	</g>
	<g>
		<path class="st0" d="M169,52.9c5.3,0.1,8,4,8,11.7c0,7.8-2.7,11.6-8,11.6c-5.4-0.1-8.1-3.9-8.1-11.6C161,57,163.7,53.1,169,52.9z
			 M169,73.7c3,0.1,4.5-2.9,4.5-9c0.1-6.2-1.4-9.3-4.5-9.1c-3-0.1-4.5,3-4.5,9.1C164.5,70.8,166,73.8,169,73.7z"/>
		<path class="st0" d="M169,76.7c-5.7-0.1-8.6-4.2-8.6-12.1c0.1-7.9,3-12,8.6-12.2l0,0c5.6,0.1,8.5,4.2,8.5,12.2
			C177.5,72.6,174.6,76.7,169,76.7z M169,53.4c-5,0.2-7.5,3.9-7.6,11.2c0,7.4,2.5,11,7.6,11.1c5,0,7.5-3.6,7.5-11.1
			C176.5,57.2,174,53.5,169,53.4z M169.1,74.2c-0.1,0-0.2,0-0.3,0c-1.1,0-2-0.4-2.7-1.1c-1.5-1.4-2.2-4.2-2.2-8.4
			c0-4.3,0.7-7.1,2.2-8.6c0.8-0.7,1.7-1.1,2.8-1c1.1-0.1,2.1,0.3,2.9,1c1.5,1.4,2.2,4.2,2.1,8.6c0,4.3-0.7,7-2.2,8.4
			C171.1,73.8,170.2,74.2,169.1,74.2z M169,73.2L169,73.2c0.9,0,1.6-0.2,2.1-0.8c1.2-1.2,1.9-3.8,1.9-7.7c0.1-4-0.5-6.7-1.8-7.9
			c-0.6-0.5-1.3-0.8-2.2-0.7c-0.9,0-1.6,0.2-2.1,0.8c-1.3,1.2-1.9,3.9-1.9,7.8c0,3.9,0.6,6.5,1.9,7.7C167.4,73,168.1,73.2,169,73.2
			L169,73.2z"/>
	</g>
</g>
</svg>
