<?xml version="1.0" encoding="utf-8"?>
<!-- Generated by IcoMoon.io -->
<!DOCTYPE svg PUBLIC "-//W3C//DTD SVG 1.1//EN" "http://www.w3.org/Graphics/SVG/1.1/DTD/svg11.dtd">
<svg version="1.1" xmlns="http://www.w3.org/2000/svg" xmlns:xlink="http://www.w3.org/1999/xlink" width="1024" height="1024" viewBox="0 0 1024 1024">
<g id="icomoon-ignore">
</g>
<path fill="#000" d="M498.688 669.184c-89.088 0-161.792-72.704-161.792-161.792s72.704-161.792 161.792-161.792c89.088 0 161.792 72.704 161.792 161.792s-72.704 161.792-161.792 161.792zM498.688 351.232c-86.016 0-156.672 70.144-156.672 156.672 0 86.016 70.144 156.672 156.672 156.672 86.016 0 156.672-70.144 156.672-156.672s-70.144-156.672-156.672-156.672z"></path>
<path fill="#000" d="M387.072 506.368h223.744v5.12h-223.744v-5.12z"></path>
<path fill="#000" d="M496.128 396.8h5.12v223.744h-5.12v-223.744z"></path>
</svg>
