<?xml version="1.0" standalone="no"?><!DOCTYPE svg PUBLIC "-//W3C//DTD SVG 1.1//EN" "http://www.w3.org/Graphics/SVG/1.1/DTD/svg11.dtd"><svg width="200" height="200" viewBox="0 0 200 200" version="1.1" xmlns="http://www.w3.org/2000/svg" xmlns:xlink="http://www.w3.org/1999/xlink"><defs><style type="text/css"><![CDATA[
@font-face { font-family: ifont; src: url("//at.alicdn.com/t/font_1442373896_4754455.eot?#iefix") format("embedded-opentype"), url("//at.alicdn.com/t/font_1442373896_4754455.woff") format("woff"), url("//at.alicdn.com/t/font_1442373896_4754455.ttf") format("truetype"), url("//at.alicdn.com/t/font_1442373896_4754455.svg#ifont") format("svg"); }

]]></style></defs><g class="transform-group"><g transform="scale(0.1953125, 0.1953125)"><path d="M849.3861 618.639762l0 2.193968c-30.18651 161.096025-169.650865 282.969747-337.3861 282.969747S204.800409 781.930779 174.6139 620.833731l0-2.193968c-49.676399-10.086729-87.066985-53.990658-87.066985-106.639762s37.390585-96.553033 87.066985-106.639762l0-2.193968c30.18651-161.096025 169.650865-282.969747 337.3861-282.969747s307.199591 121.872698 337.3861 282.969747l0 2.193968c49.676399 10.086729 87.066985 53.990658 87.066985 106.639762S899.0625 608.553033 849.3861 618.639762zM174.6139 450.699865c-25.305339 8.993838-43.533492 32.906457-43.533492 61.300135 0 28.392654 18.228153 52.306296 43.533492 61.304228L174.6139 450.699865zM805.851585 403.166269l-0.270153 0c-1.357927-6.299473-3.107781-12.446473-4.845355-18.593474l-7.511067 12.120039c0 0-13.331633-9.507538-32.583093-33.795711-19.246343-24.288173-59.031465-18.824741-79.113849 0-20.078291 18.824741-69.614497 53.29788-79.113849 23.943318-9.494235-29.354562-14.265912-48.948829-22.602787-47.88766-8.336876 1.057075-22.590508 22.245653-45.209668 47.88766-22.61609 25.640983-36.594453 37.512359-45.205575 23.943318-8.611122-13.56904-8.398274-61.634756-11.301394-71.830979-2.908236-10.196223-22.607904 0-22.607904 0s-69.693292 73.615625-90.415242 71.830979-22.581298-38.85289-22.602787-71.830979c-0.026606-32.976042-22.607904-11.971659-22.607904-11.971659-18.842137 35.462676-101.716636 119.717615-101.716636 119.717615l0 174.133969 0.270153 0c29.520337 136.88767 149.660578 239.436254 293.582455 239.436254s264.062118-102.547561 293.582455-239.436254l0.270153 0L805.849538 403.166269 805.851585 403.166269zM849.3861 450.699865l0 122.603339c25.306362-8.997931 43.533492-32.910551 43.533492-61.304228S874.692463 459.693704 849.3861 450.699865zM653.484362 620.833731c-36.063357 0-65.300238-29.236881-65.300238-65.300238 0-36.06745 29.236881-65.300238 65.300238-65.300238 36.063357 0 65.300238 29.232788 65.300238 65.300238C718.7846 591.596849 689.547719 620.833731 653.484362 620.833731zM653.484362 533.766746c-12.019755 0-21.766746 9.742898-21.766746 21.766746 0 12.019755 9.746992 21.766746 21.766746 21.766746 12.019755 0 21.766746-9.746992 21.766746-21.766746C675.251108 543.509644 665.504116 533.766746 653.484362 533.766746zM611.434663 739.220025c-27.552519 21.22644-61.966307 33.982976-99.435687 33.982976s-71.883167-12.755512-99.435687-33.982976c8.245801-12.280698 18.794042-22.829961 30.899754-31.318286 19.433608 13.626345 42.993187 21.766746 68.535933 21.766746 25.541723 0 49.101301-8.141424 68.535933-21.766746C592.640622 716.390064 603.189885 726.939327 611.434663 739.220025zM370.514615 620.833731c-36.063357 0-65.300238-29.236881-65.300238-65.300238 0-36.06745 29.236881-65.300238 65.300238-65.300238s65.300238 29.232788 65.300238 65.300238C435.815877 591.596849 406.578995 620.833731 370.514615 620.833731zM370.514615 533.766746c-12.019755 0-21.766746 9.742898-21.766746 21.766746 0 12.019755 9.746992 21.766746 21.766746 21.766746 12.019755 0 21.766746-9.746992 21.766746-21.766746C392.281361 543.509644 382.53437 533.766746 370.514615 533.766746z" fill="#898989"></path></g></g></svg>