<?xml version="1.0" encoding="utf-8"?>
<!-- Generator: Adobe Illustrator 19.0.0, SVG Export Plug-In . SVG Version: 6.00 Build 0)  -->
<svg version="1.1" id="图层_1" xmlns="http://www.w3.org/2000/svg" xmlns:xlink="http://www.w3.org/1999/xlink" x="0px" y="0px"
	 viewBox="-274 573 200 200" style="enable-background:new -274 573 200 200;" xml:space="preserve">
<style type="text/css">
	.st0{fill:#272636;}
</style>
<g>
	<path class="st0" d="M-223.5,683h103.3c3.5,0,6.4-2.9,6.4-6.5c0-3.6-2.9-6.5-6.4-6.5h-103.3c-3.5,0-6.4,2.9-6.4,6.5
		C-229.8,680.1-227,683-223.5,683z"/>
	<path class="st0" d="M-223.5,648h103.3c3.5,0,6.4-2.9,6.4-6.5c0-3.6-2.9-6.5-6.4-6.5h-103.3c-3.5,0-6.4,2.9-6.4,6.5
		C-229.7,645.1-227,648-223.5,648z"/>
	<path class="st0" d="M-92.1,584.3h-164.1c-9.8,0-17.9,8-17.9,17.9v153c0,9.8,8,17.9,17.9,17.9h59.6h45h59.5c9.8,0,17.7-8,17.7-17.9
		V602.1C-74.2,592.3-82.2,584.3-92.1,584.3z M-88,749.6c0,5.3-4.3,9.5-9.5,9.5h-60.7H-190h-60.7c-5.3,0-9.5-4.3-9.5-9.5V607.5
		c0-5.3,4.3-9.5,9.5-9.5h153.2c3.3,0,6.2,1.7,8,4.2c0.1,0.2,0.4,0.5,0.5,0.8c0.2,0.5,0.5,1.1,0.7,1.7c0.2,0.8,0.5,1.8,0.5,2.9v142
		H-88z"/>
	<path class="st0" d="M-120.1,706.9h-103.3c-3.5,0-6.4,2.9-6.4,6.5c0,3.6,2.9,6.5,6.4,6.5h103.3c3.5,0,6.4-2.9,6.4-6.5
		C-113.7,709.8-116.6,706.9-120.1,706.9z"/>
</g>
</svg>
