<?xml version="1.0" standalone="no"?><!DOCTYPE svg PUBLIC "-//W3C//DTD SVG 1.1//EN" "http://www.w3.org/Graphics/SVG/1.1/DTD/svg11.dtd"><svg width="200" height="200" viewBox="0 0 200 200" version="1.1" xmlns="http://www.w3.org/2000/svg" xmlns:xlink="http://www.w3.org/1999/xlink"><defs><style type="text/css"><![CDATA[
@font-face { font-family: ifont; src: url("//at.alicdn.com/t/font_1442373896_4754455.eot?#iefix") format("embedded-opentype"), url("//at.alicdn.com/t/font_1442373896_4754455.woff") format("woff"), url("//at.alicdn.com/t/font_1442373896_4754455.ttf") format("truetype"), url("//at.alicdn.com/t/font_1442373896_4754455.svg#ifont") format("svg"); }

]]></style></defs><g class="transform-group"><g transform="scale(0.1953125, 0.1953125)"><path d="M860.378 133.215 163.652 133.215c-41.642 0-75.547 33.902-75.547 75.545l0 510.919c0 41.64 33.905 75.545 75.547 75.545l252.742 0 95.62 95.56 95.585-95.56 252.779 0c41.64 0 75.51-33.905 75.51-75.545L935.888 208.762C935.888 167.117 902.018 133.215 860.378 133.215zM877.748 231.982l0 464.476c0 22.38-18.21 40.59-40.6 40.59L579.518 737.048l-67.507 67.57-67.537-67.57L186.875 737.048c-22.412 0-40.625-18.21-40.625-40.59L146.25 231.982c0-22.412 18.212-40.622 40.625-40.622l650.273 0C859.538 191.359 877.748 209.569 877.748 231.982zM302.834 403.749l438.434 0c14.85 0 26.97-12.482 26.97-27.812 0-15.362-12.12-27.872-26.97-27.872L302.834 348.065c-14.85 0-26.942 12.51-26.942 27.872C275.892 391.264 287.984 403.749 302.834 403.749zM741.268 496.579 302.834 496.579c-14.85 0-26.942 12.51-26.942 27.84 0 15.33 12.092 27.84 26.942 27.84l438.434 0c14.85 0 26.97-12.51 26.97-27.84C768.238 509.089 756.118 496.579 741.268 496.579zM860.378 133.215 163.652 133.215c-41.642 0-75.547 33.902-75.547 75.545l0 510.919c0 41.64 33.905 75.545 75.547 75.545l252.742 0 95.62 95.56 95.585-95.56 252.779 0c41.64 0 75.51-33.905 75.51-75.545L935.888 208.762C935.888 167.117 902.018 133.215 860.378 133.215zM877.748 231.982l0 464.476c0 22.38-18.21 40.59-40.6 40.59L579.518 737.048l-67.507 67.57-67.537-67.57L186.874 737.048c-22.412 0-40.625-18.21-40.625-40.59L146.249 231.982c0-22.412 18.212-40.622 40.625-40.622l650.273 0C859.538 191.359 877.748 209.569 877.748 231.982zM302.834 403.749l438.434 0c14.85 0 26.97-12.482 26.97-27.812 0-15.362-12.12-27.872-26.97-27.872L302.834 348.065c-14.85 0-26.942 12.51-26.942 27.872C275.892 391.264 287.984 403.749 302.834 403.749zM741.268 496.579 302.834 496.579c-14.85 0-26.942 12.51-26.942 27.84 0 15.33 12.092 27.84 26.942 27.84l438.434 0c14.85 0 26.97-12.51 26.97-27.84C768.238 509.089 756.118 496.579 741.268 496.579zM860.378 133.215 163.652 133.215c-41.642 0-75.547 33.902-75.547 75.545l0 510.919c0 41.64 33.905 75.545 75.547 75.545l252.742 0 95.62 95.56 95.585-95.56 252.779 0c41.64 0 75.51-33.905 75.51-75.545L935.888 208.762C935.888 167.117 902.018 133.215 860.378 133.215zM877.748 231.982l0 464.476c0 22.38-18.21 40.59-40.6 40.59L579.518 737.048l-67.507 67.57-67.537-67.57L186.874 737.048c-22.412 0-40.625-18.21-40.625-40.59L146.249 231.982c0-22.412 18.212-40.622 40.625-40.622l650.273 0C859.538 191.359 877.748 209.569 877.748 231.982zM302.834 403.749l438.434 0c14.85 0 26.97-12.482 26.97-27.812 0-15.362-12.12-27.872-26.97-27.872L302.834 348.065c-14.85 0-26.942 12.51-26.942 27.872C275.892 391.264 287.984 403.749 302.834 403.749zM741.268 496.579 302.834 496.579c-14.85 0-26.942 12.51-26.942 27.84 0 15.33 12.092 27.84 26.942 27.84l438.434 0c14.85 0 26.97-12.51 26.97-27.84C768.238 509.089 756.118 496.579 741.268 496.579z" fill="#272636"></path></g></g></svg>