<?xml version="1.0" encoding="utf-8"?>
<!-- Generator: Adobe Illustrator 19.0.0, SVG Export Plug-In . SVG Version: 6.00 Build 0)  -->
<svg version="1.1" id="图层_1" xmlns="http://www.w3.org/2000/svg" xmlns:xlink="http://www.w3.org/1999/xlink" x="0px" y="0px"
	 viewBox="0 0 200 200" style="enable-background:new 0 0 200 200;" xml:space="preserve">
<style type="text/css">
	.st0{fill:#272636;}
</style>
<g>
	<g transform="scale(0.1953125, 0.1953125)">
		<path class="st0" d="M996.4,346.1h-95.7c-4.5,0-8.7,1.3-12.5,3.4L845,219.4c-13.8-73.9-65.9-109.6-129.8-109.6H309.7
			c-73.4,0-118,47.9-129.8,109.5l-43.3,130.4c-3.9-2.3-8.4-3.7-13.3-3.7H27.5c-14.7,0-26.6,11.9-26.6,26.7v23.1
			c0,14.7,11.9,26.7,26.6,26.7l36.3,6.2c-11.4,22.4-18,48-18,77.7L32.4,659.8c0,4.5,0.3,9,0.9,13.6c-0.5,2.8-0.9,5.7-0.9,8.6v184.6
			c0,26.3,21.3,47.6,47.6,47.6h72.6c26.3,0,47.6-21.3,47.6-47.6v-59.4h624.3v59.4c0,26.3,21.3,47.6,47.6,47.6h72.6
			c26.3,0,47.6-21.3,47.6-47.6V682.1c0-3-0.4-5.9-0.9-8.6c0.5-4.6,0.9-9.1,0.9-13.6L979,506.5c0-29.9-6.6-55.5-18.1-77.9l35.5-6.1
			c14.7,0,26.7-12,26.7-26.7v-23.1C1023.1,358,1011.1,346.1,996.4,346.1L996.4,346.1z M212,318.7l31.7-84.4l0.5-1.9
			c3.1-17.1,10.2-20.1,20.6-33.3H761c10.5,13.5,17,17,19.9,33.1l32.2,86.5l11.8,47c-2.7,34.3-44,61.5-78.4,61.5H278.6
			c-34.4,0-75.7-27.2-78.4-61.5L212,318.7L212,318.7z M234.2,719.9c-39.8,0-72-32.3-72-72.1c0-39.8,32.2-72,72-72s72.1,32.2,72.1,72
			C306.2,687.6,274,719.9,234.2,719.9L234.2,719.9z M636.6,666.7L636.6,666.7c0,11.8-9.6,21.4-21.5,21.4H413
			c-11.8,0-21.4-9.6-21.4-21.4v-60.2c0-11.8,9.6-21.4,21.4-21.4h202.1c11.8,0,21.5,9.5,21.5,21.4V666.7L636.6,666.7z M790.8,719.9
			c-39.8,0-72.1-32.3-72.1-72.1c0-39.8,32.3-72,72.1-72c39.8,0,72,32.2,72,72C862.8,687.6,830.6,719.9,790.8,719.9L790.8,719.9z"/>
	</g>
</g>
</svg>
