<?xml version="1.0" encoding="utf-8"?>
<!-- Generator: Adobe Illustrator 19.0.0, SVG Export Plug-In . SVG Version: 6.00 Build 0)  -->
<svg version="1.1" id="图层_1" xmlns="http://www.w3.org/2000/svg" xmlns:xlink="http://www.w3.org/1999/xlink" x="0px" y="0px"
	 viewBox="0 0 200 200" style="enable-background:new 0 0 200 200;" xml:space="preserve">
<style type="text/css">
	.st0{fill:#272636;}
</style>
<g>
	<g transform="scale(0.1953125, 0.1953125)">
		<g>
			<path class="st0" d="M958.6,812.4c0,90.6-224.7,137.9-446.6,137.9c-221.9,0-446.6-47.4-446.6-137.9
				c0-80.4,173.1-113.9,247.5-124.5c11-1.5,21.3,6.1,22.9,17.2c1.6,11.1-6.1,21.3-17.2,22.9c-155,22.2-212.7,63.6-212.7,84.5
				c0,39.7,158.2,97.5,406.1,97.5c247.9,0,406.1-57.7,406.1-97.5c0-21-58.3-62.6-214.8-84.7c-11.1-1.6-18.8-11.8-17.2-22.9
				c1.6-11.1,11.8-18.7,22.9-17.2C784,698.2,958.6,731.6,958.6,812.4L958.6,812.4z M426.4,331.6c0-47.2,38.4-85.6,85.6-85.6
				c47.2,0,85.7,38.4,85.7,85.6s-38.4,85.6-85.7,85.6C464.8,417.2,426.4,378.8,426.4,331.6L426.4,331.6z M638.1,331.6
				c0-69.5-56.6-126.1-126.1-126.1c-69.5,0-126.1,56.6-126.1,126.1c0,69.5,56.6,126.1,126.1,126.1
				C581.5,457.7,638.1,401.1,638.1,331.6L638.1,331.6z M512,114.2c124.5,0,225.9,101.3,225.9,225.8c0,172.6-174.9,366.4-226,419.4
				c-51.2-52-225.7-242-225.7-419.4C286.2,215.5,387.5,114.2,512,114.2L512,114.2z M498.2,802.8l14,13.1l13.8-13.2
				c10.3-9.9,252.3-244.2,252.3-462.6c0-146.9-119.5-266.3-266.3-266.3c-146.8,0-266.3,119.5-266.3,266.3
				C245.7,564.3,487.9,793.1,498.2,802.8L498.2,802.8z"/>
			<path class="st0" d="M512,952.9c-223.2,0-449.1-48.3-449.1-140.5c0-82.4,174.6-116.3,249.7-127.1c12.4-1.8,24,6.9,25.8,19.3
				c0.9,6-0.7,12-4.3,16.9c-3.7,4.9-9,8-15,8.9c-145.2,20.8-210.5,60.4-210.5,81.9c0,19.1,42.5,43.1,108.2,61.2
				c79.1,21.8,184,33.7,295.3,33.7c111.3,0,216.2-12,295.4-33.7c65.7-18.1,108.2-42.1,108.2-61.2c0-21.7-66-61.5-212.6-82.2
				c-6-0.9-11.4-4-15-8.9c-3.7-4.9-5.2-10.9-4.4-16.9c1.8-12.4,13.3-21,25.7-19.4c75.7,10.7,251.8,44.6,251.8,127.4l0,0
				C961.2,904.6,735.2,952.9,512,952.9z M315.7,690.2c-0.8,0-1.6,0.1-2.5,0.2C91.9,722.1,68,786.3,68,812.4
				c0,51.5,75.2,83.1,138.2,100.5C286.5,935,398,947.7,512,947.7c114,0,225.5-12.7,305.8-34.9c63-17.4,138.2-49,138.2-100.5
				c0-26.2-24.1-90.7-247.4-122.3c-9.6-1.3-18.6,5.4-20,15c-0.7,4.7,0.5,9.3,3.4,13.1c2.8,3.8,7,6.2,11.7,6.9
				c159.2,22.5,217,64.5,217,87.3c0,41.8-155.5,100-408.7,100c-253.2,0-408.7-58.3-408.7-100c0-22.6,57.2-64.4,214.9-87
				c4.7-0.7,8.8-3.1,11.6-6.9c2.8-3.8,4-8.4,3.4-13.1C332,696.6,324.4,690.2,315.7,690.2z M512.2,819.4l-15.8-14.7
				C486.1,795,243.1,565.2,243.1,340c0-148.3,120.6-268.9,268.9-268.9c148.3,0,268.9,120.6,268.9,268.9
				c0,219.4-242.8,454.5-253.1,464.4L512.2,819.4z M499.9,800.9l12.2,11.4l12.1-11.6c10.3-9.8,251.5-243.4,251.5-460.7
				c0-145.4-118.3-263.8-263.8-263.8c-145.4,0-263.8,118.3-263.8,263.8C248.2,563.1,489.6,791.3,499.9,800.9L499.9,800.9z
				 M511.8,763l-1.8-1.9C456.9,707.3,283.6,517.7,283.6,340c0-125.9,102.5-228.4,228.4-228.4c125.9,0,228.4,102.5,228.4,228.4
				c0,172.8-173.6,366-226.7,421.1L511.8,763z M512,116.7c-123.1,0-223.3,100.2-223.3,223.3c0,173.7,168.3,359.8,223.1,415.7
				C566.7,698.5,735.3,509,735.3,340C735.3,216.9,635.1,116.7,512,116.7z M512,460.3c-70.9,0-128.7-57.7-128.7-128.7
				S441,202.9,512,202.9c71,0,128.7,57.7,128.7,128.7S582.9,460.3,512,460.3z M512,208c-68.1,0-123.5,55.4-123.5,123.6
				c0,68.1,55.4,123.6,123.5,123.6c68.1,0,123.6-55.4,123.6-123.6C635.6,263.5,580.1,208,512,208z M512,419.8
				c-48.6,0-88.2-39.6-88.2-88.2c0-48.6,39.6-88.2,88.2-88.2c48.6,0,88.2,39.6,88.2,88.2C600.2,380.2,560.6,419.8,512,419.8z
				 M512,248.5c-45.8,0-83.1,37.3-83.1,83.1c0,45.8,37.3,83.1,83.1,83.1c45.8,0,83.1-37.3,83.1-83.1
				C595.1,285.8,557.8,248.5,512,248.5z"/>
		</g>
	</g>
</g>
</svg>
