<?xml version="1.0" standalone="no"?><!DOCTYPE svg PUBLIC "-//W3C//DTD SVG 1.1//EN" "http://www.w3.org/Graphics/SVG/1.1/DTD/svg11.dtd"><svg width="217.3828125" height="200" viewBox="0 0 217.3828125 200" version="1.1" xmlns="http://www.w3.org/2000/svg" xmlns:xlink="http://www.w3.org/1999/xlink"><defs><style type="text/css"><![CDATA[
@font-face { font-family: ifont; src: url("//at.alicdn.com/t/font_1442373896_4754455.eot?#iefix") format("embedded-opentype"), url("//at.alicdn.com/t/font_1442373896_4754455.woff") format("woff"), url("//at.alicdn.com/t/font_1442373896_4754455.ttf") format("truetype"), url("//at.alicdn.com/t/font_1442373896_4754455.svg#ifont") format("svg"); }

]]></style></defs><g class="transform-group"><g transform="scale(0.1953125, 0.1953125)"><path d="M1012.453178 100.077674C947.889691 35.520286 861.938711 0 770.405666 0s-177.525193 35.55688-242.082581 100.120366L289.399761 339.004048c-15.415097 15.419671-15.415097 40.553445 0 55.973115 7.498659 7.457491 17.409453 11.591055 27.986558 11.591055s20.530591-4.09697 27.986558-11.591055l238.883681-238.882157c49.613435-49.613435 115.736728-76.976375 186.114039-76.976375s136.457912 27.326346 186.071347 76.933683c102.616362 102.622461 102.616362 269.562925 0 372.220455L556.311168 928.444713 156.104155 528.315462c-102.622461-102.616362-102.622461-269.605618 0-372.185386 49.529575-49.529575 115.26101-76.814753 185.09399-76.814753 12.60958 0 25.409751 0.899595 38.017806 2.694211 1.876952 0.272928 3.74628 0.393382 5.623232 0.393382 19.553234 0 36.378713-14.64053 39.147637-34.039766 3.043376-21.625353-12.060674-41.6848-33.644859-44.734275-15.925884-2.299304-32.12622-3.430659-48.244221-3.430659-36.188121 0-71.745001 5.537847-105.742074 16.509858-51.722147 16.706549-97.583203 44.770869-136.267319 83.413817-133.457228 133.455703-133.457228 350.677438 0.041168 484.127043l428.153927 428.161551c7.455967 7.451392 17.409453 11.58953 27.986558 11.58953 10.578629 0 20.493997-4.09697 27.986558-11.58953l428.160026-428.161551C1145.94395 450.756637 1145.908881 233.57607 1012.453178 100.077674L1012.453178 100.077674zM1012.453178 100.077674" fill="#272636"></path></g></g></svg>