<?xml version="1.0" encoding="utf-8"?>
<!-- Generator: Adobe Illustrator 19.0.0, SVG Export Plug-In . SVG Version: 6.00 Build 0)  -->
<svg version="1.1" id="图层_1" xmlns="http://www.w3.org/2000/svg" xmlns:xlink="http://www.w3.org/1999/xlink" x="0px" y="0px"
	 viewBox="-274 573 200 200" style="enable-background:new -274 573 200 200;" xml:space="preserve">
<style type="text/css">
	.st0{fill:#272636;}
</style>
<g>
	<path class="st0" d="M-79.5,598.9l-20.5-20.5c-3.4-3.4-8.3-5.4-13.4-5.4c0,0,0,0,0,0c-5.1,0-10,2-13.4,5.4l-16.7,19.7l-89.4,85.7
		l-6,52.1l3.6,3.1l50.3-6.9l0.4,0l85.5-89.7l19.6-16l0.1-0.1C-72.2,619.1-72.2,606.2-79.5,598.9z M-215,688.6l78.3-78l25.1,25.2
		l-77.8,78.5L-215,688.6z M-222.5,722.6l1.3-20.6l19,19L-222.5,722.6z M-89.4,615.8l-11.2,11.2l-27.5-27.5l11.2-11.2
		c0.9-0.9,2.2-1.4,3.5-1.4c1.3,0,2.6,0.5,3.5,1.4l20.5,20.5C-87.4,610.7-87.4,613.9-89.4,615.8z"/>
	<path class="st0" d="M-98.2,658.5c-3.8,0-6.8,3.1-6.8,7.1v80c0,7.6-5.9,13.7-13.1,13.7h-125.6c-7.3,0-16.2-6.3-16.2-13.7v-126
		c0-7.2,8.6-15.5,16.2-15.5h67.6c4,0,7.1-3,7.1-6.8c0-3.8-3.1-6.8-7.1-6.8h-67.6c-16.7,0-29.9,12.8-29.9,29.1v126
		c0,15.9,12.6,27.4,29.9,27.4h125.6c16.3,0,26.8-10.8,26.8-27.4v-80C-91.4,661.6-94.4,658.5-98.2,658.5z"/>
</g>
</svg>
