<?xml version="1.0" standalone="no"?><!DOCTYPE svg PUBLIC "-//W3C//DTD SVG 1.1//EN" "http://www.w3.org/Graphics/SVG/1.1/DTD/svg11.dtd"><svg width="200" height="200" viewBox="0 0 200 200" version="1.1" xmlns="http://www.w3.org/2000/svg" xmlns:xlink="http://www.w3.org/1999/xlink"><defs><style type="text/css"><![CDATA[
@font-face { font-family: ifont; src: url("//at.alicdn.com/t/font_1442373896_4754455.eot?#iefix") format("embedded-opentype"), url("//at.alicdn.com/t/font_1442373896_4754455.woff") format("woff"), url("//at.alicdn.com/t/font_1442373896_4754455.ttf") format("truetype"), url("//at.alicdn.com/t/font_1442373896_4754455.svg#ifont") format("svg"); }

]]></style></defs><g class="transform-group"><g transform="scale(0.1953125, 0.1953125)"><path d="M512 65.290005c-197.187011 0-357.037672 159.850661-357.037672 357.037672 0 197.192128 279.800567 498.970242 279.800567 498.970242 42.656519 49.793056 112.468514 50.057069 154.708548-0.265036 0 0 279.56623-301.514101 279.56623-498.705206C869.037672 225.140667 709.191104 65.290005 512 65.290005L512 65.290005 512 65.290005zM512 576.086597c-91.231841 0-165.166737-73.943083-165.166737-165.166737 0-91.222631 73.935919-165.166737 165.166737-165.166737 91.223654 0 165.162644 73.944106 165.162644 165.166737C677.162644 502.143515 603.223654 576.086597 512 576.086597L512 576.086597 512 576.086597zM512 576.086597" fill="#272636"></path></g></g></svg>