<?xml version="1.0" encoding="utf-8"?>
<!-- Generator: Adobe Illustrator 19.0.0, SVG Export Plug-In . SVG Version: 6.00 Build 0)  -->
<svg version="1.1" id="图层_1" xmlns="http://www.w3.org/2000/svg" xmlns:xlink="http://www.w3.org/1999/xlink" x="0px" y="0px"
	 viewBox="-274 573 200 200" style="enable-background:new -274 573 200 200;" xml:space="preserve">
<style type="text/css">
	.st0{fill:#272636;}
</style>
<path class="st0" d="M-95.9,750.9c-31.2-13-57.9-3.5-71.5,3.8v-25.4c28.1-2.2,54.6-18.8,67.6-42.1c16.1-25.8,20.3-60.6,10.2-84.7
	c-2.2-5-9.1-7.5-21.2-7.5c-10.4,0-20.1,1.9-26.8,5.3c-10-16.6-19.2-21.6-28.5-25.7c-2.8-1.4-6.9-1.5-8.1-1.5c-2.8,0-5.4,0.5-7,1.3
	c-11.6,4.5-20.6,10.4-29.4,25.9c-6.8-3.4-16.4-5.3-26.6-5.3c-12,0-19,2.5-21.2,7.6c-10,24-5.8,58.7,10.1,84.3
	c13.1,23.6,39.6,40.2,67.8,42.4v25.4c-13.7-7.3-40.3-16.8-71.5-3.8c-1.6,0.7-2.9,2-3.5,3.6c-0.6,1.7-0.6,3.6,0.2,5.2
	c1.5,3.1,5.2,4.5,8.5,3.2c32.8-13.5,58.9,1.6,68.6,8.6c1.2,0.9,2.6,1.5,4.1,1.5h0.1h0.1c1.5,0,3-0.5,4-1.4
	c9.7-7.1,35.9-22.2,68.7-8.7c3.3,1.4,7.1-0.1,8.6-3.2c0.8-1.6,0.8-3.5,0.2-5.2S-94.3,751.6-95.9,750.9z M-246.8,609.2
	c1.7-0.5,5-1,9.6-1c10.6,0,20.9,2.7,24,6.2l6.6,7.5l4.3-9c8.8-18.4,16.4-22.6,26.3-26.4c0,0,0.6-0.2,1.8-0.2c1,0,1.9,0.1,2.3,0.2
	l0.2,0.1c9.3,4.1,16.6,8.3,26.2,26.5l4.6,8.9l6.3-7.8c2.7-3.4,13.2-6,23.8-6c4.6,0,8,0.5,9.7,1c7.5,20,3.2,49.9-10.1,71.3
	c-11.8,21.1-37.6,35.9-62.8,35.9s-51.1-14.9-63-36.2C-250.2,658.9-254.3,629.1-246.8,609.2z"/>
</svg>
