<?xml version="1.0" encoding="utf-8"?>
<!-- Generator: Adobe Illustrator 19.0.0, SVG Export Plug-In . SVG Version: 6.00 Build 0)  -->
<svg version="1.1" id="图层_1" xmlns="http://www.w3.org/2000/svg" xmlns:xlink="http://www.w3.org/1999/xlink" x="0px" y="0px"
	 viewBox="0 0 200 200" style="enable-background:new 0 0 200 200;" xml:space="preserve">
<style type="text/css">
	.st0{fill:#272636;}
</style>
<g>
	<g transform="scale(0.1953125, 0.1953125)">
		<path class="st0" d="M541.1,515.7l164.8-163.9c7.8-7.8,7.8-20.3,0.1-28.1c-7.8-7.8-20.3-7.8-28.1-0.1L513,487.5L349.6,323.7
			c-7.7-7.7-20.3-7.8-28.1,0c-7.8,7.7-7.8,20.3,0,28.1l163.3,163.8L320.2,679.4c-7.8,7.7-7.8,20.3-0.1,28.1c3.9,3.9,9,5.9,14.1,5.9
			c5.1,0,10.2-1.9,14-5.8l164.7-163.8l164.8,165.3c3.9,3.9,9,5.9,14.1,5.9c5.1,0,10.2-1.9,14-5.8c7.8-7.8,7.8-20.3,0-28.1
			L541.1,515.7L541.1,515.7z"/>
	</g>
</g>
<path class="st0" d="M100.2,193.9c-51.3,0-93-41.7-93-93s41.7-93,93-93s93,41.7,93,93S151.5,193.9,100.2,193.9z M100.2,15.9
	c-46.9,0-85,38.1-85,85s38.1,85,85,85s85-38.1,85-85S147.1,15.9,100.2,15.9z"/>
</svg>
