<?xml version="1.0" encoding="utf-8"?>
<!-- Generator: Adobe Illustrator 19.0.0, SVG Export Plug-In . SVG Version: 6.00 Build 0)  -->
<svg version="1.1" id="图层_1" xmlns="http://www.w3.org/2000/svg" xmlns:xlink="http://www.w3.org/1999/xlink" x="0px" y="0px"
	 viewBox="50 -50 200 200" style="enable-background:new 50 -50 200 200;" xml:space="preserve">
<style type="text/css">
	.st0{fill:#272636;}
</style>
<g>
	<g transform="scale(0.1953125, 0.1953125)">
		<path class="st0" d="M732.2-111v484.8h71.7v-491.7l108,107.4L965-63.2L773.1-256L573.9-73.2L624-17L732.2-111z M256-175.8v852.5
			c0,50.4,45.8,91.3,102.1,91.3h819.8c56.3,0,102.1-41,102.1-91.3v-829.6c0-50.6-37.5-103.1-93.2-103.1H894.2l73.8,71.7h170.8
			c32.7,0,46.9,2.3,56,11.8c9.5,9.7,8.4,25.7,8.4,53.4v748.6c0,19.9,1,34.5-7.9,45.9c-9.3,11.9-25.5,15.8-56.6,15.8H397
			c-61.6,0-65-19.7-65.1-51.5c0-4.2,0.9-7.5,0.9-12.1v-746.5c0-27.7-1.2-43.8,8.2-53.6c9.2-9.5,23.2-11.9,55.9-11.9h170.9l85.6-71.7
			H349.3C292.6-256,256-225.6,256-175.8z"/>
	</g>
</g>
</svg>
