<?xml version="1.0" encoding="utf-8"?>
<!-- Generator: Adobe Illustrator 19.0.0, SVG Export Plug-In . SVG Version: 6.00 Build 0)  -->
<svg version="1.1" id="图层_1" xmlns="http://www.w3.org/2000/svg" xmlns:xlink="http://www.w3.org/1999/xlink" x="0px" y="0px"
	 viewBox="50 -50 200 200" style="enable-background:new 50 -50 200 200;" xml:space="preserve">
<style type="text/css">
	.st0{fill:#272636;}
</style>
<g>
	<g transform="scale(0.1953125, 0.1953125)">
		<g>
			<g>
				<path class="st0" d="M1071.2,539.8c-124.6-51.9-229.2-11.8-285.4,21V440.8c109.7-6.3,215.4-70.2,266.6-162.3
					c61.8-99.2,78.1-232.9,39.7-325.3c-7.1-16.4-32.7-24.7-76.2-24.7c-36.2,0-79.6,6.5-108,23.4c-39.2-67.6-74.5-87.6-112.7-104.2
					c-9.5-4.9-25-5.2-28.1-5.2c-10.3,0-19.1,1.7-24.8,4.6C696-135,661.4-111.2,627.3-48.1c-29-17-72-23.4-107.5-23.4
					c-43.2,0-68.8,8.4-76,25.1c-38.3,92.1-22,225.7,39.3,324.3c51.6,92.8,157.2,156.7,267,163v120c-56.2-32.8-160.8-72.9-285.3-21
					c-9.4,3.9-13.3,15.2-9,24.3l0.1,0.1c4.2,8.8,14.6,12.4,23.7,8.7c133.7-55.3,240.7,8.4,277,35c3.3,2.7,7.4,4.1,11.5,4.1
					c4.1,0,8.2-1.4,11.5-4.1c36.3-26.6,143.3-90.3,277-35c9,3.7,19.4,0.1,23.7-8.7l0.1-0.1C1084.6,555,1080.6,543.8,1071.2,539.8z
					 M514.4,259.4c-54.4-87.5-70.3-208.5-38.3-289c4.9-2.2,19.4-5.7,43.7-5.7c44.4,0,86.5,11.3,100,26.9L638,12.6l11.9-25
					c35.7-74.8,67.5-91.9,106.8-107.1c1.6-0.7,5.1-1.5,10.4-1.5c5.4,0,9.9,0.8,11.6,1.3l1.3,0.6c38,16.5,67.9,33.9,106.4,107.4
					l12.8,24.4l17.4-21.4c12.4-15.3,54.2-26.3,99.4-26.3c24.4,0,39,3.4,44,5.6c31.9,80.7,16.1,201.5-38.8,289.6
					C973.7,345.5,869.6,405,768,405l0,17.9l0,0V405C666.4,405,562.2,345.4,514.4,259.4z"/>
				<path class="st0" d="M768.1,614.7c0,0-0.1,0-0.2,0c-4.7,0-9.3-1.7-13-4.6c-38.7-28.4-143.3-88.8-274.4-34.6
					c-10.4,4.3-22.2-0.1-26.9-10c-2.5-5.3-2.8-11.3-0.7-16.6c2-5.2,5.9-9.3,10.9-11.4c124.5-51.9,229.8-11.6,283.8,18.9V443.2
					C636.9,436,532.4,371.7,480.9,279c-61.8-99.4-78.1-233.7-39.4-326.5c7.7-17.7,34-26.6,78.4-26.6c41.5,0,81,8.4,106.5,22.4
					c34.2-62.4,69.4-86,115-103.6c6.1-3,15.4-4.7,25.8-4.7c3.1,0,19.2,0.3,29.3,5.5c36.7,16,73,36,112.5,103
					C934-65.6,973.8-74,1016-74c44.5,0,70.9,8.8,78.5,26.2c38.7,93,22.3,227.8-39.8,327.7c-51.2,92.2-155.6,156.1-266.2,163.3v113.2
					c53.9-30.5,159.2-70.8,283.8-18.9c5.1,2.1,9,6.1,10.9,11.4c2,5.3,1.8,11.3-0.7,16.5c-4.8,10-16.6,14.4-27,10.1
					c-131.2-54.2-235.7,6.2-274.5,34.7C777.4,613,772.8,614.7,768.1,614.7z M768,609.6C768,609.6,768.1,609.6,768,609.6
					c3.6,0,7.1-1.2,9.9-3.5c39.6-29.1,146-90.6,279.6-35.4c7.8,3.2,16.8,0,20.4-7.5c1.9-4,2.1-8.5,0.6-12.5
					c-1.5-3.9-4.4-6.9-8.1-8.5l0,0c-125.5-52.3-231.3-9.4-283.1,20.8l-3.9,2.2V438.4l2.4-0.1c109.8-6.3,213.7-69.5,264.5-160.9
					c61.4-98.7,77.7-231.5,39.5-323.1c-6.7-15.3-31.5-23.1-73.8-23.1c-42.6,0-82.5,8.6-106.7,23.1l-2.2,1.3l-1.3-2.2
					c-39.2-67.6-73.7-86.7-111.5-103.2c-9.2-4.7-24.2-5-27.1-5c-9.5,0-18.1,1.6-23.7,4.3c-45.3,17.5-80,40.9-113.8,103.6l-1.3,2.3
					l-2.3-1.3c-24.7-14.4-64.4-23-106.2-23c-42.1,0-66.9,7.9-73.6,23.5c-38,91.3-21.9,223.7,39.1,321.9
					c51.1,92,155.1,155.5,265,161.8l2.4,0.1v126.9l-3.8-2.2c-51.8-30.2-157.5-73.1-283.1-20.8c-3.8,1.6-6.6,4.6-8.1,8.5
					c-1.5,4-1.4,8.5,0.5,12.4c3.6,7.6,12.6,10.8,20.4,7.6c133.5-55.2,239.9,6.3,279.5,35.3C760.9,608.3,764.4,609.6,768,609.6
					C768,609.6,768,609.6,768,609.6z M770.6,422.9h-5.1v-15.3c-101.7-1-205.6-61.1-253.3-146.9c-54.5-87.7-70.7-210.2-38.5-291.2
					l0.4-1l0.9-0.4c6-2.7,21.4-5.9,44.8-5.9c45.1,0,88,11.7,102,27.8l15.6,18l10.2-21.4c36.1-75.6,69-93.2,108.2-108.4
					c2.2-1.1,6.5-1.7,11.4-1.7c5.2,0,9.9,0.7,12.3,1.4l1.7,0.7c38.5,16.7,68.8,34.3,107.7,108.6l11,21l14.9-18.4
					c12.8-15.8,55.4-27.3,101.3-27.3c23.5,0,39,3.1,45,5.8l1,0.4l0.4,1c32.1,81.2,15.8,204-39,291.9
					c-47.4,85.3-151.1,145.1-252.8,146.1L770.6,422.9z M768,402.5L768,402.5c100.7,0,203.9-59,251-143.6
					c53.8-86.4,70.1-206.6,39-286.4c-5.4-2-19.2-5-42-5c-44.5,0-85.4,10.7-97.4,25.4l-19.8,24.4l-14.6-27.9
					c-38.1-72.8-67.7-90-105.2-106.3l-1.3-0.6c-1.3-0.3-5.6-1.1-10.6-1.1c-5.2,0-8.3,0.8-9.3,1.3c-39.6,15.4-70.2,31.9-105.6,105.9
					l-13.6,28.5L617.9-6.7c-13.1-15.1-54.3-26-98.1-26c-22.7,0-36.4,3-41.7,5.1C446.9,52,463,171.9,516.6,258l0.1,0.1
					C563.9,343.1,667.3,402.5,768,402.5z"/>
			</g>
			<g>
				<path class="st0" d="M768.1,617.2c-0.1,0-0.1,0-0.2,0c-5.3,0-10.5-1.9-14.6-5.2c-38.3-28.1-141.9-87.9-271.8-34.3
					c-11.6,4.8-24.9-0.1-30.2-11.2c-2.8-5.9-3.1-12.6-0.8-18.6c2.2-5.9,6.6-10.4,12.4-12.8C585.5,484,689.6,521.6,745,552V445.6
					c-110.6-8-214.8-72.5-266.4-165.3c-62.2-99.9-78.5-235.2-39.6-328.7c8.2-19,34.6-28.2,80.7-28.2c40.7,0,79.6,8,105.5,21.6
					c34.2-61.4,69.5-84.9,115.1-102.5c6.3-3.1,15.9-4.9,26.7-4.9c4.5,0,20.1,0.4,30.5,5.7c36.5,15.9,72.9,35.9,112.3,101.9
					c25.6-13.6,64.7-21.6,106.2-21.6c46.3,0,72.7,9.1,80.8,27.7c39,93.8,22.6,229.5-40,330c-51.2,92.1-155.2,156.3-265.8,164.4
					v106.5c55.4-30.4,159.5-68,282.2-16.9c5.7,2.4,10.1,6.9,12.3,12.8c2.3,6,2,12.7-0.7,18.5c-5.4,11.2-18.6,16.2-30.3,11.4
					c-130-53.7-233.5,6.2-272,34.4C778.6,615.4,773.4,617.2,768.1,617.2z M768,607c3.2,0.1,5.9-1,8.2-2.9
					c40.1-29.4,147.4-91.5,282.2-35.8c6.6,2.7,14.1,0,17.1-6.2c1.6-3.4,1.8-7.2,0.5-10.5c-1.2-3.2-3.6-5.7-6.7-7l0,0
					c-124.5-51.9-229.4-9.3-280.8,20.7l-7.7,4.5V436l4.8-0.3c109-6.3,212-68.9,262.4-159.6c61.1-98.1,77.2-230,39.4-320.8
					c-6.1-14.1-30.8-21.5-71.4-21.5c-42.2,0-81.6,8.5-105.4,22.7l-4.4,2.7l-2.6-4.5c-38.9-66.9-73-85.8-110.4-102.1
					c-6.9-3.5-18.3-4.7-26.1-4.7c-9.1,0-17.4,1.5-22.6,4c-44.9,17.4-79.2,40.5-112.7,102.5l-2.5,4.7l-4.6-2.7
					c-24.3-14.2-63.5-22.7-104.9-22.7c-40.4,0-65.1,7.6-71.3,22c-37.7,90.6-21.7,222,39,319.5c50.8,91.4,153.9,154.3,263,160.6
					l4.8,0.3v133.8l-7.7-4.5c-51.4-30-156.3-72.5-280.8-20.7c-3.1,1.3-5.5,3.8-6.7,7c-1.3,3.4-1.1,7.2,0.4,10.4
					c3,6.3,10.5,9,17.1,6.3c134.8-55.7,242.1,6.4,282,35.6C762.1,606,765,607,768,607z M773.1,422.9l-10.2,0v-12.8
					c-101.7-2-205.2-62.3-252.9-148.1c-54.9-88.4-71.2-211.8-38.7-293.4l0.8-1.9l1.9-0.9c6.3-2.8,22-6.1,45.8-6.1
					c46.5,0,89.2,11.8,103.9,28.7l13,15l8.6-17.9c36.5-76.4,69.8-94.3,109.6-109.7c2.4-1.2,7-1.9,12.3-1.9c5.4,0,10.4,0.8,12.9,1.5
					l2,0.8c39,16.9,69.6,34.7,108.9,109.8l9.2,17.5L912.6-12c13.5-16.6,56-28.2,103.3-28.2c23.9,0,39.8,3.3,46.1,6.1l1.9,0.8l0.8,2
					c32.4,81.9,15.9,205.6-39.2,294.2c-47.4,85.2-150.7,145.3-252.4,147.3L773.1,422.9z M768,399.9L768,399.9
					c99.8,0,202.1-58.5,248.7-142.3c53.2-85.5,69.5-204.1,39.3-283.2c-5.7-1.9-19-4.5-40.1-4.5c-43.1,0-84.1,10.5-95.4,24.4
					l-22.3,27.4L881.9-9.4c-37.7-72.1-66.9-89-104-105.1l-0.9-0.4c-1.8-0.4-5.5-1-10-1c-4.9,0-7.6,0.8-8.2,1.1
					c-39.2,15.2-69.4,31.5-104.4,104.7l-15.3,32L615.9-5c-12.4-14.3-53.8-25.1-96.2-25.1c-20.9,0-34.2,2.7-39.8,4.5
					c-30.3,78.9-14.2,197.2,38.7,282.3l0.1,0.2C565.7,341.1,668.1,399.9,768,399.9z"/>
				<path class="st0" d="M768.1,619.8l-0.4,0c0,0,0,0,0,0c-5.7,0-11.4-2.1-16-5.8c-38-27.8-140.5-87-269.2-33.9
					c-12.9,5.3-27.6-0.2-33.5-12.5c-3.1-6.5-3.4-14-0.9-20.6c2.5-6.5,7.4-11.6,13.8-14.3c122.4-51,227-13.6,280.6,15V448
					c-110.4-8.8-214.7-74-266-166.5c-62.6-100.6-78.9-236.7-39.7-330.9c8.7-20.1,35.9-29.8,83.1-29.8c40.1,0,78,7.5,104.5,20.7
					c34.3-60.6,69.6-83.8,115.2-101.5c6.4-3.2,16.6-5.1,27.6-5.1c4.7,0,20.8,0.4,31.6,6c36.5,15.9,72.7,35.6,112,100.8
					C937-71.5,975.1-79.1,1016-79.1c47.4,0,74.6,9.6,83.2,29.3c39.3,94.5,22.8,231.2-40.2,332.4c-51,91.8-155,156.6-265.4,165.4
					v99.8c53.6-28.6,158.2-66,280.7-15c6.4,2.7,11.3,7.7,13.8,14.3c2.5,6.6,2.2,14.1-0.8,20.5c-5.9,12.4-20.7,17.9-33.6,12.6
					c-128.8-53.2-231.4,6.1-269.5,34.1c-4.2,3.5-10,5.5-15.8,5.5L768.1,619.8z M587.1,553.6c79.7,0,140.2,36.2,167.7,56.4
					c3.8,3.1,8.4,4.7,13.1,4.7h0.2c4.7,0,9.3-1.6,12.8-4.5c39-28.6,143.5-89,274.6-34.8c10.4,4.3,22.2-0.1,27-10.1
					c2.5-5.1,2.7-11.1,0.7-16.5c-2-5.2-5.9-9.3-10.9-11.4c-123.4-51.4-228.4-11.5-280,16.8l-3.8,2.1V443.2l2.4-0.2
					c109.6-7.9,213.1-71.9,263.8-163c62.2-100,78.6-234.8,39.9-327.8c-7.7-17.6-33.3-26.2-78.5-26.2c-40.6,0-79.8,8-105,21.3
					l-2.2,1.1l-1.2-2.1c-39-65.5-74.8-85-111.1-100.8c-10-5.1-25.1-5.5-29.4-5.5c-10.3,0-19.6,1.7-25.5,4.6
					c-45.3,17.5-80.1,40.6-114,101.4l-1.2,2.2l-2.2-1.2c-25.5-13.3-64.5-21.3-104.3-21.3c-45,0-70.6,8.7-78.4,26.7
					c-38.6,92.8-22.4,227,39.4,326.3c51,91.8,154.8,156.2,264.4,164.1l2.4,0.2v113.2l-3.8-2.1c-51.6-28.3-156.6-68.2-280-16.8
					c-5.1,2.1-9,6.1-10.9,11.4c-2,5.3-1.8,11.4,0.7,16.6c4.7,9.9,16.6,14.2,26.9,10C518.6,559.7,554.5,553.6,587.1,553.6z
					 M768.3,609.6c-0.2,0-0.3,0-0.5,0c-3.5,0-6.9-1.3-9.8-3.7c-39.4-28.9-145.8-90.4-279.4-35.2c-7.9,3.2-16.8-0.1-20.4-7.6
					c-1.9-3.9-2-8.4-0.5-12.4c1.5-3.9,4.4-6.9,8.1-8.5c125.5-52.3,231.2-9.4,283.1,20.8l3.8,2.2V438.4l-2.4-0.1
					c-109.9-6.4-213.9-69.9-265.1-161.9c-61-98.1-77.1-230.4-39.1-321.7c6.7-15.4,32.1-23.6,73.7-23.6c41.9,0,81.6,8.6,106.2,23
					l2.3,1.3l1.3-2.3c33.8-62.7,68.7-86.2,114-103.7c5.4-2.6,14-4.2,23.5-4.2c8.4,0,20,1.3,27.2,5c37.7,16.4,72.1,35.5,111.4,103.1
					l1.3,2.2l2.2-1.3c24.2-14.4,64.1-23.1,106.7-23.1c41.7,0,67.2,8,73.8,23.1c38.1,91.6,21.8,224.5-39.6,323.2
					c-50.8,91.3-154.6,154.5-264.4,160.8l-2.4,0.1v126.9l3.9-2.2c51.8-30.2,157.6-73.1,283.1-20.9c3.8,1.6,6.7,4.6,8.1,8.5
					c1.5,4,1.3,8.6-0.6,12.5c-3.5,7.4-12.5,10.7-20.4,7.5c-133.6-55.2-240.1,6.4-279.7,35.5C775,608.4,771.8,609.6,768.3,609.6z
					 M768,604.4L768,604.4c2.6,0,4.7-0.7,6.6-2.3c40.4-29.7,148.8-92.4,284.8-36.2c5.3,2.2,11.4,0,13.8-4.9c1.3-2.7,1.4-5.8,0.4-8.5
					c-1-2.6-2.9-4.5-5.3-5.6c-123.5-51.5-227.5-9.2-278.6,20.5l-11.5,6.7V433.5l7.2-0.4c108.1-6.2,210.3-68.4,260.3-158.3
					c60.7-97.5,76.8-228.5,39.3-318.6c-5.6-12.8-30.1-19.9-69.1-19.9c-41.7,0-80.6,8.4-104.1,22.3l-6.7,4l-3.9-6.7
					c-38.5-66.2-72.2-84.9-109.2-101c-6.6-3.4-17.6-4.5-25.1-4.5c-8.7,0-16.6,1.4-21.5,3.8c-44.4,17.2-78.5,40.1-111.6,101.4l-3.8,7
					l-6.9-4c-23.9-14-62.7-22.3-103.7-22.3c-38.8,0-63.2,7.3-68.9,20.4c-37.4,89.9-21.5,220.3,38.8,317.1
					c50.4,90.6,152.8,153.2,260.9,159.4l7.2,0.4v140.7l-11.5-6.7c-51-29.7-155-72-278.5-20.5c-2.4,1-4.3,3-5.3,5.6
					c-1,2.7-0.9,5.8,0.3,8.4c2.4,5,8.5,7.2,13.9,5.1c135.9-56.2,244.2,6.4,284.5,35.9C763.3,603.6,765.7,604.5,768,604.4L768,604.4z
					 M775.7,425.5l-15.4,0v-12.8c-101.5-2.9-205.1-64.1-252.6-149.4C452.5,174.3,436.2,50,469-32.4l1.1-2.9l2.8-1.3
					c6.5-2.9,22.7-6.4,46.9-6.4c47.2,0,90.7,12.2,105.8,29.6l10.5,12.1l6.9-14.4c36.9-77.3,70.7-95.4,110.9-111
					c2.6-1.3,7.6-2.1,13.2-2.1c5.7,0,10.9,0.8,13.6,1.5l2.4,0.9c39.5,17.2,70.6,35.1,110.2,110.9l7.4,14.1l10-12.3
					c13.9-17.2,57.2-29.2,105.3-29.2c24.3,0,40.6,3.4,47.1,6.3l2.9,1.3l1.2,2.9c32.7,82.6,16.1,207.3-39.4,296.5
					c-47.1,84.7-150.5,145.5-252,148.4L775.7,425.5z M765.5,420.3l5.1,0l0-12.7l2.5,0c100.6-1.9,203.5-62,250.2-146
					c54.8-88.1,71.2-210.9,39-292.1l-0.4-1l-1-0.4c-6.1-2.7-21.5-5.8-45-5.8c-46.6,0-88.3,11.2-101.3,27.3L899.7,8l-11-21
					c-38.9-74.3-69.2-91.9-107.7-108.6l-2-0.8c-2.1-0.5-6.8-1.3-12-1.3c-5.7,0-9.6,0.9-11.2,1.6c-39.4,15.3-72.3,32.9-108.4,108.5
					L637.3,7.9l-15.6-18c-14.2-16.4-56.1-27.8-102-27.8c-23.4,0-38.7,3.2-44.8,5.9l-0.9,0.4l-0.4,1c-32.2,81-16.1,203.4,38.4,291.2
					c47.1,84.6,150.2,145,250.8,146.9l2.5,0V420.3z M768,402.5L768,402.5c-100.8,0-204.2-59.4-251.4-144.3
					c-53.2-85.5-69.5-205.2-39-284.7l0.4-1.1l1.1-0.4c3.3-1.1,15.9-4.7,40.6-4.7c43,0,85.2,11.2,98.1,26l20.7,23.9l13.6-28.5
					c35.4-74,66.1-90.6,105.8-106c1.1-0.5,4.3-1.2,9.2-1.2c4.4,0,8.3,0.6,10.6,1.1l1.3,0.5c37.5,16.3,67.1,33.4,105.2,106.3
					l14.6,27.9l19.8-24.4c11.9-14.7,52.9-25.4,97.4-25.4c24.9,0,37.6,3.5,40.8,4.6l1.2,0.4l0.4,1.1c30.4,79.7,13.8,199.7-39.5,285.4
					C971.9,343.4,868.7,402.5,768,402.5z M768,397.4L768,397.4c99,0,200.3-58,246.5-141c52.3-84.2,68.9-201.6,39.6-279.9
					c-6.8-2-20-4-38.1-4c-41.7,0-82.7,10.3-93.4,23.5l-24.7,30.5L879.7-8.3c-37.4-71.3-66.1-88.1-102.7-104l-0.9-0.4
					c-1.4-0.3-5-0.8-8.9-0.8c-5,0-7.1,0.8-7.2,0.8c-38.7,15-68.6,31.2-103.1,103.5l-17,35.5L614-3.3c-12-13.8-52.5-24.3-94.2-24.3
					c-18,0-31.1,2-37.8,4c-29.4,78.1-13.1,195.2,38.9,278.9C567.5,339.1,669,397.4,768,397.4z"/>
			</g>
		</g>
	</g>
</g>
</svg>
