<?xml version="1.0" encoding="utf-8"?>
<!-- Generator: Adobe Illustrator 19.0.0, SVG Export Plug-In . SVG Version: 6.00 Build 0)  -->
<svg version="1.1" id="图层_1" xmlns="http://www.w3.org/2000/svg" xmlns:xlink="http://www.w3.org/1999/xlink" x="0px" y="0px"
	 viewBox="0 0 200 200" style="enable-background:new 0 0 200 200;" xml:space="preserve">
<style type="text/css">
	.st0{fill:#272636;}
</style>
<g>
	<g transform="scale(0.1953125, 0.1953125)">
		<g>
			<path class="st0" d="M150.5,773.8c83.8,114.5,216.9,183.5,361.6,183.5c247.3,0,447.8-200.5,447.8-447.8c0-8.8-7.2-16-16-16
				c-8.8,0-16,7.2-16,16c0,229.6-186.2,415.8-415.8,415.8c-134.3,0-257.9-64.1-335.7-170.4c-5.2-7.1-15.2-8.7-22.4-3.5
				C146.9,756.6,145.3,766.6,150.5,773.8L150.5,773.8z M870.2,240.6C786.3,129,654.8,61.7,512.1,61.7
				c-247.3,0-447.8,200.5-447.8,447.8c0,8.8,7.2,16,16,16s16-7.2,16-16c0-229.6,186.2-415.8,415.8-415.8
				c132.8,0,255.1,62.7,333,166.8h-57.5c-8.8,0-16,7.2-16,16c0,8.8,7.2,16,16,16h98.6c8.8,0,16-7.2,16-16v-98.7c0-8.8-7.2-16-16-16
				c-8.8,0-16,7.2-16,16V240.6L870.2,240.6z M870.2,274.5c1.2-0.5,2.3-1.1,3.3-1.8c4.1-2.9,6.5-7.5,6.7-12.2h6l-16,16V274.5
				L870.2,274.5z M159.5,842v-98.7l-16,16h98.6c8.8,0,16-7.2,16-16c0-8.8-7.2-16-16-16h-98.6c-8.8,0-16,7.2-16,16V842
				c0,8.8,7.2,16,16,16C152.3,858,159.5,850.9,159.5,842z"/>
			<path class="st0" d="M512.1,959.9c-135.6,0-264.9-62-350-167V842c0,10.2-8.3,18.6-18.6,18.6s-18.6-8.3-18.6-18.6v-98.7
				c0-10.2,8.3-18.6,18.6-18.6h98.6c10.2,0,18.6,8.3,18.6,18.6s-8.3,18.6-18.6,18.6h-57.3c78,100.9,199.5,160.9,327.2,160.9
				c227.9,0,413.2-185.4,413.2-413.2c0-10.2,8.3-18.6,18.6-18.6c10.2,0,18.6,8.3,18.6,18.6C962.5,757.8,760.4,959.9,512.1,959.9z
				 M162.1,784.7c84.1,106.8,213.8,170.1,350,170.1c245.5,0,445.2-199.7,445.2-445.2c0-7.4-6-13.4-13.4-13.4
				c-7.4,0-13.4,6-13.4,13.4c0,230.7-187.7,418.4-418.4,418.4c-130.6,0-254.8-61.9-333.7-166h-16.3V784.7z M143.5,729.9
				c-7.4,0-13.4,6-13.4,13.4V842c0,7.4,6,13.4,13.4,13.4s13.4-6,13.4-13.4v-55.6c-2.9-3.7-5.7-7.4-8.5-11.2
				c-2.9-3.9-4.1-8.6-3.4-13.4h-7.7l24.7-24.7v8.7c6.2-0.4,12.4,2.2,16.4,7.5c0.8,1.1,1.7,2.3,2.5,3.4h61.2c7.4,0,13.4-6,13.4-13.4
				s-6-13.4-13.4-13.4H143.5z M150.2,761.9c-0.6,3.5,0.1,7.3,2.4,10.4l0,0c1.4,2,2.9,3.9,4.3,5.8v-16.2H150.2z M162.1,756.8h12.5
				c-0.1-0.1-0.2-0.3-0.3-0.4c-2.1-2.9-5.2-4.8-8.8-5.3c-1.2-0.2-2.3-0.2-3.4-0.1V756.8z M152.3,756.8h4.6v-4.2
				c-0.5,0.3-1,0.6-1.4,0.9C154.2,754.4,153.2,755.5,152.3,756.8z M80.3,528.1c-10.2,0-18.6-8.3-18.6-18.6
				c0-248.3,202-450.4,450.4-450.4c140.4,0,269.6,63.3,355.6,173.9v-55.3c0-10.2,8.3-18.6,18.6-18.6s18.6,8.3,18.6,18.6v98.7
				c0,10.2-8.3,18.6-18.6,18.6h-98.6c-10.2,0-18.6-8.3-18.6-18.6s8.3-18.6,18.6-18.6h52.4C761,155.1,641.8,96.3,512.1,96.3
				c-227.9,0-413.2,185.4-413.2,413.2C98.9,519.8,90.5,528.1,80.3,528.1z M512.1,64.3C266.6,64.3,66.9,264,66.9,509.5
				c0,7.4,6,13.4,13.4,13.4s13.4-6,13.4-13.4c0-230.7,187.7-418.4,418.4-418.4c133.1,0,255.2,61.2,335.1,167.8l3.1,4.1h-62.6
				c-7.4,0-13.4,6-13.4,13.4c0,7.4,6,13.4,13.4,13.4h98.6c7.4,0,13.4-6,13.4-13.4v-98.7c0-7.4-6-13.4-13.4-13.4s-13.4,6-13.4,13.4
				v70.5l-4.6-6.1C783.2,129.1,653.4,64.3,512.1,64.3z M867.6,282.7v-9.9l1.6-0.6c1-0.4,1.9-0.9,2.8-1.5c3.4-2.4,5.4-6.1,5.6-10.2
				l0.1-2.4h14.6L867.6,282.7z"/>
		</g>
	</g>
</g>
<g>
	<g transform="scale(0.1953125, 0.1953125)">
		<g>
			<path class="st0" d="M504.8,795.5l-5.5-5.5C433,724.8,373,650.4,321,569.1c-30.6-47.9-61.2-119.8-33.3-190.9
				c5.1-13.3,14.2-33,27.7-51.7c30.3-41.8,71.2-73.2,115.1-88.3c27.2-9.3,56.8-14.7,81.3-14.7c52.8,0,105.7,18.2,145.1,50
				c74,59.6,104.7,135.4,84.3,208c-0.8,2.7-1.6,5.4-2.5,8.2c-9.5,28.5-22.9,55.2-39.8,79.5c-18.3,26.3-37,52.3-56.3,78
				c-10.7,14.1-21.4,28.3-32.4,42.3c-12.5,15.8-25.1,31.4-37.9,46.9c-48.4,58.3-52.7,58.5-59.9,58.7L504.8,795.5L504.8,795.5z
				 M511.9,259.3c-20.7,0-46,4.6-69.6,12.7c-37,12.7-71.7,39.5-97.7,75.4c-8.8,12.2-17.2,27.8-23.4,43.8
				c-22.5,57.1,4,117.9,30.1,158.8c47.1,73.6,100.9,141.3,160,201.5c12.5-14,30.6-34.6,33.2-37.6c12.6-15.3,25.1-30.7,37.3-46.3
				c10.8-13.8,21.5-27.7,32-41.6c19-25.3,37.5-51,55.5-76.9c14.9-21.5,26.8-45.2,35.2-70.4l2-6.6c22.5-79.8-35.6-141.2-72.3-170.7
				C601.2,274.6,556.6,259.3,511.9,259.3L511.9,259.3z M511.6,523.5c-46.3,0-84-37.4-84-83.4s37.7-83.4,84-83.4
				c46.3,0,84,37.4,84,83.4S557.9,523.5,511.6,523.5L511.6,523.5z M511.6,392.5c-26.5,0-48,21.4-48,47.6c0,26.3,21.5,47.6,48,47.6
				c26.5,0,48-21.4,48-47.6C559.6,413.9,538.1,392.5,511.6,392.5L511.6,392.5z"/>
			<path class="st0" d="M503.8,798.1l-6.3-6.2C431.1,726.5,371,652,318.8,570.5c-30.9-48.4-61.9-121.1-33.5-193.2
				c5.2-13.3,14.3-33.2,28-52.3c30.6-42.3,72-74,116.4-89.2c27.5-9.4,57.4-14.8,82.2-14.8c53.4,0,106.9,18.4,146.7,50.6
				c74.8,60.2,105.8,137,85.1,210.7c-0.7,2.5-1.5,5-2.3,7.5l-0.2,0.8c-9.6,28.7-23.1,55.7-40.1,80.2c-19,27.3-37.9,53.6-56.3,78.1
				c-12,15.9-22.6,29.7-32.4,42.3c-13.3,16.8-25.7,32.2-38,47c-49.1,59.2-53.6,59.3-61.8,59.6L503.8,798.1z M511.9,226.1
				c-24.2,0-53.6,5.3-80.5,14.5c-43.4,14.9-83.9,46-113.9,87.4c-13.5,18.6-22.3,38.1-27.4,51.1c-27.6,70.1,2.7,141.2,33,188.6
				c51.9,81.2,111.8,155.4,177.9,220.5l4.8,4.7l6.7-0.2c6-0.2,10.4-0.4,58-57.8c12.2-14.8,24.6-30.1,37.9-46.9
				c9.8-12.6,20.4-26.4,32.3-42.2c18.4-24.5,37.3-50.7,56.2-78c16.7-24.1,30-50.6,39.5-78.9l0.2-0.7c0.8-2.5,1.5-4.9,2.2-7.3
				c20.1-71.6-10.3-146.5-83.4-205.3C616.5,244.1,564.2,226.1,511.9,226.1z M511.5,755.2l-1.9-2C450.2,692.9,396.3,625,349.2,551.4
				c-26.5-41.4-53.2-103-30.3-161.1c6.3-16.2,14.7-31.9,23.7-44.4c26.3-36.4,61.5-63.5,98.9-76.3c23.8-8.2,49.5-12.9,70.4-12.9
				c45.2,0,90.5,15.5,124,42.6c37.1,29.9,96,92.2,73.1,173.4l-2,6.6c-8.6,25.5-20.5,49.4-35.6,71.1c-18.7,26.9-37.4,52.8-55.5,77
				c-11.3,15-21.8,28.7-32,41.7c-11.3,14.4-23.5,29.5-37.3,46.4c-2.6,3.2-20.8,23.7-33.3,37.7L511.5,755.2z M511.9,261.8
				c-20.4,0-45.4,4.6-68.7,12.6c-36.5,12.5-70.7,39-96.4,74.5c-8.8,12.1-17,27.5-23.1,43.3c-22.1,56.1,4.1,116.1,29.9,156.5
				c46.4,72.6,99.5,139.5,157.8,199.1c12.2-13.7,28.9-32.6,31.3-35.5c13.8-16.8,26-31.9,37.3-46.3c10.2-13,20.7-26.6,31.9-41.6
				c18.1-24.1,36.8-50,55.4-76.8c14.8-21.3,26.5-44.8,34.9-69.7l2-6.5c22.1-78.3-35.3-138.9-71.4-168
				C600.1,277,556,261.8,511.9,261.8z M511.6,526.1c-47.7,0-86.6-38.5-86.6-85.9c0-47.4,38.8-86,86.6-86s86.6,38.5,86.6,85.9
				C598.2,487.5,559.4,526.1,511.6,526.1z M511.6,359.3c-44.9,0-81.4,36.3-81.4,80.8c0,44.6,36.5,80.8,81.4,80.8
				c44.9,0,81.4-36.3,81.4-80.8C593.1,395.6,556.5,359.3,511.6,359.3z M511.6,490.3c-27.9,0-50.6-22.5-50.6-50.2
				s22.7-50.2,50.6-50.2c27.9,0,50.6,22.5,50.6,50.2S539.5,490.3,511.6,490.3z M511.6,395.1c-25.1,0-45.4,20.2-45.4,45.1
				s20.4,45.1,45.4,45.1s45.4-20.2,45.4-45.1S536.7,395.1,511.6,395.1z"/>
		</g>
	</g>
</g>
</svg>
