<?xml version="1.0" standalone="no"?><!DOCTYPE svg PUBLIC "-//W3C//DTD SVG 1.1//EN" "http://www.w3.org/Graphics/SVG/1.1/DTD/svg11.dtd"><svg width="200" height="200" viewBox="0 0 200 200" version="1.1" xmlns="http://www.w3.org/2000/svg" xmlns:xlink="http://www.w3.org/1999/xlink"><defs><style type="text/css"><![CDATA[
@font-face { font-family: ifont; src: url("//at.alicdn.com/t/font_1442373896_4754455.eot?#iefix") format("embedded-opentype"), url("//at.alicdn.com/t/font_1442373896_4754455.woff") format("woff"), url("//at.alicdn.com/t/font_1442373896_4754455.ttf") format("truetype"), url("//at.alicdn.com/t/font_1442373896_4754455.svg#ifont") format("svg"); }

]]></style></defs><g class="transform-group"><g transform="scale(0.1953125, 0.1953125)"><path d="M803.028283 310.064848l9.209756-27.629267c6.856152-20.568455 5.218862-42.569538-4.502547-61.910025s-26.4013-33.769105-46.969755-40.625256l-322.750775-107.037828c-20.670785-6.856152-42.671868-5.321192-61.910025 4.502547-19.340487 9.721409-33.769105 26.4013-40.625256 46.969755-1.125637 3.37691-1.432629 6.753821-1.227967 10.028401l-3.172249-0.716314c-21.080108-5.116531-42.87653-1.739621-61.398372 9.414417-18.521842 11.256368-31.620162 29.061896-36.736693 50.039673l-30.392194 124.229372c-36.020378 18.21485-60.784388 55.565527-60.784388 98.544387l0 426.207032c0 60.784388 49.425689 110.312408 110.312408 110.312408l519.839549 0c60.784388 0 110.312408-49.52802 110.312408-110.312408l0-426.207032C882.232183 365.835036 848.77007 323.57249 803.028283 310.064848zM384.700709 140.605342c2.455935-7.470135 7.674796-13.405311 14.633279-16.986883 7.060813-3.479241 15.042601-3.990894 22.308075-1.534959l322.750775 107.037828c7.367805 2.455935 13.405311 7.674796 16.986883 14.633279 3.479241 6.958482 4.093225 14.94027 1.534959 22.308075l-13.098319 39.499619-27.629267 0c2.967588-18.828834-0.716314-37.96466-10.847046-54.54222-11.256368-18.521842-28.959565-31.620162-50.039673-36.736693l-279.157931-68.254523C383.16575 144.391575 384.086725 142.549623 384.700709 140.605342zM283.393395 205.380624c1.841951-7.572466 6.54916-14.019295 13.302981-18.11252 6.65149-3.990894 14.633279-5.218862 22.103414-3.37691l330.22091 80.84119c7.572466 1.841951 14.019295 6.54916 18.11252 13.302981 4.093225 6.65149 5.218862 14.530948 3.37691 22.103414-0.409322 1.841951-0.716314 3.683902-0.716314 5.525853l-410.959769 0L283.393395 205.380624zM830.350558 842.184071c0 32.234145-26.196639 58.430784-58.430784 58.430784l-519.839549 0c-32.234145 0-58.430784-26.196639-58.430784-58.430784l0-426.309362c0-32.234145 26.196639-58.430784 58.430784-58.430784l519.839549 0c32.234145 0 58.430784 26.196639 58.430784 58.430784L830.350558 842.184071zM579.74287 496.204246l-55.053873 106.935498c-5.321192 10.437723-9.619078 19.033495-12.688997 25.889647-3.069919-7.060813-6.856152-15.042601-11.768021-24.047696l-58.123792-108.777449-47.993061 0 79.920214 147.151431-64.46829 0 0 38.373982 81.557504 0 0 22.001083-81.557504 0 0 36.429701 81.557504 0 0 67.231217 43.183522 0 0-67.231217 81.148182 0 0-36.429701-81.148182 0 0-22.001083 81.148182 0 0-38.373982-64.570621 0 79.613222-147.151431L579.74287 496.204246 579.74287 496.204246z" fill="#272636"></path></g></g></svg>