<?xml version="1.0" encoding="utf-8"?>
<!-- Generator: Adobe Illustrator 19.0.0, SVG Export Plug-In . SVG Version: 6.00 Build 0)  -->
<svg version="1.1" id="图层_1" xmlns="http://www.w3.org/2000/svg" xmlns:xlink="http://www.w3.org/1999/xlink" x="0px" y="0px"
	 viewBox="-274 573 200 200" style="enable-background:new -274 573 200 200;" xml:space="preserve">
<style type="text/css">
	.st0{fill:#272636;}
</style>
<g>
	<g transform="scale(0.1953125, 0.1953125)">
		<path class="st0" d="M-1129.8,3241.1l326.2-300c10-9.3,26.2-9.3,36.2,0l252.8,235.9c4.8,4.4,7.5,10.5,7.5,16.9
			c0,6.4-2.7,12.4-7.5,16.9l-34.9,30.3c-32.4,1.6-38.3,2.7-68.3,0l48.9-47.2l-216.6-202.1l-276,249.3
			C-1099.3,3241.5-1099.1,3242.9-1129.8,3241.1z M-1232.2,3241.1l189.7-295.4c7.1-11.3,22.6-15.3,34.9-8.7l150.8,65.2
			c-29.2,27.7-16.2-2.9-68.3,34.1l-86-46.1l-152.9,250.9C-1209.6,3242.4-1204.9,3239.9-1232.2,3241.1z M-506.9,3957.5h-767.9
			c-70.6,0-128-53.6-128-119.5v-498.2c0-65.8,65.9-98.8,136.5-98.8h750.8c70.6,0,136.5,33,136.5,98.8v498.2
			C-378.9,3903.9-436.4,3957.5-506.9,3957.5L-506.9,3957.5L-506.9,3957.5z M-1260.6,3308.9c-40.8,0-74,12.6-74,49.3v482.3
			c0,36.7,33.2,49.3,74,49.3h739.4c40.8,0,74-12.6,74-49.3v-482.3c0-36.7-33.2-49.3-74-49.3H-1260.6L-1260.6,3308.9L-1260.6,3308.9z
			 M-668.8,3684.5c-65.9,0-119.5-53.7-119.5-119.6c0-65.9,53.6-119.6,119.5-119.6c65.8,0,119.5,53.7,119.5,119.6
			C-549.4,3630.8-603,3684.5-668.8,3684.5L-668.8,3684.5L-668.8,3684.5z M-668.9,3505.6c-33,0-59.8,26.8-59.8,59.8
			c0,32.9,26.9,59.7,59.8,59.7s59.8-26.8,59.8-59.7C-609,3532.4-635.9,3505.6-668.9,3505.6L-668.9,3505.6L-668.9,3505.6z"/>
	</g>
</g>
</svg>
