<?xml version="1.0" standalone="no"?><!DOCTYPE svg PUBLIC "-//W3C//DTD SVG 1.1//EN" "http://www.w3.org/Graphics/SVG/1.1/DTD/svg11.dtd"><svg width="200" height="200" viewBox="0 0 200 200" version="1.1" xmlns="http://www.w3.org/2000/svg" xmlns:xlink="http://www.w3.org/1999/xlink"><defs><style type="text/css"><![CDATA[
@font-face { font-family: ifont; src: url("//at.alicdn.com/t/font_1442373896_4754455.eot?#iefix") format("embedded-opentype"), url("//at.alicdn.com/t/font_1442373896_4754455.woff") format("woff"), url("//at.alicdn.com/t/font_1442373896_4754455.ttf") format("truetype"), url("//at.alicdn.com/t/font_1442373896_4754455.svg#ifont") format("svg"); }

]]></style></defs><g class="transform-group"><g transform="scale(0.1953125, 0.1953125)"><path d="M275 82.9c-111 0-200.9 90-200.9 200.9 0 111 90 200.9 200.9 200.9L476 484.7 476 283.8C476 172.8 386 82.9 275 82.9L275 82.9zM939.7 283.8c0-111-90-200.9-200.9-200.9s-201 90-201 200.9l0 200.9 201 0C849.7 484.7 939.7 394.8 939.7 283.8L939.7 283.8zM74.1 747.5c0 111 90 200.9 200.9 200.9 111 0 200.9-89.9 200.9-200.9L475.9 546.6 275 546.6C164.1 546.6 74.1 636.5 74.1 747.5L74.1 747.5zM738.7 546.6l-201 0 0 200.9c0 111 90 200.9 201 200.9s200.9-90 200.9-200.9C939.7 636.5 849.7 546.6 738.7 546.6L738.7 546.6z" fill="#272636"></path></g></g></svg>