<?xml version="1.0" encoding="utf-8"?>
<!-- Generator: Adobe Illustrator 19.0.0, SVG Export Plug-In . SVG Version: 6.00 Build 0)  -->
<svg version="1.1" id="图层_1" xmlns="http://www.w3.org/2000/svg" xmlns:xlink="http://www.w3.org/1999/xlink" x="0px" y="0px"
	 viewBox="-274 573 200 200" style="enable-background:new -274 573 200 200;" xml:space="preserve">
<style type="text/css">
	.st0{fill:#272636;}
</style>
<g>
	<g transform="scale(0.1953125, 0.1953125)">
		<path class="st0" d="M-468.5,3107.8c-59.4-59.4-138.5-92.1-222.7-92.1s-163.3,32.7-222.7,92.1l-219.8,219.8
			c-14.2,14.2-14.2,37.3,0,51.5c6.9,6.9,16,10.7,25.7,10.7s18.9-3.8,25.7-10.7l219.8-219.8c45.6-45.6,106.5-70.8,171.2-70.8
			s125.5,25.1,171.2,70.8c94.4,94.4,94.4,248,0,342.4l-368.1,368.2l-368.2-368.1c-94.4-94.4-94.4-248,0-342.4
			c45.6-45.6,106-70.7,170.3-70.7c11.6,0,23.4,0.8,35,2.5c1.7,0.3,3.4,0.4,5.2,0.4c18,0,33.5-13.5,36-31.3
			c2.8-19.9-11.1-38.4-31-41.2c-14.7-2.1-29.6-3.2-44.4-3.2c-33.3,0-66,5.1-97.3,15.2c-47.6,15.4-89.8,41.2-125.4,76.7
			c-122.8,122.8-122.8,322.6,0,445.4l393.9,393.9c6.9,6.9,16,10.7,25.7,10.7c9.7,0,18.9-3.8,25.7-10.7l393.9-393.9
			C-345.7,3430.4-345.7,3230.6-468.5,3107.8z"/>
	</g>
</g>
</svg>
