<?xml version="1.0" encoding="utf-8"?>
<!-- Generator: Adobe Illustrator 19.0.0, SVG Export Plug-In . SVG Version: 6.00 Build 0)  -->
<svg version="1.1" id="图层_1" xmlns="http://www.w3.org/2000/svg" xmlns:xlink="http://www.w3.org/1999/xlink" x="0px" y="0px"
	 viewBox="0 0 200 200" style="enable-background:new 0 0 200 200;" xml:space="preserve">
<style type="text/css">
	.st0{fill:#272636;}
</style>
<g>
	<g transform="scale(0.1953125, 0.1953125)">
		<path class="st0" d="M655.2,333.1L813,491c3.6,2.8,6.4,6.5,8,10.8c0.1,0.3,0.1,0.5,0.1,0.7c1.2,2.6,1.5,5.4,1.7,8.2
			c0,0.4,0.3,0.8,0.3,1.2c0,0.8-0.5,1.4-0.5,2.2c-0.1,1.7-0.5,3.3-1.1,5c-0.5,2-1.3,3.8-2.2,5.6c-0.6,1.1-1.3,2.1-2.1,3.1
			c-0.7,0.9-1,2-2,2.9L655.2,690.8c-10.3,10.4-27.1,10.4-37.2,0c-10.3-10.2-10.3-27,0-37.4L733,538.2H476.3
			c-14.7,0-26.8-12-26.8-26.7c0-14.7,12-26.7,26.8-26.7h255.9L617.9,370.4c-10.3-10.2-10.3-27,0-37.3
			C628.1,322.9,644.8,322.9,655.2,333.1z"/>
	</g>
	<path class="st0" d="M68.7,105.2H44.4c-2.9,0-5.2-2.3-5.2-5.2v0c0-2.9,2.3-5.2,5.2-5.2h24.3c2.9,0,5.2,2.3,5.2,5.2v0
		C73.9,102.8,71.6,105.2,68.7,105.2z"/>
</g>
</svg>
