<?xml version="1.0" encoding="utf-8"?>
<!-- Generator: Adobe Illustrator 19.0.0, SVG Export Plug-In . SVG Version: 6.00 Build 0)  -->
<svg version="1.1" id="图层_1" xmlns="http://www.w3.org/2000/svg" xmlns:xlink="http://www.w3.org/1999/xlink" x="0px" y="0px"
	 viewBox="0 0 200 200" style="enable-background:new 0 0 200 200;" xml:space="preserve">
<style type="text/css">
	.st0{fill:#272636;}
</style>
<g>
	<g transform="scale(0.1953125, 0.1953125)">
		<g>
			<path class="st0" d="M679.2,842.5c-2.7,0-5.3,0.4-7.5,1.4h-0.1c-1.8,0.8-3.5,1.9-5,3.5L556.1,968.7c-1.2,1.3-2.5,2.6-3.8,3.8
				c-10.3,9.2-23.6,13.8-36.8,13.8c-13.2,0-26.6-4.6-36.8-13.9l-0.2-0.2c-1-1-2.2-2.2-3.6-3.7L368,849.2c-1.3-1.4-2.9-2.4-4.7-3.1
				c-2.6-1-5.6-1.6-8.7-1.6h-0.1c-29-1.4-49.8-1.5-72-1.6h-0.1c-28.5-0.1-59.2-0.3-109.1-2.8l0,0c-27.1,0-51.8-11.2-69.7-29.1h-0.1
				c-17.9-17.9-29-42.6-29-69.7V199.4c0-27.1,11.2-51.8,29-69.7h0.1l0,0c17.9-17.9,42.6-29,69.7-29h689c27.2,0,51.9,11.1,69.7,29
				H932c17.9,17.9,29.1,42.6,29.1,69.7v541.9c0,27.2-11.1,51.9-29,69.7s-42.6,29-69.7,29v-0.1c-44.1,0.9-82,1.5-111.9,1.9
				C713.9,842.4,689.2,842.6,679.2,842.5L679.2,842.5L679.2,842.5z M744.3,437.1c-20.8,0-37.7,16.9-37.7,37.7
				c0,20.8,16.9,37.7,37.7,37.7c20.8,0,37.7-16.9,37.7-37.7C782.1,453.9,765.2,437.1,744.3,437.1L744.3,437.1L744.3,437.1z
				 M518,437.1c-20.8,0-37.7,16.9-37.7,37.7c0,20.8,16.9,37.7,37.7,37.7c20.8,0,37.7-16.9,37.7-37.7
				C555.7,453.9,538.9,437.1,518,437.1L518,437.1L518,437.1z M291.7,437.1c-20.8,0-37.7,16.9-37.7,37.7c0,20.8,16.9,37.7,37.7,37.7
				s37.7-16.9,37.7-37.7C329.4,453.9,312.5,437.1,291.7,437.1L291.7,437.1L291.7,437.1z M657.3,809L657.3,809
				c6.8-2.9,14.4-4.2,22.2-4.2c9.7,0.1,34.2-0.1,70.7-0.5c29.5-0.4,67.3-1,112-1.9l0.3-0.1c16.8,0,32-6.9,43.1-17.9
				c11.1-11.1,17.9-26.3,17.9-43.1V199.5c0-16.8-6.8-32.1-17.9-43.1h-0.1c-11.1-11.1-26.3-17.9-43.1-17.9H173.4
				c-16.8,0-32.1,6.8-43.1,17.9l-0.1,0.1c-11,11-17.9,26.3-17.9,43.1v541.9c0,16.8,6.9,32,17.9,43.1v0.1c11,11,26.3,17.8,43.1,17.8
				l1,0.1c50.5,2.6,80.5,2.8,108.1,2.9h0.1c23.2,0.1,44.8,0.2,73.7,1.6c7.1,0.3,14,1.6,20.4,4c7.3,2.8,13.8,7,19.5,13.3l0,0
				l106.8,119.3l1,1c3.1,2.8,7.3,4.2,11.5,4.2c4.3,0,8.6-1.5,11.8-4.2l1.1-1.1h-0.1l110.4-121.3C644,816.3,650.2,812,657.3,809
				L657.3,809z"/>
			<path class="st0" d="M515.6,996.6c-16.5,0-32.1-5.9-43.8-16.6l-0.4-0.4c-1-0.9-2.4-2.3-4.1-4.2L360.4,856c0,0-0.2-0.2-0.7-0.4
				c-1.5-0.6-3.3-0.9-5.4-1c-29.1-1.4-49.9-1.5-71.9-1.6c-25.8-0.1-57.7-0.2-109.4-2.8c-27.4-0.1-53.4-10.3-73.6-29.1h-0.1l-3.1-3
				c-20.6-20.6-32-48-32-77V199.4c0-28.9,11.3-56.2,32-76.9l3.2-3c20.2-18.7,46.3-29,73.8-29h689c29.1,0,56.4,11.4,77,32l17.4,17.5
				h-3.2c11.6,17.6,17.8,38.1,17.8,59.5v541.9c0,29.1-11.4,56.4-32,77c-20.7,20.6-48,32-76.9,32h-4.3c-42.2,0.8-78.6,1.4-107.5,1.8
				c-38.2,0.6-62,0.8-71.5,0.7c-1.4,0-2.6,0.2-3.5,0.6l-0.6,0.3c-0.4,0.3-0.7,0.5-0.9,0.7L563.7,975.6c-1.5,1.6-2.9,3-4.4,4.4
				C547.3,990.7,531.8,996.6,515.6,996.6z M109.2,802.2l1.7,1.6c16.8,16.8,39,26.1,62.5,26.1l0.5,0c51.3,2.6,83.1,2.7,108.6,2.8
				c22.4,0.1,43.4,0.2,72.6,1.6c4.4,0.1,8.5,0.9,12.1,2.4c3.1,1.2,6,3.1,8.4,5.6l107.1,119.5c1.1,1.3,2.1,2.2,2.9,3l0.4,0.4
				c7.6,7,18.3,11,29.7,11c11.2,0,21.8-4,29.9-11.2c1-0.9,2.1-2,3.1-3.2L659,840.6c2.3-2.6,5.2-4.6,8.6-6.1l2.3-0.8
				c2.9-0.9,6-1.4,9.3-1.4h0.1c8.9,0.1,32.9-0.1,71-0.7c29.9-0.4,67.8-1,111.9-1.9l6.2-0.1c21.2-1.4,41.1-10.5,56.4-25.8
				c16.7-16.7,26-38.8,26-62.5V199.4c0-23.5-9.3-45.7-26.1-62.5l-2.5-2.5C906,119.3,884.8,111,862.4,111h-689
				c-23.5,0-45.7,9.2-62.5,26l-2.3,2.3c-15.4,16.5-23.8,37.8-23.8,60.2v541.9C84.8,764.1,93.5,785.6,109.2,802.2z M515.4,959
				c-6.9,0-13.4-2.4-18.3-6.8l-1.9-1.9L388.4,831.1c-4.3-4.8-9.3-8.2-15.5-10.6c-5-1.9-10.8-3-17.3-3.3c-28.8-1.4-50.4-1.5-73.2-1.5
				c-25.2-0.1-56.4-0.2-108.7-2.9l-0.9-0.1c-18.8-0.1-36.5-7.5-49.8-20.8l-3-3.3c-11.6-13.1-17.9-29.7-17.9-47.1V199.6
				c0-19,7.4-36.8,20.9-50.3c13.5-13.6,31.3-21,50.4-21h688.9c17.5,0,34.1,6.3,47.1,17.9h0.2l3.1,3c13.5,13.4,20.9,31.3,20.9,50.3
				v541.9c0,19-7.4,36.8-20.9,50.3c-13.3,13.2-30.7,20.6-49.2,20.9l-1.3,0.1c-44.7,0.9-82.5,1.5-112.1,1.9
				c-35.9,0.4-61.1,0.6-70.9,0.5c-6.3-0.2-12.7,1.1-18.2,3.4c-5.8,2.4-10.7,5.9-15.2,10.6l-94.7,104.1h1.6l-19.1,19.1
				C528.9,956.7,522.3,959,515.4,959z M510.9,937.1c2.4,1.9,6.8,1.9,9.3,0l0.5-0.5L631,815.2c6.5-6.9,13.9-12.1,22.3-15.6l0,0
				c8-3.3,17.1-5.1,26.3-4.9c9.7,0.1,34.7-0.1,70.4-0.5c29.2-0.4,66.6-1,110.8-1.9l0.1,0l1.6-0.1c13.4,0,26.2-5.3,35.9-14.9
				c9.6-9.6,14.9-22.3,14.9-35.8V199.5c0-12.9-4.8-25-13.5-34.4l-1.5-1.5c-9.6-9.6-22.3-14.9-35.8-14.9H173.4
				c-13.6,0-26.3,5.3-35.8,14.9c-9.7,9.7-15,22.5-15,35.9v541.9c0,13.4,5.3,26.2,14.9,35.9l1.6,1.6c9.3,8.5,21.4,13.2,34.2,13.2
				l1.9,0.1c51.3,2.6,82.3,2.7,107.2,2.8c23.2,0.1,45,0.2,74.2,1.6c8.6,0.4,16.5,2,23.5,4.6c9.2,3.5,17.1,8.9,23.5,16.1L510.9,937.1
				z M744.3,522.7c-26.4,0-47.9-21.5-47.9-47.9s21.5-47.9,47.9-47.9c12.9,0,25,5,34,14.1c9,9.1,14,21.1,13.9,33.9
				C792.3,501.2,770.8,522.7,744.3,522.7z M744.3,447.3c-15.1,0-27.5,12.3-27.5,27.5s12.3,27.5,27.5,27.5
				c15.1,0,27.5-12.3,27.5-27.5c0-7.3-2.8-14.2-7.9-19.4C758.7,450.2,751.7,447.3,744.3,447.3z M518,522.7
				c-26.4,0-47.9-21.5-47.9-47.9s21.5-47.9,47.9-47.9c26.4,0,48,21.5,48,47.9S544.4,522.7,518,522.7z M518,447.3
				c-15.1,0-27.5,12.3-27.5,27.5s12.3,27.5,27.5,27.5c15.1,0,27.5-12.3,27.5-27.5S533.2,447.3,518,447.3z M291.7,522.7
				c-26.4,0-47.9-21.5-47.9-47.9s21.5-47.9,47.9-47.9s47.9,21.5,47.9,47.9S318.1,522.7,291.7,522.7z M291.7,447.3
				c-15.1,0-27.5,12.3-27.5,27.5s12.3,27.5,27.5,27.5s27.5-12.3,27.5-27.5S306.8,447.3,291.7,447.3z"/>
		</g>
	</g>
</g>
</svg>
