<?xml version="1.0" encoding="utf-8"?>
<!-- Generator: Adobe Illustrator 19.0.0, SVG Export Plug-In . SVG Version: 6.00 Build 0)  -->
<svg version="1.1" id="图层_1" xmlns="http://www.w3.org/2000/svg" xmlns:xlink="http://www.w3.org/1999/xlink" x="0px" y="0px"
	 viewBox="-274 573 200 200" style="enable-background:new -274 573 200 200;" xml:space="preserve">
<style type="text/css">
	.st0{fill:#272636;}
</style>
<g>
	<path class="st0" d="M-173.7,698.4c-5.8,0-10.5,4.7-10.5,10.5s4.7,10.5,10.5,10.5c5.8,0,10.5-4.7,10.5-10.5
		S-167.9,698.4-173.7,698.4z"/>
	<path class="st0" d="M-94.6,613.7L-161,576c-3.4-1.9-7.8-3-12.6-3c-4.7,0-9.2,1.1-12.6,3l-66.4,37.8c-6.9,3.9-12.6,13.6-12.6,21.5
		v75.6c0,7.9,5.6,17.5,12.6,21.5l66.4,37.8c3.4,1.9,7.8,3,12.6,3c4.7,0,9.2-1.1,12.6-3l66.4-37.8c6.9-3.9,12.6-13.6,12.6-21.5v-75.6
		C-82,627.3-87.7,617.7-94.6,613.7z M-96.5,635.2v75.6c0,2.8-2.8,7.5-5.3,8.9l-66.4,37.8c-0.7,0.4-2.6,1.1-5.4,1.1
		c-2.8,0-4.7-0.7-5.4-1.1l-66.4-37.8c-2.5-1.4-5.3-6.1-5.3-8.9v-75.6c0-2.8,2.8-7.5,5.3-8.9l66.4-37.8c0.7-0.4,2.6-1.1,5.4-1.1
		c2.8,0,4.7,0.7,5.4,1.1l66.4,37.8C-99.3,627.7-96.5,632.5-96.5,635.2z"/>
	<path class="st0" d="M-146.8,647c-1.9-10.5-13.4-20.2-34.1-16.6c-6.1,0.9-21.1,9.5-20.1,24.4c0.4,3.2,3.3,6,6.8,6.5
		c3.6,0.5,6.7-1.6,8.4-5.5c3.7-9.3,5.3-13.2,14.8-12.4c2.8,0.4,6.6,2.6,7.9,6.1c1.2,3,0.3,6.3-2.5,9.6l-0.1,0.1
		c-0.4,0.6-1.6,1.6-3.1,2.8c-5.1,4.3-14.5,12.2-13.6,23.7c0.2,4.2,3.6,7.2,6.9,7.7c0.4,0.1,0.7,0.1,1.1,0.1c2.9,0,5.2-1.8,6.4-5.1
		l0-0.1c1.4-6.3,1.8-6.9,5-10.9c1.3-1.6,3.1-3.2,5-4.8C-152,667.7-144.6,661.6-146.8,647L-146.8,647z"/>
</g>
</svg>
