<?xml version="1.0" standalone="no"?><!DOCTYPE svg PUBLIC "-//W3C//DTD SVG 1.1//EN" "http://www.w3.org/Graphics/SVG/1.1/DTD/svg11.dtd"><svg width="200" height="200" viewBox="0 0 200 200" version="1.1" xmlns="http://www.w3.org/2000/svg" xmlns:xlink="http://www.w3.org/1999/xlink"><defs><style type="text/css"><![CDATA[
@font-face { font-family: ifont; src: url("//at.alicdn.com/t/font_1442373896_4754455.eot?#iefix") format("embedded-opentype"), url("//at.alicdn.com/t/font_1442373896_4754455.woff") format("woff"), url("//at.alicdn.com/t/font_1442373896_4754455.ttf") format("truetype"), url("//at.alicdn.com/t/font_1442373896_4754455.svg#ifont") format("svg"); }

]]></style></defs><g class="transform-group"><g transform="scale(0.1953125, 0.1953125)"><path d="M811.4176 264.777143c-95.319771-290.874514-203.512686-205.063314-241.751771-151.990857-23.464229 32.5632-102.692571 250.353371-160.533943 414.017829 81.978514 169.984 147.0464 385.930971 147.0464 385.930971L561.912686 936.228571 994.742857 936.228571C994.742857 936.228571 930.669714 628.560457 811.4176 264.777143zM718.175086 321.272686c-27.677257-2.633143-51.053714 66.267429-51.053714 66.267429s-40.784457-55.734857-70.421943-53.4528c-29.637486 2.311314-63.166171 30.602971-63.166171 30.602971s56.407771-224.314514 93.476571-246.315886c37.039543-21.972114 71.592229 5.3248 110.445714 101.756343 38.853486 96.4608 54.798629 138.503314 54.798629 138.503314S745.910857 323.847314 718.175086 321.272686zM332.741486 487.102171C252.1088 359.862857 192.804571 497.488457 161.9968 585.757257 131.189029 673.9968 29.257143 934.209829 29.257143 934.209829L505.826743 936.228571l-18.929371-77.911771C486.897371 858.3168 413.344914 614.341486 332.741486 487.102171zM302.665143 621.041371c-14.804114-1.345829-27.121371 35.576686-27.121371 35.576686s-22.001371-29.696-37.829486-28.408686c-15.857371 1.345829-33.733486 16.559543-33.733486 16.559543s29.637486-120.188343 49.415314-132.066743c19.777829-11.8784 38.326857 2.633143 59.362743 54.125714 21.006629 51.521829 29.666743 73.9328 29.666743 73.9328S317.527771 622.328686 302.665143 621.041371z" fill="#272636"></path></g></g></svg>