<?xml version="1.0" standalone="no"?><!DOCTYPE svg PUBLIC "-//W3C//DTD SVG 1.1//EN" "http://www.w3.org/Graphics/SVG/1.1/DTD/svg11.dtd"><svg width="200" height="200" viewBox="0 0 200 200" version="1.1" xmlns="http://www.w3.org/2000/svg" xmlns:xlink="http://www.w3.org/1999/xlink"><defs><style type="text/css"><![CDATA[
@font-face { font-family: ifont; src: url("//at.alicdn.com/t/font_1442373896_4754455.eot?#iefix") format("embedded-opentype"), url("//at.alicdn.com/t/font_1442373896_4754455.woff") format("woff"), url("//at.alicdn.com/t/font_1442373896_4754455.ttf") format("truetype"), url("//at.alicdn.com/t/font_1442373896_4754455.svg#ifont") format("svg"); }

]]></style></defs><g class="transform-group"><g transform="scale(0.1953125, 0.1953125)"><path d="M918.544 1004.982 641.232 1004.982c-5.335 0-10.45-0.923-15.406-2.207-4.936 1.284-10.05 2.207-15.388 2.207L117.467 1004.982c-34.044 0-61.629-27.604-61.629-61.628L55.838 80.647c0-34.044 27.584-61.629 61.629-61.629l492.972 0c34.025 0 61.608 27.584 61.608 61.629l0 215.681 246.497 0c34.024 0 61.609 27.585 61.609 61.629l0 585.396C980.153 977.378 952.568 1004.982 918.544 1004.982zM302.313 203.885 179.076 203.885l0 123.258 123.237 0L302.313 203.885zM302.313 450.362 179.076 450.362 179.076 573.62l123.237 0L302.313 450.362zM302.313 696.857 179.076 696.857l0 123.238 123.237 0L302.313 696.857zM517.996 203.885 394.758 203.885l0 123.258 123.238 0L517.996 203.885zM517.996 450.362 394.758 450.362 394.758 573.62l123.238 0L517.996 450.362zM517.996 696.857 394.758 696.857l0 123.238 123.238 0L517.996 696.857zM856.915 450.362 733.677 450.362 733.677 573.62l123.237 0L856.914 450.362zM856.915 696.857 733.677 696.857l0 123.238 123.237 0L856.914 696.857z" fill="#272636"></path></g></g></svg>