<?xml version="1.0" standalone="no"?><!DOCTYPE svg PUBLIC "-//W3C//DTD SVG 1.1//EN" "http://www.w3.org/Graphics/SVG/1.1/DTD/svg11.dtd"><svg width="200" height="200" viewBox="0 0 200 200" version="1.1" xmlns="http://www.w3.org/2000/svg" xmlns:xlink="http://www.w3.org/1999/xlink"><defs><style type="text/css"><![CDATA[
@font-face { font-family: ifont; src: url("//at.alicdn.com/t/font_1442373896_4754455.eot?#iefix") format("embedded-opentype"), url("//at.alicdn.com/t/font_1442373896_4754455.woff") format("woff"), url("//at.alicdn.com/t/font_1442373896_4754455.ttf") format("truetype"), url("//at.alicdn.com/t/font_1442373896_4754455.svg#ifont") format("svg"); }

]]></style></defs><g class="transform-group"><g transform="scale(0.1953125, 0.1953125)"><path d="M835.595003 321.607742c-4.363378-19.197224-10.471492-37.962613-18.412348-56.205093-16.844643-38.923498-41.020252-73.830519-71.739904-103.768365-30.722722-29.93273-66.50467-53.408397-106.214067-69.817112-41.190121-16.931624-84.917018-25.571399-129.949654-25.571399s-88.669482 8.639774-129.86472 25.571399c-39.794331 16.408715-75.491345 39.884382-106.210997 69.817112-30.722722 29.938869-54.898331 64.934918-71.738881 103.768365-8.119935 18.676361-14.314007 37.878702-18.766412 57.42999C114.450658 343.776647 64.529689 408.621515 64.529689 485.162772c0 45.032636 17.630542 87.534636 49.745984 119.739105 23.64963 23.648606 52.801577 39.534412 84.396155 46.078455 17.451464 3.666506 33.860179-9.685593 33.686217-27.491121l-1.570775-230.66345c0-72.178903 28.886911-140.076292 81.249489-191.131085 52.717665-51.316759 122.795721-79.593779 197.241246-79.593779 74.53046 0 144.523581 28.27702 197.151195 79.507822 52.452629 51.141774 81.254605 118.953206 81.254605 191.128015l0 240.528122c0 72.174809-28.887934 140.076292-81.254605 191.132108-26.270317 25.656333-56.989969 45.554522-90.330308 58.996672 3.666506-11.347442 5.498224-23.479761 5.238304-36.046984-1.310855-58.384735-48.611138-105.950054-106.995873-107.520829-61.96733-1.571798-112.845091 48.349171-112.845091 109.967554 0 59.956533 48.175209 108.831684 107.866706 109.962437l0 0 1.39579 0 0.700965 0 1.831718 0 0.699941 0 0.350994 0c43.286875-0.610914 85.266989-9.16166 124.886335-25.571399 39.799448-16.404622 75.491345-39.884382 106.214067-69.817112 30.719652-29.933753 54.894238-64.929802 71.739904-103.769388 15.879666-36.566824 24.609491-75.230402 26.181289-115.024733 24.174586-8.204869 46.343491-21.99392 65.104787-40.845267 32.119535-32.119535 49.745984-74.621535 49.745984-119.739105C958.214714 406.965805 906.113079 340.985068 835.595003 321.607742L835.595003 321.607742zM153.809061 565.367465c-21.552875-21.559015-33.425274-50.095955-33.425274-80.204693 0-41.895179 21.99392-78.463026 54.724369-98.184183 0 1.919722-0.090051 3.837398-0.090051 5.848195l0 189.382255C167.42722 577.49569 160.359244 571.911508 153.809061 565.367465L153.809061 565.367465zM513.206478 903.990742l-2.446725 0c-29.497824-0.349971-53.408397-24.439622-53.408397-54.112432 0-29.848819 24.25952-54.108339 54.108339-54.108339 29.847795 0 54.108339 24.25952 54.108339 54.108339C565.483098 879.20115 542.178323 903.030881 513.206478 903.990742L513.206478 903.990742zM868.934319 565.367465c-7.67889 7.679913-16.23373 14.137998-25.310456 19.197224L843.623863 392.82576c0-2.705622 0-5.498224-0.084934-8.204869 34.908044 18.937305 58.820664 56.900941 58.820664 100.541881C902.359592 515.27151 890.49231 543.809473 868.934319 565.367465L868.934319 565.367465zM868.934319 565.367465" fill="#272636"></path></g></g></svg>