<?xml version="1.0" standalone="no"?><!DOCTYPE svg PUBLIC "-//W3C//DTD SVG 1.1//EN" "http://www.w3.org/Graphics/SVG/1.1/DTD/svg11.dtd"><svg width="200" height="200" viewBox="0 0 200 200" version="1.1" xmlns="http://www.w3.org/2000/svg" xmlns:xlink="http://www.w3.org/1999/xlink"><defs><style type="text/css"><![CDATA[
@font-face { font-family: ifont; src: url("//at.alicdn.com/t/font_1442373896_4754455.eot?#iefix") format("embedded-opentype"), url("//at.alicdn.com/t/font_1442373896_4754455.woff") format("woff"), url("//at.alicdn.com/t/font_1442373896_4754455.ttf") format("truetype"), url("//at.alicdn.com/t/font_1442373896_4754455.svg#ifont") format("svg"); }

]]></style></defs><g class="transform-group"><g transform="scale(0.1953125, 0.1953125)"><path d="M700.444952 1015.87809c-9.822812 0-18.605395-5.784691-22.374578-14.73777-23.592408-57.193346-91.723895-97.20007-165.644134-97.20007l-0.822035 0c-73.898926 0-142.009102 39.972218-165.663416 97.222397-3.802674 8.9409-12.584241 14.716458-22.385741 14.716458-3.21913 0-6.378384-0.633271-9.389468-1.882562-5.988678-2.484373-10.630639-7.133438-13.068328-13.086596-2.407244-5.878058-2.369694-12.336616 0.10453-18.186258 15.943422-37.323438 44.120958-69.028622 81.467739-91.643721 37.761857-22.865769 82.49579-34.989265 129.365999-35.058275 46.812362 0.06901 91.538176 12.193521 129.305108 35.058275 37.356929 22.619159 65.53954 54.324342 81.498184 91.68736 2.444793 5.807018 2.474224 12.282828 0.055817 18.17002-2.440734 5.939965-7.080665 10.576852-13.068328 13.057165-3.016158 1.254365-6.166278 1.885606-9.379319 1.885606C700.445967 1015.87809 700.445967 1015.87809 700.444952 1015.87809zM903.049205 1013.604808c-8.100598-0.001015-15.625771-3.952873-20.129712-10.569748-65.632907-96.156796-112.130663-170.600701-150.772402-241.393147l-3.796584-6.955838L295.670805 754.686076l-3.796584 6.955838c-38.641739 70.792446-85.138481 145.235336-150.763268 241.376909-4.522208 6.630068-12.052455 10.585985-20.145949 10.585985-4.852037 0-9.55083-1.433995-13.588951-4.144681-5.363525-3.604776-8.987584-9.056594-10.19831-15.3477-1.202607-6.242393 0.115694-12.583226 3.710321-17.853385 53.3379-78.155242 94.063143-142.205984 128.163392-201.567068l11.492254-20.005899-29.332445 0c-13.384964 0-24.274392-10.737199-24.274392-23.936445 0-13.203305 10.889428-23.945578 24.274392-23.945578l54.987045 0 3.721485-7.267399c58.552241-114.361321 96.041102-222.216387 117.979291-339.429459l2.959326-15.810475-29.263435 0c-13.364667 0-24.237857-10.738214-24.237857-23.936445 0-13.219542 10.87319-23.973994 24.237857-23.973994l36.599845 0 1.482708-11.670869c5.482264-43.14568 9.1936-88.446918 11.028464-134.645291 0.512503-12.915085 11.132994-23.032206 24.18001-23.032206 0.326784 0 0.654584 0.006089 0.983398 0.019282 1.675531 0.062921 3.496186 0.374483 5.589839 0.953967l1.747586 0.484087 44.570541 0L487.777365 40.512123c0-13.199245 10.87319-23.936445 24.236843-23.936445 13.359593 0 24.227709 10.738214 24.227709 23.936445l0 87.981098 44.53705 0 1.743526-0.481043c2.137291-0.589633 3.908219-0.893075 5.570556-0.955996 0.351141-0.013193 0.677925-0.020297 1.006739-0.020297 13.066299 0 23.702012 10.117121 24.213501 23.031191 1.849072 46.306963 5.559393 91.607186 11.028464 134.646306l1.483723 11.670869 36.56128 0c13.384964 0 24.275407 10.754452 24.275407 23.973994 0 13.19823-10.890443 23.936445-24.275407 23.936445l-29.225885 0 2.958312 15.80946C658.053312 477.329401 695.536083 585.186496 754.082235 699.534624l3.72047 7.267399 55.006327 0c13.364667 0 24.237857 10.742274 24.237857 23.945578 0 13.199245-10.87319 23.936445-24.237857 23.936445l-29.346653 0 11.488194 20.004884c34.114457 59.400663 74.835641 123.452421 128.148169 201.571127 3.601732 5.264069 4.923077 11.58968 3.731633 17.821924-1.205651 6.303284-4.828695 11.768295-10.202369 15.388294C912.605109 1012.170813 907.904286 1013.604808 903.049205 1013.604808L903.049205 1013.604808zM437.87679 355.324168c-20.584368 116.455988-54.892663 222.057054-107.971774 332.333571l-9.214912 19.145299 382.639075 0-9.214912-19.145299c-53.078097-110.277532-87.387406-215.877583-107.970759-332.333571l-1.950557-11.029478L439.826332 344.294689 437.87679 355.324168zM457.259566 188.952381c-1.93026 31.579341-4.739388 62.691848-8.350253 92.470831l-1.814566 14.961039 129.830804 0-1.814566-14.961039c-3.60985-29.773909-6.419993-60.8854-8.351268-92.470831l-0.766218-12.538573L458.025784 176.413808 457.259566 188.952381z" fill="#272636"></path></g></g></svg>