<?xml version="1.0" standalone="no"?><!DOCTYPE svg PUBLIC "-//W3C//DTD SVG 1.1//EN" "http://www.w3.org/Graphics/SVG/1.1/DTD/svg11.dtd"><svg width="200" height="200" viewBox="0 0 200 200" version="1.1" xmlns="http://www.w3.org/2000/svg" xmlns:xlink="http://www.w3.org/1999/xlink"><defs><style type="text/css"><![CDATA[
@font-face { font-family: ifont; src: url("//at.alicdn.com/t/font_1442373896_4754455.eot?#iefix") format("embedded-opentype"), url("//at.alicdn.com/t/font_1442373896_4754455.woff") format("woff"), url("//at.alicdn.com/t/font_1442373896_4754455.ttf") format("truetype"), url("//at.alicdn.com/t/font_1442373896_4754455.svg#ifont") format("svg"); }

]]></style></defs><g class="transform-group"><g transform="scale(0.1953125, 0.1953125)"><path d="M360.704 532.736l118.144 0 166.784 0 17.792 0c12.672 0 23.296-10.624 23.296-23.296 0-12.672-10.624-23.296-23.296-23.296l-118.144 0L378.368 486.144l-17.792 0c-12.672 0-23.296 10.624-23.296 23.296C337.408 522.112 348.032 532.736 360.704 532.736M360.704 351.104l118.144 0 166.784 0 17.792 0c12.672 0 23.296-10.624 23.296-23.296 0-12.672-10.624-23.296-23.296-23.296l-118.144 0L378.368 304.512l-17.792 0c-12.672 0-23.296 10.624-23.296 23.296C337.408 340.48 348.032 351.104 360.704 351.104M738.048 768.896c-27.904 29.056-40.704 42.496-68.608 71.68-22.656-20.224-27.648-24.704-50.176-44.928-9.472-8.448-23.552-9.344-32.896 0-8.576 8.576-9.472 24.448 0 32.896 22.656 20.224 45.312 40.32 67.84 60.544 9.344 8.32 23.68 9.472 32.896 0 30.208-31.488 60.288-62.848 90.496-94.336 27.904-29.056 55.808-58.24 83.84-87.296 8.704-9.088 9.088-23.808 0-32.896-8.832-8.832-24.064-9.088-32.896 0C798.336 706.048 768.256 737.536 738.048 768.896L738.048 768.896zM738.048 768.896M360.704 714.368l121.088 0c12.672 0 23.296-10.624 23.296-23.296 0-12.672-10.624-23.296-23.296-23.296l-121.088 0c-12.672 0-23.296 10.624-23.296 23.296C337.408 703.744 348.032 714.368 360.704 714.368M481.792 849.408 342.4 849.408l-68.992 0-5.248 0c-2.304 0-4.736-0.128-7.04-0.256-1.28-0.128-2.688-0.256-3.968-0.384 7.424 0.896 2.56 0.384 0.896 0-2.944-0.512-6.016-1.28-8.832-2.048-2.432-0.768-4.864-1.536-7.296-2.432-4.48-1.664 5.248 2.304 0.896 0.384-1.152-0.512-2.304-1.152-3.456-1.664-2.304-1.152-4.48-2.432-6.656-3.712-1.792-1.024-9.856-7.04-3.584-2.176-3.968-3.072-7.552-6.656-11.008-10.368-0.896-0.896-1.664-1.92-2.432-2.944-3.072-3.584 3.328 4.48 0.512 0.768-1.792-2.432-3.328-4.864-4.864-7.424-1.28-2.176-2.432-4.48-3.584-6.784-0.64-1.408-2.432-5.76 0.256 0.896-0.512-1.152-0.896-2.432-1.408-3.584-1.92-5.376-3.2-10.88-4.096-16.384 1.28 8.192 0-1.152-0.128-3.072-0.128-1.408-0.128-2.688-0.128-4.096L202.24 783.36l0-8.96 0-45.44L202.24 565.376 202.24 377.6l0-124.8 0-11.136 0-1.664c0-1.792 0.128-3.584 0.128-5.376 0.128-1.28 0.256-2.688 0.384-3.968 0.512-4.992-0.896 5.76-0.128 0.896 0.896-5.632 2.432-11.008 4.352-16.384 0.512-1.408 2.432-5.888-0.384 0.768 0.512-1.152 1.024-2.304 1.664-3.456 1.152-2.304 2.304-4.48 3.712-6.656 1.28-2.176 2.688-4.224 4.224-6.272 2.816-3.84-3.456 4.352-0.512 0.768 1.024-1.28 2.176-2.56 3.328-3.84 1.664-1.92 3.456-3.584 5.376-5.376 1.408-1.28 8.32-6.784 2.048-2.048 4.352-3.328 9.088-6.144 14.08-8.576 1.152-0.512 2.304-1.152 3.456-1.664-6.528 2.944-2.304 1.024-0.768 0.384 2.432-0.896 4.864-1.664 7.424-2.432 2.56-0.768 5.12-1.28 7.68-1.792 1.536-0.256 6.4-0.896-0.896 0 1.792-0.256 3.584-0.384 5.376-0.512 2.176-0.128 4.352-0.128 6.528-0.128l99.456 0L552.96 174.336l161.664 0 38.4 0 2.944 0c0.512 0 1.152 0 1.664 0 2.688 0 5.376 0.256 8.064 0.512 4.992 0.512-5.76-0.896-0.896-0.128 1.792 0.256 3.456 0.64 5.12 1.024 2.56 0.512 4.992 1.28 7.552 2.048 1.792 0.512 10.24 3.968 2.816 0.896 5.12 2.176 9.856 4.992 14.464 8.064 1.024 0.768 2.048 1.408 3.072 2.176-5.632-4.224-1.92-1.536-0.768-0.512 1.92 1.664 3.84 3.328 5.632 5.12 1.792 1.792 3.456 3.712 5.12 5.632 1.024 1.152 3.84 4.864-0.512-0.768 1.024 1.28 1.92 2.688 2.944 4.096 2.816 4.224 5.248 8.704 7.296 13.44-3.2-7.296 0.256 1.024 0.896 2.816 0.896 2.944 1.664 5.888 2.304 8.832 0.256 1.28 0.512 2.56 0.768 3.84 0.896 4.864-0.64-5.888-0.128-0.896 0.256 2.688 0.384 5.376 0.512 8.064 0 0.64 0 1.28 0 1.92l0 12.8 0 65.024 0 183.68 0 67.84c0 12.672 10.624 23.296 23.296 23.296 12.672 0 23.296-10.624 23.296-23.296l0-112.128 0-177.92 0-39.552c0-20.352-5.504-40.576-16-58.112-13.44-22.656-34.56-38.784-58.88-48-16.256-6.272-33.536-6.4-50.56-6.4L689.92 127.744 515.328 127.744 338.944 127.744l-55.168 0c-15.104 0-29.696-0.128-44.544 3.712-48.64 12.288-83.456 58.624-83.456 108.416l0 22.784 0 138.368 0 189.568 0 153.6 0 36.096c0 32.512 12.032 64 36.48 86.016 19.84 17.92 44.928 27.904 71.424 29.312 5.248 0.256 10.496 0.128 15.744 0.128l77.056 0 125.184 0c12.672 0 23.296-10.624 23.296-23.296C504.96 860.032 494.464 849.408 481.792 849.408" fill="#272636"></path></g></g></svg>