<?xml version="1.0" encoding="utf-8"?>
<!-- Generator: Adobe Illustrator 19.0.0, SVG Export Plug-In . SVG Version: 6.00 Build 0)  -->
<svg version="1.1" id="图层_1" xmlns="http://www.w3.org/2000/svg" xmlns:xlink="http://www.w3.org/1999/xlink" x="0px" y="0px"
	 viewBox="-274 573 200 200" style="enable-background:new -274 573 200 200;" xml:space="preserve">
<style type="text/css">
	.st0{fill:#272636;}
</style>
<path class="st0" d="M-93.1,737.2c-8.5-9.5-19.6-14.8-31.2-14.8h-11L-149,705c8.4-8.9,14.7-22.4,18.6-40.1c0.5-2,1.6-3.2,3-4.8
	c2.4-2.7,5.4-6,5.4-14.6c0-11-3.4-14.9-5.9-17.9c-1.5-1.8-2.6-3-2.4-5.4c1-19.4-8-35.6-17.4-43.2c-5.9-4.7-12.3-6.5-17.9-4.9
	c-6.5,1.8-12.5,2.7-18.3,3.6c-21.4,3.3-36.9,5.6-41.2,48.6c-0.1,1.3-0.9,2.1-2.3,3.5c-2.7,2.8-6.4,6.6-6.1,17.9
	c0.2,6.7,3.9,10.7,7.3,14.2c2.2,2.3,4.3,4.6,5.4,7.5c6.1,17.5,13.1,29.8,21.3,37.6l-12.3,15.6h-11.8c-23,0-43.2,22.1-43.2,47.4v1.5
	h11.3v-1.5c0-18.8,15.2-35.9,31.9-35.9h7.3c3,0,5.9,0.2,8.9,0.6l13.8,38.6l17.7-22.6l-0.4,0.2c0.1-0.1,0.1-0.2,0.2-0.3l-1.2-0.9l0,0
	l4.7,0.2l0,0l-1.2,0.9l17.1,22.3l1-2.2c0,0,4.3-9.4,8.6-18.8c4.9-10.8,7.1-15.7,8-18.1c0.8,0,1.8,0,3.2,0c1.3,0,2.8,0,4.3,0h7.4
	c15.4,0,32.6,15.4,32.6,36v1.5h11.4v-1.5C-80.2,758.2-84.9,746.3-93.1,737.2z M-174.3,737.5c-10.7-6.4-12.9-7.9-21-13.3l-1.1-0.7
	l8.3-10.6c4.6,1.9,12.8,2.9,13.1,3l0.2,0l0.2,0c0.5-0.1,10.6-1.5,16.1-4.2l9.1,11.6c-3.7,2.2-6,3.5-8,4.8c-3,1.8-5.6,3.4-11.6,6.8
	L-174.3,737.5L-174.3,737.5z M-182.6,746.8l-8.8,11.7l-5.9-21.4L-182.6,746.8z M-139.1,633.4c1.9,2.2,4.2,5,4.2,13.1
	c0,6.1-1.9,8.2-3.7,10.3c-1.2,1.4-2.5,2.8-3,5.2l0,0c-7.4,33.9-22.6,41-34.1,41c-14.3,0-25.5-12.3-34.1-37.6c-1-3-3-5.1-4.9-7.2
	c-2.6-2.8-5-5.4-5.2-10c-0.2-8.2,2.2-10.8,4.2-12.8c1.2-1.2,2.4-2.5,2.6-4.5c3.3-33.5,14.4-35.2,31.2-37.8c4.6-0.7,9.7-1.5,15.2-3.1
	c0.8-0.2,1.7-0.4,2.6-0.4c2.9,0,6.1,1.3,9.2,3.7c7.2,5.8,14.2,18.5,13.4,33.8C-141.8,630.1-140.4,631.8-139.1,633.4z M-149.4,737.2
	l-7.5,17.4l-1.4,3.8l-8.5-10.8L-149.4,737.2z"/>
</svg>
