<?xml version="1.0" encoding="utf-8"?>
<!-- Generator: Adobe Illustrator 19.0.0, SVG Export Plug-In . SVG Version: 6.00 Build 0)  -->
<svg version="1.1" id="图层_1" xmlns="http://www.w3.org/2000/svg" xmlns:xlink="http://www.w3.org/1999/xlink" x="0px" y="0px"
	 viewBox="0 0 200 200" style="enable-background:new 0 0 200 200;" xml:space="preserve">
<style type="text/css">
	.st0{fill:#272636;}
</style>
<g>
	<path class="st0" d="M68.6,102.4L27.1,90.1l-0.8,3.8c-0.1,0.5-2.7,12.9,3.8,20.8c3.5,4.2,8.6,6.4,15.4,6.4c3.2,0,6.7-0.5,10.6-1.5
		c6.9-1.7,11.4-4.6,13.2-8.4c1.8-3.8,0.3-7.1,0.1-7.4L68.6,102.4L68.6,102.4z M62.5,108.3c-0.4,0.8-2.1,2.8-8.3,4.4
		c-3.3,0.8-6.3,1.2-8.9,1.2c-4.5,0-7.7-1.2-9.7-3.7c-2.5-3.1-2.9-7.7-2.8-10.9l29.8,8.8C62.6,108.2,62.6,108.2,62.5,108.3
		L62.5,108.3z M173.2,90.1l-41,12.3l-0.7,1.4c-0.2,0.4-1.7,3.6,0.1,7.4c1.8,3.9,6.2,6.7,13.2,8.4c3.9,1,7.5,1.5,10.6,1.5
		c6.7,0,11.9-2.1,15.3-6.4c6.4-8,3.6-20.4,3.5-20.9L173.2,90.1L173.2,90.1z M164.9,110.3c-3.1,3.9-9.4,4.7-18.4,2.4
		c-6.2-1.5-7.9-3.6-8.3-4.4c0-0.1-0.1-0.1-0.1-0.2l29.4-8.8C167.7,102.7,167.3,107.3,164.9,110.3L164.9,110.3z M72.7,76.7h54.4v-7.2
		H72.7V76.7L72.7,76.7z M178.5,78.5c-0.7-0.2-1.1-0.5-1.2-0.6c-0.1-0.2,0-0.6,0.5-1.2l2.2-2.9c2-2.6,2.5-5.5,1.3-7.8
		c-1.2-2.3-3.8-3.7-7.1-3.7h-7.2c-3,0-7.7-1.9-9.8-4c-0.8-0.8-20-19.5-48.2-21v-0.1H94.5c-30.1,0-50.9,20.2-51.8,21.1
		c-2.1,2.1-6.8,4-9.8,4h-7.2c-3.3,0-5.9,1.3-7.1,3.7c-1.2,2.3-0.7,5.2,1.3,7.8l2.2,2.9c0.5,0.6,0.5,1.1,0.5,1.2
		c-0.1,0.2-0.4,0.5-1.2,0.6c-0.4,0.1-10.2,2.7-10.2,19.7V152c0,5.9,4.9,10.8,10.9,10.8h21.7c6,0,10.9-4.8,10.9-10.8
		c0-2,1.6-3.6,3.6-3.6h83.4c2,0,3.6,1.6,3.6,3.6c0,5.9,4.9,10.8,10.9,10.8h21.7c6,0,10.9-4.8,10.9-10.8V98.2
		C188.7,81.2,178.9,78.6,178.5,78.5L178.5,78.5z M47.4,152c0,2-1.6,3.6-3.6,3.6H22c-2,0-3.6-1.6-3.6-3.6v-13.7
		c8.2,5.6,21.6,8.2,29.9,9.4C47.7,149.1,47.4,150.5,47.4,152L47.4,152z M181.4,152c0,2-1.6,3.6-3.6,3.6h-21.7c-2,0-3.6-1.6-3.6-3.6
		c0-1.5-0.3-3-0.9-4.3c8.3-1.2,21.7-3.8,29.9-9.4V152L181.4,152z M181.4,126.9c0,7.5-21.8,13-36.6,14.4l0,0.5
		c-1.1-0.3-2.2-0.5-3.3-0.5H58.2c-1.2,0-2.3,0.2-3.3,0.5l0-0.5c-14.7-1.3-36.6-6.8-36.6-14.4V98.2c0-11,4.7-12.7,4.7-12.7
		c3-0.8,5.3-2.6,6.2-5.2c0.9-2.6,0.4-5.4-1.5-7.9l-2.2-2.9h7.2c5,0,11.4-2.6,14.9-6.1c0.2-0.2,19.5-19,46.7-19h10.9
		c27.1,0,46.5,18.8,46.7,19c3.5,3.5,9.9,6.1,14.9,6.1h7.2l-2.2,2.9c-1.9,2.5-2.4,5.4-1.5,7.9c0.9,2.6,3.2,4.4,6.1,5.2
		c0.2,0.1,4.9,1.8,4.9,12.8V126.9L181.4,126.9z M181.4,126.9"/>
</g>
</svg>
