<?xml version="1.0" standalone="no"?><!DOCTYPE svg PUBLIC "-//W3C//DTD SVG 1.1//EN" "http://www.w3.org/Graphics/SVG/1.1/DTD/svg11.dtd"><svg width="200" height="200" viewBox="0 0 200 200" version="1.1" xmlns="http://www.w3.org/2000/svg" xmlns:xlink="http://www.w3.org/1999/xlink"><defs><style type="text/css"><![CDATA[
@font-face { font-family: ifont; src: url("//at.alicdn.com/t/font_1442373896_4754455.eot?#iefix") format("embedded-opentype"), url("//at.alicdn.com/t/font_1442373896_4754455.woff") format("woff"), url("//at.alicdn.com/t/font_1442373896_4754455.ttf") format("truetype"), url("//at.alicdn.com/t/font_1442373896_4754455.svg#ifont") format("svg"); }

]]></style></defs><g class="transform-group"><g transform="scale(0.1953125, 0.1953125)"><path d="M45.055918 187.70439C45.055918 108.863722 107.97556 45.055918 185.433748 45.055918 262.891936 45.055918 325.811577 108.863722 325.811577 187.70439 325.811577 239.04753 301.672622 304.756188 263.595644 365.436064 232.296524 415.314674 195.432351 452.699214 185.433748 452.699214 175.435144 452.699214 138.570971 415.314674 107.271851 365.436064 69.194873 304.756188 45.055918 239.04753 45.055918 187.70439L45.055918 187.70439ZM4.095918 187.70439C4.095918 305.369944 122.248541 493.659214 185.433748 493.659214 248.618955 493.659214 366.771577 305.369944 366.771577 187.70439 366.771577 86.36966 285.643032 4.095918 185.433748 4.095918 85.224463 4.095918 4.095918 86.36966 4.095918 187.70439L4.095918 187.70439ZM84.524833 187.70439C84.524833 244.002067 129.634629 289.748625 185.433748 289.748625 241.232867 289.748625 286.342663 244.002067 286.342663 187.70439 286.342663 131.406712 241.232867 85.660154 185.433748 85.660154 129.634629 85.660154 84.524833 131.406712 84.524833 187.70439L84.524833 187.70439ZM125.484833 187.70439C125.484833 153.900775 152.385725 126.620154 185.433748 126.620154 218.48177 126.620154 245.382663 153.900775 245.382663 187.70439 245.382663 221.508004 218.48177 248.788625 185.433748 248.788625 152.385725 248.788625 125.484833 221.508004 125.484833 187.70439L125.484833 187.70439ZM688.487236 717.871923C688.487236 639.031255 751.406879 575.223452 828.865065 575.223452 906.323255 575.223452 969.242894 639.031255 969.242894 717.871923 969.242894 769.215062 945.103942 834.923721 907.026964 895.603597 875.727843 945.482207 838.863671 982.866747 828.865065 982.866747 818.866463 982.866747 782.002291 945.482207 750.70317 895.603597 712.626192 834.923721 688.487236 769.215062 688.487236 717.871923L688.487236 717.871923ZM647.527236 717.871923C647.527236 835.537478 765.679858 1023.826747 828.865065 1023.826747 892.050272 1023.826747 1010.202894 835.537478 1010.202894 717.871923 1010.202894 616.53719 929.074352 534.263452 828.865065 534.263452 728.655782 534.263452 647.527236 616.53719 647.527236 717.871923L647.527236 717.871923ZM727.956152 717.871923C727.956152 774.1696 773.065949 819.916157 828.865065 819.916157 884.664185 819.916157 929.773982 774.1696 929.773982 717.871923 929.773982 661.574242 884.664185 615.827685 828.865065 615.827685 773.065949 615.827685 727.956152 661.574242 727.956152 717.871923L727.956152 717.871923ZM768.916152 717.871923C768.916152 684.068307 795.817042 656.787685 828.865065 656.787685 861.913088 656.787685 888.813982 684.068307 888.813982 717.871923 888.813982 751.675535 861.913088 778.956157 828.865065 778.956157 795.817042 778.956157 768.916152 751.675535 768.916152 717.871923L768.916152 717.871923ZM461.206364 289.367584C488.482607 289.195347 515.38559 290.120077 541.152907 292.366075 552.420975 293.348251 562.351759 285.00989 563.333935 273.741822 564.316111 262.473755 555.977748 252.542971 544.709681 251.560794 517.583364 249.196339 489.42798 248.22856 460.947726 248.4084 449.637159 248.479821 440.526029 257.706745 440.597451 269.017311 440.668873 280.327877 449.895797 289.439005 461.206364 289.367584L461.206364 289.367584ZM619.255079 304.63275C647.705207 311.641508 671.090123 321.036551 688.505758 332.781865 697.883247 339.106157 710.612058 336.631051 716.936352 327.253561 723.260645 317.87607 720.785539 305.14726 711.408046 298.822967 689.524736 284.064597 661.820436 272.934214 629.052744 264.861814 618.070303 262.156263 606.973993 268.866009 604.268442 279.848449 601.56289 290.83089 608.272638 301.9272 619.255079 304.63275L619.255079 304.63275ZM724.115788 386.170786C724.4237 388.879113 724.587524 391.668681 724.60363 394.543043 724.604457 412.832178 716.318638 427.835277 698.660884 441.794126 689.787765 448.808522 688.280973 461.687898 695.295369 470.561018 702.309769 479.434138 715.189146 480.940929 724.062261 473.926529 750.991434 452.638425 765.565293 426.249589 765.56331 394.427007 765.538701 389.979752 765.288686 385.72246 764.813611 381.543816 763.535909 370.305423 753.389609 362.230687 742.151213 363.50839 730.912821 364.786092 722.838086 374.932392 724.115788 386.170786L724.115788 386.170786ZM631.698215 475.052343C610.119692 482.466152 585.129726 489.271484 554.813141 496.22381 543.788528 498.75202 536.900829 509.738758 539.42904 520.763372 541.957247 531.787989 552.943985 538.675687 563.968602 536.147476 595.575476 528.899256 621.876888 521.73679 645.007364 513.789768 655.704412 510.11455 661.396722 498.463527 657.721504 487.766479 654.046282 477.069435 642.395259 471.377125 631.698215 475.052343L631.698215 475.052343ZM475.631915 512.849207C434.674553 521.070846 416.329843 524.902232 394.83245 529.943745 383.820427 532.526256 376.986957 543.546802 379.569468 554.558824 382.151978 565.570847 393.172525 572.404318 404.184547 569.821807 425.104691 564.915671 443.175375 561.141514 483.693269 553.008095 494.782841 550.782013 501.968118 539.987542 499.742036 528.897974 497.515954 517.808402 486.721487 510.623126 475.631915 512.849207L475.631915 512.849207ZM310.743924 555.414938C268.032726 573.256126 242.821956 596.249297 239.114702 628.631773 237.828208 639.869166 245.895004 650.021777 257.132394 651.308274 268.369784 652.594766 278.522398 644.527972 279.808893 633.29058 281.409316 619.311051 296.081279 605.929669 326.531587 593.210061 336.968422 588.850418 341.89496 576.855503 337.535317 566.418665 333.175674 555.981832 321.180759 551.055294 310.743924 555.414938L310.743924 555.414938ZM291.494285 717.096845C312.904423 730.280018 340.285384 741.066142 372.959442 749.865181 383.881138 752.806363 395.119223 746.336879 398.060405 735.415181 401.001591 724.493488 394.532106 713.255404 383.61041 710.314217 354.443998 702.459781 330.569006 693.054759 312.970415 682.218525 303.339032 676.288053 290.723658 679.288238 284.793188 688.919622 278.862719 698.551005 281.862902 711.166378 291.494285 717.096845L291.494285 717.096845ZM457.950036 766.760661C484.612731 770.579284 512.453661 773.451878 540.84939 775.498711 552.130912 776.311906 561.935618 767.825654 562.748817 756.544135 563.562017 745.262612 555.075764 735.457907 543.794242 734.644707 516.305547 732.663259 489.405272 729.887719 463.757062 726.21439 452.560519 724.610822 442.183983 732.387467 440.580415 743.58401 438.976848 754.780553 446.753493 765.157093 457.950036 766.760661L457.950036 766.760661Z" fill="#272636"></path></g></g></svg>