<?xml version="1.0" encoding="utf-8"?>
<!-- Generator: Adobe Illustrator 19.0.0, SVG Export Plug-In . SVG Version: 6.00 Build 0)  -->
<svg version="1.1" id="图层_1" xmlns="http://www.w3.org/2000/svg" xmlns:xlink="http://www.w3.org/1999/xlink" x="0px" y="0px"
	 viewBox="-274 573 200 200" style="enable-background:new -274 573 200 200;" xml:space="preserve">
<style type="text/css">
	.st0{fill:#272636;}
</style>
<g>
	<g transform="scale(0.1953125, 0.1953125)">
		<path class="st0" d="M-389,3282.8l-137.8-240.9c-15.3-26.7-48.7-46.1-79.5-46.1h-569.1c-30.8,0-64.3,19.3-79.6,46l-136.8,237.3
			c-16,27.8-13.1,67.8,6.9,93.2l445.1,562c3.9,4.7,8.9,7.7,13.7,11.1l1.4,4.4l2.9-0.9c9,5.3,18.8,8.9,29.3,8.9
			c10.6,0,20.5-3.7,29.6-9.2l2.4,0.7l1.1-3.6c4.9-3.4,10-6.4,14-11.2l448.9-558.5C-376.2,3350.8-373.1,3310.8-389,3282.8z
			 M-476.8,3264.8h-166.3l73-162.9L-476.8,3264.8z M-806.8,3063h180.4l-69,154L-806.8,3063z M-889.8,3063l145.9,201.8h-295.6
			l145.9-201.8H-889.8z M-1087.9,3217l-69.1-154h180.5L-1087.9,3217z M-743.7,3332l-149.7,494.5l-158.2-494.5H-743.7z
			 M-1212.7,3103.3l72.5,161.5h-165.7L-1212.7,3103.3z M-1330.9,3332h208.6l141.4,441.9L-1330.9,3332z M-810,3783.2l136.7-451.1h225
			c-0.2,0.5-0.2,1.4-0.5,1.7L-810,3783.2z"/>
	</g>
</g>
</svg>
