<?xml version="1.0" encoding="utf-8"?>
<!-- Generator: Adobe Illustrator 19.0.0, SVG Export Plug-In . SVG Version: 6.00 Build 0)  -->
<svg version="1.1" id="图层_1" xmlns="http://www.w3.org/2000/svg" xmlns:xlink="http://www.w3.org/1999/xlink" x="0px" y="0px"
	 viewBox="-274 573 200 200" style="enable-background:new -274 573 200 200;" xml:space="preserve">
<style type="text/css">
	.st0{fill:#272636;}
</style>
<g>
	<path class="st0" d="M-274,672.9c0-25.9,0-51.7,0-77.7c0-9.5,5-17.2,13.3-20.5c2.5-1,5.3-1.6,8.1-1.7c52.4-0.1,104.8-0.1,157.2,0
		c11.6,0,21.1,9.3,21.4,21c0.1,4.8,0.1,9.8,0,14.6c0,4-3.1,7.2-7,7.2s-7-3.1-7.2-7.3c0-4.4,0-8.7,0-13.2c0-5.2-2.9-8.1-8.2-8.1
		c-51.6,0-103.2,0-154.9,0c-5.3,0-8.2,2.7-8.2,8.2c0,51.6,0,103.2,0,154.9c0,5.5,2.7,8.2,8.2,8.2h154.7c5.5,0,8.2-2.7,8.2-8.2
		c0-4.6-0.1-9.1,0-13.6c0.1-3.4,2.7-6.1,6-6.5c3.5-0.5,6.6,1.4,7.8,4.7c0.3,0.7,0.4,1.3,0.4,1.8c0,5.9,0.3,11.7-0.3,17.6
		c-0.9,10-10,18.2-20.1,18.5c-0.5,0-1,0-1.4,0c-52,0-104,0-156.1,0c-9.4,0-16.2-4.4-20.1-13c-1.3-2.9-1.7-6-1.7-9.3
		c0-9.9,0-19.7,0-29.6C-274,705-274,688.9-274,672.9L-274,672.9z"/>
	<path class="st0" d="M-163.6,665.5h1.8c26.6,0,53,0,79.6,0c4.2,0,7,2.1,7.8,5.7c0.8,3.9-2,7.9-6,8.3c-0.8,0.1-1.6,0.1-2.3,0.1
		c-26.3,0-52.8,0-79.1,0h-2.2c0.7,0.7,1,1,1.3,1.4c7.3,7.3,14.6,14.6,21.9,21.9c3,3,3.1,7,0.7,10c-2.5,2.9-6.8,3.3-9.8,0.9
		c-0.5-0.4-1-0.9-1.6-1.4c-11.3-11.3-22.7-22.7-34.1-34.1c-3.8-3.8-3.8-7.7,0-11.6c11.5-11.5,23.1-23.1,34.5-34.5
		c2.7-2.7,6.4-3.3,9.3-1.3c3.9,2.5,4.4,7.7,1.2,11.1c-4.8,5-9.8,9.8-14.6,14.6c-2.9,2.9-5.6,5.6-8.5,8.5
		C-163.8,665.2-163.8,665.4-163.6,665.5L-163.6,665.5z"/>
</g>
</svg>
