<?xml version="1.0" standalone="no"?><!DOCTYPE svg PUBLIC "-//W3C//DTD SVG 1.1//EN" "http://www.w3.org/Graphics/SVG/1.1/DTD/svg11.dtd"><svg width="200" height="200" viewBox="0 0 200 200" version="1.1" xmlns="http://www.w3.org/2000/svg" xmlns:xlink="http://www.w3.org/1999/xlink"><defs><style type="text/css"><![CDATA[
@font-face { font-family: ifont; src: url("//at.alicdn.com/t/font_1442373896_4754455.eot?#iefix") format("embedded-opentype"), url("//at.alicdn.com/t/font_1442373896_4754455.woff") format("woff"), url("//at.alicdn.com/t/font_1442373896_4754455.ttf") format("truetype"), url("//at.alicdn.com/t/font_1442373896_4754455.svg#ifont") format("svg"); }

]]></style></defs><g class="transform-group"><g transform="scale(0.1953125, 0.1953125)"><path d="M1015.570004 498.745115c0-254.709099-227.128951-459.125769-505.037425-459.125769S5.495154 244.036016 5.495154 498.745115s227.128951 459.125769 505.037425 459.125769c17.816784 0 17.816784 0 54.810327 0 43.38716 0 43.38716 0 93.167936 0 6.92983 0 6.92983 0 13.843286 0 104.056937 0 104.056937 0 137.384997 0l59.523675 0-15.117302-57.57223c-0.951675-3.623527-2.52859-10.429537-4.119831-18.921955-1.632173-8.709359-2.860141-17.148565-3.520173-24.76094-0.50449-5.809309-0.638543-10.8143-0.454348-14.641465C952.800401 755.712651 1015.570004 632.018467 1015.570004 498.745115zM809.739125 812.171524c-21.776979 16.853853-0.001023 99.785657-0.001023 99.785657s-266.624477 0-299.205523 0c-253.568113 0-459.125769-185.001481-459.125769-413.212066S256.964466 85.533049 510.532579 85.533049 969.658348 270.53453 969.658348 498.745115C969.658348 624.085798 907.651109 736.391606 809.739125 812.171524zM293.916053 434.875458c-29.777187-0.286526-54.146201 23.88806-54.429657 53.994752l0 1.037632c0.279363 29.702486 24.026206 53.712319 53.403281 53.994752 29.777187 0.286526 54.146201-23.88806 54.429657-53.994752C347.603813 459.801151 323.694263 435.161984 293.916053 434.875458zM523.479449 434.875458c-29.777187-0.286526-54.146201 23.88806-54.429657 53.994752l0 1.037632c0.279363 29.702486 24.026206 53.712319 53.403281 53.994752 29.777187 0.286526 54.146201-23.88806 54.429657-53.994752C577.166185 459.801151 553.256636 435.161984 523.479449 434.875458zM730.085994 434.875458c-29.777187-0.286526-54.146201 23.88806-54.429657 53.994752l0 1.037632c0.279363 29.702486 24.026206 53.712319 53.403281 53.994752 29.777187 0.286526 54.146201-23.88806 54.429657-53.994752C783.77273 459.801151 759.863181 435.161984 730.085994 434.875458z" fill="#272636"></path></g></g></svg>