<?xml version="1.0" encoding="utf-8"?>
<!-- Generator: Adobe Illustrator 19.0.0, SVG Export Plug-In . SVG Version: 6.00 Build 0)  -->
<svg version="1.1" id="图层_1" xmlns="http://www.w3.org/2000/svg" xmlns:xlink="http://www.w3.org/1999/xlink" x="0px" y="0px"
	 viewBox="0 0 200 200" style="enable-background:new 0 0 200 200;" xml:space="preserve">
<style type="text/css">
	.st0{fill:#272636;}
</style>
<g>
	<path class="st0" d="M162.6,184.3H38.1c-7.9,0-14.4-6.4-14.4-14.4V31c0-7.9,6.4-14.4,14.4-14.4h124.5c7.9,0,14.4,6.4,14.4,14.4
		v138.9C177,177.8,170.6,184.3,162.6,184.3L162.6,184.3z M114.7,26.2H86v51.2l13.7-5.5l15.1,5.5V26.2L114.7,26.2z M167.4,31
		c0-2.6-2.1-4.8-4.8-4.8h-38.3v61.1c0,8,1.4,6.5-4.2,4.5c-7.6-2.7-20.3-8.1-20.3-8.1s-11.9,5.3-19.2,8c-5.7,2.1-4.2,3.2-4.2-3.3
		V26.2H38.1c-2.6,0-4.8,2.1-4.8,4.8v138.9c0,2.6,2.1,4.8,4.8,4.8h124.5c2.6,0,4.8-2.1,4.8-4.8V31L167.4,31z M167.4,31"/>
</g>
</svg>
