<?xml version="1.0" encoding="utf-8"?>
<!-- Generator: Adobe Illustrator 19.0.0, SVG Export Plug-In . SVG Version: 6.00 Build 0)  -->
<svg version="1.1" id="图层_1" xmlns="http://www.w3.org/2000/svg" xmlns:xlink="http://www.w3.org/1999/xlink" x="0px" y="0px"
	 viewBox="50 -50 200 200" style="enable-background:new 50 -50 200 200;" xml:space="preserve">
<style type="text/css">
	.st0{fill:#272636;}
</style>
<g>
	<g transform="scale(0.1953125, 0.1953125)">
		<path class="st0" d="M320-64h896c28.3,0,51.2-22.9,51.2-51.2s-22.9-51.2-51.2-51.2H320c-28.3,0-51.2,22.9-51.2,51.2
			S291.7-64,320-64z M1216,192H320c-28.3,0-51.2,22.9-51.2,51.2c0,28.3,22.9,51.2,51.2,51.2h896c28.3,0,51.2-22.9,51.2-51.2
			S1244.3,192,1216,192z M1216,550.4H320c-28.3,0-51.2,22.9-51.2,51.2s22.9,51.2,51.2,51.2h896c28.3,0,51.2-22.9,51.2-51.2
			S1244.3,550.4,1216,550.4z"/>
	</g>
</g>
<path class="st0" d="M197-216L197-216L197-216c0-48.4-39.6-88-88-88h-268c-48.4,0-88,39.6-88,88v0c0,48.4,39.6,88,88,88h132.3H109
	h176C236.6-128,197-167.6,197-216z"/>
</svg>
