<?xml version="1.0" standalone="no"?><!DOCTYPE svg PUBLIC "-//W3C//DTD SVG 1.1//EN" "http://www.w3.org/Graphics/SVG/1.1/DTD/svg11.dtd"><svg width="200" height="200" viewBox="0 0 200 200" version="1.1" xmlns="http://www.w3.org/2000/svg" xmlns:xlink="http://www.w3.org/1999/xlink"><defs><style type="text/css"><![CDATA[
@font-face { font-family: ifont; src: url("//at.alicdn.com/t/font_1442373896_4754455.eot?#iefix") format("embedded-opentype"), url("//at.alicdn.com/t/font_1442373896_4754455.woff") format("woff"), url("//at.alicdn.com/t/font_1442373896_4754455.ttf") format("truetype"), url("//at.alicdn.com/t/font_1442373896_4754455.svg#ifont") format("svg"); }

]]></style></defs><g class="transform-group"><g transform="scale(0.1953125, 0.1953125)"><path d="M464.525756 804.830325c-0.385786 2.482541-0.588401 5.025457-0.588401 7.615445 0 27.206642 22.055318 49.262984 49.262984 49.262984s49.262984-22.055318 49.262984-49.262984c0-2.589988-0.202615-5.132904-0.588401-7.615445L464.525756 804.830325zM874.154203 735.505423l-76.999698 0L797.154505 457.69007c0-149.33312-115.27749-271.736914-261.697257-283.089473l0-30.794353c0-12.291954-9.963932-22.255887-22.255887-22.255887s-22.255887 9.963932-22.255887 22.255887l0 30.794353c-146.419767 11.352559-261.697257 133.756353-261.697257 283.089473l0 277.815353-76.999698 0c-9.042957 0-16.372899 7.329942-16.372899 16.372899s7.329942 16.372899 16.372899 16.372899l77.416184 0 0 0 567.07434 0 0 0 77.416184 0c9.042957 0 16.372899-7.329942 16.372899-16.372899S883.196137 735.505423 874.154203 735.505423zM261.992993 457.69007c0-33.926694 6.637164-66.821895 19.727297-97.770767 12.651135-29.909194 30.768771-56.778144 53.849442-79.858816 23.080671-23.080671 49.949622-41.198308 79.858816-53.849442 30.948873-13.090133 63.844074-19.72832 97.770767-19.72832 33.926694 0 66.821895 6.637164 97.770767 19.72832 29.909194 12.651135 56.778144 30.767747 79.858816 53.849442 23.080671 23.080671 41.198308 49.949622 53.849442 79.858816 13.090133 30.948873 19.727297 63.844074 19.727297 97.770767l0 277.815353L261.992993 735.505423 261.992993 457.69007z" fill="#272636"></path></g></g></svg>