<?xml version="1.0" encoding="utf-8"?>
<!-- Generator: Adobe Illustrator 19.0.0, SVG Export Plug-In . SVG Version: 6.00 Build 0)  -->
<svg version="1.1" id="图层_1" xmlns="http://www.w3.org/2000/svg" xmlns:xlink="http://www.w3.org/1999/xlink" x="0px" y="0px"
	 viewBox="-274 573 200 200" style="enable-background:new -274 573 200 200;" xml:space="preserve">
<style type="text/css">
	.st0{fill:#272636;}
</style>
<g>
	<path class="st0" d="M-174.2,573c-55.2,0-99.8,44.3-99.9,99.4c-0.1,55.4,43.9,100.3,98.8,100.6c56.2,0.3,101.2-43.8,101.3-99.4
		C-74,617.6-118.3,573-174.2,573L-174.2,573z M-173.9,760.3c-49.2,0.1-87.5-38.5-87.4-87.9c0.1-48.5,38.8-86.6,87.5-86.5
		c48.5,0.1,86.8,38.7,86.8,87.3C-87.1,721.8-125.5,760.2-173.9,760.3L-173.9,760.3z M-184,656.5c0,10.8-0.1,21.5,0,32.3
		c0.1,7,3.9,9.3,11,9.2c7.2-0.3,7.2-4.4,7.3-9.4c0.6-18.8,1.3-37.8,2.4-56.6c0.5-8.3-0.9-12.4-10.9-12.4s-11.4,4.3-10.8,12.6
		L-184,656.5L-184,656.5z M-161.3,721.6c-1.3,7.9-5.5,12.2-13.2,12.3c-7,0.1-12.1-3.6-12.7-10.5c-0.6-7.8,4.4-12.1,11.9-12.6
		C-167.4,710.5-163.1,715-161.3,721.6L-161.3,721.6z"/>
</g>
</svg>
