<?xml version="1.0" encoding="utf-8"?>
<!-- Generator: Adobe Illustrator 19.0.0, SVG Export Plug-In . SVG Version: 6.00 Build 0)  -->
<svg version="1.1" id="图层_1" xmlns="http://www.w3.org/2000/svg" xmlns:xlink="http://www.w3.org/1999/xlink" x="0px" y="0px"
	 viewBox="-274 573 200 200" style="enable-background:new -274 573 200 200;" xml:space="preserve">
<style type="text/css">
	.st0{fill:#272636;}
</style>
<path class="st0" d="M-174.4,573c-45.8,0-83,37.2-83,83c0,27.9,13.9,53.8,37.2,69.2c4.5,3.8,8.5,8.3,12.1,13.2
	c5.1,7,8.9,13.6,10.6,16.4l0.2,0.4c2.8,10.3,12.4,17.7,23,17.7c11.5,0,21.2-8.1,23.2-19.2c1.1-3.2,3.8-9.3,9.1-15.4
	c6-6.8,11.5-11.4,15.1-14.1c0.5-0.4,1-0.7,1.5-1.1c0.3-0.2,0.7-0.5,1-0.7c1-0.7,1.8-1.3,2.4-1.9l0.5-0.4
	c19.1-15.9,30.1-39.2,30.1-64C-91.4,610.2-128.6,573-174.4,573z M-164,750l-0.2,0.7l0,0.2c-0.8,4.9-5,8.4-10,8.4
	c-4.8,0-8.9-3.4-9.9-8l-0.3-1l-0.5-0.9c-1.7-3-6.2-10.7-12.1-18.9c-4.2-5.8-9.1-11.1-14.6-15.8l-0.5-0.4l-0.1-0.1
	c-19.6-12.9-31.3-34.6-31.3-58c0-38.2,31.1-69.3,69.3-69.3c38.2,0,69.3,31.1,69.4,69.3c0,20.7-9.2,40.2-25.2,53.5l-0.7,0.6l-0.3,0.3
	c-0.1,0.1-0.3,0.2-0.4,0.3c-0.2,0.1-0.4,0.3-0.7,0.5l-0.2,0.2c-0.3,0.3-0.7,0.5-1.1,0.8c-0.4,0.3-0.9,0.6-1.3,0.9l-0.2,0.2
	c-3.3,2.5-9.7,7.7-17,15.8C-159.3,737.5-162.6,745.8-164,750z"/>
<path class="st0" d="M-174.3,703c-26.1,0-47.3-21.2-47.3-47.3c0-26.1,21.2-47.3,47.3-47.3s47.3,21.2,47.3,47.3
	C-127,681.8-148.2,703-174.3,703z M-174.3,616.3c-21.7,0-39.4,17.7-39.4,39.4s17.6,39.3,39.3,39.3c21.7,0,39.4-17.7,39.4-39.3
	C-135,634-152.6,616.3-174.3,616.3z"/>
<path class="st0" d="M-162,647.4c-2.9,0-5.3,2.4-5.3,5.3v2.1h-14.6V638c0-2.9-2.4-5.3-5.3-5.3c-2.9,0-5.3,2.4-5.3,5.3v35.9
	c0,2.9,2.4,5.3,5.3,5.3c2.9,0,5.3-2.4,5.3-5.3v-8.5h14.6v8.5c0,2.9,2.4,5.3,5.3,5.3s5.3-2.4,5.3-5.3v-21.2
	C-156.7,649.8-159.1,647.4-162,647.4 M-162,643.8c3.2,0,5.8-2.6,5.8-5.8s-2.6-5.8-5.8-5.8c-3.2,0-5.8,2.6-5.8,5.8
	S-165.2,643.8-162,643.8"/>
</svg>
