<?xml version="1.0" encoding="utf-8"?>
<!-- Generator: Adobe Illustrator 19.0.0, SVG Export Plug-In . SVG Version: 6.00 Build 0)  -->
<svg version="1.1" id="图层_1" xmlns="http://www.w3.org/2000/svg" xmlns:xlink="http://www.w3.org/1999/xlink" x="0px" y="0px"
	 viewBox="0 0 200 200" style="enable-background:new 0 0 200 200;" xml:space="preserve">
<g>
	<path d="M56.8,65.5c4.3,3.6,6.6,8.5,6.6,14.8c0,8-4.1,13.5-12.1,16.1c4.3,1.3,7.6,3.4,9.9,6.1c2.5,2.8,3.7,6.4,3.7,10.7
		c0,6.8-2.4,12.3-7,16.7c-4.9,4.3-11.4,6.6-19.2,6.6c-7.5,0-13.6-2-18.1-5.8c-5.1-4.3-8-10.6-8.6-18.8h11.3
		c0.2,4.9,1.7,8.7,4.8,11.4c2.7,2.5,6.2,3.7,10.5,3.7c4.7,0,8.5-1.4,11.4-4.1c2.5-2.5,3.8-5.4,3.8-9.2c0-4.3-1.3-7.5-4-9.6
		c-2.5-2.1-6.2-3.1-11-3.1h-5.3v-8.4h5.2c4.5,0,7.9-1,10.2-3c2.3-2,3.5-4.8,3.5-8.5c0-3.7-1.1-6.5-3.2-8.4c-2.3-2.1-5.7-3-10-3
		c-4.4,0-7.9,1.1-10.4,3.4c-2.5,2.3-4,5.7-4.4,10.2h-11c0.6-7.3,3.3-13,8.1-17.1c4.5-4.1,10.4-6.1,17.6-6.1
		C46.4,60.1,52.2,61.9,56.8,65.5z"/>
	<path d="M120,71c4.3,6.8,6.5,15.8,6.5,27.2c0,11.3-2.2,20.5-6.5,27.2c-4.7,7.2-11.4,10.9-20.1,10.9c-8.6,0-15.3-3.7-20-10.9
		c-4.3-6.8-6.5-15.8-6.5-27.2c0-11.5,2.2-20.6,6.5-27.2c4.7-7.3,11.4-10.9,20-10.9C108.6,60.1,115.3,63.7,120,71z M87.2,79.6
		c-1.9,4.5-2.7,10.8-2.7,18.7c0,7.8,0.8,14.1,2.7,18.7c2.5,6.6,6.7,10,12.7,10c6,0,10.3-3.4,12.7-10c1.7-4.6,2.7-10.9,2.7-18.7
		c0-7.9-0.9-14.2-2.7-18.7c-2.5-6.7-6.8-10-12.7-10C93.9,69.6,89.7,72.9,87.2,79.6z"/>
	<path d="M181.7,71c4.3,6.8,6.5,15.8,6.5,27.2c0,11.3-2.2,20.5-6.5,27.2c-4.7,7.2-11.4,10.9-20.1,10.9c-8.6,0-15.3-3.7-20-10.9
		c-4.3-6.8-6.5-15.8-6.5-27.2c0-11.5,2.2-20.6,6.5-27.2c4.7-7.3,11.4-10.9,20-10.9C170.3,60.1,177,63.7,181.7,71z M148.9,79.6
		c-1.9,4.5-2.7,10.8-2.7,18.7c0,7.8,0.8,14.1,2.7,18.7c2.5,6.6,6.7,10,12.7,10c6,0,10.3-3.4,12.7-10c1.7-4.6,2.7-10.9,2.7-18.7
		c0-7.9-0.9-14.2-2.7-18.7c-2.5-6.7-6.8-10-12.7-10C155.6,69.6,151.4,72.9,148.9,79.6z"/>
</g>
</svg>
