<?xml version="1.0" encoding="utf-8"?>
<!-- Generator: Adobe Illustrator 19.0.0, SVG Export Plug-In . SVG Version: 6.00 Build 0)  -->
<svg version="1.1" id="图层_1" xmlns="http://www.w3.org/2000/svg" xmlns:xlink="http://www.w3.org/1999/xlink" x="0px" y="0px"
	 viewBox="-320 198.3 200 200" style="enable-background:new -320 198.3 200 200;" xml:space="preserve">
<style type="text/css">
	.st0{fill:#272636;}
</style>
<g>
	<g transform="scale(0.1953125, 0.1953125)">
		<path class="st0" d="M-1305.4,1383.9l157.9-157.8c2.8-3.6,6.5-6.4,10.8-8c0.3-0.1,0.5-0.1,0.7-0.1c2.6-1.2,5.4-1.5,8.2-1.7
			c0.4,0,0.8-0.3,1.2-0.3c0.8,0,1.4,0.5,2.2,0.5c1.7,0.1,3.3,0.5,5,1.1c2,0.5,3.8,1.3,5.6,2.2c1.1,0.6,2.1,1.3,3.1,2.1
			c0.9,0.7,2,1,2.9,2l160.1,160c10.4,10.3,10.4,27.1,0,37.2c-10.2,10.3-27,10.3-37.4,0l-115.2-115v256.7c0,14.7-12,26.8-26.7,26.8
			s-26.7-12-26.7-26.8v-255.9l-114.4,114.3c-10.2,10.3-27,10.3-37.3,0C-1315.6,1411-1315.6,1394.3-1305.4,1383.9z"/>
	</g>
	<path class="st0" d="M-214.8,329.6v24.3c0,2.9-2.3,5.2-5.2,5.2l0,0c-2.9,0-5.2-2.3-5.2-5.2v-24.3c0-2.9,2.3-5.2,5.2-5.2l0,0
		C-217.2,324.4-214.8,326.7-214.8,329.6z"/>
</g>
</svg>
