<?xml version="1.0" encoding="utf-8"?>
<!-- Generator: Adobe Illustrator 19.0.0, SVG Export Plug-In . SVG Version: 6.00 Build 0)  -->
<svg version="1.1" id="图层_1" xmlns="http://www.w3.org/2000/svg" xmlns:xlink="http://www.w3.org/1999/xlink" x="0px" y="0px"
	 viewBox="-320 198.3 200 200" style="enable-background:new -320 198.3 200 200;" xml:space="preserve">
<style type="text/css">
	.st0{fill:#272636;}
</style>
<g>
	<g transform="scale(0.1953125, 0.1953125)">
		<path class="st0" d="M-1269.8,1706.1l-157.8-157.9c-3.6-2.8-6.4-6.5-8-10.8c-0.1-0.3-0.1-0.5-0.1-0.7c-1.2-2.6-1.5-5.4-1.7-8.2
			c0-0.4-0.3-0.8-0.3-1.2c0-0.8,0.5-1.4,0.5-2.2c0.1-1.7,0.5-3.3,1.1-5c0.5-2,1.3-3.8,2.2-5.6c0.6-1.1,1.3-2.1,2.1-3.1
			c0.7-0.9,1-2,2-2.9l160-160.1c10.3-10.4,27.1-10.4,37.2,0c10.3,10.2,10.3,27,0,37.4l-115,115.2h256.7c14.7,0,26.8,12,26.8,26.7
			s-12,26.7-26.8,26.7h-255.9l114.3,114.4c10.3,10.2,10.3,27,0,37.3C-1242.7,1716.3-1259.4,1716.3-1269.8,1706.1z"/>
	</g>
	<path class="st0" d="M-188.7,293.1h24.3c2.9,0,5.2,2.3,5.2,5.2l0,0c0,2.9-2.3,5.2-5.2,5.2h-24.3c-2.9,0-5.2-2.3-5.2-5.2l0,0
		C-193.9,295.5-191.6,293.1-188.7,293.1z"/>
</g>
</svg>
