<?xml version="1.0" encoding="utf-8"?>
<!-- Generated by IcoMoon.io -->
<!DOCTYPE svg PUBLIC "-//W3C//DTD SVG 1.1//EN" "http://www.w3.org/Graphics/SVG/1.1/DTD/svg11.dtd">
<svg version="1.1" xmlns="http://www.w3.org/2000/svg" xmlns:xlink="http://www.w3.org/1999/xlink" width="1024" height="1024" viewBox="0 0 1024 1024">
<g id="icomoon-ignore">
</g>
<path fill="#000" d="M690.8 655.204l-157.9 157.8c-2.8 3.6-6.5 6.4-10.8 8-0.3 0.1-0.5 0.1-0.7 0.1-2.6 1.2-5.4 1.5-8.2 1.7-0.4 0-0.8 0.3-1.2 0.3-0.8 0-1.4-0.5-2.2-0.5-1.7-0.1-3.3-0.5-5-1.1-2-0.5-3.8-1.3-5.6-2.2-1.1-0.6-2.1-1.3-3.1-2.1-0.9-0.7-2-1-2.9-2l-160.1-160c-10.4-10.3-10.4-27.1 0-37.2 10.2-10.3 27-10.3 37.4 0l115.2 115v-256.7c0-14.7 12-26.8 26.7-26.8s26.7 12 26.7 26.8v255.9l114.4-114.3c10.2-10.3 27-10.3 37.3 0 10.2 10.2 10.2 26.9 0 37.3z"></path>
<path fill="#000" d="M485.376 351.744v-124.416c0-14.848 11.776-26.624 26.624-26.624v0c14.848 0 26.624 11.776 26.624 26.624v124.416c0 14.848-11.776 26.624-26.624 26.624v0c-14.336 0-26.624-11.776-26.624-26.624z"></path>
</svg>
