<?xml version="1.0" encoding="utf-8"?>
<!-- Generator: Adobe Illustrator 19.0.0, SVG Export Plug-In . SVG Version: 6.00 Build 0)  -->
<svg version="1.1" id="图层_1" xmlns="http://www.w3.org/2000/svg" xmlns:xlink="http://www.w3.org/1999/xlink" x="0px" y="0px"
	 viewBox="-274 573 200 200" style="enable-background:new -274 573 200 200;" xml:space="preserve">
<style type="text/css">
	.st0{fill:#272636;}
</style>
<g>
	<rect x="-207.3" y="705.3" class="st0" width="95.1" height="15.2"/>
	<rect x="-207.3" y="675.3" class="st0" width="95.1" height="15.2"/>
	<rect x="-207.3" y="645.5" class="st0" width="95.1" height="15.2"/>
	<rect x="-235.3" y="675.3" class="st0" width="18.7" height="15.2"/>
	<rect x="-235.3" y="645.5" class="st0" width="18.7" height="15.2"/>
	<path class="st0" d="M-100.3,589.9h-21.1v-16.7h-14.1v16.7h-75.6v-16.7h-14.1v16.7h-22.5c-12.9,0-23.3,10.5-23.3,23.3v136.5
		c0,12.9,10.5,23.3,23.3,23.3h147.4c12.9,0,23.3-10.5,23.3-23.3V613.2C-77,600.4-87.5,589.9-100.3,589.9z M-211.1,623.8v-20h75.6v20
		h14.1v-20h21.1c5.2,0,9.4,4.2,9.4,9.4v136.5c0,5.2-4.2,9.4-9.4,9.4h-147.4c-5.2,0-9.4-4.2-9.4-9.4V613.2c0-5.2,4.2-9.4,9.4-9.4
		h22.5v20H-211.1z"/>
	<rect x="-235.3" y="705.3" class="st0" width="18.7" height="15.2"/>
</g>
</svg>
