<?xml version="1.0" encoding="utf-8"?>
<!-- Generator: Adobe Illustrator 19.0.0, SVG Export Plug-In . SVG Version: 6.00 Build 0)  -->
<svg version="1.1" id="图层_1" xmlns="http://www.w3.org/2000/svg" xmlns:xlink="http://www.w3.org/1999/xlink" x="0px" y="0px"
	 viewBox="-274 573 200 200" style="enable-background:new -274 573 200 200;" xml:space="preserve">
<style type="text/css">
	.st0{fill:#272636;}
</style>
<g>
	<g transform="scale(0.1953125, 0.1953125)">
		<path class="st0" d="M-620.1,3584.5c11.6,53.8,21.8,102.4,30.7,146c4,18.4,7.8,36.7,11.2,55.1c3.4,18.4,6.7,35,9.7,50
			c3,15,5.6,27.7,7.7,38.3s3.4,17.2,4,19.9c2.1,13.6-1,22.6-9.1,27c-8.2,4.4-17.4,6.7-27.6,6.7c-3.4,0-8.4-1.2-14.8-3.5
			c-6.4-2.4-11.4-4.3-14.8-5.6l-266.7-155.2c-48.3,28.6-92.2,54.1-131.8,76.5c-17,9.5-33.8,19.1-50.5,28.6s-31.9,18.4-45.5,26.5
			c-13.6,8.2-25.3,15-35.3,20.4c-9.9,5.5-16.5,8.9-19.9,10.2c-6.8,3.4-13.8,4.6-20.9,3.5s-13.6-3.5-19.5-7.7
			c-5.7-4-10.1-9-12.8-14.8s-3.4-11.8-2.1-17.9c0.7-2.7,2.4-9.4,5.1-19.9c2.7-10.6,5.7-23.1,9.1-37.7s7.3-30.8,11.8-48.5
			c4.4-17.8,9-35.8,13.8-54.1c10.2-42.2,21.8-89.9,34.7-143c-40.2-34.7-76.3-65.7-108.3-92.9c-13.6-11.6-27-23-40.4-34.2
			c-13.3-11.2-25.2-21.4-35.8-30.7s-19.2-16.7-26-22.5s-10.6-9-11.2-9.7c-8.2-7.4-15.2-15.8-20.9-25.1c-5.7-9.1-8-18.5-6.7-28.1
			s5.1-17,11.2-22.5s12.9-8.9,20.4-10.2l315.6-28.6l117.4-273.6c4-10.8,9.9-20.2,17.4-28.1c7.4-7.8,17.8-11.8,30.7-11.8
			c6.8,0,12.8,1.6,17.9,4.6c5.1,3,9.4,6.7,12.8,10.7c3.4,4,6.3,8.2,8.6,12.3c2.4,4,4.3,7.4,5.6,10.2l114.5,273.8l315.6,29.6
			c13.6,3.4,23.1,7.4,28.6,12.3c5.5,4.7,8.2,12.3,8.2,22.5c0,9.5-2.9,17.9-8.6,25.1c-5.7,7.2-13.1,15.8-21.9,26L-620.1,3584.5z"/>
	</g>
</g>
</svg>
