<?xml version="1.0" encoding="utf-8"?>
<!-- Generator: Adobe Illustrator 19.0.0, SVG Export Plug-In . SVG Version: 6.00 Build 0)  -->
<svg version="1.1" id="图层_1" xmlns="http://www.w3.org/2000/svg" xmlns:xlink="http://www.w3.org/1999/xlink" x="0px" y="0px"
	 viewBox="-299 201 200 200" style="enable-background:new -299 201 200 200;" xml:space="preserve">
<style type="text/css">
	.st0{fill:#272636;}
</style>
<g>
	<g transform="scale(0.1953125, 0.1953125)">
		<path class="st0" d="M-1041.8,2047.4h-63.9c-25,0-45.4-20.4-45.4-45.4v-456.3h-228.6c-11,0-21.5-3.9-29.7-11l-99-85.5
			c-10-8.6-15.7-21.1-15.7-34.2c0-13.2,5.7-25.7,15.6-34.3l99.1-86.4c8.3-7.2,18.9-11.1,29.8-11.1l228.4,0.1l0.1-203.7
			c0-25,20.3-45.3,45.3-45.3h63.9c25,0,45.3,20.3,45.3,45.3v42.4h356.9c12.5,0,24.5,5.2,33,14.3l80.7,85.5
			c16.6,17.3,16.6,44.7,0,62.2l-80.7,85.5c-8.5,9-20.5,14.2-33,14.2l-356.6,0.1v52.2h138.7c10.9,0,21.5,3.9,29.7,11.1l98.2,85.5
			c9.9,8.6,15.6,21,15.6,34.1c0,13.1-5.6,25.5-15.4,34.2l-98.3,86.4c-8.2,7.3-18.8,11.3-29.9,11.3h-138.6V2002
			C-996.4,2027.1-1016.8,2047.4-1041.8,2047.4z M-1379.7,1324.1c-1,0-2.1,0.4-2.9,1.1l-99.1,86.4c-1.3,1.1-1.5,2.4-1.5,3.3
			c0,0.9,0.3,2.2,1.5,3.3l99,85.5c0.8,0.7,1.8,1,2.9,1h239.2c16.8,0,30.4,13.6,30.4,30.4V2002c0,2.4,2,4.4,4.4,4.4h63.9
			c2.4,0,4.4-2,4.4-4.4v-314.1c0-16.8,13.6-30.4,30.4-30.4h149.2c1,0,2.1-0.4,2.8-1l98.4-86.5c1.2-1.1,1.5-2.4,1.5-3.3
			c0-0.9-0.3-2.2-1.5-3.3l-98.2-85.5c-0.8-0.7-1.8-1.1-2.8-1.1H-1007c-16.8,0-30.4-13.6-30.4-30.4v-73.4c0-16.8,13.6-30.4,30.4-30.4
			l367.2-0.1c1.2,0,2.4-0.5,3.2-1.3l80.7-85.5c1.6-1.7,1.6-4.3,0.1-5.9l-80.8-85.6c-0.9-0.9-2-1.4-3.2-1.4h-367.5
			c-16.8,0-30.4-13.6-30.4-30.4v-53c0-2.4-1.9-4.3-4.3-4.3h-63.9c-2.4,0-4.3,1.9-4.3,4.3l-0.1,214.3c0,16.7-13.6,30.4-30.4,30.4
			L-1379.7,1324.1z"/>
	</g>
</g>
</svg>
