<?xml version="1.0" encoding="utf-8"?>
<!-- Generator: Adobe Illustrator 19.0.0, SVG Export Plug-In . SVG Version: 6.00 Build 0)  -->
<svg version="1.1" id="图层_1" xmlns="http://www.w3.org/2000/svg" xmlns:xlink="http://www.w3.org/1999/xlink" x="0px" y="0px"
	 viewBox="-197 320.9 200.2 200" style="enable-background:new -197 320.9 200.2 200;" xml:space="preserve">
<style type="text/css">
	.st0{fill:#272636;}
</style>
<g>
	<g transform="scale(0.1953125, 0.1953125)">
		<path class="st0" d="M-606.1,2045.5v114.1c-1.2,82-27.9,148.6-80.2,199.7c-8.3,7.1-16.7,7.7-25,1.8c-7.1-7.1-7.7-14.9-1.8-23.2
			c49.9-51.1,73.7-111.1,71.3-180.1v-110.6c0-10.7,5.9-16.6,17.8-17.8C-613.2,2029.5-607.3,2034.8-606.1,2045.5z M-547.3,2231
			c0,9.5-6,14.9-17.8,16.1c-11.9-1.2-17.8-6.5-17.8-16.1v-212.2c0-10.7-4.2-15.4-12.5-14.3h-57.1c-11.9-1.2-17.2,3.6-16,14.3v206.8
			c-1.2,10.7-7.1,16.7-17.8,17.8c-11.9-2.4-17.8-8.9-17.8-19.6v-224.7c0-21.4,11.3-31.5,33.9-30.3h96.3c19-2.4,27.9,8.9,26.7,33.9
			V2231z M-590,2273.8c19,19,36.2,37.4,51.7,55.3c7.1,9.5,6.5,17.8-1.8,25c-9.5,5.9-18.5,4.7-26.7-3.6c-8.3-9.5-19-20.8-32.1-33.9
			c-7.1-8.3-12.5-14.3-16.1-17.8c-8.3-8.3-8.3-17.2,0-26.7C-606.7,2264.9-598.4,2265.5-590,2273.8z M-329.7,2054.5
			c-2.4,9.5-6.5,22.6-12.5,39.2c-2.4,9.5-4.2,16.1-5.3,19.6h55.3c10.7,0,16.6,6,17.8,17.8c-1.2,11.9-7.1,17.8-17.8,17.8h-233.6
			c-9.5,0-14.9-5.9-16.1-17.8c1.2-11.9,6.5-17.8,16.1-17.8h53.5c0-1.2-0.6-2.9-1.8-5.3c-4.8-20.2-8.3-36.3-10.7-48.1
			c-2.4-11.9,1.2-19.6,10.7-23.2c10.7-1.2,17.2,4.2,19.6,16.1c1.2,3.6,2.4,8.9,3.6,16c4.7,19,7.7,30.3,8.9,33.9
			c2.4,4.8,2.4,8.3,0,10.7h57.1c7.1-16.6,13.6-38.6,19.6-66c3.6-11.9,10.7-17.2,21.4-16.1C-332.1,2034.8-327.3,2042.6-329.7,2054.5z
			 M-442.1,1961.7c-2.4-9.5,1.8-16.6,12.5-21.4c10.7-3.6,18.4-0.6,23.2,8.9c5.9,11.9,11.9,26.7,17.8,44.6h76.7
			c10.7,1.2,16.6,7.1,17.8,17.8c-2.4,10.7-8.9,16.1-19.6,16.1h-196.1c-10.7,0-16.7-5.9-17.8-17.8c1.2-10.7,7.1-16,17.8-16h82
			c-1.2-2.4-3.6-7.1-7.1-14.3C-438.5,1968.9-440.9,1962.9-442.1,1961.7z M-488.4,2182.8h153.3c16.6,1.2,25.5,12.5,26.7,33.9v115.9
			c0,19-10.7,27.9-32.1,26.7h-146.2c-19-1.2-29.1-10.1-30.3-26.7v-123C-516.9,2191.8-507.4,2182.8-488.4,2182.8z M-356.5,2321.9
			c8.3,1.2,11.9-1.8,10.7-8.9v-80.2c1.2-9.5-3.6-14.3-14.3-14.3h-107c-9.5,0-14.3,3.6-14.3,10.7v83.8c0,5.9,3.6,8.9,10.7,8.9H-356.5
			z"/>
	</g>
</g>
<g>
	<g transform="scale(0.1953125, 0.1953125)">
		<path class="st0" d="M-495.8,1722.9c57.9,0,114.1,11.3,167,33.7c51.1,21.6,97,52.6,136.4,92c39.4,39.4,70.4,85.3,92,136.4
			c22.4,52.9,33.7,109.1,33.7,167c0,57.9-11.3,114.1-33.7,167c-21.6,51.1-52.6,97-92,136.4c-39.4,39.4-85.3,70.4-136.4,92
			c-52.9,22.4-109.1,33.7-167,33.7c-57.9,0-114.1-11.3-167-33.7c-51.1-21.6-97-52.6-136.4-92c-39.4-39.4-70.4-85.3-92-136.4
			c-22.4-52.9-33.7-109.1-33.7-167c0-57.9,11.3-114.1,33.7-167c21.6-51.1,52.6-97,92-136.4c39.4-39.4,85.3-70.4,136.4-92
			C-609.9,1734.2-553.8,1722.9-495.8,1722.9 M-495.8,1702.4c-248.3,0-449.6,201.3-449.6,449.6c0,248.3,201.3,449.6,449.6,449.6
			c248.3,0,449.6-201.3,449.6-449.6C-46.2,1903.7-247.5,1702.4-495.8,1702.4L-495.8,1702.4z"/>
	</g>
</g>
</svg>
