<?xml version="1.0" standalone="no"?><!DOCTYPE svg PUBLIC "-//W3C//DTD SVG 1.1//EN" "http://www.w3.org/Graphics/SVG/1.1/DTD/svg11.dtd"><svg width="200" height="200" viewBox="0 0 200 200" version="1.1" xmlns="http://www.w3.org/2000/svg" xmlns:xlink="http://www.w3.org/1999/xlink"><defs><style type="text/css"><![CDATA[
@font-face { font-family: ifont; src: url("//at.alicdn.com/t/font_1442373896_4754455.eot?#iefix") format("embedded-opentype"), url("//at.alicdn.com/t/font_1442373896_4754455.woff") format("woff"), url("//at.alicdn.com/t/font_1442373896_4754455.ttf") format("truetype"), url("//at.alicdn.com/t/font_1442373896_4754455.svg#ifont") format("svg"); }

]]></style></defs><g class="transform-group"><g transform="scale(0.1953125, 0.1953125)"><path d="M866.571718 864.875678c0 13.777842 0 27.555684 0 41.329914-3.198815 8.191205-2.82854 17.402925-8.202043 25.079357-5.994842 8.570511-11.884924 16.904408-22.250818 20.601739-213.177246 0-426.356298 0-639.533544 0-14.227591-1.950717-25.010721-9.00581-32.824426-21.149024-4.461362-6.943108-2.790609-15.323966-6.330799-22.357385 0-15.948918 0-31.901448 0-47.855785 3.094054-18.578773 2.767128-37.430286 2.973037-56.093952 0.52561-48.166454 5.559544-96.03127 8.247198-144.040583 2.286674-40.764567 5.485489-81.509266 8.595798-122.228677 3.496841-45.769601 6.233263-91.591583 10.087736-137.337703 1.519031-18.002589 1.509999-36.17677 4.959879-53.957194 6.148371-31.706376 30.841197-51.560341 62.96481-52.219611 12.396084-0.254677 24.501367 2.172882 36.817978 2.313767 6.981038 0.077667 10.320738-2.311961 11.082963-9.881827 6.657725-66.10402 31.363195-125.357049 69.837476-178.996349 19.805196-27.611677 45.659422-48.13033 77.129183-61.557766 14.330545-6.114053 29.715923-5.194687 44.474542-8.258035 1.448588 0 2.900788 0 4.351183 0 7.974459 1.730358 15.954337 1.730358 23.928795 0 2.174688 0 4.351183 0 6.525871 0 70.267356 6.056254 111.156552 51.782506 143.625153 107.764472 24.416475 42.101169 38.315333 88.161572 45.540211 136.174498 1.416076 9.428466 5.597474 13.082448 15.031358 12.699529 12.294936-0.49671 24.633221-0.270933 36.944413-0.048768 24.273783 0.44433 43.379973 14.301646 52.642266 36.953444 5.890082 14.4046 7.174304 29.605743 8.155081 44.62807 2.120502 32.45957 4.65824 64.888434 7.3766 97.290205 2.716554 32.396352 5.026709 64.832441 7.699914 97.226987 1.84415 22.315841 3.545609 44.673226 5.245261 67.012548 2.463683 32.412608 4.828025 64.83786 7.728813 97.225181 2.062703 23.018461 3.283707 46.136264 4.049544 69.270323C864.104422 824.606015 863.730535 844.833867 866.571718 864.875678zM498.948258 38.268372c7.974459 3.45891 15.954337 3.435429 23.928795 0C514.900788 38.268372 506.922717 38.268372 498.948258 38.268372zM654.447498 299.420613c7.936528 0.130048 10.194303-2.013935 8.028646-10.022712-4.241003-15.692435-6.96117-31.811137-11.507424-47.406036-13.331706-45.691934-31.648577-88.824455-68.405143-121.264156-24.241271-21.398282-51.55131-34.543947-85.201178-28.724308-43.287856 7.48678-72.718396 34.05988-94.790397 69.851925-23.554908 38.194317-35.181543 80.584481-41.615296 124.715841-1.278803 8.771002 0.760418 10.727137 8.951624 10.680176 72.037451-0.413624 144.067677 0.314282 216.088872 2.037416C608.813363 299.290565 631.634946 299.048532 654.447498 299.420613zM407.562584 402.432921c-0.090311-29.175863-24.266558-53.171489-53.471321-53.075759-29.163219 0.093923-53.18052 24.282814-53.08479 53.469515 0.09573 29.146963 24.29907 53.16607 53.480352 53.073953C383.660882 455.810319 407.656508 431.634071 407.562584 402.432921zM612.073589 402.590062c-0.019868 29.168638 24.073293 53.288893 53.245544 53.312374 29.20115 0.018062 53.294311-24.038975 53.312374-53.234706 0.018062-29.179475-24.058843-53.294311-53.238319-53.312374C636.22455 349.3391 612.093458 373.432261 612.073589 402.590062z" fill="#272636"></path></g></g></svg>