<?xml version="1.0" encoding="utf-8"?>
<!-- Generator: Adobe Illustrator 19.0.0, SVG Export Plug-In . SVG Version: 6.00 Build 0)  -->
<svg version="1.1" id="图层_1" xmlns="http://www.w3.org/2000/svg" xmlns:xlink="http://www.w3.org/1999/xlink" x="0px" y="0px"
	 viewBox="-299 201 200 200" style="enable-background:new -299 201 200 200;" xml:space="preserve">
<style type="text/css">
	.st0{fill:#272636;}
</style>
<g>
	<g transform="scale(0.1953125, 0.1953125)">
		<path class="st0" d="M-1183.8,2057.6c-1.6,0-3.2-0.1-4.8-0.3c-13.4-1.5-25.1-8.9-32.2-20.3l-103.7-167.5c-0.1-0.2-0.3-0.5-0.8-0.8
			l-191.7-130.8c-10.6-7.2-17.4-18.6-18.7-31.3c-1.3-12.8,3.1-25.4,12.1-34.7l13.3-13.6c10.1-10.5,24.9-15.1,39.4-12.3l196.1,38.6
			c0.9,0.2,1.7-0.1,2.2-0.7l183.3-203.9c0.2-0.2,0.8-0.9,0.5-2.1c-0.3-1.2-1.2-1.6-1.5-1.7l-395.9-146.7
			c-16.5-6.1-28.7-20.1-32.6-37.3c-3.8-17.2,1.2-35,13.6-47.6l35.8-36.4c15.6-15.9,38-22.9,59.9-18.7l490.9,95.4
			c0.7,0.1,1.5-0.1,2.1-0.7l176.3-176.5c54.4-55.1,104.1-83.1,147.8-83.1c0,0,0.1,0,0.2,0c24.5,0,46.5,9.3,63.7,26.7
			c50.1,50.7,30.2,131.7-53.2,216.7l-177.8,177.5c-0.6,0.6-0.8,1.3-0.7,2l84,485.2c3.9,22.7-3.4,46.1-19.6,62.6l-43,43.8
			c-10.4,10.7-25.4,15.2-40.1,12c-14.7-3.2-26.5-13.6-31.6-27.8l-143.7-401.7c-0.1-0.4-0.4-1.2-1.6-1.5c-1.3-0.3-2,0.4-2.2,0.6
			l-195.3,184.9c-0.5,0.5-0.8,1.3-0.7,2.1l25.8,187.8c1.9,13.3-2.5,26.5-12,36.2l-12.7,12.9
			C-1161.2,2053-1172.2,2057.6-1183.8,2057.6z M-1479.5,1686.2c-0.5,0-1.1,0.1-1.6,0.7l-13.3,13.6c-0.5,0.5-0.7,1.2-0.7,1.9
			c0.1,1,0.8,1.5,1,1.6l191.9,130.9c5.3,3.6,9.4,8,12.6,13.2l103.6,167.4c0.4,0.7,1,1,1.8,1.1c1.1,0.1,1.6-0.4,1.8-0.6l12.8-13
			c0.5-0.5,0.7-1.1,0.6-1.8l-25.8-187.9c-1.9-13.9,3-27.8,13.1-37.4l195.3-184.9c10.7-10.1,25.7-14.1,40-10.6
			c14.3,3.4,25.7,13.7,30.6,27.5l143.7,401.7c0.1,0.3,0.5,1.3,1.7,1.5c1.2,0.3,1.8-0.4,2.1-0.6l43-43.8c7-7.1,10.1-17.1,8.4-26.9
			l-84-485.1c-2.5-13.8,2.1-28,12.1-38.1l177.6-177.3c65.6-66.8,85.5-126.4,53.1-159.1l-0.1-0.1c-9.5-9.7-20.8-14.4-34.5-14.5
			c0,0-0.1,0-0.1,0c-31.4,0-73.5,25.2-118.7,71l-176.4,176.6c-10.2,10.2-24.7,14.6-38.8,12l-490.9-95.4c-8.3-1.6-16.9,1.1-22.9,7.1
			l-35.8,36.4c-3.7,3.8-3.2,8.2-2.8,10c0.4,1.7,1.8,6,6.8,7.9l395.9,146.7c13.4,5,23.5,16.3,27,30.2c3.5,13.9-0.2,28.7-9.7,39.4
			l-183.4,204c-10.2,11.3-25.8,16.5-40.7,13.5l-196-38.6C-1479.1,1686.2-1479.3,1686.2-1479.5,1686.2z"/>
	</g>
</g>
</svg>
