<?xml version="1.0" encoding="utf-8"?>
<!-- Generator: Adobe Illustrator 19.0.0, SVG Export Plug-In . SVG Version: 6.00 Build 0)  -->
<svg version="1.1" id="图层_1" xmlns="http://www.w3.org/2000/svg" xmlns:xlink="http://www.w3.org/1999/xlink" x="0px" y="0px"
	 viewBox="0 0 1190.6 793.7" style="enable-background:new 0 0 1190.6 793.7;" xml:space="preserve">
<style type="text/css">
	.st0{fill:#FED631;}
</style>
<path class="st0" d="M463.7,369c-9.9,0-17.9,8-17.9,17.9v7h-49.5v-57c0-9.9-8-17.9-17.9-17.9c-9.9,0-17.9,8-17.9,17.9v121.6
	c0,9.9,8,17.9,17.9,17.9c9.9,0,17.9-8,17.9-17.9v-28.9h49.5v28.9c0,9.9,8,17.9,17.9,17.9c9.9,0,17.9-8,17.9-17.9v-71.6
	C481.6,377,473.6,369,463.7,369 M463.7,356.8c10.9,0,19.8-8.8,19.8-19.8c0-10.9-8.8-19.8-19.8-19.8c-10.9,0-19.8,8.8-19.8,19.8
	C444,347.9,452.8,356.8,463.7,356.8"/>
<path class="st0" d="M615.2,350.1c0,1.5-1.2,2.6-3.5,2.6h-43.8c-2.3,0-3.5-1.2-3.5-2.6v-4.6h50.8V350.1z M615.2,338.5h-50.8v-4.1
	c0-1.5,1.3-2.7,3.5-2.7h43.8c2.4,0,3.5,1.2,3.5,2.7V338.5z M627,351.5v-18.6c0-4.3-3.8-8.3-10.3-8.3h-27.4c1.9-2.4,2.2-3,2.2-4
	c0-2.4-3.3-4.3-6.6-4.3c-2.6,0-5.3,1.1-6.4,4c-0.6,1.5-1.1,3-1.8,4.3h-13.8c-6.6,0-10.2,4.1-10.2,8.3v18.6c0,4.7,3.4,8.5,10.2,8.5
	h53.9C623.5,359.9,627,356.1,627,351.5 M634.3,399.8c0-2-1.3-4-3.9-4h-34.3v-8.3H623c2.5,0,3.9-1.9,3.9-3.8c0-1.9-1.3-3.8-3.9-3.8
	h-26.8v-7.4h30.6c2.5,0,3.8-1.9,3.8-3.8s-1.2-3.8-3.8-3.8H553c-2.5,0-3.8,1.9-3.8,3.8s1.2,3.8,3.8,3.8h30.6v7.4h-27
	c-2.5,0-3.9,1.9-3.9,3.8c0,1.9,1.3,3.8,3.9,3.8h27v8.3h-34.6c-2.5,0-3.8,2-3.8,4s1.2,4,3.8,4h81.4
	C633,403.7,634.3,401.7,634.3,399.8 M727.5,381.7v-0.4c0-2.8-2-4.1-4.1-4.1c-1.9,0-3.7,1.1-4.1,3.5c-1.2,8.6-3,11.6-9.3,12.3
	c-7.7,0.8-16.9,1.2-25.1,1.2c-19.6,0-21.2-0.7-21.2-5.2v-15.7c0-1.4,1.3-2.8,2.7-2.8h21.4c5.7,0,8.7-3.7,8.7-9.1v-11.8
	c0-5.4-3.4-8.6-8.7-8.6h-24.7c1.6-2.4,3-5,4.3-7.7h36.8c1.8,0,3.1,1.1,3.1,2.9c0,35.6-2.6,40.6-11.1,40.6c-1.9,0-4-0.3-6.2-0.8
	c-0.5-0.1-0.9-0.2-1.3-0.2c-2.3,0-3.6,1.7-3.6,3.4c0,1.6,1,3.2,3.2,3.9c4.4,1.4,8.3,2.1,11.6,2.1c16.4,0,19.2-12.4,19.2-49.6
	c0-5.6-4-9.5-9.9-9.5h-38.6c0.4-0.9,0.5-1.8,0.5-2.6c0-3.9-3.5-6.2-6.9-6.2c-2.7,0-5.4,1.4-6.3,4.6c-4.1,14.8-10.5,24.9-17.1,32.9
	c-0.9,1.1-1.3,2.3-1.3,3.3c0,2,1.6,3.6,3.8,3.6c1.1,0,2.4-0.5,3.7-1.6c4.1-3.8,8.3-8,12.2-13.2c0.6,1,1.8,1.7,3.6,1.7h19.8
	c1.4,0,2.5,1.3,2.5,2.4v9.7c0,1.5-1,2.5-2.5,2.5h-18.9v-1c0-3.9-3-5.7-6-5.7c-3,0-6,1.8-6,5.7v0.2v2.1v7.6c0,0.4-0.1,0.8-0.1,1.3v16
	c0,15.4,9.3,15.7,33.4,15.7c9.5,0,19.9-0.4,28.1-1.3C721.2,402.5,726.3,398.5,727.5,381.7 M787.2,380.1v-12.5h23.4
	c2.8,0,4.1-2.4,4.1-4.3s-1.3-4.3-4.1-4.3h-23.4V349h0v-0.9c0-3.8-3.5-5.6-6.4-5.6s-6.4,1.8-6.4,5.6v2.2h0v8.7h-17.5
	c4.3-4.3,12-12.7,18.6-20.5h38.7c2.8,0,4.1-1.9,4.1-3.8c0-1.9-1.3-3.8-4.1-3.8h-32.6c3.1-4.1,5.2-7.3,5.2-8.6c0-3.6-4-6.1-7.9-6.1
	c-2.5,0-5.1,1.1-6.2,3.9c-1.1,2.6-3.4,6.5-6.3,10.9h-27c-2.7,0-4.1,1.9-4.1,3.8c0,1.9,1.3,3.8,4.1,3.8h21.8
	c-5.6,8-11.7,16.2-14.9,20.5h-0.9c-2.7,0-4.1,2.4-4.1,4.3s1.3,4.3,4.1,4.3h28.9v12.5h-36.8c-2.6,0-4,2-4,3.9c0,2,1.4,4,4,4h36.8
	v12.4c0,4.1,3.5,6,6.4,6s6.4-2,6.4-6v-12.4h31c2.7,0,4.1-2,4.1-4c0-1.9-1.4-3.9-4.1-3.9H787.2z"/>
<path class="st0" d="M819.6,464.9c0-5.6-3.4-9.8-13.6-12.3c-6.3-1.5-9.8-2.4-9.8-6.4c0-3.1,2.5-5.9,7.5-5.9c4.1,0,7.2,1.7,8.8,3.7
	c0.6,0.7,1.3,1.1,2,1.1c1.3,0,2.5-1,2.5-2.4c0-2.8-6.3-6.7-12.7-6.7c-8.1,0-14.7,4-14.7,11.6c0,5.3,3.4,9,12.5,11.1
	c7.4,1.7,10.4,3.9,10.4,7.3c0,2.9-3.1,6.2-8.8,6.2c-4.9,0-8.6-2.1-10.3-4.4c-0.6-0.8-1.3-1.1-1.9-1.1c-1.3,0-2.3,1.2-2.3,2.5
	c0,2.5,6.1,7.9,15,7.9S819.6,472.4,819.6,464.9 M784.1,471.7h-18.7c-1.1,0-1.8-0.8-1.8-1.8v-12.3H781c1.6,0,2.3-1.1,2.3-2.2
	c0-1.1-0.7-2.2-2.3-2.2h-17.3v-9.9c0-0.9,0.7-1.7,1.6-1.7h17.3c1.5,0,2.3-1.1,2.3-2.2c0-1.2-0.8-2.3-2.4-2.3h-20.4
	c-2.9,0-5.4,1.9-5.4,5v29.3c0,2.7,1.9,5,5.4,5H784c1.5,0,2.3-1.1,2.3-2.2C786.3,472.9,785.5,471.7,784.1,471.7 M743.5,456.1
	c0,10.4-5.4,15.9-14,15.9l-4.4,0c-1.3,0-2.1-0.8-2.1-1.9v-27.3c0-1,0.7-1.9,1.7-1.9h4.2C738.2,441,743.5,444.9,743.5,456.1
	 M751,455.9c0-14.1-9.5-19-22-19h-7.7c-2.6,0-5.4,1.7-5.4,5.1v29.2c0,3.1,2.4,5,5.5,5h7.7C741.7,476.3,751,471.1,751,455.9
	 M708.3,473.1v-33c0-2.4-1.8-3.6-3.6-3.6c-1.7,0-3.5,1.2-3.5,3.6v33c0,2.4,1.8,3.6,3.6,3.6C706.5,476.7,708.3,475.5,708.3,473.1
	 M693.7,458.6V439c0-1.6-1.4-2.5-2.7-2.5c-1.3,0-2.6,0.8-2.6,2.5v19.5c0,7-2.5,13.8-10,13.8c-7.1,0-10.8-3.7-10.8-13.3v-18.9
	c0-2.4-1.8-3.6-3.6-3.6c-1.8,0-3.6,1.2-3.6,3.6v19.3c0,10.5,4.5,17.7,17,17.7C687.5,477.2,693.7,471.8,693.7,458.6 M653.6,473.4
	v-13.1c0-2.5-2.1-5.2-5.4-5.2h-10.3c-1.5,0-2.3,1.2-2.3,2.3c0,1.1,0.7,2.1,2.1,2.1h7.6c0.6,0,1.4,0.7,1.4,1.6v8.6
	c0,2.8-5.6,3.4-7.2,3.4c-8.2,0-13.9-4.6-13.9-15.7c0-12,6.5-16.9,13.1-16.9c4.3,0,7.3,1.4,9.7,4.4c0.6,0.7,1.3,1.1,2,1.1
	c1.3,0,2.4-1,2.4-2.4c0-2.4-5.1-7.5-13.9-7.5c-10.9,0-20.7,7.2-20.7,21.8c0,12.6,8.3,19.4,19.5,19.4c5.1,0,8-1.1,9.6-1.8
	c0.8,0.8,2,1.2,3,1.2C652,476.6,653.6,475.6,653.6,473.4 M596.2,473.1v-33c0-2.4-1.8-3.6-3.6-3.6c-1.7,0-3.5,1.2-3.5,3.6v33
	c0,2.4,1.8,3.6,3.6,3.6C594.5,476.7,596.2,475.5,596.2,473.1 M581.6,473.1v-33c0-2.4-1.8-3.6-3.5-3.6s-3.5,1.2-3.5,3.6V453h-19.5
	v-12.8c0-2.4-1.8-3.5-3.5-3.5c-1.7,0-3.5,1.2-3.5,3.5v33c0,2.4,1.8,3.6,3.5,3.6s3.5-1.2,3.5-3.6v-15.6h19.5v15.6
	c0,2.4,1.8,3.6,3.5,3.6C579.8,476.7,581.6,475.5,581.6,473.1"/>
</svg>
