<?xml version="1.0" standalone="no"?>
<!DOCTYPE svg PUBLIC "-//W3C//DTD SVG 1.1//EN" "http://www.w3.org/Graphics/SVG/1.1/DTD/svg11.dtd" >
<svg xmlns="http://www.w3.org/2000/svg">
<metadata>Generated by IcoMoon</metadata>
<defs>
<font id="icomoon" horiz-adv-x="1024">
<font-face units-per-em="1024" ascent="960" descent="-64" />
<missing-glyph horiz-adv-x="1024" />
<glyph unicode="&#x20;" horiz-adv-x="512" d="" />
<glyph unicode="&#xe900;" glyph-name="ioc106" horiz-adv-x="1138" d="M568.889 305.778c-172.804 0-312.889 140.085-312.889 312.889s140.085 312.889 312.889 312.889c172.804 0 312.889-140.085 312.889-312.889s-140.085-312.889-312.889-312.889zM568.889 362.667c141.385 0 256 114.615 256 256s-114.615 256-256 256c-141.385 0-256-114.615-256-256s114.615-256 256-256zM739.556 192c10.683 0 30.77-1.913 57.039-7.751 44.164-9.814 88.332-27.482 129.454-54.896 52.845-35.23 96.89-84.169 129.398-149.185 7.025-14.051 24.111-19.746 38.162-12.721s19.746 24.111 12.721 38.162c-37.023 74.045-87.793 130.457-148.725 171.078-47.372 31.581-98.019 51.84-148.669 63.096-30.62 6.804-54.78 9.105-69.38 9.105-15.709 0-28.444-12.735-28.444-28.444s12.735-28.444 28.444-28.444zM398.228 192c-10.683 0-30.77-1.913-57.039-7.751-44.164-9.814-88.332-27.482-129.454-54.896-52.845-35.23-96.89-84.169-129.398-149.185-7.025-14.051-24.111-19.746-38.162-12.721s-19.746 24.111-12.721 38.162c37.023 74.045 87.793 130.457 148.725 171.078 47.372 31.581 98.019 51.84 148.669 63.096 30.62 6.804 54.78 9.105 69.38 9.105 15.709 0 28.444-12.735 28.444-28.444s-12.735-28.444-28.444-28.444z" />
<glyph unicode="&#xe901;" glyph-name="ioc107" horiz-adv-x="939" d="M506.253 410.235c98.87 0 180.406-94.759 180.406-213.109v-90.593c0-59.444-40.431-106.447-88.589-106.447h-436.678c-48.158 0-88.589 47.003-88.589 106.447v90.593c0 118.349 81.536 213.109 180.406 213.109 11.782 0 21.333 9.551 21.333 21.333s-9.551 21.333-21.333 21.333c-123.977 0-223.073-115.167-223.073-255.775v-90.593c0-81.702 57.987-149.114 131.256-149.114h436.678c73.269 0 131.256 67.412 131.256 149.114v90.593c0 140.609-99.096 255.775-223.073 255.775-11.782 0-21.333-9.551-21.333-21.333s9.551-21.333 21.333-21.333zM585.898 631.606c0 114.772-92.336 207.761-206.17 207.761s-206.17-92.989-206.17-207.761c0-114.788 92.327-207.761 206.17-207.761s206.17 92.973 206.17 207.761zM628.565 631.606c0-138.285-111.363-250.427-248.836-250.427s-248.836 112.142-248.836 250.427c0 138.269 111.371 250.427 248.836 250.427s248.836-112.159 248.836-250.427zM472.592 588.791c-14.145-39.008-51.032-65.463-92.832-65.463-41.867 0-78.813 26.543-92.89 65.62-3.993 11.085-16.216 16.834-27.301 12.84s-16.834-16.216-12.84-27.301c20.114-55.835 72.995-93.826 133.032-93.826 59.941 0 112.738 37.866 132.943 93.585 4.016 11.076-1.707 23.311-12.783 27.328s-23.311-1.707-27.328-12.783zM686.668 480.629c98.87 0 180.406-94.759 180.406-213.109v-90.593c0-59.444-40.431-106.447-88.589-106.447-11.782 0-21.333-9.551-21.333-21.333s9.551-21.333 21.333-21.333c73.269 0 131.256 67.412 131.256 149.114v90.593c0 140.609-99.096 255.775-223.073 255.775-11.782 0-21.333-9.551-21.333-21.333s9.551-21.333 21.333-21.333zM545.961 886.857c113.837 0 206.17-92.993 206.17-207.786 0-63.030-28.023-121.427-75.439-160.672-9.077-7.512-10.345-20.96-2.833-30.037s20.96-10.345 30.037-2.833c57.119 47.275 90.902 117.675 90.902 193.541 0 138.29-111.367 250.452-248.836 250.452-11.782 0-21.333-9.551-21.333-21.333s9.551-21.333 21.333-21.333z" />
<glyph unicode="&#xe902;" glyph-name="ioc108" d="M93.091 820.364c-25.706 0-46.545-20.839-46.545-46.545v-744.727c0-25.706 20.839-46.545 46.545-46.545h837.818c25.706 0 46.545 20.839 46.545 46.545v744.727c0 25.706-20.839 46.545-46.545 46.545h-837.818zM93.091 866.909h837.818c51.413 0 93.091-41.678 93.091-93.091v-744.727c0-51.413-41.678-93.091-93.091-93.091h-837.818c-51.413 0-93.091 41.678-93.091 93.091v744.727c0 51.413 41.678 93.091 93.091 93.091zM256 960h23.273v-139.636h-46.545v-93.091 139.636h46.545v93.091h-23.273zM232.727 960h46.545v-232.727h-46.545v232.727zM768 960h23.273v-139.636h-46.545v-93.091 139.636h46.545v93.091h-23.273zM744.727 960h46.545v-232.727h-46.545v232.727zM186.182 448l93.091 93.091v-93.091l-93.091 93.091h93.091l-93.091-93.091v93.091l93.091-93.091h-93.091zM186.182 541.091h93.091v-93.091h-93.091v93.091zM186.182 541.091h93.091v-93.091h-93.091v93.091zM465.455 448l93.091 93.091v-93.091l-93.091 93.091h93.091l-93.091-93.091v93.091l93.091-93.091h-93.091zM465.455 541.091h93.091v-93.091h-93.091v93.091zM465.455 541.091h93.091v-93.091h-93.091v93.091zM744.727 448l93.091 93.091v-93.091l-93.091 93.091h93.091l-93.091-93.091v93.091l93.091-93.091h-93.091zM744.727 541.091h93.091v-93.091h-93.091v93.091zM744.727 541.091h93.091v-93.091h-93.091v93.091zM186.182 168.727l93.091 93.091v-93.091l-93.091 93.091h93.091l-93.091-93.091v93.091l93.091-93.091h-93.091zM186.182 261.818h93.091v-93.091h-93.091v93.091zM186.182 261.818h93.091v-93.091h-93.091v93.091zM465.455 168.727l93.091 93.091v-93.091l-93.091 93.091h93.091l-93.091-93.091v93.091l93.091-93.091h-93.091zM465.455 261.818h93.091v-93.091h-93.091v93.091zM465.455 261.818h93.091v-93.091h-93.091v93.091zM744.727 168.727l93.091 93.091v-93.091l-93.091 93.091h93.091l-93.091-93.091v93.091l93.091-93.091h-93.091zM744.727 261.818h93.091v-93.091h-93.091v93.091zM744.727 261.818h93.091v-93.091h-93.091v93.091z" />
<glyph unicode="&#xe903;" glyph-name="ioc109" horiz-adv-x="1117" d="M467.504 554.080c20.327 36.435 34.141 72.617 41.231 107.627 2.174 10.627 3.266 19.855 3.266 26.175 0 124.083-104.009 225.573-232.319 225.573-128.794 0-233.135-101.518-233.135-225.573 0-9.514 0.836-18.391 2.437-26.275 6.832-33.768 20.837-70.003 41.746-107.465l188.828-336.651 187.947 336.59zM279.681 960c153.761 0 278.865-122.066 278.865-272.118 0-9.704-1.436-21.946-4.21-35.505-8.062-39.81-23.598-80.488-46.184-120.974l-228.503-409.222-229.515 409.189c-23.206 41.578-38.938 82.288-46.771 121.006-2.252 11.085-3.362 23.070-3.362 35.505 0 150.052 125.463 272.118 279.681 272.118zM279.273 820.364c77.007 0 139.636-62.629 139.636-139.636 0-76.976-62.629-139.636-139.636-139.636s-139.636 62.66-139.636 139.636c0 77.007 62.629 139.636 139.636 139.636zM279.273 773.818c-51.338 0-93.091-41.753-93.091-93.091 0-51.318 41.753-93.091 93.091-93.091s93.091 41.773 93.091 93.091c0 51.338-41.753 93.091-93.091 93.091zM963.888-40.728h-676.027v40.421h676.027c56.84 0 109.15 57.070 109.15 119.793 0 65.136-47.254 119.793-102.512 119.793h-209.106c-78.94 0-145.214 73.512-145.214 160.214 0 86.685 65.609 160.214 143.804 160.214h212.645v-40.421h-212.645c-56.713 0-105.126-54.701-105.126-119.793 0-63.921 50.066-119.793 106.539-119.793l212.877-0.066c75.285-2.264 137.417-75.101 137.417-160.148 0-85.28-68.84-160.214-147.828-160.214zM1024 541.091c0-25.71-20.836-46.545-46.545-46.545s-46.545 20.836-46.545 46.545c0 25.71 20.836 46.545 46.545 46.545s46.545-20.836 46.545-46.545zM325.818-17.455c0-25.71-20.836-46.545-46.545-46.545s-46.545 20.836-46.545 46.545c0 25.71 20.836 46.545 46.545 46.545s46.545-20.836 46.545-46.545z" />
<glyph unicode="&#xe904;" glyph-name="ioc110" horiz-adv-x="1138" d="M113.778 704h910.222c47.128 0 85.333-38.205 85.333-85.333v-568.889c0-47.128-38.205-85.333-85.333-85.333h-910.222c-47.128 0-85.333 38.205-85.333 85.333v568.889c0 47.128 38.205 85.333 85.333 85.333zM113.778 647.111c-15.709 0-28.444-12.735-28.444-28.444v-568.889c0-15.709 12.735-28.444 28.444-28.444h910.222c15.709 0 28.444 12.735 28.444 28.444v568.889c0 15.709-12.735 28.444-28.444 28.444h-910.222zM366.617 931.556h404.543c47.128 0 85.333-38.205 85.333-85.333v-113.778c0-47.128-38.205-85.333-85.333-85.333h-404.543c-47.128 0-85.333 38.205-85.333 85.333v113.778c0 47.128 38.205 85.333 85.333 85.333zM366.617 874.667c-15.709 0-28.444-12.735-28.444-28.444v-113.778c0-15.709 12.735-28.444 28.444-28.444h404.543c15.709 0 28.444 12.735 28.444 28.444v113.778c0 15.709-12.735 28.444-28.444 28.444h-404.543zM256 533.333v-398.222h56.889v398.222zM824.889 533.333v-402.181h56.889v402.181z" />
<glyph unicode="&#xe905;" glyph-name="ioc111" horiz-adv-x="1807" d="M249.005 942.925c-12.899 0-25.906-3.742-37.076-11.504l-87.829-61.073c-13.319-9.274-22.214-23.155-24.707-38.607-1.402-8.936-0.608-17.946 2.197-26.384-29.707-29.392-60.599-59.869-69.042-68.057-31.032-24.579-41.251-65.167-24.676-100.648 109.311-233.3 320.145-502.316 524.623-669.451 13.179-10.756 29.178-17.682 46.329-20.118 4.471-0.631 8.973-0.954 13.475-0.954 17.588 0 35.051 4.784 49.865 13.764 10.188 5.033 50.161 24.271 88.686 42.804 7.805-4.96 16.606-8.144 25.719-9.435 3.084-0.44 6.216-0.66 9.347-0.66 12.883 0 25.906 3.742 37.076 11.504l87.814 61.073c13.335 9.259 22.23 23.141 24.691 38.578s-1.682 31.182-11.528 43.743l-181.017 231.025c-9.845 12.561-24.598 20.925-41.002 23.258-3.084 0.426-6.185 0.646-9.285 0.646-13.273 0-26.311-3.977-37.138-11.504l-87.845-61.058c-13.335-9.289-22.199-23.17-24.66-38.622-1.028-6.412-0.919-12.825 0.265-19.061l-5.468-3.83c-70.397 76.48-152.712 181.618-209.494 267.534l5.359 3.742c6.091-2.964 12.603-4.901 19.286-5.855 3.084-0.44 6.216-0.66 9.331-0.66 12.883 0 25.906 3.742 37.076 11.504l87.86 61.058c13.319 9.259 22.199 23.155 24.66 38.592 2.461 15.452-1.667 31.167-11.497 43.743l-181.080 231.011c-10.235 13.074-25.159 20.998-40.97 23.243-3.1 0.44-6.231 0.66-9.347 0.66zM249.005 891.567c0.389 0 0.81-0.029 1.215-0.088 1.495-0.22 3.63-0.895 5.25-2.964l181.033-230.967c1.277-1.629 1.791-3.624 1.48-5.635-0.327-1.996-1.433-3.742-3.116-4.916l-87.876-61.058c-1.402-0.983-2.96-1.467-4.689-1.467-0.405 0-0.81 0.029-1.215 0.088-0.888 0.117-1.714 0.367-2.446 0.719l-30.097 14.6-73.139-50.845 26.623-40.294c58.215-88.073 142.446-195.647 214.588-274.020l33.072-35.936 73.248 51.094-5.966 31.358c-0.156 0.778-0.171 1.555-0.031 2.348 0.312 2.010 1.449 3.771 3.116 4.945l87.876 61.073c1.355 0.954 3.038 1.467 4.736 1.467 0.389 0 0.779-0.029 1.168-0.073 2.087-0.293 3.988-1.394 5.234-2.964l181.049-231.025c1.246-1.614 1.791-3.639 1.464-5.591-0.296-1.952-1.464-3.742-3.147-4.916l-87.845-61.058c-1.386-0.983-2.975-1.482-4.673-1.482-0.405 0-0.81 0.029-1.215 0.088-1.215 0.176-2.352 0.587-3.318 1.203l-26.654 16.963-28.664-13.779c-38.244-18.386-78.763-37.888-89.231-43.068l-2.134-1.057-2.025-1.233c-5.951-3.595-13.195-5.591-20.376-5.591-1.807 0-3.599 0.132-5.359 0.382-6.932 0.983-13.413 3.786-18.709 8.115-198.963 162.63-404.111 424.412-510.447 651.358-6.699 14.336-2.726 30.668 9.861 40.661l2.087 1.643 1.901 1.849c9.175 8.863 42.824 42.114 69.432 68.439l22.152 21.893-9.596 28.863c-0.358 1.145-0.467 2.274-0.312 3.39 0.327 1.966 1.48 3.757 3.178 4.945l87.829 61.058c1.402 0.983 2.975 1.482 4.689 1.482zM1205.43 488.322h-152.494l-1.371-1.291c24.13-18.856 50.535-34.733 78.763-48.013 31.39 14.571 56.439 31.285 75.102 49.304v0zM1029.273 270.078h195.723v60.031h-195.723v-60.031zM1256.869 223.767h-31.873v18.445h-195.739v-18.445h-31.857v134.207h259.469v-134.207zM1307.84 505.050h-33.228v53.163h-303.165v-53.163h-33.212v81.029h166.592c-5.468 11.152-10.92 21.013-16.84 30.023l35.97 5.151c5.452-10.316 10.453-22.304 15.921-35.173h167.963v-81.029zM1097.536 542.777c-6.823-9.861-13.646-19.296-20.937-28.306h167.979v-24.858c-18.678-24.447-45.519-45.885-80.57-64.756 49.601-18.43 105.152-29.583 166.592-33.867l-7.275-27.866c-72.828 5.136-137.025 20.147-193.464 45.87-53.713-23.141-121.525-41.16-203.465-54.455l-12.291 27.44c73.279 11.152 134.283 25.312 182.529 43.303-23.227 12.869-44.616 27.44-64.182 43.743-17.743-15.011-36.873-28.291-56.907-40.309l-20.937 24.006c45.067 24.447 81.941 56.612 111.072 96.481l31.857-6.427zM1694.33 325.391c16.84 25.723 29.131 55.306 37.325 89.173h-86.49c9.565-33.016 25.953-62.584 49.164-89.173v0zM1606.017 224.625h-30.954v375.592h184.367c0-53.163-2.742-88.307-8.21-105.461-5.452-17.579-22.292-26.589-50.972-26.589h-36.873l-8.646 26.589c7.727 0 17.759-0.426 30.502-0.426 10.92 0 18.647 0.851 24.115 2.128 5.452 1.717 9.565 6.002 12.291 12.443 3.194 9.421 5.001 30.448 5.92 63.039h-121.54v-129.937h154.784v-26.149c-8.661-44.168-23.679-81.895-44.631-112.769 20.501-18.871 44.631-35.584 72.391-50.595l-16.388-26.149c-29.131 15.862-53.713 33.427-74.666 52.738-20.018-21.864-43.229-39.458-70.538-53.163l-17.307 24.858c25.938 13.295 47.794 30.023 66.004 50.595-29.131 33.456-48.697 71.183-58.729 113.194h-10.92v-189.938zM1433.505 399.993h73.279v71.608h-73.279v-71.608zM1433.505 499.481h73.279v72.46h-73.279v-72.46zM1400.714 224.2l-24.567 21.424c18.211 38.592 27.308 88.337 27.76 148.367v205.816h132.928v-334.461c0-25.723-12.758-39.003-38.229-39.003h-36.422l-7.742 27.44c12.743-0.851 24.115-1.717 35.051-1.717 11.372 0 17.292 7.704 17.292 23.155v96.906h-73.731c-2.742-60.031-13.662-109.35-32.34-147.927v0zM770.238 960.006c-101.741 0-195.567-31.886-270.919-85.563l32.496-41.454c66.316 47.426 148.927 75.658 238.423 75.658 143.022 0 268.504-71.946 337.858-179.447h62.453c-74.463 136.98-225.711 230.805-400.31 230.805z" />
<glyph unicode="&#xe906;" glyph-name="hi-logo" horiz-adv-x="1365" d="M719.147 508.993c-7.253 0-13.227-5.973-13.227-13.227v-5.12h-36.693v42.027c0 7.253-5.973 13.227-13.227 13.227s-13.227-5.973-13.227-13.227v-89.813c0-7.253 5.973-13.227 13.227-13.227s13.227 5.973 13.227 13.227v21.333h36.693v-21.333c0-7.253 5.973-13.227 13.227-13.227s13.227 5.973 13.227 13.227v52.907c0 7.253-5.973 13.227-13.227 13.227zM719.147 518.167c8.107 0 14.507 6.613 14.507 14.507 0 8.107-6.613 14.507-14.507 14.507s-14.507-6.613-14.507-14.507c-0.213-8.107 6.4-14.507 14.507-14.507zM646.4 380.567c0-0.853-0.64-1.707-2.133-1.707h-26.667c-1.28 0-2.133 0.853-2.133 1.707v2.773h30.933v-2.773zM646.4 387.607h-30.933v2.56c0 0.853 0.853 1.707 2.133 1.707h26.667c1.493 0 2.133-0.64 2.133-1.707v-2.56zM653.653 379.713v11.307c0 2.56-2.347 5.12-6.187 5.12h-16.64c1.067 1.493 1.28 1.92 1.28 2.347 0 1.493-1.92 2.56-4.053 2.56-1.707 0-3.2-0.64-3.84-2.347-0.427-0.853-0.64-1.92-1.067-2.56h-8.533c-4.053 0-6.187-2.56-6.187-5.12v-11.307c0-2.773 2.133-5.12 6.187-5.12h32.853c4.053 0 6.187 2.347 6.187 5.12zM658.133 350.273c0 1.28-0.853 2.347-2.347 2.347h-20.907v5.12h16.427c1.493 0 2.347 1.067 2.347 2.347 0 1.067-0.853 2.347-2.347 2.347h-16.427v4.48h18.773c1.493 0 2.347 1.067 2.347 2.347 0 1.067-0.64 2.347-2.347 2.347h-45.013c-1.493 0-2.347-1.067-2.347-2.347 0-1.067 0.64-2.347 2.347-2.347h18.773v-4.48h-16.427c-1.493 0-2.347-1.067-2.347-2.347 0-1.067 0.853-2.347 2.347-2.347h16.427v-5.12h-21.12c-1.493 0-2.347-1.28-2.347-2.347 0-1.28 0.64-2.347 2.347-2.347h49.707c1.28-0.213 2.133 1.067 2.133 2.347zM714.88 361.153v0.213c0 1.707-1.28 2.56-2.56 2.56-1.067 0-2.347-0.64-2.56-2.133-0.64-5.333-1.92-7.040-5.76-7.467-4.693-0.427-10.24-0.64-15.36-0.64-11.947 0-13.013 0.427-13.013 3.2v9.6c0 0.853 0.853 1.707 1.707 1.707h13.013c3.413 0 5.333 2.347 5.333 5.547v7.253c0 3.2-2.133 5.333-5.333 5.333h-15.147c1.067 1.493 1.92 2.987 2.56 4.693h22.4c1.067 0 1.92-0.64 1.92-1.707 0-21.76-1.707-24.747-6.827-24.747-1.067 0-2.56 0.213-3.84 0.427-0.213 0-0.64 0.213-0.853 0.213-1.28 0-2.133-1.067-2.133-2.133s0.64-1.92 1.92-2.347c2.773-0.853 5.12-1.28 7.040-1.28 10.027 0 11.733 7.68 11.733 30.293 0 3.413-2.347 5.76-5.973 5.76h-23.467c0.213 0.64 0.213 1.067 0.213 1.707 0 2.347-2.133 3.84-4.267 3.84-1.707 0-3.2-0.853-3.84-2.773-2.56-8.96-6.4-15.147-10.453-20.053-0.64-0.64-0.853-1.28-0.853-1.92 0-1.28 1.067-2.133 2.347-2.133 0.64 0 1.493 0.213 2.347 1.067 2.56 2.347 5.12 4.907 7.467 8.107 0.427-0.64 1.067-1.067 2.133-1.067h12.16c0.853 0 1.493-0.853 1.493-1.493v-5.973c0-0.853-0.64-1.493-1.493-1.493h-11.52c0 2.347-1.92 3.413-3.627 3.413-1.92 0-3.627-1.067-3.627-3.413v-6.187c0-0.213 0-0.427 0-0.853v-9.813c0-9.387 5.76-9.6 20.48-9.6 5.76 0 12.16 0.213 17.067 0.853 5.333 0.853 8.533 3.2 9.173 13.44zM751.36 362.22v7.68h14.293c1.707 0 2.56 1.493 2.56 2.56s-0.853 2.56-2.56 2.56h-14.293v6.827c0 2.347-2.133 3.413-3.84 3.413s-3.84-1.067-3.84-3.413v-6.613h-10.667c2.56 2.56 7.253 7.68 11.307 12.373h23.68c1.707 0 2.56 1.067 2.56 2.347 0 1.067-0.853 2.347-2.56 2.347h-19.84c1.92 2.56 3.2 4.48 3.2 5.333 0 2.133-2.56 3.627-4.907 3.627-1.493 0-3.2-0.64-3.84-2.347-0.64-1.493-2.133-4.053-3.84-6.613h-16.427c-1.707 0-2.56-1.067-2.56-2.347 0-1.067 0.853-2.347 2.56-2.347h13.227c-3.413-4.907-7.253-9.813-9.173-12.373h-0.64c-1.707 0-2.56-1.493-2.56-2.56s0.853-2.56 2.56-2.56h17.707v-7.68h-22.4c-1.707 0-2.56-1.28-2.56-2.347 0-1.28 0.853-2.347 2.56-2.347h22.4v-7.68c0-2.56 2.133-3.627 3.84-3.627s3.84 1.28 3.84 3.627v7.68h18.987c1.707 0 2.56 1.28 2.56 2.347s-0.853 2.347-2.56 2.347h-18.773zM770.987 311.233c0 3.413-2.133 5.973-8.32 7.467-3.84 0.853-5.973 1.493-5.973 3.84 0 1.92 1.493 3.627 4.48 3.627 2.56 0 4.48-1.067 5.333-2.347 0.427-0.427 0.853-0.64 1.28-0.64 0.853 0 1.493 0.64 1.493 1.493 0 1.707-3.84 4.053-7.68 4.053-4.907 0-8.96-2.347-8.96-7.040 0-3.2 2.133-5.547 7.68-6.827 4.48-1.067 6.4-2.347 6.4-4.48 0-1.707-1.92-3.84-5.333-3.84-2.987 0-5.333 1.28-6.187 2.773-0.427 0.427-0.853 0.64-1.067 0.64-0.853 0-1.493-0.64-1.493-1.493 0-1.493 3.627-4.907 9.173-4.907 5.12 0.213 9.173 3.2 9.173 7.68zM749.44 307.18h-11.307c-0.64 0-1.067 0.427-1.067 1.067v7.467h10.453c1.067 0 1.493 0.64 1.493 1.28s-0.427 1.28-1.493 1.28h-10.453v5.973c0 0.64 0.427 1.067 1.067 1.067h10.453c0.853 0 1.493 0.64 1.493 1.28s-0.427 1.493-1.493 1.493h-12.587c-1.707 0-3.2-1.067-3.2-2.987v-17.92c0-1.707 1.067-2.987 3.2-2.987h13.44c0.853 0 1.493 0.64 1.493 1.28-0.213 1.067-0.64 1.707-1.493 1.707zM724.693 316.78c0-6.4-3.2-9.813-8.533-9.813h-2.773c-0.853 0-1.28 0.427-1.28 1.067v16.64c0 0.64 0.427 1.067 1.067 1.067h2.56c5.76 0.213 8.96-2.347 8.96-8.96zM729.173 316.78c0 8.533-5.76 11.52-13.44 11.52h-4.693c-1.493 0-3.2-1.067-3.2-3.2v-17.707c0-1.92 1.493-2.987 3.413-2.987h4.693c7.68 0 13.227 3.2 13.227 12.373zM703.147 306.327v20.053c0 1.493-1.067 2.133-2.133 2.133s-2.133-0.64-2.133-2.133v-20.053c0-1.493 1.067-2.133 2.133-2.133s2.133 0.64 2.133 2.133zM694.187 315.073v11.947c0 1.067-0.853 1.493-1.707 1.493s-1.493-0.427-1.493-1.493v-11.947c0-4.267-1.493-8.32-6.187-8.32-4.267 0-6.613 2.347-6.613 8.107v11.52c0 1.493-1.067 2.133-2.133 2.133s-2.133-0.64-2.133-2.133v-11.733c0-6.4 2.773-10.88 10.453-10.88 6.187 0 9.813 3.413 9.813 11.307zM669.867 306.113v8.107c0 1.493-1.28 3.2-3.2 3.2h-6.187c-0.853 0-1.493-0.64-1.493-1.493 0-0.64 0.427-1.28 1.28-1.28h4.693c0.427 0 0.853-0.427 0.853-1.067v-5.333c0-1.707-3.413-2.133-4.48-2.133-4.907 0-8.533 2.773-8.533 9.6 0 7.253 4.053 10.24 7.893 10.24 2.56 0 4.48-0.853 5.973-2.773 0.427-0.427 0.853-0.64 1.28-0.64 0.853 0 1.493 0.64 1.493 1.493 0 1.493-3.2 4.48-8.533 4.48-6.613 0-12.587-4.48-12.587-13.227 0-7.68 5.12-11.947 11.947-11.947 3.2 0 4.907 0.64 5.76 1.067 0.427-0.427 1.28-0.64 1.92-0.64 0.853 0.427 1.92 1.067 1.92 2.347zM634.88 306.327v20.053c0 1.493-1.067 2.133-2.133 2.133s-2.133-0.64-2.133-2.133v-20.053c0-1.493 1.067-2.133 2.133-2.133s2.133 0.64 2.133 2.133zM625.92 306.327v20.053c0 1.493-1.067 2.133-2.133 2.133s-2.133-0.64-2.133-2.133v-7.893h-11.947v7.893c0 1.493-1.067 2.133-2.133 2.133s-2.133-0.64-2.133-2.133v-20.053c0-1.493 1.067-2.133 2.133-2.133s2.133 0.64 2.133 2.133v9.6h11.947v-9.6c0-1.493 1.067-2.133 2.133-2.133s2.133 0.64 2.133 2.133z" />
<glyph unicode="&#xe907;" glyph-name="ioc-logo" d="M574.874 506.86c16.282 0 29.491 13.21 29.491 29.491s-13.21 29.491-29.491 29.491c-16.282 0-29.491-13.21-29.491-29.491s13.21-29.491 29.491-29.491zM574.874 488.53v0c-14.746 0-26.624-11.981-26.624-26.726v-8.704h-74.138v80.998c0 14.746-11.981 26.726-26.726 26.726s-26.726-11.981-26.726-26.726v-177.869c0-14.746 11.981-26.726 26.726-26.726s26.726 11.981 26.726 26.726v43.418h74.138v-43.418c0-14.746 11.878-26.726 26.624-26.726v0c14.746 0 26.726 11.981 26.726 26.726v105.574c0 14.746-11.878 26.726-26.726 26.726z" />
<glyph unicode="&#xe908;" glyph-name="ioc1" d="M927.143 35.717c9.829-9.829 9.829-25.7 0-35.528-8.528-8.559-21.41-9.209-31.154-2.969l-0.224-0.223-1.216 1.159c-0.961 0.761-2.091 1.098-2.991 2.032-0.879 0.875-1.271 2.029-1.98 2.966l-190.95 190.979c-152.909-114.639-370.526-102.835-509.595 36.235-152.426 152.46-152.426 399.672 0 552.131 152.459 152.457 399.645 152.457 552.131 0 152.455-152.459 152.455-399.671 0-552.131-1.78-1.773-3.728-3.244-5.507-5.024l186.010-186.008c1.86-1.019 3.869-1.98 5.476-3.618v0zM713.681 754.738c-136.925 136.894-358.859 136.894-495.753 0-136.898-136.899-136.898-358.835 0-495.728 136.894-136.868 358.828-136.868 495.753 0 136.868 136.925 136.868 358.859 0 495.728v0z" />
<glyph unicode="&#xe909;" glyph-name="ioc2" horiz-adv-x="1092" d="M536.387 880.313c131.36 0 238.272-106.912 238.272-238.272s-106.912-238.272-238.272-238.272-238.272 106.912-238.272 238.272c0 131.36 106.912 238.272 238.272 238.272zM536.387 923.613c-155.564 0-281.573-126.008-281.573-281.573s126.008-281.573 281.573-281.573 281.573 126.008 281.573 281.573-126.13 281.573-281.573 281.573v0 0zM536.387 360.467c180.255 0 338.739-109.102 403.689-277.924l0.973-2.554 1.338-2.433c3.649-6.811 5.473-13.623 5.473-20.312 0-23.839-19.461-43.3-43.3-43.3h-736.468c-23.839 0-43.3 19.461-43.3 43.3 0 6.69 1.824 13.501 5.473 20.312l1.338 2.433 0.973 2.554c65.072 168.822 223.555 277.924 403.81 277.924zM536.387 403.768c-202.878 0-375.349-126.981-444.191-305.655-6.568-12.285-10.703-26.029-10.703-40.868 0-47.8 38.8-86.6 86.6-86.6h736.468c47.8 0 86.6 38.8 86.6 86.6 0 14.839-4.135 28.705-10.703 40.868-68.721 178.674-241.313 305.655-444.070 305.655v0 0z" />
<glyph unicode="&#xe90a;" glyph-name="ioc3" horiz-adv-x="1430" d="M1226.217 764.503c-69.733-45.298-98.652-77.52-139.976-75.64-41.297 1.853-112.373 45.916-141.667 58.536-46.184 19.843-112.050 34.719-152.435 8.378-32.114-23.387-4.592-62.51 7.33-77.171s69.625-58.536 86.676-80.070c9.747-12.352 10.606-30.208-9.156-33.027-38.236-10.848-66.054-2.497-91.214 2.9-25.186 5.37-51.366 24.596-91.939 21.937-50.937-3.356-33.591-47.607-33.591-47.607s42.156-126.416 155.576-155.039c99.054-24.972 553.673 205.197 603.617 289.215 48.279 81.145-94.866 151.522-193.222 87.589v0zM1304.918 651.942c-52.333-38.478-190-111.245-345.764-175.446-51.769-21.32-97.014-35.605-128.376-26.824-34.665 9.693-71.183 31.711-83.293 59.905-5.263 12.271-3.061 19.333 13.748 12.271 21.132-8.861 39.257-11.116 63.557-14.124 28.301-3.491 55.206 0 55.206 0 45.781 6.847 52.279 17.99 62.913 30.798 12.405 14.983 14.741 35.846 6.901 63.396-8.619 30.315-48.252 58.509-48.252 58.509s-61.785 36.84-37.404 50.534c20.702 11.627 66.994-16.621 96.289-34.531 19.064-11.627 76.929-37.27 105.74-41.217 53.004-7.25 99.565 16.97 163.229 67.316 44.573 35.256 184.468 29.483 75.506-50.588v0zM1176.408 417.799c-16.594 0-30.020-13.479-30.020-30.1-29.456-220.932-222.221-391.518-450.725-391.518-170.667 0-319.181 95.080-395.707 235.298 203.022 43.794 317.758 105.525 333.896 126.12 9.237 9.371 9.21 63.987-58.402 30.127-89.146-44.681-203.345-81.171-300.519-102.115-19.36 50.373-30.020 105.123-30.020 162.343 0 249.502 201.841 451.773 450.725 451.773 101.283 0 205.332-36.357 281.562-98.544 0 0 13.211-11.251 26.905-10.902 16.701 0.43 27.737 12.244 27.737 28.946 0 7.545-2.766 14.419-7.33 19.709 0.188 0.161-1.611 1.826-2.551 2.605-0.725 0.671-1.477 1.289-2.256 1.88-88.233 72.713-200.955 116.561-324.068 116.561-282.126 0-510.845-229.229-510.845-512.027 0-60.952 10.66-119.408 30.154-173.62-21.884-3.464-42.183-5.854-60.174-7.089-69.491-4.726-120.696 3.222-60.12 90.355 37.458 53.864 48.574 75.855 30.073 90.355-19.709 10.606-35.981-7.277-35.981-7.277s-70.726-84.232-84.232-143.278c-5.907-28.811-26.959-99.645 120.213-90.355 39.445 2.47 77.359 6.954 113.5 12.808 83.695-168.277 257.074-283.872 457.411-283.872 255.329 0 470.837 186.133 508.724 431.446 2.094 13.238 2.094 13.238 2.094 20.326 0 16.567-13.426 30.047-30.047 30.047v0z" />
<glyph unicode="&#xe90b;" glyph-name="ioc4" horiz-adv-x="1113" d="M1012.453 859.902c-64.563 64.557-150.514 100.078-242.048 100.078s-177.525-35.557-242.083-100.12l-238.923-238.884c-15.415-15.42-15.415-40.553 0-55.973 7.499-7.457 17.409-11.591 27.987-11.591s20.531 4.097 27.987 11.591l238.884 238.882c49.613 49.613 115.737 76.976 186.114 76.976s136.458-27.326 186.071-76.934c102.616-102.622 102.616-269.563 0-372.22l-400.131-400.172-400.207 400.129c-102.622 102.616-102.622 269.606 0 372.185 49.53 49.53 115.261 76.815 185.094 76.815 12.61 0 25.41-0.9 38.018-2.694 1.877-0.273 3.746-0.393 5.623-0.393 19.553 0 36.379 14.641 39.148 34.040 3.043 21.625-12.061 41.685-33.645 44.734-15.926 2.299-32.126 3.431-48.244 3.431-36.188 0-71.745-5.538-105.742-16.51-51.722-16.707-97.583-44.771-136.267-83.414-133.457-133.456-133.457-350.677 0.041-484.127l428.154-428.162c7.456-7.451 17.409-11.59 27.987-11.59s20.494 4.097 27.987 11.59l428.16 428.162c133.527 133.492 133.492 350.673 0.037 484.171v0z" />
<glyph unicode="&#xe90c;" glyph-name="ioc5" d="M767.309 189.873h-512.269v643.45h512.269v-643.45zM303.296 238.133h415.753v546.93h-415.753v-546.93zM553.84 110.417c0-21.801-17.682-39.46-39.478-39.46s-39.478 17.658-39.478 39.46 17.682 39.493 39.478 39.493c21.798 0 39.478-17.69 39.478-39.493zM765.696-19.246h-509.046c-45.241 0-82.047 36.825-82.047 82.047v768.912c0 45.232 36.806 82.038 82.047 82.038h509.046c45.235 0 82.047-36.807 82.047-82.038v-768.912c0-45.222-36.812-82.047-82.047-82.047v0zM256.65 865.492c-18.637 0-33.787-15.151-33.787-33.778v-768.912c0-18.632 15.155-33.787 33.787-33.787h509.046c18.637 0 33.787 15.155 33.787 33.787v768.911c0 18.627-15.151 33.778-33.787 33.778l-509.046 0.001z" />
<glyph unicode="&#xe90d;" glyph-name="ioc6" d="M716.8 755.18h-108.8v147.2h12.8c12.8 0 25.6 12.8 25.6 25.6s-12.8 32-25.6 32h-268.8c-12.8 0-25.6-12.8-25.6-25.6s12.8-25.6 25.6-25.6h12.8v-147.2h-115.2c-64-6.4-115.2-57.6-115.2-121.6v-518.4c0-64 51.2-115.2 115.2-115.2h6.4c0-38.4 32-70.4 70.4-70.4s70.4 32 70.4 70.4h192c0-38.4 32-70.4 70.4-70.4s70.4 32 70.4 70.4v0c64 0 115.2 51.2 115.2 115.2v518.4c-6.4 64-57.6 115.2-128 115.2zM416 902.38h134.4v-147.2h-134.4v147.2zM780.8 121.58c0-32-25.6-64-64-64h-25.6c-12.8 6.4-25.6 12.8-44.8 12.8s-32-6.4-44.8-12.8h-236.8c-12.8 6.4-25.6 12.8-44.8 12.8s-32-6.4-44.8-12.8h-25.6c-32 0-64 25.6-64 64v108.8h595.2v-108.8zM780.8 287.98h-595.2v179.2h595.2v-179.2zM780.8 518.38h-595.2v121.6c0 32 25.6 64 64 64h467.2c32 0 64-25.6 64-64v-121.6z" />
<glyph unicode="&#xe90e;" glyph-name="ioc7" d="M513.555 879.288c57.937 0 114.132-11.343 167.027-33.717 51.102-21.614 97.002-52.561 136.425-91.981 39.425-39.421 70.376-85.319 91.993-136.42 22.377-52.897 33.723-109.097 33.723-167.040 0-57.937-11.346-114.131-33.723-167.025-21.617-51.097-52.568-96.992-91.993-136.412-39.423-39.418-85.324-70.364-136.425-91.978-52.894-22.372-109.090-33.716-167.027-33.716-57.936 0-114.129 11.343-167.020 33.716-51.097 21.613-96.99 52.558-136.408 91.977s-70.362 85.313-91.975 136.412c-22.372 52.892-33.715 109.088-33.715 167.026 0 57.945 11.343 114.146 33.716 167.041 21.613 51.102 52.558 97 91.975 136.42s85.311 70.367 136.408 91.98c52.89 22.374 109.083 33.717 167.019 33.717zM513.555 899.754c-248.287 0-449.583-201.303-449.583-449.624 0-248.295 201.297-449.596 449.583-449.596 248.282 0 449.636 201.302 449.636 449.596 0 248.322-201.354 449.624-449.636 449.624v0zM509.92 181.854l243.907 240.584-40.733 39.305-243.83-240.822-23.629-62.563h296.94v7.522h-276.464l43.719 16.061zM372.046 391.612l36.835 36.782v18.473h18.418l36.808 36.779h-55.227v70.543h120.829v36.836h-96.015l85.42 119.836h-36.809l-85.419-119.836h-12.873l-85.394 119.836h-36.864l85.448-119.836h-96.015v-36.836h120.857v-70.543h-120.857v-36.779h120.857zM794.15 700.98l-534.067-534.055 17.018-16.991 534.041 534.028z" />
<glyph unicode="&#xe90f;" glyph-name="ioc8" d="M776.94 532.588c-2.9 7.1-7.1 13.6-12.5 19.1s-11.7 9.9-18.7 13c-7.3 3.2-15 4.8-23 4.8s-15.7-1.6-23-4.8c-7-3.1-13.3-7.4-18.7-13-5.3-5.5-9.5-11.9-12.5-19.1-3-7.4-4.6-15.2-4.6-23.3 0-6.6 1.1-13.2 3.1-19.4l-71.5-53.3-48.4 116.6c14.4 11.2 23.3 28.8 23.3 47.9 0 8.1-1.5 15.9-4.6 23.3-2.9 7.1-7.1 13.6-12.5 19.1s-11.7 9.9-18.7 13c-7.3 3.2-15 4.8-23 4.8s-15.7-1.6-23-4.8c-7-3.1-13.3-7.4-18.7-13-5.3-5.5-9.5-11.9-12.5-19.1-3-7.4-4.6-15.2-4.6-23.3 0-19.1 8.8-36.8 23.3-48l-48.3-116.6-71.6 53.4c2.1 6.2 3.1 12.7 3.1 19.4 0 8.1-1.5 15.9-4.6 23.3-2.9 7.1-7.1 13.6-12.5 19.1s-11.7 9.9-18.7 13c-7.3 3.2-15 4.8-23 4.8s-15.7-1.6-23-4.8c-7-3.1-13.3-7.4-18.7-13-5.3-5.5-9.5-11.9-12.5-19.1-3-7.4-4.6-15.2-4.6-23.3s1.5-15.9 4.6-23.3c2.9-7.1 7.1-13.6 12.5-19.1 5.4-5.6 11.7-9.9 18.7-13 6.4-2.8 13.2-4.4 20.1-4.7l38.9-190.8c1.3-6.6 7.2-11.4 13.9-11.4h321.9c6.7 0 12.6 4.7 13.9 11.4l38.9 190.8c6.9 0.3 13.7 1.9 20 4.7 7 3.1 13.3 7.4 18.7 13 5.3 5.5 9.5 11.9 12.5 19.1 3 7.4 4.6 15.2 4.6 23.3 0.6 8.1-1 15.9-4 23.3v0zM722.84 477.588c-1.9 0-3.8 0.2-5.7 0.6-7.7 1.5-15.1-3.4-16.7-11.1l-39.1-191.6h-298.7l-39.1 191.6c-1.6 7.7-9 12.6-16.7 11.1-1.9-0.4-3.8-0.6-5.8-0.6-16.7 0-30.3 14.2-30.3 31.7s13.6 31.7 30.3 31.7c16.7 0 30.3-14.2 30.3-31.7 0-5.9-1.6-11.7-4.5-16.7-3.7-6.2-2.1-14.3 3.7-18.6l95.3-71.1c3.5-2.6 8-3.5 12.3-2.3 4.2 1.2 7.7 4.2 9.3 8.2l60 144.7c2.9 7.1-0.3 15.3-7.3 18.4-11.2 5-18.5 16.5-18.5 29.2 0 17.5 13.6 31.7 30.3 31.7s30.3-14.2 30.3-31.7c0-12.7-7.2-24.2-18.4-29.2-7-3.1-10.3-11.3-7.3-18.4l60-144.7c1.7-4 5.1-7.1 9.3-8.2 4.2-1.2 8.7-0.3 12.3 2.3l95.3 71c5.8 4.3 7.4 12.4 3.7 18.6-3 5-4.6 10.8-4.6 16.7 0 17.5 13.6 31.7 30.3 31.7s30.3-14.2 30.3-31.7c0-17.4-13.6-31.6-30.3-31.6v0zM511.94 883.288c57.9 0 114.1-11.3 167-33.7 51.1-21.6 97-52.6 136.4-92s70.4-85.3 92-136.4c22.4-52.9 33.7-109.1 33.7-167s-11.3-114.1-33.7-167c-21.6-51.1-52.6-97-92-136.4s-85.3-70.4-136.4-92c-52.9-22.4-109.1-33.7-167-33.7s-114.1 11.3-167 33.7c-51.1 21.6-97 52.6-136.4 92s-70.4 85.3-92 136.4c-22.4 52.9-33.7 109.1-33.7 167s11.3 114.1 33.7 167c21.6 51.1 52.6 97 92 136.4s85.3 70.4 136.4 92c52.9 22.4 109.1 33.7 167 33.7zM511.94 903.788c-248.3 0-449.6-201.3-449.6-449.6s201.3-449.6 449.6-449.6c248.3 0 449.6 201.3 449.6 449.6 0.1 248.3-201.3 449.6-449.6 449.6v0z" />
<glyph unicode="&#xe910;" glyph-name="ioc9" horiz-adv-x="1025" d="M402.54 557.488v-114.1c-1.2-82-27.9-148.6-80.2-199.7-8.3-7.1-16.7-7.7-25-1.8-7.1 7.1-7.7 14.9-1.8 23.2 49.9 51.1 73.7 111.1 71.3 180.1v110.6c0 10.7 5.9 16.6 17.8 17.8 10.8-0.1 16.7-5.4 17.9-16.1zM461.34 371.988c0-9.5-6-14.9-17.8-16.1-11.9 1.2-17.8 6.5-17.8 16.1v212.2c0 10.7-4.2 15.4-12.5 14.3h-57.1c-11.9 1.2-17.2-3.6-16-14.3v-206.8c-1.2-10.7-7.1-16.7-17.8-17.8-11.9 2.4-17.8 8.9-17.8 19.6v224.7c0 21.4 11.3 31.5 33.9 30.3h96.3c19 2.4 27.9-8.9 26.7-33.9v-228.3zM418.64 329.188c19-19 36.2-37.4 51.7-55.3 7.1-9.5 6.5-17.8-1.8-25-9.5-5.9-18.5-4.7-26.7 3.6-8.3 9.5-19 20.8-32.1 33.9-7.1 8.3-12.5 14.3-16.1 17.8-8.3 8.3-8.3 17.2 0 26.7 8.3 7.2 16.6 6.6 25-1.7zM678.94 548.488c-2.4-9.5-6.5-22.6-12.5-39.2-2.4-9.5-4.2-16.1-5.3-19.6h55.3c10.7 0 16.6-6 17.8-17.8-1.2-11.9-7.1-17.8-17.8-17.8h-233.6c-9.5 0-14.9 5.9-16.1 17.8 1.2 11.9 6.5 17.8 16.1 17.8h53.5c0 1.2-0.6 2.9-1.8 5.3-4.8 20.2-8.3 36.3-10.7 48.1-2.4 11.9 1.2 19.6 10.7 23.2 10.7 1.2 17.2-4.2 19.6-16.1 1.2-3.6 2.4-8.9 3.6-16 4.7-19 7.7-30.3 8.9-33.9 2.4-4.8 2.4-8.3 0-10.7h57.1c7.1 16.6 13.6 38.6 19.6 66 3.6 11.9 10.7 17.2 21.4 16.1 11.8-3.5 16.6-11.3 14.2-23.2zM566.54 641.288c-2.4 9.5 1.8 16.6 12.5 21.4 10.7 3.6 18.4 0.6 23.2-8.9 5.9-11.9 11.9-26.7 17.8-44.6h76.7c10.7-1.2 16.6-7.1 17.8-17.8-2.4-10.7-8.9-16.1-19.6-16.1h-196.1c-10.7 0-16.7 5.9-17.8 17.8 1.2 10.7 7.1 16 17.8 16h82c-1.2 2.4-3.6 7.1-7.1 14.3-3.6 10.7-6 16.7-7.2 17.9zM520.24 420.188h153.3c16.6-1.2 25.5-12.5 26.7-33.9v-115.9c0-19-10.7-27.9-32.1-26.7h-146.2c-19 1.2-29.1 10.1-30.3 26.7v123c0.1 17.8 9.6 26.8 28.6 26.8zM652.14 281.088c8.3-1.2 11.9 1.8 10.7 8.9v80.2c1.2 9.5-3.6 14.3-14.3 14.3h-107c-9.5 0-14.3-3.6-14.3-10.7v-83.8c0-5.9 3.6-8.9 10.7-8.9h114.2zM512.84 880.088c57.9 0 114.1-11.3 167-33.7 51.1-21.6 97-52.6 136.4-92s70.4-85.3 92-136.4c22.4-52.9 33.7-109.1 33.7-167s-11.3-114.1-33.7-167c-21.6-51.1-52.6-97-92-136.4s-85.3-70.4-136.4-92c-52.9-22.4-109.1-33.7-167-33.7s-114.1 11.3-167 33.7c-51.1 21.6-97 52.6-136.4 92s-70.4 85.3-92 136.4c-22.4 52.9-33.7 109.1-33.7 167s11.3 114.1 33.7 167c21.6 51.1 52.6 97 92 136.4s85.3 70.4 136.4 92c52.9 22.4 109 33.7 167 33.7zM512.84 900.588c-248.3 0-449.6-201.3-449.6-449.6s201.3-449.6 449.6-449.6c248.3 0 449.6 201.3 449.6 449.6s-201.3 449.6-449.6 449.6v0z" />
<glyph unicode="&#xe911;" glyph-name="ioc10" d="M249.74 409.988h241.4v-148.2c0-20.4-16.6-37-37-37s-37 16.6-37 37h-37c0-40.9 33.2-74.1 74.1-74.1 38.6 0 70.3 29.5 73.7 67.1 0.2 1.2 0.3 2.3 0.3 3.5v151.7h234.1v37h0.1c-18.2 118.2-116.2 210.1-237.2 218.9v24.2c0 9.1-8.3 16.4-18.5 16.4s-18.5-7.4-18.5-16.4v-24.1c-121.6-8.3-220.1-100.4-238.3-219h-0.1v-37h-0.1zM506.14 629.588c109.2 0 200-78.7 218.7-182.5h-437.5c18.8 103.8 109.6 182.5 218.8 182.5v0zM506.040 876.288c57.9 0 114.1-11.3 167-33.7 51.1-21.6 97-52.6 136.4-92s70.4-85.3 92-136.4c22.4-52.9 33.7-109.1 33.7-167s-11.3-114.1-33.7-167c-21.6-51.1-52.6-97-92-136.4s-85.3-70.4-136.4-92c-52.9-22.4-109.1-33.7-167-33.7s-114.1 11.3-167 33.7c-51.1 21.6-97 52.6-136.4 92s-70.4 85.3-92 136.4c-22.4 52.9-33.7 109.1-33.7 167s11.3 114.1 33.7 167c21.6 51.1 52.6 97 92 136.4s85.3 70.4 136.4 92c52.9 22.4 109.1 33.7 167 33.7zM506.040 896.788c-248.3 0-449.6-201.3-449.6-449.6s201.3-449.6 449.6-449.6c248.3 0 449.6 201.3 449.6 449.6 0.1 248.3-201.3 449.6-449.6 449.6v0z" />
<glyph unicode="&#xe912;" glyph-name="ioc11" d="M911.959 873.916c-0.030 40.379-26.605 74.105-65.632 83.68-3.496 0.858-7.021 1.592-10.533 2.384-215.867-0.002-431.734-0.002-647.599-0.002-0.706-0.285-1.389-0.725-2.122-0.832-43.214-6.33-74.053-41.718-74.056-85.232-0.022-283.964-0.026-567.927 0.002-851.891 0.005-48.013 37.802-85.974 85.941-85.993 209.356-0.085 418.713-0.059 628.069 0.062 6.758 0.005 13.678 0.798 20.246 2.371 39.427 9.448 65.689 43.349 65.694 84.509 0.026 183.936 0.011 367.873 0.011 551.809 0.002 99.712 0.051 199.424-0.022 299.136zM854.817 79.122c-0.011-48.606-37.824-86.205-86.649-86.221-170.763-0.056-341.526-0.054-512.289-0.002-49.046 0.016-86.717 37.736-86.725 86.64-0.019 122.923-0.006 245.846-0.006 368.769 0 122.765-0.013 245.531 0.006 368.295 0.006 42.445 28.47 76.928 70.347 85.043 5.408 1.048 11.034 1.381 16.558 1.384 170.605 0.070 341.209 0.083 511.814 0.038 42.813-0.011 77.331-28.254 85.499-69.928 1.054-5.384 1.41-10.982 1.411-16.482 0.067-245.844 0.088-491.69 0.034-737.538zM797.673 760.131c-0.056 48.341-37.8 86.003-86.341 86.037-132.827 0.096-265.656 0.088-398.483 0.005-48.802-0.030-86.544-37.782-86.55-86.326-0.024-170-0.026-339.999 0-509.998 0.008-48.526 37.806-86.256 86.598-86.281 132.669-0.067 265.337-0.040 398.006 0.037 5.523 0.003 11.144 0.374 16.55 1.427 41.896 8.162 70.203 42.483 70.23 85.101 0.054 84.841 0.016 169.683 0.016 254.524 0 85.16 0.070 170.318-0.027 255.475zM740.558 251.984c-0.002-19.995-11.53-31.549-31.485-31.549-131.4-0.003-262.8-0.003-394.198 0-19.752 0-31.443 11.571-31.443 31.118-0.003 168.894-0.003 337.787 0 506.681 0 19.51 11.725 31.080 31.486 31.080 131.4 0.002 262.798 0.003 394.198 0 19.742 0 31.44-11.578 31.442-31.123 0.005-84.526 0.002-169.051 0.002-253.577 0-84.211 0.003-168.421-0.002-252.63zM511.973 135.095c-31.563-0.008-57.163-25.568-57.114-57.027 0.048-31.203 25.587-56.659 56.923-56.741 31.602-0.083 57.315 25.379 57.35 56.787 0.034 31.443-25.594 56.99-57.16 56.981z" />
<glyph unicode="&#xe913;" glyph-name="ioc12" horiz-adv-x="1053" d="M846.421 633.769c-4.257 18.731-10.217 36.975-17.88 54.733-16.42 37.827-39.895 71.883-69.815 100.953s-64.707 51.936-103.385 67.991c-40.016 16.42-82.587 24.934-126.495 24.934-43.787 0-86.235-8.392-126.373-24.934-38.678-15.933-73.464-38.8-103.385-67.991s-53.395-63.126-69.815-100.953c-7.906-18.123-13.866-36.854-18.244-55.828-66.41-20.434-114.94-83.56-114.94-157.997 0-43.787 17.15-85.141 48.409-116.521 22.988-22.988 51.328-38.435 82.1-44.881 17.028-3.527 32.962 9.487 32.718 26.759l-1.46 224.407c0 70.18 28.096 136.347 79.059 185.972 51.328 49.99 119.44 77.478 191.932 77.478s140.604-27.488 191.81-77.356c51.084-49.747 79.059-115.791 79.059-185.972v-234.015c0-70.18-28.096-136.347-79.059-185.972-25.542-24.934-55.463-44.273-87.938-57.409 3.527 11.068 5.352 22.866 5.108 35.029-1.216 56.801-47.314 103.142-104.115 104.601-60.328 1.581-109.832-47.071-109.832-107.034 0-58.382 46.827-105.939 104.966-107.034v0h4.987c42.084 0.608 82.951 8.879 121.508 24.934 38.678 15.933 73.464 38.8 103.385 67.991 29.921 29.069 53.395 63.126 69.815 100.953 15.447 35.637 23.961 73.221 25.421 111.899 23.475 8.028 45.125 21.407 63.369 39.773 31.259 31.259 48.409 72.613 48.409 116.521-0.122 75.897-50.72 140.117-119.319 158.97v0 0zM182.931 396.591c-20.92 20.92-32.475 48.773-32.475 78.086 0 40.746 21.407 76.383 53.274 95.479 0-1.824-0.122-3.771-0.122-5.717v-184.269c-7.419 4.622-14.231 10.095-20.677 16.42v0 0zM532.616 67.097h-2.433c-28.705 0.365-51.936 23.839-51.936 52.666 0 29.069 23.596 52.666 52.666 52.666s52.666-23.596 52.666-52.666c0-28.583-22.745-51.693-50.963-52.666v0 0zM878.774 396.591c-7.419-7.419-15.812-13.744-24.569-18.731v186.58c0 2.676 0 5.352-0.122 8.028 33.935-18.488 57.288-55.341 57.288-97.79 0-29.313-11.555-57.044-32.597-78.086v0 0z" />
<glyph unicode="&#xe914;" glyph-name="ioc13" horiz-adv-x="1067" d="M643.907 291.382c-11.068 11.068-28.948 11.068-39.895 0l-43.179-43.908v230.975c0 15.569-12.649 28.218-28.218 28.218h-8.636c-15.569 0-28.218-12.649-28.218-28.218v-234.745l-46.827 47.679c-11.068 11.068-28.948 11.068-39.895 0l-6.081-6.081c-11.068-11.068-11.068-28.948 0-39.895l102.412-104.115c5.838-5.838 13.501-8.514 21.164-8.271 7.663-0.365 15.325 2.433 21.164 8.271l102.412 104.115c11.068 11.068 11.068 28.948 0 39.895l-6.203 6.081zM919.277 552.521c-20.312 23.961-46.949 43.665-76.87 53.639-6.446 72.856-37.705 138.293-85.871 187.553-54.004 54.49-128.684 88.546-210.298 88.546-60.207 0-116.278-18.366-163.349-50.111-42.814-28.34-77.965-67.626-101.317-114.697-50.72-8.271-96.574-33.205-130.022-69.329-38.435-40.989-61.545-96.452-61.545-157.024 0-63.247 25.299-120.778 66.41-162.254h-0.73c40.746-41.719 96.696-67.504 158.97-67.626v68.477c-43.422 0.122-83.073 18.001-111.413 47.071-28.948 29.191-46.463 69.329-46.463 114.21 0 42.692 16.663 81.613 43.3 110.318 26.515 28.826 63.612 47.557 104.48 49.747 12.893 0.487 24.691 8.271 29.921 20.92 18.001 42.692 47.922 78.451 85.384 103.75 35.759 23.961 79.424 38.435 126.373 38.435 63.369 0 121.143-26.15 162.984-68.477 41.597-42.692 67.626-101.196 67.626-166.146 0-16.177 11.19-30.529 27.367-33.57 25.664-4.744 47.922-17.88 64.22-37.097 14.96-19.217 24.569-43.665 24.569-70.18 0-30.529-11.798-57.166-31.502-77.235-18.853-19.582-45.368-31.867-74.681-31.867h-11.555v-68.477h11.798c47.557 0.851 90.614 20.92 121.995 51.936 31.259 32.232 50.963 76.262 50.963 125.643 0.122 43.179-15.69 82.951-40.746 113.845v0zM898.478 41.433c0-15.569-12.649-28.218-28.218-28.218h-690.856c-15.569 0-28.218 12.649-28.218 28.218v6.811c0 15.569 12.649 28.218 28.218 28.218h690.735c15.569 0 28.218-12.649 28.218-28.218l0.122-6.811z" />
<glyph unicode="&#xe915;" glyph-name="ioc14" d="M246.8 443.57c0.63-2.49 1.89-4.74 3.54-6.6l261.66-436.38 37.38 62.31h-0.060l225.75 376.44c0.57 0.93 1.020 1.89 1.35 2.91 25.8 45.6 39.45 97.14 39.45 149.28 0 167.55-136.32 303.87-303.9 303.87s-303.87-136.32-303.87-303.87c0-51.63 13.38-102.66 38.7-147.96zM511.94 863.42c149.91 0 271.92-121.98 271.92-271.89 0-47.52-12.69-94.53-36.66-135.93-0.45-0.78-0.81-1.56-1.11-2.37l-234.090-390.39-234.060 390.33c-0.3 0.84-0.69 1.65-1.17 2.43-24 41.4-36.66 88.41-36.66 135.93 0 149.94 121.98 271.89 271.89 271.89h-0.060zM511.985 763.348c-76.108 0-137.806-61.698-137.806-137.806s61.698-137.806 137.806-137.806 137.806 61.698 137.806 137.806-61.698 137.806-137.806 137.806zM511.985 517.267c-59.799 0-108.277 48.477-108.277 108.277s48.477 108.277 108.277 108.277 108.277-48.478 108.277-108.278-48.477-108.276-108.277-108.276z" />
<glyph unicode="&#xe916;" glyph-name="ioc15" d="M504.32 167.916c-157.696 0-286.208 128.512-286.208 286.208 0.512 157.184 128.512 285.696 286.208 285.696s286.208-128.512 286.208-286.208c0-157.696-128.512-285.696-286.208-285.696zM504.32 724.46c-148.992 0-270.848-121.344-270.848-270.848 0-148.992 121.344-270.848 270.848-270.848 148.992 0 270.848 121.344 270.848 270.848s-121.344 270.848-270.848 270.848z" />
<glyph unicode="&#xe917;" glyph-name="ioc16" d="M511.98-64c-282.8 0-512 229.2-512 512s229.2 512 512 512 512-229.2 512-512c0-282.8-229.2-512-512-512zM511.98 891.7c-245.1 0-443.7-198.7-443.7-443.7 0-245.1 198.7-443.7 443.7-443.7s443.7 198.7 443.7 443.7c0.1 245.1-198.6 443.7-443.7 443.7zM529.080 140.8h-34.1c-9.4 0-17.1 7.6-17.1 17.1v68.3c0 9.4 7.6 17.1 17.1 17.1h34.1c9.4 0 17.1-7.6 17.1-17.1v-68.3c0-9.4-7.7-17.1-17.1-17.1zM529.080 277.3h-34.1c-9.4 0-17.1 7.6-17.1 17.1v443.7c0 9.5 7.6 17.1 17.1 17.1h34.1c9.4 0 17.1-7.6 17.1-17.1v-443.7c0-9.4-7.7-17.1-17.1-17.1z" />
<glyph unicode="&#xe918;" glyph-name="ioc17" d="M512 894.69c-246.711 0-446.709-199.999-446.709-446.709 0-246.712 199.999-446.709 446.709-446.709s446.709 199.996 446.709 446.708c0 246.711-199.999 446.71-446.709 446.71zM512 38.497c-225.79 0-409.483 183.694-409.483 409.483s183.693 409.484 409.483 409.484 409.483-183.694 409.483-409.484-183.693-409.483-409.483-409.483zM511.991 762.377c-10.288 0-18.613-8.325-18.613-18.613v-285.1l-151.957-88.883c-8.907-5.198-11.888-16.578-6.689-25.448 3.454-5.926 9.706-9.233 16.068-9.233 3.199 0 6.435 0.836 9.38 2.545l161.19 94.264c5.707 3.344 9.233 9.452 9.233 16.068v295.788c0.001 10.288-8.324 18.613-18.612 18.613z" />
<glyph unicode="&#xe919;" glyph-name="ioc18" d="M115.2 103.66c0 0 0 0 0 0-7.68 0-12.8 6.4-12.8 14.080 5.12 112.64 39.68 195.84 99.84 248.32 33.28 28.16 69.12 43.52 98.56 51.2-44.8 20.48-96 65.28-96 160 0 168.96 162.56 204.8 163.84 204.8 6.4 1.28 14.080-2.56 15.36-10.24 1.28-6.4-2.56-14.080-10.24-15.36-6.4-1.28-143.36-32-143.36-179.2 0-135.68 117.76-151.040 138.24-153.6 2.56 0 3.84 0 3.84 0 6.4-1.28 11.52-6.4 11.52-14.080 0-6.4-6.4-12.8-12.8-11.52 0 0 0 0-1.28 0-8.96 0-85.76 3.84-149.76-52.48-55.040-47.36-85.76-125.44-90.88-230.4-1.28-5.12-7.68-11.52-14.080-11.52zM582.4 385.26c-108.8 0-198.4 101.12-198.4 224s89.6 224 198.4 224 198.4-99.84 198.4-224-89.6-224-198.4-224zM582.4 807.66c-94.72 0-172.8-89.6-172.8-198.4s78.080-198.4 172.8-198.4c94.72 0 172.8 89.6 172.8 198.4s-78.080 198.4-172.8 198.4zM268.8 51.18c-7.68 0-12.8 5.12-12.8 12.8v1.28c0 186.88 152.32 345.6 332.8 345.6 183.040 0 332.8-149.76 332.8-332.8v-10.24c0-6.4-6.4-12.8-12.8-12.8 0 0 0 0 0 0-7.68 0-12.8 6.4-12.8 12.8v10.24c0 168.96-138.24 307.2-307.2 307.2-166.4 0-307.2-145.92-307.2-320v-1.28c0-7.68-5.12-12.8-12.8-12.8z" />
<glyph unicode="&#xe91a;" glyph-name="ioc19" d="M510.835 0.896c-60.318 0-118.842 11.818-173.944 35.125-53.214 22.509-101.003 54.727-142.039 95.763s-73.255 88.825-95.764 142.039c-23.307 55.103-35.125 113.626-35.125 173.945s11.817 118.842 35.125 173.944c22.509 53.214 54.728 101.003 95.764 142.039s88.824 73.255 142.039 95.764c55.102 23.306 113.626 35.124 173.944 35.124s118.842-11.818 173.945-35.125c53.214-22.509 101.002-54.727 142.039-95.764s73.254-88.824 95.763-142.039c23.307-55.102 35.125-113.626 35.125-173.944s-11.818-118.842-35.125-173.945c-22.509-53.213-54.728-101.002-95.764-142.038s-88.825-73.254-142.039-95.763c-55.102-23.308-113.625-35.125-173.944-35.125zM510.835 863.94c-229.477 0-416.171-186.694-416.171-416.171s186.694-416.172 416.171-416.172c229.478 0 416.171 186.694 416.171 416.172s-186.693 416.171-416.171 416.171zM468.969 357.448c0-10.045-8.132-18.159-18.178-18.159v0c-10.010 0-18.142 8.114-18.142 18.159v379.878c0 10.044 8.132 18.16 18.142 18.16v0c10.045 0 18.178-8.116 18.178-18.16v-379.878zM447.872 339.29c-8.411 0-15.223 8.114-15.223 18.159v0c0 10.044 6.812 18.16 15.223 18.16h319.057c8.411 0 15.257-8.116 15.257-18.16v0c0-10.045-6.847-18.159-15.257-18.159h-319.057z" />
<glyph unicode="&#xe91b;" glyph-name="ioc20" d="M531.88 880.8c-170.1 0-308.5-134.6-308.5-300.1 0-271 284.1-584.5 296.2-597.7l12.4-13.6 12.4 13.6c12.1 13.3 296.1 328.7 296.1 597.7-0.1 165.5-138.5 300.1-308.6 300.1v0zM531.78 18.5c-55.2 64.2-275.4 334.6-275.4 562.2 0 147.7 123.6 267.9 275.4 267.9s275.4-120.2 275.4-267.9c0-225.8-220.2-497.7-275.4-562.2v0zM535.38 692c-65 0-118-51.5-118-114.8s52.9-114.8 118-114.8c65.1 0 118 51.5 118 114.8s-52.9 114.8-118 114.8v0zM535.38 494.6c-46.8 0-84.9 37-84.9 82.6 0 45.5 38.1 82.6 84.9 82.6s84.9-37.1 84.9-82.6c0-45.6-38.1-82.6-84.9-82.6v0z" />
<glyph unicode="&#xe91c;" glyph-name="ioc21" d="M515.584 370.156c-142.336 0-258.56 115.712-258.56 258.56s115.712 258.56 258.56 258.56 258.56-115.712 258.56-258.56-116.224-258.56-258.56-258.56zM515.584 871.404c-134.144 0-243.2-109.056-243.2-243.2s109.056-243.2 243.2-243.2 243.2 109.056 243.2 243.2-109.056 243.2-243.2 243.2zM345.6 620.524c-4.096 0-7.68 3.584-7.68 7.68 0 94.72 77.312 172.032 172.032 172.032 4.096 0 7.68-3.584 7.68-7.68s-3.584-7.68-7.68-7.68c-86.016 0.512-156.672-70.144-156.672-156.672 0-4.096-3.072-7.68-7.68-7.68zM514.048 9.196c-4.096 0-7.68 3.584-7.68 7.68v360.96c0 4.096 3.584 7.68 7.68 7.68s7.68-3.584 7.68-7.68v-360.96c0-4.096-3.584-7.68-7.68-7.68z" />
<glyph unicode="&#xe91d;" glyph-name="ioc22" d="M661.38 320h-298.7c-12.8 0-21.3-8.5-21.3-21.3s8.5-21.3 21.3-21.3h298.7c12.8 0 21.3 8.5 21.3 21.3s-8.5 21.3-21.3 21.3zM840.58 490.6l-55.5 194.1c-10.7 36.3-42.7 61.9-81.1 61.9h-384c-38.4 0-72.5-25.6-81.1-61.9l-55.5-194.1c-55.5-6.4-98.1-51.2-98.1-106.7v-192c0-23.5 19.2-42.7 42.7-42.7v-42.7c0-23.5 19.2-42.7 42.7-42.7h85.3c23.5 0 42.7 19.2 42.7 42.7v42.7h426.7v-42.7c0-23.5 19.2-42.7 42.7-42.7h85.3c23.5 0 42.7 19.2 42.7 42.7v42.7c23.5 0 42.7 19.2 42.7 42.7v192c-0.1 55.5-42.8 100.3-98.2 106.7zM279.48 672c4.3 19.2 21.3 32 40.5 32h384c19.2 0 36.3-12.8 40.5-32l51.2-181.3h-567.4l51.2 181.3zM191.98 448c36.3 0 64-27.7 64-64s-27.7-64-64-64c-36.3 0-64 27.7-64 64s27.8 64 64 64zM255.98 106.6h-85.3v42.7h85.3v-42.7zM853.38 106.6h-85.3v42.7h85.3v-42.7zM895.98 192h-768.1v106.7c17.1-12.8 40.5-21.3 64-21.3 59.7 0 106.7 46.9 106.7 106.7 0 23.5-8.5 46.9-21.3 64h469.3c-12.8-17.1-21.3-40.5-21.3-64 0-59.7 46.9-106.7 106.7-106.7 23.5 0 46.9 8.5 64 21.3v-106.7zM831.98 320c-36.3 0-64 27.7-64 64s27.7 64 64 64 64-27.7 64-64-27.7-64-64-64z" />
<glyph unicode="&#xe91e;" glyph-name="ioc23" d="M852.48 692.7h-123.1v151.2c0 62.6-50.9 113.4-113.4 113.4h-207.9c-62.6 0-113.4-50.9-113.4-113.4v-151.2h-123.1c-93.8 0-170.2-76.3-170.2-170.2v-413.7c0-93.8 76.3-170.2 170.2-170.2h680.9c93.8 0 170.2 76.3 170.2 170.2v413.7c0 93.9-76.2 170.2-170.2 170.2zM351.38 843.9c0 31.2 25.5 56.7 56.7 56.7h207.9c31.2 0 56.7-25.5 56.7-56.7v-151.2h-321.3v151.2zM171.48-4.6c-62.6 0-113.4 50.9-113.4 113.4v413.7c0 62.6 50.9 113.4 113.4 113.4h123.1v-640.6l-123.1 0.1zM351.38-4.6v640.6h321.4v-640.6h-321.4zM965.98 108.8c0-62.6-50.9-113.4-113.4-113.4h-123.1v640.6h123c62.6 0 113.4-50.9 113.4-113.4v-413.8h0.1z" />
<glyph unicode="&#xe91f;" glyph-name="ioc24" d="M472.525 420.912c0.666-0.836 1.604-1.536 2.338-2.338 9.404-11.674 23.603-19.268 39.731-19.268 28.262 0 51.2 22.903 51.2 51.2 0 15.036-6.605 28.399-16.862 37.769-1.331 1.502-2.56 3.038-4.54 4.54l-206.899 157.44c-6.042 4.625-14.694 4.864-20.992 0-7.526-5.803-8.926-16.606-3.14-24.132l159.164-205.21zM514.577 877.155c-5.598 0-11.059-0.631-16.606-0.836v-17.698h-0.461v-186.197h34.133v169.728c208.538-9.028 375.467-180.975 375.467-391.629 0-216.439-176.060-392.516-392.533-392.516s-392.533 176.060-392.533 392.516c0 108.237 44.032 206.37 115.132 277.436l-24.269 24.269c-77.227-77.21-124.996-183.876-124.996-301.705 0-235.639 190.993-426.65 426.667-426.65s426.667 190.993 426.667 426.65c0 235.639-190.993 426.633-426.667 426.633z" />
<glyph unicode="&#xe920;" glyph-name="ioc25" d="M510.835 0.896c-60.318 0-118.842 11.818-173.944 35.125-53.214 22.509-101.003 54.727-142.039 95.763s-73.255 88.825-95.764 142.039c-23.307 55.103-35.125 113.626-35.125 173.945s11.817 118.842 35.125 173.944c22.509 53.214 54.728 101.003 95.764 142.039s88.824 73.255 142.039 95.764c55.102 23.306 113.626 35.124 173.944 35.124s118.842-11.818 173.945-35.125c53.214-22.509 101.002-54.727 142.039-95.764s73.254-88.824 95.763-142.039c23.307-55.102 35.125-113.626 35.125-173.944s-11.818-118.842-35.125-173.945c-22.509-53.213-54.728-101.002-95.764-142.038s-88.825-73.254-142.039-95.763c-55.102-23.308-113.625-35.125-173.944-35.125zM510.835 863.94c-229.477 0-416.171-186.694-416.171-416.171s186.694-416.172 416.171-416.172c229.478 0 416.171 186.694 416.171 416.172s-186.693 416.171-416.171 416.171zM468.969 357.448c0-10.045-8.132-18.159-18.178-18.159v0c-10.010 0-18.142 8.114-18.142 18.159v379.878c0 10.044 8.132 18.16 18.142 18.16v0c10.045 0 18.178-8.116 18.178-18.16v-379.878zM447.872 339.29c-8.411 0-15.223 8.114-15.223 18.159v0c0 10.044 6.812 18.16 15.223 18.16h319.057c8.411 0 15.257-8.116 15.257-18.16v0c0-10.045-6.847-18.159-15.257-18.159h-319.057z" />
<glyph unicode="&#xe921;" glyph-name="ioc26" d="M771.805 368.394c-8.476 3.915-18.503 0.587-23.134-7.565-47.984-85.794-138.716-139.080-236.631-139.080-97.92 0-188.664 53.286-236.646 139.080-4.616 8.153-14.786 11.544-23.138 7.565-232.913-106.21-235.719-348.040-235.719-350.454 0-4.827 1.892-9.39 5.286-12.72 3.388-3.388 7.94-5.278 12.697-5.278h955.022c4.756 0 9.392 1.891 12.705 5.278 3.386 3.33 5.215 7.893 5.215 12.72 0 2.414-2.803 244.244-235.658 350.454zM53.502 35.874c4.956 53.22 33.703 209.552 199.21 292.837 56.187-88.57 154.046-142.927 259.326-142.927 105.264 0 203.13 54.357 259.316 142.927 165.568-83.286 194.248-239.617 199.209-292.837h-917.061zM512.038 286.708c115.246 0 208.983 93.75 208.983 209.093v191.123c0 115.342-93.737 209.094-208.983 209.094-115.195 0-208.926-93.752-208.926-209.094v-191.123c0-115.343 93.732-209.093 208.926-209.093zM339.033 686.924c0 95.453 77.555 173.158 173.005 173.158 95.503 0 173.073-77.706 173.073-173.158v-191.123c0-95.446-77.57-173.221-173.073-173.221-95.45 0-173.005 77.775-173.005 173.221v191.123z" />
<glyph unicode="&#xe922;" glyph-name="ioc27" d="M499.719 454.939c48.099 31.418 79.926 85.76 79.926 147.47 0 97.017-79.005 176.022-176.022 176.022s-176.022-79.005-176.022-176.022c0-61.608 31.827-115.95 79.926-147.47-44.313-14.737-84.941-39.605-118.917-73.581-57.412-57.412-89.035-133.757-89.035-214.911 0-12.485 10.029-22.514 22.514-22.514s22.514 10.029 22.514 22.514c0 142.762 116.154 258.917 258.917 258.917s258.917-116.154 258.917-258.917c0-12.485 10.029-22.514 22.514-22.514s22.514 10.029 22.514 22.514c0 81.155-31.623 157.499-89.035 214.911-33.772 33.874-74.4 58.845-118.713 73.581zM272.63 602.307c0 72.251 58.742 130.993 130.993 130.993s130.993-58.742 130.993-130.993-58.742-130.993-130.993-130.993c-72.149 0-130.993 58.742-130.993 130.993zM828.943 366.416c-34.693 51.067-84.020 90.16-141.227 112.368 25.38 37.763 38.889 82.28 38.479 128.23-0.409 55.877-21.286 109.4-58.64 150.745-8.392 9.21-22.617 9.927-31.827 1.535s-9.927-22.617-1.535-31.827c62.529-68.976 62.938-173.566 0.921-243.259-1.433-1.637-2.661-3.48-3.48-5.322-1.126-1.74-1.944-3.684-2.558-5.833-3.275-11.974 3.889-24.357 15.862-27.631 123.727-33.158 203.654-149.619 190.247-276.724-1.33-12.383 7.675-23.436 20.058-24.766 0.819-0.102 1.637-0.102 2.354-0.102 11.36 0 21.184 8.596 22.412 20.161 7.471 71.125-10.643 143.069-51.067 202.426z" />
<glyph unicode="&#xe923;" glyph-name="ioc28" d="M703.521 627.927h-5.591v78.055h-50.961v-78.056h-280.288v78.056h-50.94v-78.056h-5.628c-64.32 0-116.646-52.306-116.646-116.647v-333.925c0-64.335 52.33-116.664 116.646-116.664h18.355v-7.275c0-18.771 15.224-33.971 33.97-33.971 18.755 0 33.978 15.2 33.978 33.971v7.275h220.843v-7.275c0-18.771 15.206-33.971 33.977-33.971 18.749 0 33.97 15.2 33.97 33.971v7.275h18.316c64.335 0 116.665 52.329 116.665 116.664v333.925c0 64.34-52.33 116.648-116.665 116.648zM766.81 177.36c0-34.883-28.384-63.267-63.288-63.267h-393.408c-34.883 0-63.268 28.383-63.268 63.267v333.921c0 34.889 28.384 63.27 63.268 63.27h393.408c34.903 0 63.288-28.381 63.288-63.27v-333.921zM703.521 627.927h-5.591v78.055h-50.961v-78.056h-280.288v78.056h-50.94v-78.056h-5.628c-64.32 0-116.646-52.306-116.646-116.647v-333.925c0-64.335 52.33-116.664 116.646-116.664h18.355v-7.275c0-18.771 15.224-33.971 33.97-33.971 18.755 0 33.978 15.2 33.978 33.971v7.275h220.843v-7.275c0-18.771 15.206-33.971 33.977-33.971 18.749 0 33.97 15.2 33.97 33.971v7.275h18.316c64.335 0 116.665 52.329 116.665 116.664v333.925c0 64.34-52.33 116.648-116.665 116.648zM766.81 177.36c0-34.883-28.384-63.267-63.288-63.267h-393.408c-34.883 0-63.268 28.383-63.268 63.267v333.921c0 34.889 28.384 63.27 63.268 63.27h393.408c34.903 0 63.288-28.381 63.288-63.27v-333.921zM370.861 497.724c-14.069 0-25.467-11.416-25.467-25.487v-255.834c0-14.071 11.398-25.486 25.467-25.486 14.095 0 25.493 11.415 25.493 25.486v255.834c0 14.071-11.398 25.487-25.493 25.487zM370.861 497.724c-14.069 0-25.467-11.416-25.467-25.487v-255.834c0-14.071 11.398-25.486 25.467-25.486 14.095 0 25.493 11.415 25.493 25.486v255.834c0 14.071-11.398 25.487-25.493 25.487zM642.786 497.724c-14.071 0-25.468-11.416-25.468-25.487v-255.834c0-14.071 11.397-25.486 25.468-25.486 14.076 0 25.492 11.415 25.492 25.486v255.834c0.001 14.071-11.416 25.487-25.492 25.487zM642.786 497.724c-14.071 0-25.468-11.416-25.468-25.487v-255.834c0-14.071 11.397-25.486 25.468-25.486 14.076 0 25.492 11.415 25.492 25.486v255.834c0.001 14.071-11.416 25.487-25.492 25.487zM366.682 766.877c0 32.781 26.679 59.44 59.464 59.44h161.384c32.781 0 59.44-26.655 59.44-59.44v-26.918h50.961v26.918c0 60.87-49.533 110.4-110.4 110.4h-161.384c-60.889 0-110.406-49.533-110.406-110.4v-26.918h50.94v26.918zM366.682 766.877c0 32.781 26.679 59.44 59.464 59.44h161.384c32.781 0 59.44-26.655 59.44-59.44v-26.918h50.961v26.918c0 60.87-49.533 110.4-110.4 110.4h-161.384c-60.889 0-110.406-49.533-110.406-110.4v-26.918h50.94v26.918z" />
<glyph unicode="&#xe924;" glyph-name="ioc29" horiz-adv-x="838" d="M743.34 506.435c4.092-2.376 8.185-4.884 12.277-7.657l12.277-8.317 0.264-14.653c0.66-42.508-4.488-78.68-15.578-106.403-10.297-25.347-25.479-44.356-45.941-55.842-13.861-49.505-30.099-95.446-53.201-133.993-26.535-44.356-61.65-78.548-111.155-96.898-22.178-8.185-78.812-11.881-133.201-11.089-52.541 0.792-105.347 5.941-126.337 15.71-45.017 20.726-76.7 55.578-100.726 99.142-20.594 37.096-35.248 80.264-48.053 125.941-21.122 10.957-36.964 29.835-47.525 55.446-11.617 27.855-17.030 64.554-16.238 107.987l0.132 14.785 12.277 8.185c3.168 2.112 6.205 4.092 9.373 5.941-13.729 170.561-8.581 233.531 54.785 305.611 123.564 101.122 406.601 97.558 531.749 5.941 85.017-80.528 90.957-170.693 64.818-309.835v0 0zM634.561 566.897c-80-15.71-199.076-29.307-293.333 23.63-36.172 20.33-89.241-21.386-132.673-17.030-13.465-26.667-23.498-55.842-29.307-86.601l-4.884-25.611-25.743 2.508c-4.752 0.396-9.769-0.132-14.917-1.848-2.376-0.66-4.62-1.716-6.997-2.772 0.66-28.383 4.62-51.881 12.013-69.439 6.469-15.446 15.446-25.611 27.195-29.307l15.050-4.62 4.092-15.050c12.673-46.733 26.799-90.825 46.601-126.733 18.482-33.399 41.98-59.802 74.719-74.851 13.729-6.205 57.426-9.901 103.102-10.561 48.581-0.66 97.030 1.848 113.003 7.789 35.908 13.333 61.914 38.944 81.98 72.607 21.65 36.172 36.964 82.112 50.561 132.409l3.828 14.389 14.257 5.017c11.353 4.092 20.066 14.257 26.403 29.967 6.997 17.426 10.957 40.66 11.617 68.383-2.112 0.924-4.224 1.848-6.337 2.508-5.017 1.716-9.901 2.508-14.521 2.244l-25.083-1.584-4.62 24.686c-5.149 28.251-14.125 55.182-26.007 79.868v0zM342.009 439.531c0-14.932-12.105-27.036-27.036-27.036s-27.036 12.105-27.036 27.036c0 14.932 12.105 27.036 27.036 27.036s27.036-12.105 27.036-27.036zM550.189 439.531c0-14.932-12.105-27.036-27.036-27.036s-27.036 12.105-27.036 27.036c0 14.932 12.105 27.036 27.036 27.036s27.036-12.105 27.036-27.036z" />
<glyph unicode="&#xe925;" glyph-name="ioc30" d="M849.386 341.34v-2.194c-30.187-161.096-169.651-282.97-337.386-282.97s-307.2 121.873-337.386 282.97v2.194c-49.676 10.087-87.067 53.991-87.067 106.64s37.391 96.553 87.067 106.64v2.194c30.187 161.096 169.651 282.97 337.386 282.97s307.2-121.873 337.386-282.97v-2.194c49.676-10.087 87.067-53.991 87.067-106.64s-37.391-96.553-87.067-106.64zM174.614 509.28c-25.305-8.994-43.533-32.906-43.533-61.3s18.228-52.306 43.533-61.304v122.604zM805.852 556.814h-0.27c-1.358 6.299-3.108 12.446-4.845 18.593l-7.511-12.12c0 0-13.332 9.508-32.583 33.796-19.246 24.288-59.031 18.825-79.114 0-20.078-18.825-69.614-53.298-79.114-23.943-9.494 29.355-14.266 48.949-22.603 47.888-8.337-1.057-22.591-22.246-45.21-47.888-22.616-25.641-36.594-37.512-45.206-23.943s-8.398 61.635-11.301 71.831c-2.908 10.196-22.608 0-22.608 0s-69.693-73.616-90.415-71.831-22.581 38.853-22.603 71.831c-0.027 32.976-22.608 11.972-22.608 11.972-18.842-35.463-101.717-119.718-101.717-119.718v-174.134h0.27c29.52-136.888 149.661-239.436 293.582-239.436s264.062 102.548 293.582 239.436h0.27v217.666h0.002zM849.386 509.28v-122.603c25.306 8.998 43.533 32.911 43.533 61.304s-18.227 52.305-43.533 61.299zM653.484 339.146c-36.063 0-65.3 29.237-65.3 65.3 0 36.067 29.237 65.3 65.3 65.3s65.3-29.233 65.3-65.3c0-36.063-29.237-65.3-65.3-65.3zM653.484 426.213c-12.020 0-21.767-9.743-21.767-21.767 0-12.020 9.747-21.767 21.767-21.767s21.767 9.747 21.767 21.767c0 12.024-9.747 21.767-21.767 21.767zM611.435 220.76c-27.553-21.226-61.966-33.983-99.436-33.983s-71.883 12.756-99.436 33.983c8.246 12.281 18.794 22.83 30.9 31.318 19.434-13.626 42.993-21.767 68.536-21.767 25.542 0 49.101 8.141 68.536 21.767 12.106-8.488 22.655-19.038 30.9-31.318zM370.515 339.146c-36.063 0-65.3 29.237-65.3 65.3 0 36.067 29.237 65.3 65.3 65.3s65.3-29.233 65.3-65.3c0.001-36.063-29.236-65.3-65.3-65.3zM370.515 426.213c-12.020 0-21.767-9.743-21.767-21.767 0-12.020 9.747-21.767 21.767-21.767s21.767 9.747 21.767 21.767c0 12.024-9.747 21.767-21.767 21.767z" />
<glyph unicode="&#xe926;" glyph-name="ioc31" horiz-adv-x="838" d="M670.5 728.82v0c-43.258 15.546-91.248-6.759-106.793-50.017l-75.702-209.531h-218.994c-85.84 0-155.459-45.962-155.459-131.802h493.413l113.552 283.881c15.546 44.61-6.759 91.923-50.017 107.469zM112.877 319.22h493.413v-21.629h-493.413v21.629z" />
<glyph unicode="&#xe927;" glyph-name="ioc32" d="M516.096 286.7c-90.624 0-164.352 73.728-164.352 164.352s73.728 164.352 164.352 164.352c90.624 0 164.352-73.728 164.352-164.352s-73.728-164.352-164.352-164.352zM516.096 610.284c-87.552 0-159.232-71.168-159.232-159.232 0-87.552 71.168-159.232 159.232-159.232s159.232 71.168 159.232 159.232c0 87.552-71.68 159.232-159.232 159.232zM402.432 452.588h227.328v-5.12h-227.328v5.12z" />
<glyph unicode="&#xe928;" glyph-name="ioc33" d="M498.688 290.796c-89.088 0-161.792 72.704-161.792 161.792s72.704 161.792 161.792 161.792c89.088 0 161.792-72.704 161.792-161.792s-72.704-161.792-161.792-161.792zM498.688 608.748c-86.016 0-156.672-70.144-156.672-156.672 0-86.016 70.144-156.672 156.672-156.672 86.016 0 156.672 70.144 156.672 156.672s-70.144 156.672-156.672 156.672zM387.072 453.612h223.744v-5.12h-223.744v5.12zM496.128 563.18h5.12v-223.744h-5.12v223.744z" />
<glyph unicode="&#xe929;" glyph-name="ioc34" d="M511.998 239.468c152.428 0 359.183 155.773 373.55 198.596-5.606 46.913-200.197 216.57-373.55 216.57-164.905 0-373.649-135.135-373.669-217.605 4.339-40.627 204.654-197.561 373.669-197.561zM511.998 197.933c-173.163 0-415.166 162.972-415.166 238.74 0 120.066 243.452 259.501 415.166 259.501 187.905 0 415.171-182.613 415.171-259.501 0-63.976-248.399-238.74-415.171-238.74v0 0 0zM511.998 343.259c57.209 0 103.795 46.587 103.795 103.795s-46.586 103.79-103.795 103.79-103.79-46.581-103.79-103.79 46.581-103.795 103.79-103.795zM511.998 301.723c-80.272 0-145.33 65.059-145.33 145.331s65.058 145.33 145.33 145.33c80.277 0 145.33-65.058 145.33-145.33s-65.053-145.331-145.33-145.331v0 0 0z" />
<glyph unicode="&#xe92a;" glyph-name="ioc36" d="M693.12 612.716c11.776 0 23.36-0.896 35.008-2.176-31.36 146.048-187.456 254.528-365.696 254.528-199.232 0-362.432-135.744-362.432-308.224 0-99.52 54.272-181.248 145.024-244.736l-36.224-108.992 126.72 63.488c45.312-8.896 81.664-18.112 126.912-18.112 11.392 0 22.656 0.512 33.792 1.344-7.040 24.256-11.2 49.6-11.2 76.032 0.064 158.336 136 286.848 308.096 286.848zM498.304 710.956c27.392 0 45.376-17.984 45.376-45.248 0-27.136-17.984-45.312-45.376-45.312-27.072 0-54.336 18.176-54.336 45.312 0 27.328 27.2 45.248 54.336 45.248zM244.672 620.396c-27.2 0-54.592 18.176-54.592 45.312 0 27.264 27.392 45.248 54.592 45.248s45.248-17.92 45.248-45.248c0-27.136-18.048-45.312-45.248-45.312zM1024 330.22c0 144.896-145.024 262.976-307.904 262.976-172.48 0-308.224-118.144-308.224-262.976 0-145.28 135.808-262.976 308.224-262.976 36.096 0 72.512 9.024 108.736 18.112l99.392-54.528-27.264 90.624c72.768 54.656 127.040 127.040 127.040 208.768zM616.128 375.596c-17.984 0-36.224 17.92-36.224 36.224 0 18.048 18.24 36.224 36.224 36.224 27.52 0 45.376-18.176 45.376-36.224 0-18.304-17.856-36.224-45.376-36.224zM815.488 375.596c-17.856 0-36.032 17.92-36.032 36.224 0 18.048 18.112 36.224 36.032 36.224 27.264 0 45.376-18.176 45.376-36.224 0-18.304-18.112-36.224-45.376-36.224z" />
<glyph unicode="&#xe92b;" glyph-name="ioc37" d="M387.978 656.753l23.071 23.132c14.925 14.971 23.183 34.929 23.183 56.1s-8.259 41.119-23.291 56.156l-83.937 83.937c-29.957 29.952-82.294 29.952-112.251 0l-23.183-22.973 196.408-196.352zM744.054 346.829l-23.025-23.178 195.978-195.978 23.127 22.861c15.084 15.084 23.337 35.036 23.337 56.207 0 21.166-8.253 41.119-23.235 56.151l-83.937 83.937c-29.952 29.952-82.289 29.952-112.246 0v0zM120.018 781.338c-8.525-8.52-199.844-208.307 158.618-566.876 179.625-179.569 319.345-217.252 404.874-217.252 95.79 0 147.973 44.723 161.736 58.481l18.729 18.739-195.922 196.352-34.401-34.401c-10.004-10.004-27.412-9.948-37.417 0l-295.639 295.629c-4.977 5.028-7.726 11.648-7.726 18.739 0 7.096 2.698 13.706 7.726 18.734l34.401 34.35-196.244 196.244-18.734-18.739z" />
<glyph unicode="&#xe92c;" glyph-name="ioc38" d="M866.572 95.104c0-13.778 0-27.556 0-41.33-3.199-8.191-2.829-17.403-8.202-25.079-5.995-8.571-11.885-16.904-22.251-20.602-213.177 0-426.356 0-639.534 0-14.228 1.951-25.011 9.006-32.824 21.149-4.461 6.943-2.791 15.324-6.331 22.357 0 15.949 0 31.901 0 47.856 3.094 18.579 2.767 37.43 2.973 56.094 0.526 48.166 5.56 96.031 8.247 144.041 2.287 40.765 5.485 81.509 8.596 122.229 3.497 45.77 6.233 91.592 10.088 137.338 1.519 18.003 1.51 36.177 4.96 53.957 6.148 31.706 30.841 51.56 62.965 52.22 12.396 0.255 24.501-2.173 36.818-2.314 6.981-0.078 10.321 2.312 11.083 9.882 6.658 66.104 31.363 125.357 69.837 178.996 19.805 27.612 45.659 48.13 77.129 61.558 14.331 6.114 29.716 5.195 44.475 8.258 1.449 0 2.901 0 4.351 0 7.974-1.73 15.954-1.73 23.929 0 2.175 0 4.351 0 6.526 0 70.267-6.056 111.157-51.783 143.625-107.764 24.416-42.101 38.315-88.162 45.54-136.174 1.416-9.428 5.597-13.082 15.031-12.7 12.295 0.497 24.633 0.271 36.944 0.049 24.274-0.444 43.38-14.302 52.642-36.953 5.89-14.405 7.174-29.606 8.155-44.628 2.121-32.46 4.658-64.888 7.377-97.29 2.717-32.396 5.027-64.832 7.7-97.227 1.844-22.316 3.546-44.673 5.245-67.013 2.464-32.413 4.828-64.838 7.729-97.225 2.063-23.018 3.284-46.136 4.050-69.27 0.659-20.143 0.285-40.371 3.127-60.413zM498.948 921.712c7.974-3.459 15.954-3.435 23.929 0-7.976 0-15.954 0-23.929 0zM654.447 660.559c7.937-0.13 10.194 2.014 8.029 10.023-4.241 15.692-6.961 31.811-11.507 47.406-13.332 45.692-31.649 88.824-68.405 121.264-24.241 21.398-51.551 34.544-85.201 28.724-43.288-7.487-72.718-34.060-94.79-69.852-23.555-38.194-35.182-80.584-41.615-124.716-1.279-8.771 0.76-10.727 8.952-10.68 72.037 0.414 144.068-0.314 216.089-2.037 22.816-0.002 45.638 0.24 68.45-0.132zM407.563 557.547c-0.090 29.176-24.267 53.171-53.471 53.076-29.163-0.094-53.181-24.283-53.085-53.47 0.096-29.147 24.299-53.166 53.48-53.074 29.174 0.090 53.17 24.267 53.076 53.468zM612.074 557.39c-0.020-29.169 24.073-53.289 53.246-53.312 29.201-0.018 53.294 24.039 53.312 53.235 0.018 29.179-24.059 53.294-53.238 53.312-29.169 0.016-53.3-24.077-53.32-53.235z" />
<glyph unicode="&#xe92d;" glyph-name="ioc39" d="M236.544 348.14l-154.624 46.080-3.072-14.336c-0.512-2.048-10.24-48.128 13.824-77.824 12.8-15.872 32.256-24.064 57.344-24.064 11.776 0 25.088 2.048 39.424 5.632 25.6 6.144 42.496 16.896 49.152 31.232s1.024 26.112 0.512 27.648l-2.56 5.632zM214.016 326.124c-1.536-3.072-7.68-10.752-30.72-16.384-12.288-3.072-23.552-4.608-33.28-4.608-16.896 0-28.672 4.608-36.352 13.824-9.728 11.776-10.752 28.672-10.24 40.448l111.104-32.768c0 0-0.512-0.512-0.512-0.512v0zM626.688 394.22l-153.088-46.080-2.56-5.12c-0.512-1.536-6.144-13.312 0-27.648 6.656-14.336 23.040-25.088 49.152-31.232 14.336-3.584 27.648-5.632 39.424-5.632 25.088 0 44.032 8.192 56.832 23.552 24.064 29.696 13.312 75.776 12.8 77.824l-2.56 14.336zM595.968 318.956c-11.776-14.336-34.816-17.408-68.608-9.216-23.040 5.632-29.184 13.312-30.72 16.384 0 0 0 0.512-0.512 0.512l109.568 32.768c0.512-12.8-1.024-29.696-9.728-40.448v0zM251.904 443.884h202.752v26.624h-202.752v-26.624zM646.144 437.228c-2.56 0.512-4.096 2.048-4.096 2.56s0 2.048 2.048 4.608l8.192 10.752c7.68 9.728 9.216 20.48 4.608 29.184s-13.824 13.824-26.624 13.824h-27.136c-11.264 0-28.672 7.168-36.352 14.848-3.072 3.072-74.752 72.704-179.712 78.336v0h-53.76c-112.64 0-189.952-75.776-193.536-78.848-7.68-7.68-25.6-14.848-36.352-14.848h-27.136c-12.288 0-22.016-5.12-26.624-13.824s-2.56-19.456 4.608-29.184l8.192-10.752c1.536-2.048 2.048-4.096 2.048-4.608s-1.536-1.536-4.096-2.56c-1.536-0.512-37.888-10.24-37.888-73.216v-200.704c0-22.016 18.432-39.936 40.448-39.936h80.896c22.528 0 40.448 17.92 40.448 39.936 0 7.168 6.144 13.312 13.312 13.312h310.784c7.68 0 13.312-6.144 13.312-13.312 0-22.016 18.432-39.936 40.448-39.936h80.896c22.528 0 40.448 17.92 40.448 39.936v200.704c1.024 63.488-35.84 73.216-37.376 73.728v0zM157.696 162.796c0-7.168-6.144-13.312-13.312-13.312h-81.408c-7.68 0-13.312 6.144-13.312 13.312v50.688c30.72-20.992 80.896-30.72 111.616-34.816-2.56-4.608-3.584-9.728-3.584-15.872v0zM657.408 162.796c0-7.168-6.144-13.312-13.312-13.312h-80.896c-7.68 0-13.312 6.144-13.312 13.312 0 5.632-1.024 11.264-3.584 15.872 30.72 4.096 80.896 14.336 111.616 34.816v-50.688h-0.512zM657.408 256.492c0-28.16-81.408-48.64-136.192-53.76v-2.048c-4.096 1.024-8.192 2.048-12.288 2.048h-310.784c-4.096 0-8.704-0.512-12.288-2.048v2.048c-54.784 5.12-136.192 25.6-136.192 53.76v107.008c0 40.96 17.408 47.104 17.408 47.616 11.264 2.56 19.968 9.728 23.040 19.456 3.584 9.728 1.536 20.48-5.632 29.696l-8.192 10.752h27.136c18.432 0 42.496 9.728 55.808 23.040 0.512 0.512 72.704 70.656 174.080 70.656h40.448c100.864 0 173.056-70.144 174.080-70.656 13.312-12.8 36.864-23.040 55.808-23.040h27.136l-8.192-10.752c-7.168-9.216-9.216-19.968-5.632-29.696s11.776-16.384 22.528-19.456c0.512-0.512 17.92-6.656 17.92-47.616v-107.008zM643.072 120.3h-80.896c-23.552 0-43.008 18.944-43.008 42.496 0 6.144-4.608 10.752-10.752 10.752h-310.784c-5.632 0-10.752-5.12-10.752-10.752 0-23.552-19.456-42.496-43.008-42.496h-80.896c-23.552 0-43.008 18.944-43.008 42.496v200.704c0 60.416 32.768 73.728 39.424 75.776 1.024 0.512 1.536 0.512 2.048 1.024 0 0.512-0.512 1.536-1.024 2.048l-8.192 10.752c-8.192 10.752-9.728 22.528-4.608 31.744 5.12 9.728 15.872 15.36 28.672 15.36h27.136c10.24 0 27.648 7.168 34.304 14.336l1.024 1.024c19.968 18.432 93.696 78.848 194.56 78.848h53.76c107.008-5.632 178.688-76.288 181.76-78.848 7.168-7.168 24.064-14.336 34.304-14.336h27.136c13.312 0 23.552-5.632 28.672-15.36s3.072-21.504-4.608-31.744l-8.192-10.752c-0.512-0.512-1.024-1.536-1.536-2.56 0.512-0.512 1.024-0.512 2.048-1.024h0.512c6.656-2.048 39.936-15.36 38.912-76.288v-200.704c0-23.552-19.456-42.496-43.008-42.496zM197.632 178.668h310.784c8.704 0 15.872-7.168 15.872-15.872 0-20.48 16.896-37.376 37.888-37.376h80.896c20.992 0 37.888 16.896 37.888 37.376v200.704c1.024 57.344-29.184 69.12-35.328 71.168v0c-3.072 0.512-6.144 2.56-6.144 5.12 0 0.512 0 3.072 2.56 6.144l8.192 10.752c7.168 8.704 8.704 18.432 4.608 26.624s-12.8 12.288-24.576 12.288h-27.136c-11.776 0-30.208 7.68-38.4 15.36-3.072 3.072-73.216 72.192-178.176 77.824h-53.76c-98.816 0-171.008-59.392-190.976-77.312l-1.024-1.024c-7.68-7.68-26.624-15.36-37.888-15.36h-27.136c-11.264 0-19.968-4.608-24.576-12.288-4.096-7.68-2.56-17.408 4.608-26.624l8.192-10.752c1.536-2.048 2.56-4.608 2.56-6.144s-0.512-3.072-5.632-5.12c-6.144-2.048-36.352-14.336-36.352-70.656v-200.704c0-20.48 16.896-37.376 37.888-37.376h80.896c20.992 0 37.888 16.896 37.888 37.376 0.512 8.704 7.68 15.872 16.384 15.872zM644.096 146.924h-80.896c-8.704 0-15.872 7.168-15.872 15.872 0 5.632-1.024 10.752-3.072 14.848l-2.048 3.072 3.584 0.512c22.016 3.072 77.312 12.288 110.592 34.304l4.096 2.56v-57.856h-0.512c-1.536-7.68-8.192-13.312-15.872-13.312zM549.888 176.62c1.536-4.096 2.56-8.704 2.56-13.824 0-6.144 4.608-10.752 10.752-10.752h80.896c5.632 0 10.752 5.12 10.752 10.752v2.56h0.512v43.52c-32.768-19.968-81.92-29.184-105.472-32.256zM144.384 146.924h-81.408c-8.704 0-15.872 7.168-15.872 15.872v55.296l4.096-2.56c31.232-21.504 82.432-30.72 110.592-34.304l3.584-0.512-2.048-3.072c-2.048-4.096-3.072-8.704-3.072-14.848 0-8.704-7.168-15.872-15.872-15.872zM52.224 208.876v-46.080c0-6.144 4.608-10.752 10.752-10.752h81.408c5.632 0 10.752 5.12 10.752 10.752 0 5.12 0.512 9.728 2.56 13.824-28.16 4.096-74.752 12.8-105.472 32.256zM183.296 196.588v3.584c-46.080 4.608-136.192 24.064-136.192 56.32v107.008c0 24.064 6.144 41.472 17.408 49.152v0.512l2.048 0.512c10.752 2.56 18.432 9.216 20.992 17.92 3.072 8.704 1.536 18.944-5.12 27.136l-11.264 14.848h32.256c17.92 0 41.472 9.728 53.76 22.528 0.512 0.512 74.24 71.168 176.128 71.168h40.448c88.576 0 156.16-53.76 174.592-70.656 0.512-0.512 0.512-0.512 1.024-0.512 13.312-12.8 36.864-22.528 54.272-22.528h32.256l-11.264-14.848c-6.656-8.704-8.704-18.432-5.12-27.136 3.072-8.704 10.752-14.848 20.992-17.92l1.024-0.512c7.168-4.096 18.944-15.36 18.944-49.664v-107.008c0-32.256-90.112-51.2-136.192-56.32v-3.072l-3.072 1.024c-4.096 1.024-7.68 2.048-11.776 2.048h-311.296c-4.608 0-8.704-0.512-11.264-2.048l-3.584-1.536zM198.144 205.292h310.784c3.072 0 6.656-0.512 9.728-1.536v1.024h2.56c56.32 5.12 133.632 26.112 133.632 51.2v107.008c0 32.768-11.264 42.496-16.384 45.056v0c-11.776 3.584-19.968 10.752-24.064 20.992-4.096 10.752-1.536 22.016 6.144 32.256l5.12 6.656h-22.016c-18.944 0-43.008 9.728-57.344 23.552 0 0-0.512 0.512-1.024 1.024-18.432 16.896-84.48 69.632-171.52 69.632h-40.448c-100.352 0-171.52-69.12-172.032-70.144-13.824-13.312-38.4-23.552-57.856-23.552h-22.016l5.12-6.656c7.68-9.728 9.728-21.504 6.144-32.256-3.072-10.24-12.288-17.92-24.576-20.992 0 0 0 0-0.512 0-10.24-6.144-15.872-22.016-15.872-45.056v-107.008c0-25.088 77.824-46.080 133.632-51.2h2.56v-1.024c4.096 1.024 7.68 1.024 10.24 1.024zM150.016 275.436c-26.112 0-46.080 8.192-59.392 25.088-25.6 31.744-14.336 79.36-14.336 79.872l3.584 16.896 158.208-47.104 3.072-7.168c4.608-12.288 2.048-22.528-1.024-29.184-7.168-14.848-24.576-26.112-50.688-32.768-14.336-3.584-28.16-5.632-39.424-5.632zM83.968 391.148l-2.56-11.776c0-0.512-10.24-46.592 13.312-75.776 12.288-15.36 31.232-23.040 55.296-23.040 10.752 0 24.064 2.048 38.912 5.632 24.576 6.144 40.96 16.384 47.616 29.696 3.584 8.192 4.096 16.384 0.512 25.088v0.512l-2.048 4.096-151.040 45.568zM559.616 275.948c-11.264 0-25.088 2.048-39.936 5.632-26.624 6.144-43.52 17.408-50.688 32.768-2.56 6.656-5.12 16.896-0.512 29.184l3.584 7.168 1.024 0.512 155.648 47.104 3.072-17.408c0.512-2.048 11.776-48.64-13.312-79.872-13.824-16.896-33.28-25.088-58.88-25.088zM475.648 346.092l-2.048-4.608c-3.584-8.704-3.072-16.896 0-25.088 6.656-13.824 22.528-24.064 47.616-29.696 14.848-3.584 27.648-5.632 38.912-5.632 24.064 0 42.496 7.68 54.784 22.528 23.552 29.184 12.288 75.264 12.288 75.776l-2.048 11.776-149.504-45.056zM150.016 302.572c-17.408 0-30.208 4.608-38.4 14.848-8.192 9.728-11.776 24.064-10.752 41.984v3.072l118.272-34.816-3.072-3.072c-2.56-4.096-9.728-11.776-32.256-17.408-12.288-3.072-23.552-4.608-33.792-4.608zM105.984 355.82c0-15.36 3.072-27.136 9.728-35.328 7.168-8.704 18.432-12.8 34.304-12.8 9.728 0 20.48 1.536 32.768 4.608 17.92 4.096 25.088 9.728 27.648 12.8l-104.448 30.72zM559.616 302.572c-9.728 0-20.48 1.536-33.28 4.608-21.504 5.12-29.184 12.288-31.744 16.896h-16.384l129.536 38.912v-3.072c0.512-12.8-1.024-30.72-10.24-41.984v0c-7.68-10.24-20.48-15.36-37.888-15.36zM500.224 325.1c2.56-3.072 9.728-8.704 27.648-12.8 32.768-7.68 54.784-5.12 66.048 8.192 8.192 9.728 9.216 25.088 9.216 35.328l-102.912-30.72zM457.216 441.324h-207.872v31.744h207.872v-31.744zM254.464 446.444h197.632v21.504h-197.632v-21.504zM769.024 488.428c-60.928 0-118.784 14.336-162.304 39.936-45.056 26.624-70.144 62.976-70.144 102.4s25.088 75.264 70.144 102.4c43.52 25.6 101.376 39.936 162.304 39.936s118.784-14.336 162.304-39.936c45.056-26.624 70.144-62.976 70.144-102.4s-25.088-75.264-70.144-102.4c-43.52-25.6-100.864-39.936-162.304-39.936zM769.024 752.62c-57.344 0-111.104-13.312-151.552-37.376-38.912-23.040-59.904-52.736-59.904-84.48s21.504-61.44 59.904-84.48c40.448-24.064 94.208-37.376 151.552-37.376s111.104 13.312 151.552 37.376c38.912 23.040 59.904 52.736 59.904 84.48s-21.504 61.44-59.904 84.48c-39.936 24.064-93.696 37.376-151.552 37.376zM769.024 485.868c-61.44 0-119.296 14.336-163.84 40.448-46.080 27.136-71.168 64.512-71.168 104.448s25.6 76.8 71.168 104.448c44.032 26.112 102.4 40.448 163.84 40.448s119.296-14.336 163.84-40.448c46.080-27.136 71.168-64.512 71.168-104.448s-25.6-76.8-71.168-104.448c-44.544-26.112-102.4-40.448-163.84-40.448zM769.024 770.54c-60.416 0-117.76-13.824-160.768-39.424-44.544-26.624-69.12-62.464-69.12-100.352 0-38.4 24.576-73.728 69.12-100.352 43.52-25.6 100.352-39.424 160.768-39.424s117.76 13.824 160.768 39.424c44.544 26.624 69.12 62.464 69.12 100.352 0 38.4-24.576 73.728-69.12 100.352-43.008 25.6-100.352 39.424-160.768 39.424zM769.024 506.348c-57.856 0-112.128 13.312-153.088 37.888-39.424 23.552-60.928 54.272-60.928 86.528 0 32.768 21.504 63.488 60.928 86.528 40.96 24.576 95.232 37.888 153.088 37.888 58.368 0 112.64-13.312 153.088-37.888 39.424-23.552 60.928-54.272 60.928-86.528 0-32.768-21.504-63.488-60.928-86.528-40.96-24.576-95.232-37.888-153.088-37.888zM769.024 750.060c-56.832 0-110.080-13.312-150.016-36.864-37.888-22.528-58.88-51.712-58.88-82.432 0-30.208 20.992-59.392 58.88-82.432 39.936-24.064 93.696-36.864 150.016-36.864s110.080 13.312 150.016 36.864c37.888 22.528 58.88 51.712 58.88 82.432 0 30.208-20.992 59.392-58.88 82.432-39.424 23.552-92.672 36.864-150.016 36.864zM630.272 600.044l17.408 4.096c2.56-14.336 10.752-21.504 24.064-21.504 14.848 0.512 22.528 7.68 23.040 22.016 0 13.312-9.216 19.968-27.648 19.968-4.608 0-8.192 0-10.752 0v13.312c2.56 0 5.632 0 8.704 0 17.408 0 26.112 6.656 26.624 19.968-0.512 11.776-7.168 18.432-19.968 18.432s-20.48-7.168-22.528-20.992l-16.896 4.096c5.12 19.968 18.432 29.696 40.448 29.696 23.040-0.512 35.328-10.752 36.864-29.696-0.512-13.824-8.192-23.040-23.040-27.136 16.384-3.584 25.6-12.8 26.624-28.672-1.024-21.504-14.848-32.256-40.96-33.28-23.040-0.512-36.864 9.728-41.984 29.696zM670.72 567.788c-23.040 0-37.376 10.752-43.008 31.744l-0.512 2.56 22.528 5.12 0.512-2.56c2.56-12.8 9.216-19.456 21.504-19.456 13.312 0.512 19.968 6.656 20.48 19.456 0 11.776-8.192 17.408-25.088 17.408h-13.312v18.432h11.264c20.992 0 23.552 10.24 24.064 17.408-0.512 10.24-6.144 15.872-17.408 15.872-11.776 0-17.92-6.144-19.968-18.944l-0.512-2.56-22.016 5.12 0.512 2.56c5.632 20.992 19.968 31.744 43.008 31.744 30.72-0.512 38.4-17.92 39.424-32.256-0.512-12.8-6.656-22.016-17.408-27.136 13.312-5.12 19.968-14.848 20.992-28.672-1.024-23.040-15.872-34.816-43.52-35.84-0.512 0-1.024 0-1.536 0zM633.344 597.996c5.12-17.408 17.92-25.6 38.912-25.088 25.088 1.024 37.376 11.264 38.4 30.72-1.024 13.824-9.216 22.528-24.576 26.112l-10.24 2.048 10.24 2.56c13.824 3.584 20.48 11.776 20.992 24.576-1.536 17.408-12.8 26.624-34.304 27.136-19.968 0-31.744-8.192-37.376-25.088l11.776-3.072c3.072 13.312 11.264 20.48 24.576 20.48 13.824 0 22.016-7.168 22.528-20.992-0.512-14.848-10.24-22.528-29.184-22.528h-6.144v-7.68h8.192c25.088 0 30.208-12.288 30.208-22.528-0.512-15.872-9.216-24.064-25.6-24.576 0 0 0 0 0 0-13.824 0-23.040 7.168-26.112 20.992l-12.288-3.072zM768.512 689.132c27.136-0.512 40.96-20.48 40.96-59.904 0-39.936-13.824-59.392-40.96-59.392-27.648 0.512-41.472 19.968-41.472 59.392 0.512 38.912 14.336 58.88 41.472 59.904zM768.512 582.636c15.36-0.512 23.040 14.848 23.040 46.080 0.512 31.744-7.168 47.616-23.040 46.592-15.36 0.512-23.040-15.36-23.040-46.592s7.68-46.592 23.040-46.080zM768.512 567.276c-29.184 0.512-44.032 21.504-44.032 61.952 0.512 40.448 15.36 61.44 44.032 62.464v0c28.672-0.512 43.52-21.504 43.52-62.464s-14.848-61.952-43.52-61.952zM768.512 686.572c-25.6-1.024-38.4-19.968-38.912-57.344 0-37.888 12.8-56.32 38.912-56.832 25.6 0 38.4 18.432 38.4 56.832 0 37.888-12.8 56.832-38.4 57.344zM769.024 580.076c-0.512 0-1.024 0-1.536 0-5.632 0-10.24 2.048-13.824 5.632-7.68 7.168-11.264 21.504-11.264 43.008 0 22.016 3.584 36.352 11.264 44.032 4.096 3.584 8.704 5.632 14.336 5.12 5.632 0.512 10.752-1.536 14.848-5.12 7.68-7.168 11.264-21.504 10.752-44.032 0-22.016-3.584-35.84-11.264-43.008-3.072-3.584-7.68-5.632-13.312-5.632zM768.512 585.196v0c4.608 0 8.192 1.024 10.752 4.096 6.144 6.144 9.728 19.456 9.728 39.424 0.512 20.48-2.56 34.304-9.216 40.448-3.072 2.56-6.656 4.096-11.264 3.584-4.608 0-8.192-1.024-10.752-4.096-6.656-6.144-9.728-19.968-9.728-39.936s3.072-33.28 9.728-39.424c2.56-3.072 6.144-4.096 10.752-4.096v0zM865.28 689.132c27.136-0.512 40.96-20.48 40.96-59.904 0-39.936-13.824-59.392-40.96-59.392-27.648 0.512-41.472 19.968-41.472 59.392 0.512 38.912 14.336 58.88 41.472 59.904zM865.28 582.636c15.36-0.512 23.040 14.848 23.040 46.080 0.512 31.744-7.168 47.616-23.040 46.592-15.36 0.512-23.040-15.36-23.040-46.592s7.68-46.592 23.040-46.080zM865.28 567.276c-29.184 0.512-44.032 21.504-44.032 61.952 0.512 40.448 15.36 61.44 44.032 62.464v0c28.672-0.512 43.52-21.504 43.52-62.464s-14.848-61.952-43.52-61.952zM865.28 686.572c-25.6-1.024-38.4-19.968-38.912-57.344 0-37.888 12.8-56.32 38.912-56.832 25.6 0 38.4 18.432 38.4 56.832 0 37.888-12.8 56.832-38.4 57.344zM865.792 580.076c-0.512 0-1.024 0-1.536 0-5.632 0-10.24 2.048-13.824 5.632-7.68 7.168-11.264 21.504-11.264 43.008 0 22.016 3.584 36.352 11.264 44.032 4.096 3.584 8.704 5.632 14.336 5.12 5.632 0.512 10.752-1.536 14.848-5.12 7.68-7.168 11.264-21.504 10.752-44.032 0-22.016-3.584-35.84-11.264-43.008-3.072-3.584-7.68-5.632-13.312-5.632zM865.28 585.196v0c4.608 0 8.192 1.024 10.752 4.096 6.144 6.144 9.728 19.456 9.728 39.424 0.512 20.48-2.56 34.304-9.216 40.448-3.072 2.56-6.656 4.096-11.264 3.584-4.608 0-8.192-1.024-10.752-4.096-6.656-6.144-9.728-19.968-9.728-39.936s3.072-33.28 9.728-39.424c2.56-3.072 6.144-4.096 10.752-4.096v0z" />
<glyph unicode="&#xe92e;" glyph-name="ioc40" d="M512 959.98c-282.775 0-512-229.256-512-512 0-282.775 229.225-512 512-512s512 229.225 512 512c0 282.744-229.225 512-512 512zM512-19.498c-258.195 0-467.478 209.314-467.478 467.478s209.283 467.478 467.478 467.478 467.478-209.314 467.478-467.478-209.283-467.478-467.478-467.478zM751.49 332.347l-217.229 123.115v315.301c0 6.153-4.978 11.13-11.13 11.13h-22.261c-6.153 0-11.13-4.978-11.13-11.13v-333.913c0-2.319 0.866-4.359 2.072-6.122 0.958-1.948 2.288-3.679 4.298-4.823l233.43-132.329c5.349-3.030 12.151-1.144 15.181 4.205l10.945 19.355c3.061 5.38 1.175 12.182-4.174 15.212z" />
<glyph unicode="&#xe92f;" glyph-name="ioc41" d="M258.56 396.78h528.896c17.92 0 32.768 14.848 32.768 33.28s-14.848 33.28-32.768 33.28h-528.896c-17.92 0-32.768-14.848-32.768-33.28 0.512-18.432 14.848-33.28 32.768-33.28zM258.56 575.98h528.896c17.92 0 32.768 14.848 32.768 33.28s-14.848 33.28-32.768 33.28h-528.896c-17.92 0-32.768-14.848-32.768-33.28 1.024-18.432 14.848-33.28 32.768-33.28zM931.328 902.124h-840.192c-50.176 0-91.648-40.96-91.648-91.648v-783.36c0-50.176 40.96-91.648 91.648-91.648h840.192c50.176 0 90.624 40.96 90.624 91.648v783.872c1.024 50.176-39.936 91.136-90.624 91.136zM952.32 55.788c0-27.136-22.016-48.64-48.64-48.64h-784.384c-27.136 0-48.64 22.016-48.64 48.64v727.552c0 27.136 22.016 48.64 48.64 48.64h784.384c16.896 0 31.744-8.704 40.96-21.504 0.512-1.024 2.048-2.56 2.56-4.096 1.024-2.56 2.56-5.632 3.584-8.704 1.024-4.096 2.56-9.216 2.56-14.848v-727.040h-1.024zM787.968 274.412h-528.896c-17.92 0-32.768-14.848-32.768-33.28s14.848-33.28 32.768-33.28h528.896c17.92 0 32.768 14.848 32.768 33.28s-14.848 33.28-32.768 33.28z" />
<glyph unicode="&#xe930;" glyph-name="ioc42" d="M996.4 613.88h-95.7c-4.5 0-8.7-1.3-12.5-3.4l-43.2 130.1c-13.8 73.9-65.9 109.6-129.8 109.6h-405.5c-73.4 0-118-47.9-129.8-109.5l-43.3-130.4c-3.9 2.3-8.4 3.7-13.3 3.7h-95.8c-14.7 0-26.6-11.9-26.6-26.7v-23.1c0-14.7 11.9-26.7 26.6-26.7l36.3-6.2c-11.4-22.4-18-48-18-77.7l-13.4-153.4c0-4.5 0.3-9 0.9-13.6-0.5-2.8-0.9-5.7-0.9-8.6v-184.6c0-26.3 21.3-47.6 47.6-47.6h72.6c26.3 0 47.6 21.3 47.6 47.6v59.4h624.3v-59.4c0-26.3 21.3-47.6 47.6-47.6h72.6c26.3 0 47.6 21.3 47.6 47.6v184.5c0 3-0.4 5.9-0.9 8.6 0.5 4.6 0.9 9.1 0.9 13.6l-13.3 153.4c0 29.9-6.6 55.5-18.1 77.9l35.5 6.1c14.7 0 26.7 12 26.7 26.7v23.1c0 14.7-12 26.6-26.7 26.6v0zM212 641.28l31.7 84.4 0.5 1.9c3.1 17.1 10.2 20.1 20.6 33.3h496.2c10.5-13.5 17-17 19.9-33.1l32.2-86.5 11.8-47c-2.7-34.3-44-61.5-78.4-61.5h-467.9c-34.4 0-75.7 27.2-78.4 61.5l11.8 47zM234.2 240.080c-39.8 0-72 32.3-72 72.1s32.2 72 72 72 72.1-32.2 72.1-72c-0.1-39.8-32.3-72.1-72.1-72.1v0zM636.6 293.28v0c0-11.8-9.6-21.4-21.5-21.4h-202.1c-11.8 0-21.4 9.6-21.4 21.4v60.2c0 11.8 9.6 21.4 21.4 21.4h202.1c11.8 0 21.5-9.5 21.5-21.4v-60.2zM790.8 240.080c-39.8 0-72.1 32.3-72.1 72.1s32.3 72 72.1 72c39.8 0 72-32.2 72-72s-32.2-72.1-72-72.1v0z" />
<glyph unicode="&#xe931;" glyph-name="ioc43" d="M982.528 288.748h-829.952c-13.312 0-25.088 6.144-33.792 15.872l-109.568 137.216c-12.288 15.872-12.288 38.4 0 53.76l108.544 134.656c8.192 9.728 20.48 15.872 33.28 15.872h830.464c24.064 0 43.008-19.456 43.008-43.008v-271.872c1.024-23.040-18.432-42.496-41.984-42.496z" />
<glyph unicode="&#xe932;" glyph-name="ioc44" d="M860.378 826.765h-696.726c-41.642 0-75.547-33.902-75.547-75.545v-510.919c0-41.64 33.905-75.545 75.547-75.545h252.742l95.62-95.56 95.585 95.56h252.779c41.64 0 75.51 33.905 75.51 75.545v510.917c0 41.645-33.87 75.547-75.51 75.547zM877.748 727.998v-464.476c0-22.38-18.21-40.59-40.6-40.59h-257.63l-67.507-67.57-67.537 67.57h-257.599c-22.412 0-40.625 18.21-40.625 40.59v464.476c0 22.412 18.212 40.622 40.625 40.622h650.273c22.39 0.001 40.6-18.209 40.6-40.622zM302.834 556.231h438.434c14.85 0 26.97 12.482 26.97 27.812 0 15.362-12.12 27.872-26.97 27.872h-438.434c-14.85 0-26.942-12.51-26.942-27.872 0-15.327 12.092-27.812 26.942-27.812zM741.268 463.401h-438.434c-14.85 0-26.942-12.51-26.942-27.84s12.092-27.84 26.942-27.84h438.434c14.85 0 26.97 12.51 26.97 27.84s-12.12 27.84-26.97 27.84zM860.378 826.765h-696.726c-41.642 0-75.547-33.902-75.547-75.545v-510.919c0-41.64 33.905-75.545 75.547-75.545h252.742l95.62-95.56 95.585 95.56h252.779c41.64 0 75.51 33.905 75.51 75.545v510.917c0 41.645-33.87 75.547-75.51 75.547zM877.748 727.998v-464.476c0-22.38-18.21-40.59-40.6-40.59h-257.63l-67.507-67.57-67.537 67.57h-257.6c-22.412 0-40.625 18.21-40.625 40.59v464.476c0 22.412 18.212 40.622 40.625 40.622h650.273c22.391 0.001 40.601-18.209 40.601-40.622zM302.834 556.231h438.434c14.85 0 26.97 12.482 26.97 27.812 0 15.362-12.12 27.872-26.97 27.872h-438.434c-14.85 0-26.942-12.51-26.942-27.872 0-15.327 12.092-27.812 26.942-27.812zM741.268 463.401h-438.434c-14.85 0-26.942-12.51-26.942-27.84s12.092-27.84 26.942-27.84h438.434c14.85 0 26.97 12.51 26.97 27.84s-12.12 27.84-26.97 27.84zM860.378 826.765h-696.726c-41.642 0-75.547-33.902-75.547-75.545v-510.919c0-41.64 33.905-75.545 75.547-75.545h252.742l95.62-95.56 95.585 95.56h252.779c41.64 0 75.51 33.905 75.51 75.545v510.917c0 41.645-33.87 75.547-75.51 75.547zM877.748 727.998v-464.476c0-22.38-18.21-40.59-40.6-40.59h-257.63l-67.507-67.57-67.537 67.57h-257.6c-22.412 0-40.625 18.21-40.625 40.59v464.476c0 22.412 18.212 40.622 40.625 40.622h650.273c22.391 0.001 40.601-18.209 40.601-40.622zM302.834 556.231h438.434c14.85 0 26.97 12.482 26.97 27.812 0 15.362-12.12 27.872-26.97 27.872h-438.434c-14.85 0-26.942-12.51-26.942-27.872 0-15.327 12.092-27.812 26.942-27.812zM741.268 463.401h-438.434c-14.85 0-26.942-12.51-26.942-27.84s12.092-27.84 26.942-27.84h438.434c14.85 0 26.97 12.51 26.97 27.84s-12.12 27.84-26.97 27.84z" />
<glyph unicode="&#xe933;" glyph-name="ioc45" d="M995.84 827.372l-104.96 104.96c-17.408 17.408-42.496 27.648-68.608 27.648 0 0 0 0 0 0-26.112 0-51.2-10.24-68.608-27.648l-85.504-100.864-457.728-438.784-30.72-266.752 18.432-15.872 257.536 35.328h2.048l437.76 459.264 100.864 82.432c36.864 36.864 36.864 102.912-0.512 140.288zM302.080 368.108l400.896 399.36 128.512-129.024-398.336-401.92-131.072 131.584zM263.68 194.028l6.656 105.472 97.28-97.28-103.936-8.192zM945.152 740.844l-57.344-57.344-140.8 140.8 57.344 57.344c4.608 4.608 11.264 7.168 17.92 7.168s13.312-2.56 17.92-7.168l104.96-104.96c10.24-9.728 10.24-26.112 0-35.84zM900.096 522.22c-19.456 0-34.816-15.872-34.816-36.352v-409.6c0-38.912-30.208-70.144-67.072-70.144h-643.072c-37.376 0-82.944 32.256-82.944 70.144v645.12c0 36.864 44.032 79.36 82.944 79.36h346.112c20.48 0 36.352 15.36 36.352 34.816s-15.872 34.816-36.352 34.816h-346.112c-85.504 0-153.088-65.536-153.088-148.992v-645.12c0-81.408 64.512-140.288 153.088-140.288h643.072c83.456 0 137.216 55.296 137.216 140.288v409.6c-0.512 20.48-15.872 36.352-35.328 36.352z" />
<glyph unicode="&#xe934;" glyph-name="ioc46" d="M512 894.69c-197.187 0-357.038-159.851-357.038-357.038 0-197.192 279.801-498.97 279.801-498.97 42.657-49.793 112.469-50.057 154.709 0.265 0 0 279.566 301.514 279.566 498.705 0 197.187-159.847 357.038-357.038 357.038v0 0zM512 383.893c-91.232 0-165.167 73.943-165.167 165.167s73.936 165.167 165.167 165.167c91.224 0 165.163-73.944 165.163-165.167s-73.939-165.167-165.163-165.167v0 0z" />
<glyph unicode="&#xe935;" glyph-name="ioc47" d="M762.2 807.080c19.9 19.9 19.9 52.3 0 72.2s-52.3 19.9-72.2 0l-397.2-397.2c-19.9-19.9-19.9-52.3 0-72.2 0.9-0.9 1.9-1.8 2.9-2.7 0.9-1.1 1.9-2.2 3-3.3l387.9-387.9c19.5-19.5 51.1-19.5 70.5 0 19.5 19.5 19.5 51.1 0 70.5l-357.7 357.7 362.8 362.9z" />
<glyph unicode="&#xe936;" glyph-name="ioc48" d="M340.154 424.707l421.050 421.050c9.076 9.076 9.076 23.831 0 32.908s-23.831 9.076-32.908 0l-437.481-437.481c-9.076-9.076-9.076-23.831 0-32.908l437.481-437.481c9.076-9.076 23.831-9.076 32.908 0s9.076 23.831 0 32.908l-421.050 421.004z" />
<glyph unicode="&#xe937;" glyph-name="ioc49" d="M958.6 147.58c0-90.6-224.7-137.9-446.6-137.9s-446.6 47.4-446.6 137.9c0 80.4 173.1 113.9 247.5 124.5 11 1.5 21.3-6.1 22.9-17.2s-6.1-21.3-17.2-22.9c-155-22.2-212.7-63.6-212.7-84.5 0-39.7 158.2-97.5 406.1-97.5s406.1 57.7 406.1 97.5c0 21-58.3 62.6-214.8 84.7-11.1 1.6-18.8 11.8-17.2 22.9s11.8 18.7 22.9 17.2c75-10.5 249.6-43.9 249.6-124.7v0zM426.4 628.38c0 47.2 38.4 85.6 85.6 85.6s85.7-38.4 85.7-85.6-38.4-85.6-85.7-85.6c-47.2 0-85.6 38.4-85.6 85.6v0zM638.1 628.38c0 69.5-56.6 126.1-126.1 126.1s-126.1-56.6-126.1-126.1c0-69.5 56.6-126.1 126.1-126.1s126.1 56.6 126.1 126.1v0zM512 845.78c124.5 0 225.9-101.3 225.9-225.8 0-172.6-174.9-366.4-226-419.4-51.2 52-225.7 242-225.7 419.4 0 124.5 101.3 225.8 225.8 225.8v0zM498.2 157.18l14-13.1 13.8 13.2c10.3 9.9 252.3 244.2 252.3 462.6 0 146.9-119.5 266.3-266.3 266.3s-266.3-119.5-266.3-266.3c0-224.2 242.2-453 252.5-462.7v0zM512 7.080c-223.2 0-449.1 48.3-449.1 140.5 0 82.4 174.6 116.3 249.7 127.1 12.4 1.8 24-6.9 25.8-19.3 0.9-6-0.7-12-4.3-16.9-3.7-4.9-9-8-15-8.9-145.2-20.8-210.5-60.4-210.5-81.9 0-19.1 42.5-43.1 108.2-61.2 79.1-21.8 184-33.7 295.3-33.7s216.2 12 295.4 33.7c65.7 18.1 108.2 42.1 108.2 61.2 0 21.7-66 61.5-212.6 82.2-6 0.9-11.4 4-15 8.9-3.7 4.9-5.2 10.9-4.4 16.9 1.8 12.4 13.3 21 25.7 19.4 75.7-10.7 251.8-44.6 251.8-127.4v0c0-92.3-226-140.6-449.2-140.6zM315.7 269.78c-0.8 0-1.6-0.1-2.5-0.2-221.3-31.7-245.2-95.9-245.2-122 0-51.5 75.2-83.1 138.2-100.5 80.3-22.1 191.8-34.8 305.8-34.8s225.5 12.7 305.8 34.9c63 17.4 138.2 49 138.2 100.5 0 26.2-24.1 90.7-247.4 122.3-9.6 1.3-18.6-5.4-20-15-0.7-4.7 0.5-9.3 3.4-13.1 2.8-3.8 7-6.2 11.7-6.9 159.2-22.5 217-64.5 217-87.3 0-41.8-155.5-100-408.7-100s-408.7 58.3-408.7 100c0 22.6 57.2 64.4 214.9 87 4.7 0.7 8.8 3.1 11.6 6.9s4 8.4 3.4 13.1c-1.2 8.7-8.8 15.1-17.5 15.1zM512.2 140.58l-15.8 14.7c-10.3 9.7-253.3 239.5-253.3 464.7 0 148.3 120.6 268.9 268.9 268.9s268.9-120.6 268.9-268.9c0-219.4-242.8-454.5-253.1-464.4l-15.6-15zM499.9 159.080l12.2-11.4 12.1 11.6c10.3 9.8 251.5 243.4 251.5 460.7 0 145.4-118.3 263.8-263.8 263.8-145.4 0-263.8-118.3-263.8-263.8 0.1-223.1 241.5-451.3 251.8-460.9v0zM511.8 196.98l-1.8 1.9c-53.1 53.8-226.4 243.4-226.4 421.1 0 125.9 102.5 228.4 228.4 228.4s228.4-102.5 228.4-228.4c0-172.8-173.6-366-226.7-421.1l-1.9-1.9zM512 843.28c-123.1 0-223.3-100.2-223.3-223.3 0-173.7 168.3-359.8 223.1-415.7 54.9 57.2 223.5 246.7 223.5 415.7 0 123.1-100.2 223.3-223.3 223.3zM512 499.68c-70.9 0-128.7 57.7-128.7 128.7s57.7 128.7 128.7 128.7c71 0 128.7-57.7 128.7-128.7s-57.8-128.7-128.7-128.7zM512 751.98c-68.1 0-123.5-55.4-123.5-123.6 0-68.1 55.4-123.6 123.5-123.6s123.6 55.4 123.6 123.6c0 68.1-55.5 123.6-123.6 123.6zM512 540.18c-48.6 0-88.2 39.6-88.2 88.2s39.6 88.2 88.2 88.2c48.6 0 88.2-39.6 88.2-88.2s-39.6-88.2-88.2-88.2zM512 711.48c-45.8 0-83.1-37.3-83.1-83.1s37.3-83.1 83.1-83.1c45.8 0 83.1 37.3 83.1 83.1s-37.3 83.1-83.1 83.1z" />
<glyph unicode="&#xe938;" glyph-name="ioc50" d="M273.080 652.64l326.2 300c10 9.3 26.2 9.3 36.2 0l252.8-235.9c4.8-4.4 7.5-10.5 7.5-16.9s-2.7-12.4-7.5-16.9l-34.9-30.3c-32.4-1.6-38.3-2.7-68.3 0l48.9 47.2-216.6 202.1-276-249.3c-37.8-0.4-37.6-1.8-68.3 0zM170.68 652.64l189.7 295.4c7.1 11.3 22.6 15.3 34.9 8.7l150.8-65.2c-29.2-27.7-16.2 2.9-68.3-34.1l-86 46.1-152.9-250.9c-45.6-1.3-40.9 1.2-68.2 0zM895.98-63.76h-767.9c-70.6 0-128 53.6-128 119.5v498.2c0 65.8 65.9 98.8 136.5 98.8h750.8c70.6 0 136.5-33 136.5-98.8v-498.2c0.1-65.9-57.4-119.5-127.9-119.5v0 0zM142.28 584.84c-40.8 0-74-12.6-74-49.3v-482.3c0-36.7 33.2-49.3 74-49.3h739.4c40.8 0 74 12.6 74 49.3v482.3c0 36.7-33.2 49.3-74 49.3h-739.4zM734.080 209.24c-65.9 0-119.5 53.7-119.5 119.6s53.6 119.6 119.5 119.6c65.8 0 119.5-53.7 119.5-119.6-0.1-65.9-53.7-119.6-119.5-119.6v0 0zM733.98 388.14c-33 0-59.8-26.8-59.8-59.8 0-32.9 26.9-59.7 59.8-59.7s59.8 26.8 59.8 59.7c0.1 33-26.8 59.8-59.8 59.8v0 0z" />
<glyph unicode="&#xe939;" glyph-name="ioc51" d="M476.2 814.98v-484.8h71.7v491.7l108-107.4 53.1 52.7-191.9 192.8-199.2-182.8 50.1-56.2 108.2 94zM0 879.78v-852.5c0-50.4 45.8-91.3 102.1-91.3h819.8c56.3 0 102.1 41 102.1 91.3v829.6c0 50.6-37.5 103.1-93.2 103.1h-292.6l73.8-71.7h170.8c32.7 0 46.9-2.3 56-11.8 9.5-9.7 8.4-25.7 8.4-53.4v-748.6c0-19.9 1-34.5-7.9-45.9-9.3-11.9-25.5-15.8-56.6-15.8h-741.7c-61.6 0-65 19.7-65.1 51.5 0 4.2 0.9 7.5 0.9 12.1v746.5c0 27.7-1.2 43.8 8.2 53.6 9.2 9.5 23.2 11.9 55.9 11.9h170.9l85.6 71.7h-304.1c-56.7-0.1-93.3-30.5-93.3-80.3z" />
<glyph unicode="&#xe93a;" glyph-name="ioc52" d="M275 877.080c-111 0-200.9-90-200.9-200.9 0-111 90-200.9 200.9-200.9h201v200.9c0 111-90 200.9-201 200.9v0zM939.7 676.18c0 111-90 200.9-200.9 200.9s-201-90-201-200.9v-200.9h201c110.9 0 200.9 89.9 200.9 200.9v0zM74.1 212.48c0-111 90-200.9 200.9-200.9 111 0 200.9 89.9 200.9 200.9v200.9h-200.9c-110.9 0-200.9-89.9-200.9-200.9v0zM738.7 413.38h-201v-200.9c0-111 90-200.9 201-200.9s200.9 90 200.9 200.9c0.1 111-89.9 200.9-200.9 200.9v0z" />
<glyph unicode="&#xe93b;" glyph-name="ioc53" d="M934.38 785.94c-59.4 59.4-138.5 92.1-222.7 92.1s-163.3-32.7-222.7-92.1l-219.8-219.8c-14.2-14.2-14.2-37.3 0-51.5 6.9-6.9 16-10.7 25.7-10.7s18.9 3.8 25.7 10.7l219.8 219.8c45.6 45.6 106.5 70.8 171.2 70.8s125.5-25.1 171.2-70.8c94.4-94.4 94.4-248 0-342.4l-368.1-368.2-368.2 368.1c-94.4 94.4-94.4 248 0 342.4 45.6 45.6 106 70.7 170.3 70.7 11.6 0 23.4-0.8 35-2.5 1.7-0.3 3.4-0.4 5.2-0.4 18 0 33.5 13.5 36 31.3 2.8 19.9-11.1 38.4-31 41.2-14.7 2.1-29.6 3.2-44.4 3.2-33.3 0-66-5.1-97.3-15.2-47.6-15.4-89.8-41.2-125.4-76.7-122.8-122.8-122.8-322.6 0-445.4l393.9-393.9c6.9-6.9 16-10.7 25.7-10.7s18.9 3.8 25.7 10.7l393.9 393.9c123.1 122.8 123.1 322.6 0.3 445.4z" />
</font>
</defs>
</svg>
